<svg xmlns="http://www.w3.org/2000/svg" xmlns:xlink="http://www.w3.org/1999/xlink" width="1162" height="1138" viewBox="0 0 1162 1138">
  <defs>
    <clipPath id="clip-path">
      <rect id="Rectangle_22000" data-name="Rectangle 22000" width="1162" height="1138" transform="translate(0 0.187)" fill="#fff" stroke="#707070" stroke-width="1.5"/>
    </clipPath>
  </defs>
  <g id="Mask_Group_51" data-name="Mask Group 51" transform="translate(0 -0.187)" clip-path="url(#clip-path)">
    <g id="Group_4875" data-name="Group 4875" transform="translate(575.008 -621.011) rotate(45)">
      <g id="Group_4757" data-name="Group 4757" transform="translate(589.809 1010.116)">
        <g id="Group_4459" data-name="Group 4459" transform="translate(0)">
          <path id="Path_47236" data-name="Path 47236" d="M0,0H.048L.012.036Z" transform="translate(10.634 70.519)" fill="none" stroke="#ededed" stroke-width="1.5"/>
          <path id="Path_47237" data-name="Path 47237" d="M52.9,9.136l-4.755-.247v.048l-3.182-.151h-.115a.234.234,0,0,0,.012-.084l-6.567-.338-.6-.036-3.17-.143c-.669-.036-1.318-.068-1.988-.1s-1.338-.072-2.019-.1C29.352,7.906,28.189,7.87,27,7.81c-3.134-.2-6.28-.318-9.415-.494-3.513-.151-6.073.53-7.766,2.15a.641.641,0,0,0-.127.1c-1.669,1.669-2.442,4.277-2.255,7.8.048,1.035.08,2.055.152,3.09l.247,4.827c.108,2.382.223,4.755.354,7.141.1,2.031.211,4.038.315,6.069.072,1.6.163,3.194.259,4.791.036.976.1,1.951.151,2.923.012.554.036,1.1.06,1.633.024.307.036.6.06.9.012.482.06.976.092,1.457l.1,2.183L9.8,59.448l.024.116.024.024v-.072a.447.447,0,0,0,.132.012l-.012.06a.3.3,0,0,1,.024.139v.024a.229.229,0,0,1-.083-.012H9.813l.008.036.036.012-.012.175c.247,2.409.295,4.759.446,7.073.072,1.171.18,2.334.342,3.485L9.507,70.38a7.852,7.852,0,0,1-2.6-.856,8.421,8.421,0,0,1-2.7-2.278,3.311,3.311,0,0,1-.422-.542,7.77,7.77,0,0,1-.752-1.2c-.115-.211-.223-.41-.319-.621-.2-.434-.363-.856-.514-1.29a1.658,1.658,0,0,1-.131-.414,11.875,11.875,0,0,1-.634-3.075c-.083-1.3-.175-2.62-.259-3.947C.932,52.482.745,48.795.558,45.107.4,42.395.263,39.67.088,36.958a5.867,5.867,0,0,1-.036-.788,40.8,40.8,0,0,1,.342-7.786,34.644,34.644,0,0,1,1.127-5.237c.338-1.115.737-2.194,1.175-3.266a32.177,32.177,0,0,1,5.8-9.017c.422-.494.849-.964,1.295-1.434a33.546,33.546,0,0,1,10.45-7.3A26.431,26.431,0,0,1,29.352.036c.41-.012.825-.024,1.246-.024.048,0,.1-.012.176-.012,4.839,0,9.7.116,14.56.307,2.669.1,5.333.235,7.989.374l7.527.386a10.286,10.286,0,0,1,7.1,3.067,10.073,10.073,0,0,1,1.88,2.489,9.043,9.043,0,0,1,.844,2.21c.107.478.187.96.247,1.442l.012.036H70.89c-1.151-.14-2.338-.247-3.544-.327-2.115-.167-4.289-.271-6.472-.438l-.012.012-4.524-.247L52.9,9.16Z" fill="none" stroke="#ededed" stroke-width="1.5"/>
        </g>
      </g>
      <g id="Group_4757-2" data-name="Group 4757" transform="translate(587.646 599.017)">
        <g id="Group_4459-2" data-name="Group 4459" transform="translate(0)">
          <path id="Path_47240" data-name="Path 47240" d="M61.128.88c-.705.729-1.434,1.434-2.21,2.091A33.14,33.14,0,0,1,50.7,8.184a25.993,25.993,0,0,1-9.112,2.091l-1.234.036a.82.82,0,0,0-.176.012c-4.863,0-9.714-.132-14.572-.319-2.669-.1-5.333-.235-7.989-.374l-7.539-.378a10.361,10.361,0,0,1-7.1-3.063A9.771,9.771,0,0,1,.259,1.478C.167.988.071.494,0,0,3.206.386,6.635.506,10.063.765L14.576,1l3.465.151v.024l4.744.235.012-.036,3.17.139.128.012a.33.33,0,0,0-.008.084l6.564.338.6.036,3.17.143c.661.02,1.318.067,1.987.1s1.326.06,2.019.1c1.151.068,2.326.116,3.513.175,3.134.2,6.28.315,9.407.482a13.4,13.4,0,0,0,5.13-.6A6.646,6.646,0,0,0,61.092.844Z" transform="translate(10.634 61.08)" fill="none" stroke="#ededed" stroke-width="1.5"/>
          <path id="Path_47241" data-name="Path 47241" d="M10.634,61.08l-1.127-.143a8.256,8.256,0,0,1-5.3-3.134,4.7,4.7,0,0,1-.422-.542,9.555,9.555,0,0,1-.753-1.195c-.115-.211-.223-.41-.326-.637-.187-.422-.366-.856-.506-1.279-.048-.139-.092-.283-.127-.41a11.744,11.744,0,0,1-.637-3.079c-.079-1.3-.175-2.616-.255-3.947C.937,43.04.745,39.356.546,35.656.419,32.944.268,30.228.076,27.5c-.024-.259-.024-.514-.032-.785a41.827,41.827,0,0,1,.362-7.786A32.3,32.3,0,0,1,1.522,13.7c.343-1.115.741-2.194,1.175-3.262A32.142,32.142,0,0,1,7.583,2.457c.3-.354.6-.693.916-1.035C8.922.928,9.344.458,9.8,0l.024.024a.582.582,0,0,0-.132.108A6.839,6.839,0,0,0,8.065,2.8a13.128,13.128,0,0,0-.625,5.133C7.488,8.937,7.524,9.984,7.6,11l.247,4.827c.107,2.386.215,4.767.342,7.153.107,2.031.211,4.038.318,6.073.08,1.585.163,3.194.255,4.791.036.972.1,1.947.156,2.923.024.537.036,1.091.056,1.633.023.3.036.6.06.9.012.482.06.976.1,1.454l.092,2.186L9.8,50.005l.048.33v.187C10.212,54.127,10.14,57.652,10.634,61.08Z" transform="translate(0)" fill="none" stroke="#ededed" stroke-width="1.5"/>
        </g>
      </g>
      <path id="Path_47242" data-name="Path 47242" d="M179.079,0,21.561,157.518.035,179.044,0,179.079" transform="translate(239.289 419.939)" fill="none" stroke="#ededed" stroke-width="1.5"/>
      <path id="Path_47243" data-name="Path 47243" d="M179.079,0l-.035.035L156.614,22.466,103.356,75.723,0,179.079" transform="translate(0 659.228)" fill="none" stroke="#ededed" stroke-width="1.5"/>
      <path id="Path_47244" data-name="Path 47244" d="M0,65.239a222.64,222.64,0,0,1,315.013,0c.386.39.784.789,1.163,1.187" transform="translate(262.729 1035.795)" fill="none" stroke="#ededed" stroke-width="1.5"/>
      <path id="Path_47247" data-name="Path 47247" d="M315.037,0l-.012.012C228.037,87,87,87,.012.012L0,0" transform="translate(260.85 577.455)" fill="none" stroke="#ededed" stroke-width="1.5"/>
      <path id="Path_47248" data-name="Path 47248" d="M476.672,527.139c.247,2.409.295,4.759.446,7.073-.8.586-1.6,1.171-2.381,1.749-.343.247-.658.493-1,.74q-11.219,8.262-22.983,15.325c-.47.283-.94.561-1.418.832a293.129,293.129,0,0,1-86.211,33.951,296.154,296.154,0,0,1-62.538,6.966h-2.6a298.055,298.055,0,0,1-150.8-41.49c-.283-.168-.566-.331-.836-.506a297.309,297.309,0,0,1-25.377-16.969.061.061,0,0,1-.048-.024l-.832-.622c-.132-.107-.259-.187-.39-.294.589-1.458-72.984-78.484-78.154-87.218A298.628,298.628,0,0,1,0,295.812v-1.43a297.176,297.176,0,0,1,10.813-79.237,292.325,292.325,0,0,1,29.443-69.531,285.357,285.357,0,0,1,16.9-25.636c.307-.446.645-.884.964-1.318.482-.669.988-1.362,1.493-2.031,2.135.163,4.321.259,6.5.422l4.52.247c11.5.553,54.621-52.857,54.27-53.868a1.53,1.53,0,0,0-.12-.4,9.375,9.375,0,0,0-.514-1.291c-.1-.211-.215-.426-.331-.637a7.724,7.724,0,0,0-.753-1.195,2.891,2.891,0,0,0-.422-.542,7.977,7.977,0,0,0-2.585-2.206l-.139-.072c.319-.247.621-.482.952-.717q11.446-8.351,23.509-15.48c.283-.187.6-.362.892-.538a292.389,292.389,0,0,1,87-33.776A296.532,296.532,0,0,1,295.833,0h.446A297.793,297.793,0,0,1,446.011,41.127c.187.1.375.215.554.318a298.41,298.41,0,0,1,25.684,17.089c.164.115.314.223.482.339a13.126,13.126,0,0,0-.625,5.134c.048,1.007.083,2.055.163,3.074l.247,4.827c.107,2.386.215,4.767.342,7.153.107,2.031.211,4.038.318,6.073.08,1.585.163,3.194.255,4.791.036.972.1,1.947.155,2.923.024.537.036,1.091.056,1.633.024.3.036.6.06.9.012.482.06.976.1,1.454l.092,2.186.578,7.057.048.33v.187c.362,3.6.291,7.129.785,10.558,3.206.387,6.635.506,10.064.765l4.513.235,3.465.151v.024l4.743.235.012-.036,3.17.139.128.012a.328.328,0,0,0-.008.084l6.564.338.6.036,3.17.143c.661.02,1.318.068,1.987.1s1.326.06,2.019.1c1.151.068,2.326.116,3.513.175,3.134.2,6.28.315,9.407.482a13.4,13.4,0,0,0,5.13-.6c.155.2.294.391.446.59.035.035.06.079.1.115.163.211.319.414.47.637a298.013,298.013,0,0,1,59.01,177.081c.012.247.012.482.012.717a297.12,297.12,0,0,1-11.071,80.83,292.691,292.691,0,0,1-30.287,70.547q-6.87,11.517-14.867,22.521c-.294.414-.613.825-.916,1.223-.825,1.127-1.645,2.23-2.489,3.361-2.115-.167-4.289-.271-6.471-.438l-.012.012-4.524-.247-3.437-.151,0-.024-4.755-.247v.048l-3.182-.151h-.115a.233.233,0,0,0,.012-.084l-6.567-.338-.6-.036-3.17-.143c-.669-.036-1.318-.068-1.988-.1s-1.338-.072-2.019-.1c-1.163-.079-2.326-.115-3.513-.175-3.134-.2-6.28-.319-9.415-.494-3.513-.152-6.073.53-7.766,2.151a.631.631,0,0,0-.127.1c-1.669,1.669-2.442,4.277-2.254,7.8.048,1.035.08,2.055.152,3.091l.247,4.827c.108,2.382.223,4.755.355,7.141.1,2.031.211,4.038.315,6.069.072,1.6.164,3.194.259,4.791.036.976.1,1.951.151,2.923.012.554.036,1.1.06,1.633.024.307.036.6.06.9.012.482.06.976.092,1.458l.1,2.182.573,7.061.024.115.024.024v-.072a.455.455,0,0,0,.132.012l-.012.06a.294.294,0,0,1,.024.139v.024a.23.23,0,0,1-.083-.012h-.092l.008.036.036.012Z" transform="translate(122.981 542.939)" fill="none" stroke="#ededed" stroke-width="1.5"/>
      <g id="Group_4757-3" data-name="Group 4757" transform="translate(599.686 1019.635)">
        <g id="Group_4459-3" data-name="Group 4459">
          <path id="Path_47251" data-name="Path 47251" d="M.326,3.521C.259,2.326.175,1.163,0,0L1.127.139a7.957,7.957,0,0,1,2.56.868C2.84,1.621,2,2.254,1.163,2.875.88,3.086.6,3.3.326,3.521Z" transform="translate(60.304 0.036)" fill="none" stroke="#ededed" stroke-width="1.5"/>
          <path id="Path_47252" data-name="Path 47252" d="M61.136.892A33.983,33.983,0,0,1,50.7,8.208a26.224,26.224,0,0,1-9.116,2.067c-.41.012-.808.036-1.23.036a.849.849,0,0,1-.179.012c-4.847.012-9.7-.115-14.584-.3q-3.978-.179-7.973-.366l-7.539-.4A10.34,10.34,0,0,1,2.983,6.2,9.687,9.687,0,0,1,1.1,3.688a1.139,1.139,0,0,1-.131-.247A8.947,8.947,0,0,1,.259,1.482C.163,1.012.08.53.012.036L0,0C.012.012.024,0,.044,0,1.115.132,2.23.235,3.333.331c.072,0,.151.012.223.012C5.7.506,7.877.6,10.064.765l4.52.247,3.453.139v.024l4.755.247V1.374l3.158.151h.143a.234.234,0,0,0-.012.084l6.563.342.6.036,3.17.139c.657.048,1.314.072,1.983.1s1.338.072,2.019.1c1.163.084,2.326.12,3.512.175,3.135.2,6.285.319,9.419.494,3.489.175,6.069-.53,7.75-2.139Z" transform="translate(0 60.244)" fill="none" stroke="#ededed" stroke-width="1.5"/>
          <line id="Line_339" data-name="Line 339" x1="0.059" y2="0.012" transform="translate(61.019 10.816)" fill="none" stroke="#ededed" stroke-width="1.5"/>
          <path id="Path_47253" data-name="Path 47253" d="M.832,10.781l-.012-.175C.574,8.268.53,5.966.386,3.712c0-.048-.012-.107-.012-.155C.3,2.362.223,1.2.048.036L.036,0,0,.036" transform="translate(60.256)" fill="none" stroke="#ededed" stroke-width="1.5"/>
          <path id="Path_47254" data-name="Path 47254" d="M0,49.264c1.071.132,2.186.235,3.289.331.072,0,.151.012.223.012,2.139.163,4.321.259,6.508.422l4.52.247,3.453.139v.024l4.755.247v-.048l3.158.155h.143a.205.205,0,0,0-.012.08l6.564.342.6.036,3.17.139c.657.048,1.314.072,1.983.1s1.338.072,2.02.1c1.163.084,2.326.12,3.512.175,3.135.2,6.285.319,9.419.494,3.488.175,6.069-.53,7.75-2.139a.574.574,0,0,0,.143-.116q2.5-2.5,2.254-7.8c-.06-1.024-.083-2.055-.167-3.079L63.04,34.3c-.1-2.382-.211-4.767-.339-7.149-.107-2.031-.211-4.042-.331-6.061-.068-1.6-.151-3.206-.247-4.8-.044-.963-.092-1.947-.152-2.923-.024-.542-.036-1.091-.072-1.621,0-.306-.02-.609-.044-.916-.012-.482-.06-.976-.1-1.458l-.1-2.17L61.092.132l-.023-.12c-.012.012-.012.012-.036-.012l.024.072" transform="translate(0.044 10.98)" fill="none" stroke="#ededed" stroke-width="1.5"/>
          <path id="Path_47255" data-name="Path 47255" d="M0,0" transform="translate(60.961 10.98)" fill="none" stroke="#ededed" stroke-width="1.5"/>
        </g>
      </g>
      <g id="Group_4757-4" data-name="Group 4757" transform="translate(1008.297 1019.671)">
        <g id="Group_4459-4" data-name="Group 4459" transform="translate(0)">
          <path id="Path_47260" data-name="Path 47260" d="M61.124.884c-.705.725-1.434,1.43-2.206,2.087A33.137,33.137,0,0,1,50.7,8.188a26.2,26.2,0,0,1-9.116,2.091l-1.231.032a.805.805,0,0,0-.175.012c-4.863,0-9.713-.127-14.576-.314-2.664-.108-5.333-.235-7.985-.378l-7.539-.374A10.352,10.352,0,0,1,2.971,6.189,9.761,9.761,0,0,1,.259,1.482C.163.988.071.494,0,0,3.206.39,6.635.506,10.064.765L14.572,1l3.465.151v.024l4.747.235.008-.036,3.174.143.127.012a.21.21,0,0,0-.012.08l6.564.342.6.036,3.17.14c.657.024,1.314.072,1.983.107s1.33.056,2.023.092c1.151.072,2.322.119,3.509.179,3.138.2,6.284.315,9.406.478a13.348,13.348,0,0,0,5.134-.6A6.631,6.631,0,0,0,61.088.848Z" transform="translate(10.637 61.077)" fill="none" stroke="#ededed" stroke-width="1.5"/>
          <path id="Path_47261" data-name="Path 47261" d="M10.637,61.076l-1.127-.14a8.281,8.281,0,0,1-5.3-3.134,5.1,5.1,0,0,1-.422-.541,9.539,9.539,0,0,1-.752-1.2c-.116-.211-.223-.41-.331-.633-.187-.422-.362-.856-.5-1.278-.048-.143-.1-.283-.132-.414a11.881,11.881,0,0,1-.633-3.074c-.083-1.3-.175-2.621-.259-3.947C.935,43.039.748,39.352.549,35.652.417,32.94.266,30.228.079,27.5c-.024-.259-.024-.518-.036-.788a41.85,41.85,0,0,1,.366-7.786A31.844,31.844,0,0,1,1.524,13.7c.339-1.115.737-2.195,1.175-3.266A32.392,32.392,0,0,1,7.582,2.453c.307-.35.6-.693.916-1.031C8.92.928,9.342.458,9.8,0l.024.024a.617.617,0,0,0-.127.1A6.832,6.832,0,0,0,8.064,2.8a13.043,13.043,0,0,0-.621,5.13C7.49,8.937,7.522,9.98,7.606,11l.247,4.827c.107,2.382.211,4.767.342,7.153.1,2.031.211,4.038.315,6.069.084,1.585.164,3.194.259,4.791.036.976.1,1.951.151,2.923.024.541.036,1.095.06,1.633.024.307.036.6.06.9.012.482.06.976.091,1.458l.1,2.182L9.8,50l.044.327v.187C10.215,54.127,10.143,57.648,10.637,61.076Z" transform="translate(0)" fill="none" stroke="#ededed" stroke-width="1.5"/>
        </g>
      </g>
      <path id="Path_47265" data-name="Path 47265" d="M65.24,316.175a222.64,222.64,0,0,1,0-315.012C65.626.777,66.028.378,66.426,0" transform="translate(1036.503 1103.336)" fill="none" stroke="#ededed" stroke-width="1.5"/>
      <path id="Path_47266" data-name="Path 47266" d="M0,0C.4.375.8.777,1.183,1.163a221.778,221.778,0,0,1,57.687,99.823,223.687,223.687,0,0,1-.554,117.33A221.581,221.581,0,0,1,1.183,316.175" transform="translate(577.566 1100.883)" fill="none" stroke="#ededed" stroke-width="1.5"/>
      <path id="Path_47268" data-name="Path 47268" d="M450.758,552.025c-.47.283-.94.565-1.422.836a295.273,295.273,0,0,1-148.745,40.913h-2.609a297.973,297.973,0,0,1-150.8-41.49c-.283-.164-.562-.327-.833-.5-8.678-5.181-99.636-96.394-104.8-105.132A298.646,298.646,0,0,1,0,295.815v-1.434a297.005,297.005,0,0,1,10.817-79.233A292.342,292.342,0,0,1,40.26,145.613a285.6,285.6,0,0,1,16.9-25.636c.307-.446.645-.88.964-1.314.482-.669.984-1.362,1.489-2.031,2.139.163,4.321.259,6.508.422l4.52.247,3.453.139v.024l4.755.247v-.048l3.158.151h.143a.235.235,0,0,0-.012.084l6.563.342.6.036,3.17.139c.657.048,1.314.072,1.983.1s1.338.072,2.019.1c1.163.084,2.326.12,3.512.175,3.135.2,6.285.319,9.419.494,3.488.175,6.069-.53,7.75-2.139l.035.036q.669-.7,1.3-1.442a32.25,32.25,0,0,0,5.791-9.009c.434-1.067.833-2.15,1.175-3.266A33.938,33.938,0,0,0,126.6,98.24a41.9,41.9,0,0,0,.339-7.786c-.008-.271-.012-.53-.032-.789q-.25-4.087-.469-8.148c-.192-3.688-.391-7.388-.626-11.075-.092-1.314-.175-2.617-.266-3.935a11.727,11.727,0,0,0-.638-3.075,1.546,1.546,0,0,0-.115-.4,9.916,9.916,0,0,0-.518-1.29c-.092-.211-.211-.422-.326-.633a8.082,8.082,0,0,0-.753-1.2,3.185,3.185,0,0,0-.422-.538,8.042,8.042,0,0,0-2.585-2.21l-.139-.072c.315-.247.621-.478.948-.713q11.452-8.352,23.513-15.48c.282-.187.6-.362.892-.542A292.359,292.359,0,0,1,232.394,6.582,296.544,296.544,0,0,1,295.836,0h.446A297.861,297.861,0,0,1,446.015,41.13c.187.1.374.211.55.319a297.077,297.077,0,0,1,25.683,17.085c.167.119.319.223.482.343a13.047,13.047,0,0,0-.621,5.129c.047,1.011.079,2.055.163,3.079l.247,4.827c.107,2.382.211,4.767.342,7.153.1,2.031.211,4.038.315,6.069.084,1.585.163,3.194.259,4.791.036.976.1,1.951.151,2.923.024.542.036,1.095.06,1.633.024.307.036.6.06.9.012.482.059.976.091,1.458l.1,2.182.578,7.061.044.327v.187c.366,3.608.294,7.129.789,10.558,3.206.39,6.635.506,10.064.765l4.508.235,3.465.151v.024l4.747.235.008-.036,3.174.143.127.012a.208.208,0,0,0-.012.08l6.564.342.6.036,3.17.14c.657.024,1.314.072,1.983.107s1.33.056,2.023.092c1.151.072,2.322.119,3.509.179,3.138.2,6.285.315,9.407.478a13.345,13.345,0,0,0,5.134-.6l.446.585c.036.036.06.084.092.12.167.211.319.41.47.633a297.672,297.672,0,0,1,47.611,96.37,297.828,297.828,0,0,1,11.4,80.715c.012.247.012.482.012.717a296.973,296.973,0,0,1-11.076,80.831,292.635,292.635,0,0,1-30.287,70.543q-6.87,11.524-14.867,22.526C537.283,472.991,458.6,547.306,450.758,552.025Z" transform="translate(543.631 963.59)" fill="none" stroke="#ededed" stroke-width="1.5"/>
      <g id="Group_4757-5" data-name="Group 4757" transform="translate(1009.748 590.18)">
        <g id="Group_4459-5" data-name="Group 4459" transform="translate(0)">
          <path id="Path_47276" data-name="Path 47276" d="M0,0H.048L.012.036Z" transform="translate(10.632 70.519)" fill="none" stroke="#ededed" stroke-width="1.5"/>
          <path id="Path_47277" data-name="Path 47277" d="M52.9,9.136l-4.755-.247v.048l-3.182-.155h-.119a.21.21,0,0,0,.012-.08L38.29,8.36l-.6-.036-3.171-.14-1.983-.107c-.669-.036-1.338-.068-2.019-.092C29.353,7.9,28.191,7.866,27,7.81c-3.134-.2-6.284-.319-9.419-.494-3.512-.155-6.073.526-7.762,2.147a.586.586,0,0,0-.132.108c-1.664,1.669-2.441,4.273-2.254,7.8.048,1.031.084,2.055.156,3.086l.247,4.827c.1,2.386.223,4.759.351,7.141.1,2.031.211,4.042.318,6.073.068,1.6.164,3.194.255,4.791.036.976.1,1.947.155,2.923.012.554.036,1.091.06,1.633.02.307.032.6.055.9.012.482.06.976.1,1.458l.092,2.182L9.8,59.444l.024.119.024.024v-.072a.419.419,0,0,0,.128.012l-.012.06a.277.277,0,0,1,.024.139v.024a.205.205,0,0,1-.08-.012h-.1l.012.036.036.012-.012.175c.247,2.41.295,4.755.446,7.069.068,1.175.175,2.338.339,3.489L9.5,70.38a7.894,7.894,0,0,1-2.592-.86,8.34,8.34,0,0,1-2.7-2.278,3.314,3.314,0,0,1-.422-.538,8.3,8.3,0,0,1-.753-1.2c-.116-.211-.223-.41-.314-.621-.2-.438-.366-.86-.518-1.294a1.616,1.616,0,0,1-.127-.41A11.74,11.74,0,0,1,1.436,60.1c-.079-1.3-.175-2.616-.255-3.943C.934,52.482.743,48.795.555,45.107.4,42.395.265,39.67.086,36.954a6.581,6.581,0,0,1-.032-.785,40.747,40.747,0,0,1,.339-7.786A35.041,35.041,0,0,1,1.52,23.147c.343-1.115.741-2.2,1.175-3.266a32.205,32.205,0,0,1,5.8-9.021c.422-.494.844-.964,1.29-1.434a33.742,33.742,0,0,1,10.45-7.3A26.634,26.634,0,0,1,29.353.032c.41-.012.821-.02,1.243-.02.048,0,.107-.012.175-.012,4.839,0,9.7.116,14.564.3C48,.41,50.668.538,53.321.681l7.527.386a10.276,10.276,0,0,1,7.1,3.066,9.978,9.978,0,0,1,1.88,2.489,9,9,0,0,1,.844,2.206,14.052,14.052,0,0,1,.247,1.446l.012.036h-.047c-1.151-.143-2.334-.247-3.545-.331-2.115-.163-4.285-.271-6.471-.434l-.012.012-4.52-.247L52.9,9.16Z" fill="none" stroke="#ededed" stroke-width="1.5"/>
        </g>
      </g>
      <g id="Group_4757-6" data-name="Group 4757" transform="translate(599.017 588.005)">
        <g id="Group_4459-6" data-name="Group 4459">
          <path id="Path_47278" data-name="Path 47278" d="M.808,61.057a.692.692,0,0,0,.143-.12,6.918,6.918,0,0,0,1.537-2.382l-.012-.012a12.359,12.359,0,0,0,.729-5.381c-.048-1.031-.1-2.067-.155-3.086L2.808,45.25c-.108-2.385-.227-4.759-.354-7.141-.108-2.031-.2-4.05-.319-6.073-.08-1.609-.163-3.194-.255-4.791-.036-.976-.083-1.959-.155-2.923-.012-.554-.036-1.091-.067-1.645-.012-.295-.012-.6-.036-.9-.024-.494-.072-.964-.107-1.446l-.092-2.182L.856,11.076l-.024-.119L.8,10.944v.072C.761,11,.717,11,.681,10.992l-.012-.06a.27.27,0,0,1,0-.14c.036-.012.048,0,.072,0H.784l.036-.012-.012-.036L.8,10.733V10.57C.41,6.942.494,3.405,0,0,.386.036.761.084,1.127.14A8.333,8.333,0,0,1,6.436,3.29a5.174,5.174,0,0,1,.422.537,9.991,9.991,0,0,1,.753,1.2c.115.211.223.41.314.621a12.742,12.742,0,0,1,.518,1.294c.048.139.1.283.127.41a11.738,11.738,0,0,1,.637,3.079c.08,1.3.175,2.616.255,3.943.247,3.676.438,7.364.637,11.064.128,2.712.279,5.424.47,8.152.024.255.024.514.032.785a41.8,41.8,0,0,1-.363,7.786,33.8,33.8,0,0,1-1.115,5.225c-.342,1.119-.741,2.2-1.175,3.266a32.378,32.378,0,0,1-5.074,8.2c-.235.283-.482.554-.729.824-.422.494-.844.964-1.3,1.422Z" transform="translate(61.116 10.311)" fill="none" stroke="#ededed" stroke-width="1.5"/>
          <path id="Path_47279" data-name="Path 47279" d="M61.116,10.311c-3.182-.386-6.623-.517-10.064-.764L46.54,9.311l-3.453-.139V9.148l-4.743-.259-.012.06-3.17-.163h-.119a.331.331,0,0,0-.008-.084l-6.567-.338-.586-.024L24.712,8.2c-.661-.048-1.318-.068-1.976-.116-.681-.024-1.35-.06-2.019-.1-1.175-.068-2.326-.115-3.524-.163-3.135-.2-6.281-.318-9.419-.494a13.476,13.476,0,0,0-4.883.518A6.92,6.92,0,0,0,.024,9.466L0,9.443A30.749,30.749,0,0,1,2.421,7.188a33.047,33.047,0,0,1,8.009-5.05A25.994,25.994,0,0,1,19.542.048c.422-.024.824-.024,1.235-.036A.812.812,0,0,0,20.952,0c4.863,0,9.714.128,14.584.307,2.657.116,5.321.247,7.985.374l7.531.386a10.355,10.355,0,0,1,7.093,3.055,9.777,9.777,0,0,1,2.724,4.719C60.961,9.335,61.044,9.817,61.116,10.311Z" fill="none" stroke="#ededed" stroke-width="1.5"/>
        </g>
      </g>
      <path id="Path_47282" data-name="Path 47282" d="M179.079,0,21.561,157.518.035,179.044,0,179.079" transform="translate(659.228)" fill="none" stroke="#ededed" stroke-width="1.5"/>
      <path id="Path_47283" data-name="Path 47283" d="M179.079,0l-.035.035-22.43,22.43L103.356,75.723,0,179.079" transform="translate(419.939 239.289)" fill="none" stroke="#ededed" stroke-width="1.5"/>
      <path id="Path_47285" data-name="Path 47285" d="M65.241,316.175a222.64,222.64,0,0,1,0-315.012C65.628.777,66.03.378,66.428,0" transform="translate(1035.789 262.746)" fill="none" stroke="#ededed" stroke-width="1.5"/>
      <path id="Path_47286" data-name="Path 47286" d="M0,0C.4.375.8.777,1.187,1.163a221.772,221.772,0,0,1,57.687,99.823,223.679,223.679,0,0,1-.553,117.33A221.615,221.615,0,0,1,1.187,316.175" transform="translate(574.682 261.307)" fill="none" stroke="#ededed" stroke-width="1.5"/>
      <path id="Path_47288" data-name="Path 47288" d="M476.676,527.142c.247,2.41.295,4.755.446,7.069q-1.2.884-2.385,1.752c-.338.247-.657.49-1,.737q-11.225,8.262-22.983,15.325c-.47.283-.94.565-1.422.836a295.267,295.267,0,0,1-148.745,40.913h-2.608a297.948,297.948,0,0,1-150.8-41.49c-.283-.163-.565-.327-.832-.5a298.815,298.815,0,0,1-25.381-16.97.054.054,0,0,1-.044-.024l-.836-.626c-.127-.1-.259-.187-.386-.291l-.012-.012a12.363,12.363,0,0,0,.729-5.381c-.048-1.031-.1-2.067-.156-3.086l-.243-4.827c-.108-2.386-.227-4.759-.354-7.141-.108-2.031-.2-4.05-.319-6.073-.08-1.609-.163-3.194-.255-4.791-.036-.976-.084-1.959-.155-2.923-.012-.554-.036-1.092-.067-1.645-.012-.295-.012-.6-.036-.9-.024-.494-.072-.964-.107-1.446l-.092-2.182-.566-7.069-.024-.119-.036-.012v.072c-.036-.012-.08-.012-.116-.024l-.012-.06a.272.272,0,0,1,0-.14c.036-.012.048,0,.072,0H118l.036-.012-.012-.036-.012-.012v-.163c-.386-3.628-.3-7.165-.8-10.57-3.182-.386-6.623-.517-10.064-.765l-4.512-.235-3.453-.139v-.024l-4.743-.259-.012.06-3.17-.163h-.119a.332.332,0,0,0-.008-.084l-6.567-.339-.586-.024-3.17-.143c-.661-.048-1.318-.068-1.975-.116-.681-.024-1.35-.059-2.019-.1-1.175-.068-2.326-.115-3.525-.163-3.135-.2-6.281-.318-9.419-.494a13.47,13.47,0,0,0-4.882.518c-.024-.024-.048-.072-.072-.1s-.024-.048-.048-.068l-.351-.494a296.707,296.707,0,0,1-47.209-96.087A298.014,298.014,0,0,1,0,295.815v-1.434a297.011,297.011,0,0,1,10.817-79.233,292.514,292.514,0,0,1,29.439-69.535,286.6,286.6,0,0,1,16.9-25.636c.3-.446.645-.88.964-1.314.478-.669.983-1.362,1.49-2.031,2.139.163,61.57-58.942,60.574-59.471l-.143-.072c.319-.247.626-.478.952-.713q11.452-8.352,23.513-15.48c.279-.187.6-.362.892-.541A292.317,292.317,0,0,1,232.394,6.582,296.548,296.548,0,0,1,295.836,0h.446A297.842,297.842,0,0,1,446.01,41.131c.191.1.379.211.554.319,8.785,5.213,100.348,96.637,105.645,105.6A298.063,298.063,0,0,1,593.8,297.966c.012.247.012.482.012.717a296.971,296.971,0,0,1-11.075,80.83,292.644,292.644,0,0,1-30.288,70.543q-6.87,11.523-14.867,22.525c-.294.41-.609.821-.916,1.223-.82,1.127-1.645,2.23-2.489,3.357-2.115-.163-4.285-.271-6.471-.434l-.012.012-4.52-.247-3.441-.151v-.024l-4.755-.247v.048l-3.182-.155h-.119a.209.209,0,0,0,.012-.08l-6.564-.342-.6-.036-3.17-.14-1.983-.108c-.669-.036-1.338-.068-2.019-.091-1.163-.084-2.326-.12-3.513-.175-3.135-.2-6.284-.319-9.419-.494-3.512-.155-6.073.526-7.762,2.147a.585.585,0,0,0-.132.108c-1.664,1.669-2.441,4.273-2.254,7.8.048,1.032.083,2.055.155,3.086l.247,4.827c.1,2.386.223,4.759.35,7.141.1,2.031.211,4.042.318,6.073.068,1.6.164,3.194.255,4.791.036.975.1,1.947.155,2.923.012.554.036,1.091.06,1.633.02.307.032.6.056.9.012.482.06.976.1,1.458l.091,2.182.577,7.057.024.12.024.024V526.7a.419.419,0,0,0,.128.012l-.012.06a.277.277,0,0,1,.024.139v.024a.2.2,0,0,1-.08-.012h-.1l.012.036.036.012Z" transform="translate(542.918 122.999)" fill="none" stroke="#ededed" stroke-width="1.5"/>
      <g id="Group_4757-7" data-name="Group 4757" transform="translate(1019.623 599.698)">
        <g id="Group_4459-7" data-name="Group 4459">
          <path id="Path_47291" data-name="Path 47291" d="M.33,3.525C.259,2.326.175,1.163,0,0L1.127.143a7.867,7.867,0,0,1,2.56.868C2.843,1.621,2,2.258,1.163,2.879.88,3.09.6,3.3.33,3.525Z" transform="translate(60.304 0.032)" fill="none" stroke="#ededed" stroke-width="1.5"/>
          <path id="Path_47292" data-name="Path 47292" d="M61.136.892A34.007,34.007,0,0,1,50.7,8.208a26.2,26.2,0,0,1-9.112,2.067c-.41.012-.813.036-1.235.036a.806.806,0,0,1-.175.012c-4.851.012-9.7-.12-14.584-.307-2.656-.115-5.309-.235-7.977-.362l-7.539-.4A10.361,10.361,0,0,1,2.983,6.2,9.7,9.7,0,0,1,1.1,3.688a1.636,1.636,0,0,1-.127-.247A8.762,8.762,0,0,1,.259,1.478C.164,1.008.084.526.012.036L0,0C.012.012.024,0,.048,0,1.115.128,2.23.235,3.337.327c.067,0,.151.012.223.012C5.7.506,7.882.6,10.064.761l4.524.247,3.449.143v.024l4.759.247V1.374l3.158.151h.139a.231.231,0,0,0-.012.084l6.567.338.6.036,3.17.143c.657.044,1.318.068,1.987.1s1.338.071,2.019.1c1.163.079,2.326.115,3.508.175,3.138.2,6.284.314,9.419.494,3.488.175,6.073-.53,7.754-2.139Z" transform="translate(0 60.244)" fill="none" stroke="#ededed" stroke-width="1.5"/>
          <line id="Line_347" data-name="Line 347" x1="0.059" y2="0.012" transform="translate(61.021 10.814)" fill="none" stroke="#ededed" stroke-width="1.5"/>
          <path id="Path_47293" data-name="Path 47293" d="M.837,10.781.824,10.6C.578,8.264.53,5.966.39,3.707c0-.044-.012-.1-.012-.151C.307,2.358.223,1.195.048.032L.036,0,0,.032" transform="translate(60.256)" fill="none" stroke="#ededed" stroke-width="1.5"/>
          <path id="Path_47294" data-name="Path 47294" d="M0,49.264c1.067.128,2.182.235,3.289.327.067,0,.151.012.223.012,2.135.167,4.321.259,6.5.422l4.52.247,3.453.143v.024l4.759.247v-.048l3.158.151h.139a.232.232,0,0,0-.012.084l6.567.338.6.036,3.17.139c.657.048,1.318.072,1.987.108s1.338.071,2.019.1c1.163.079,2.326.115,3.508.175,3.138.2,6.285.314,9.419.494,3.488.175,6.074-.53,7.754-2.139a.991.991,0,0,0,.139-.115c1.669-1.669,2.417-4.278,2.254-7.8-.06-1.024-.083-2.059-.163-3.079L63.04,34.3c-.108-2.386-.211-4.767-.343-7.153-.1-2.031-.211-4.038-.326-6.058-.072-1.6-.151-3.206-.247-4.8-.048-.964-.1-1.951-.152-2.927-.024-.538-.036-1.091-.072-1.621,0-.3-.024-.609-.048-.916-.012-.478-.059-.972-.091-1.453L61.654,7.2,61.088.128l-.02-.115c-.012.012-.012.012-.036-.012l.024.068" transform="translate(0.048 10.98)" fill="none" stroke="#ededed" stroke-width="1.5"/>
          <path id="Path_47295" data-name="Path 47295" d="M0,0" transform="translate(60.961 10.98)" fill="none" stroke="#ededed" stroke-width="1.5"/>
        </g>
      </g>
      <g id="Group_4757-8" data-name="Group 4757" transform="translate(1019.67 1008.659)">
        <g id="Group_4459-8" data-name="Group 4459">
          <path id="Path_47298" data-name="Path 47298" d="M.812,61.053a.552.552,0,0,0,.139-.116,6.938,6.938,0,0,0,1.537-2.386l-.008-.012a12.285,12.285,0,0,0,.725-5.376c-.044-1.036-.092-2.067-.151-3.091l-.247-4.827c-.1-2.382-.223-4.755-.35-7.141-.107-2.031-.2-4.05-.319-6.069-.084-1.609-.163-3.194-.259-4.791-.036-.976-.079-1.963-.151-2.923-.012-.554-.036-1.1-.072-1.645-.012-.295-.012-.6-.036-.9-.024-.494-.067-.964-.1-1.446l-.1-2.182L.86,11.072l-.024-.116L.8,10.944v.072C.765,11,.717,11,.681,10.992l-.012-.06a.263.263,0,0,1,0-.139c.036-.012.047,0,.071,0H.789l.036-.012-.012-.036L.8,10.733V10.57C.414,6.938.494,3.405,0,0,.39.036.765.08,1.127.14A8.344,8.344,0,0,1,6.436,3.286a4.6,4.6,0,0,1,.422.542,9.343,9.343,0,0,1,.753,1.2c.119.211.223.41.319.621a12.511,12.511,0,0,1,.513,1.29c.048.143.1.283.132.414a11.858,11.858,0,0,1,.633,3.074c.084,1.3.175,2.621.259,3.947.247,3.676.434,7.364.633,11.064.132,2.712.283,5.424.47,8.148.024.259.024.518.036.788a41.844,41.844,0,0,1-.363,7.786,34.332,34.332,0,0,1-1.115,5.225c-.342,1.115-.741,2.194-1.175,3.266a32.5,32.5,0,0,1-5.074,8.2c-.235.283-.482.553-.729.82-.422.494-.844.964-1.3,1.422Z" transform="translate(61.112 10.311)" fill="none" stroke="#ededed" stroke-width="1.5"/>
          <path id="Path_47299" data-name="Path 47299" d="M61.112,10.311c-3.182-.39-6.623-.518-10.064-.765L46.54,9.311l-3.453-.14V9.148l-4.743-.259-.012.06-3.174-.167h-.116a.215.215,0,0,0-.012-.08l-6.563-.342-.589-.024L24.708,8.2c-.657-.048-1.314-.072-1.971-.119-.681-.024-1.35-.056-2.019-.092-1.175-.072-2.326-.12-3.525-.163-3.134-.2-6.284-.319-9.419-.494a13.509,13.509,0,0,0-4.886.514A6.964,6.964,0,0,0,.024,9.462L0,9.439A32.106,32.106,0,0,1,2.417,7.185a33.235,33.235,0,0,1,8.009-5.05A26.217,26.217,0,0,1,19.542.044c.422-.02.82-.02,1.23-.032A.85.85,0,0,0,20.952,0c4.859,0,9.709.127,14.584.3,2.652.12,5.321.247,7.985.379l7.527.386a10.342,10.342,0,0,1,7.093,3.055,9.777,9.777,0,0,1,2.724,4.719C60.961,9.335,61.045,9.817,61.112,10.311Z" fill="none" stroke="#ededed" stroke-width="1.5"/>
        </g>
      </g>
      <path id="Path_47304" data-name="Path 47304" d="M0,65.243a222.63,222.63,0,0,1,315.012,0c.386.386.785.785,1.163,1.183" transform="translate(1102.479 1038.495)" fill="none" stroke="#ededed" stroke-width="1.5"/>
      <path id="Path_47307" data-name="Path 47307" d="M315.036,0l-.012.012C228.041,87,87,87,.012.012L0,0" transform="translate(1100.733 578.875)" fill="none" stroke="#ededed" stroke-width="1.5"/>
      <path id="Path_47308" data-name="Path 47308" d="M450.754,552.026c-.47.283-.936.566-1.418.833a295.346,295.346,0,0,1-148.749,40.917h-2.6a298.048,298.048,0,0,1-150.8-41.49c-.283-.163-.566-.331-.836-.506a297.072,297.072,0,0,1-25.377-16.97.062.062,0,0,1-.048-.024l-.832-.621c-.132-.107-.259-.187-.391-.295l-.008-.012a12.285,12.285,0,0,0,.725-5.376c-.044-1.036-.092-2.067-.151-3.091l-.247-4.827c-.1-2.382-.223-4.755-.35-7.141-.107-2.031-.2-4.05-.319-6.069-.084-1.609-.163-3.194-.259-4.791-.036-.976-.079-1.963-.151-2.923-.012-.554-.036-1.1-.072-1.645-.012-.295-.012-.6-.036-.9-.024-.494-.067-.964-.1-1.445l-.1-2.182-.562-7.073-.024-.116-.036-.012v.072c-.036-.012-.084-.012-.119-.024l-.012-.06a.263.263,0,0,1,0-.139c.036-.012.047,0,.071,0H118l.036-.012-.012-.036-.012-.012v-.163c-.386-3.632-.307-7.165-.8-10.57-3.182-.39-6.623-.518-10.064-.765l-4.508-.235-3.453-.14v-.024l-4.743-.259-.012.06-3.174-.167h-.116a.214.214,0,0,0-.012-.08l-6.563-.342-.589-.024-3.17-.139c-.657-.048-1.314-.072-1.971-.119-.681-.024-1.35-.056-2.019-.092-1.175-.072-2.326-.119-3.525-.163-3.134-.2-6.284-.319-9.419-.494a13.508,13.508,0,0,0-4.886.514c-.024-.024-.048-.068-.068-.091s-.024-.048-.048-.072l-.354-.494A298.282,298.282,0,0,1,0,295.815v-1.434a297.145,297.145,0,0,1,10.813-79.233,292.358,292.358,0,0,1,29.443-69.536,285.409,285.409,0,0,1,16.9-25.636c.307-.446.65-.88.964-1.318.482-.669.988-1.362,1.493-2.031,2.135.167,4.321.259,6.5.422l4.524.247,3.449.143v.024l4.759.247v-.048l3.158.151h.139a.233.233,0,0,0-.012.083l6.567.338.6.036,3.17.143c.657.044,1.318.068,1.987.1s1.338.071,2.019.1c1.163.079,2.326.115,3.508.175,3.138.2,6.284.315,9.419.494,3.488.175,6.074-.53,7.754-2.139l.032.036c.446-.47.884-.952,1.306-1.446a32.269,32.269,0,0,0,5.791-9c.434-1.071.833-2.15,1.171-3.266a33.409,33.409,0,0,0,1.139-5.229,41.912,41.912,0,0,0,.342-7.786c-.012-.267-.012-.526-.036-.785-.163-2.724-.318-5.436-.47-8.152-.187-3.688-.386-7.384-.621-11.071-.1-1.318-.175-2.621-.271-3.935a11.9,11.9,0,0,0-.634-3.078,1.572,1.572,0,0,0-.12-.4,9.311,9.311,0,0,0-.513-1.29c-.1-.211-.215-.422-.331-.637a7.715,7.715,0,0,0-.753-1.195,2.9,2.9,0,0,0-.422-.542,7.984,7.984,0,0,0-2.585-2.206l-.14-.072c.319-.247.622-.482.952-.717Q132.446,48.021,144.5,40.9c.283-.191.6-.366.892-.542a292.392,292.392,0,0,1,87-33.776A296.525,296.525,0,0,1,295.833,0h.446A297.748,297.748,0,0,1,446.011,41.131c.187.092.375.211.554.314,8.781,5.213,100.349,96.641,105.645,105.6a298.1,298.1,0,0,1,41.582,150.915c.012.247.012.482.012.717a297.171,297.171,0,0,1-11.071,80.834,292.719,292.719,0,0,1-30.288,70.543C547.865,457.734,458.6,547.306,450.754,552.026Z" transform="translate(963.572 543.652)" fill="none" stroke="#ededed" stroke-width="1.5"/>
    </g>
  </g>
</svg>
