<svg xmlns="http://www.w3.org/2000/svg" width="44.626" height="45.979" viewBox="0 0 44.626 45.979">
  <g id="Group_4731" data-name="Group 4731" transform="translate(-410.539 -358.713)">
    <path id="Path_47222" data-name="Path 47222" d="M466.612,372.238l.092.093c.373.371.746.742,1.124,1.111.691.674,1.391,1.338,2.108,1.983.008.008.019.013.027.021.061.057.125.107.188.162s.152.12.229.177a5.567,5.567,0,0,0,1.121.639c.1.044.2.082.3.12a7.747,7.747,0,0,0,3.025.4,7.374,7.374,0,0,0,2.185-.43c.112-.042.223-.086.333-.133s.215-.095.323-.145a6.621,6.621,0,0,0,.813-.462c.042-.027.085-.055.126-.084a8.488,8.488,0,0,0,1.2-.991c.038-.036.076-.072.112-.11.375-.386.755-.767,1.134-1.149.516-.4,1.033-.8,1.54-1.2h-.345c.116-.116.232-.234.345-.352.184-.188.363-.373.544-.561a2.167,2.167,0,0,0,.36-.493.276.276,0,0,0,.04-.072,1.744,1.744,0,0,0,.116-.24,1.037,1.037,0,0,0,.046-.126,1.7,1.7,0,0,0,.065-.259.657.657,0,0,0,.017-.129,1.455,1.455,0,0,0-.316-1.123c-.447-.533-.995-1.062-1.52-1.61h0l-.632-.634-.489-.478,0,0-.664-.664-.459-.466-.516-.516-.487-.487-.1-.095-.35-.346c-.036-.036-.072-.074-.11-.11-.055-.057-.112-.112-.167-.169-.095-.093-.188-.185-.285-.282-.16-.164-.325-.325-.493-.489-.434-.447-.881-.881-1.317-1.319a1.868,1.868,0,0,0-2.982-.015c-.143.143-.291.287-.432.432l-.676.677c-.335.331-.673.664-1.005,1l-.848.849c-.12.12-.238.238-.354.356s-.213.213-.318.318c-.137.135-.274.272-.409.409l-.229.226c-.044.042-.087.084-.126.129-.07.067-.137.137-.2.207l-.308.3-1,1.069-.025.023c-.548.607-1.165,1.121-1.625,1.741a1.7,1.7,0,0,0-.291.991,1.833,1.833,0,0,0,.594,1.351Z" transform="translate(-41.644 -1)" fill="none" stroke="#4b58aa" stroke-width="1.5"/>
    <path id="Path_47223" data-name="Path 47223" d="M482.421,488.385q-.56-.556-1.126-1.111c-.691-.674-1.389-1.336-2.106-1.983a.243.243,0,0,1-.029-.021c-.061-.055-.122-.107-.186-.16-.044-.036-.091-.072-.135-.105-.1-.078-.2-.152-.306-.217-.063-.044-.131-.089-.2-.129a5.319,5.319,0,0,0-.58-.316v.01a4.6,4.6,0,0,0-.438-.181,7.753,7.753,0,0,0-3.025-.4,7.39,7.39,0,0,0-2.188.43c-.221.084-.44.175-.655.278a6.992,6.992,0,0,0-.938.546,8.489,8.489,0,0,0-1.2.991c-.038.036-.076.072-.112.11q-.383.392-.769.78l-.057.057c-.1.105-.207.207-.308.312q-.421.42-.841.843l-.057.057c-.215.217-.43.436-.643.655l-.546.561a2.154,2.154,0,0,0-.358.493.322.322,0,0,0-.042.072,1.746,1.746,0,0,0-.116.24,1.218,1.218,0,0,0-.044.126,1.506,1.506,0,0,0-.065.261.63.63,0,0,0-.019.126,1.448,1.448,0,0,0,.318,1.123c.447.535.995,1.062,1.52,1.61h0l.63.634.489.478,0,0,.666.666.008-.006.445.443.017.017a.023.023,0,0,0-.011.011l1,1,.447.441c.093.093.186.185.276.278s.189.188.284.282c.163.164.327.325.5.491l.066.065,1.14,1.14,0,0c.038.036.074.074.11.11a2.16,2.16,0,0,0,1.5.75,2.136,2.136,0,0,0,1.484-.736c.144-.143.289-.287.43-.432l.679-.677c.219-.217.438-.432.658-.653.116-.114.232-.228.346-.344.284-.285.567-.565.849-.849.223-.225.449-.449.67-.674.137-.135.274-.272.409-.409.078-.076.156-.15.232-.225.042-.042.085-.084.126-.129.07-.067.135-.137.2-.207l.255-.251.053-.053,1.153-1.227.055-.059a17.543,17.543,0,0,0,1.444-1.547,1.681,1.681,0,0,0,.293-.991,1.842,1.842,0,0,0-.6-1.351Z" transform="translate(-41.86 -96.311)" fill="none" stroke="#4b58aa" stroke-width="1.5"/>
    <path id="Path_47224" data-name="Path 47224" d="M426.418,432.239c.034-.032.065-.065.1-.1l.012-.013c.055-.057.11-.114.162-.171a.421.421,0,0,0,.042-.046,7.851,7.851,0,0,0,1.332-1.922c.017-.036.034-.072.051-.11a7.212,7.212,0,0,0,.656-2.734,6.536,6.536,0,0,0-1.5-4.864c-.008-.008-.015-.021-.023-.03-1-1.107-2.04-2.173-3.094-3.231l-1.054-1.054a1.843,1.843,0,0,0-1.353-.6,1.682,1.682,0,0,0-.988.293,20.728,20.728,0,0,0-1.766,1.65l-.033.027-1.035.974-.3.308c-.07.065-.139.131-.207.2l-.126.126c-.065.065-.131.133-.2.2a.391.391,0,0,1-.029.032c-.164.162-.327.325-.489.487q-.3.294-.594.592c-.078.078-.158.156-.236.236q-.674.67-1.345,1.349l-.265.268-.679.679c-.143.141-.286.287-.43.43a2.14,2.14,0,0,0-.738,1.484,2.173,2.173,0,0,0,.75,1.5c.441.436.875.883,1.319,1.315.015.015.03.029.042.044.152.154.3.306.449.451.187.188.373.375.56.561l.441.447,1,1a.038.038,0,0,0,.008-.011l.019.017.443.445-.007.008.666.666,0,0,.478.489.042.042.59.588v0c.089.084.175.169.261.255.346.335.683.67,1.022.978.11.1.219.194.329.287a1.447,1.447,0,0,0,1.123.318.655.655,0,0,0,.127-.019,1.535,1.535,0,0,0,.261-.065c.042-.013.084-.027.126-.044a1.916,1.916,0,0,0,.24-.116.336.336,0,0,0,.071-.042,2.156,2.156,0,0,0,.493-.358c.725-.7,1.435-1.408,2.148-2.116C425.672,432.975,426.043,432.606,426.418,432.239Z" transform="translate(-1 -44.913)" fill="none" stroke="#4b58aa" stroke-width="1"/>
    <path id="Path_47225" data-name="Path 47225" d="M544.922,425.221c-.143-.143-.287-.289-.43-.43l-.679-.679-.266-.268q-.67-.68-1.345-1.349c-.078-.08-.158-.158-.236-.236q-.3-.3-.594-.592c-.162-.162-.325-.325-.489-.487a.389.389,0,0,1-.03-.032c-.065-.067-.131-.135-.2-.2l-.126-.126c-.067-.07-.137-.135-.206-.2l-.3-.308L539,419.356l-.017-.015-.034-.027-.025-.025c-.607-.548-1.119-1.165-1.741-1.625a1.683,1.683,0,0,0-.988-.293,1.843,1.843,0,0,0-1.353.6l-1.054,1.054c-1.054,1.058-2.1,2.124-3.094,3.231-.008.008-.015.021-.023.03a6.536,6.536,0,0,0-1.5,4.864,7.216,7.216,0,0,0,.655,2.734c.017.038.034.074.051.11a7.861,7.861,0,0,0,1.332,1.922.44.44,0,0,0,.042.046c.053.057.108.114.162.171l.013.013c.032.034.063.067.1.1.375.367.746.736,1.117,1.1.712.708,1.423,1.418,2.148,2.116a2.161,2.161,0,0,0,.493.358.339.339,0,0,0,.072.042,1.934,1.934,0,0,0,.24.116q.063.025.126.044a1.53,1.53,0,0,0,.261.065.657.657,0,0,0,.126.019,1.447,1.447,0,0,0,1.123-.318c.11-.093.219-.188.329-.287.339-.308.677-.643,1.022-.978.086-.086.173-.171.261-.255v0l.59-.588.042-.042.479-.489,0,0,.666-.666-.006-.008.443-.445.019-.017a.038.038,0,0,0,.008.011l1-1,.44-.447c.188-.185.373-.373.561-.561.15-.145.3-.3.449-.451.013-.015.027-.03.042-.044.445-.432.879-.879,1.319-1.315a2.172,2.172,0,0,0,.75-1.5A2.14,2.14,0,0,0,544.922,425.221Z" transform="translate(-91.244 -44.913)" fill="none" stroke="#4b58aa" stroke-width="1"/>
  </g>
</svg>
