<svg xmlns="http://www.w3.org/2000/svg" xmlns:xlink="http://www.w3.org/1999/xlink" width="1920.5" height="1042.672" viewBox="0 0 1920.5 1042.672">
  <defs>
    <clipPath id="clip-path">
      <rect id="Rectangle_22004" data-name="Rectangle 22004" width="1920" height="1040" fill="#fff" stroke="#707070" stroke-width="1"/>
    </clipPath>
  </defs>
  <g id="Group_4993" data-name="Group 4993" transform="translate(0 -37)">
    <line id="Line_154" data-name="Line 154" x2="1920" transform="translate(0.5 1078.922)" fill="none" stroke="#4b58aa" stroke-width="1.5"/>
    <g id="Mask_Group_53" data-name="Mask Group 53" transform="translate(0 37)" clip-path="url(#clip-path)">
      <g id="Group_4904" data-name="Group 4904" transform="translate(-1243.016 -1515.011)">
        <g id="Group_4757" data-name="Group 4757" transform="translate(980.941 1611.173)">
          <g id="Group_4459" data-name="Group 4459" transform="translate(0 0)">
            <path id="Path_47876" data-name="Path 47876" d="M1022.329,1440.839c-.13-2.215-.282-4.363-.608-6.512l2.084.261a14.519,14.519,0,0,1,4.732,1.606c-1.563,1.129-3.125,2.3-4.667,3.451C1023.349,1440.035,1022.828,1440.426,1022.329,1440.839Z" transform="translate(-910.256 -1434.26)" fill="none" stroke="#4b58aa" stroke-width="1.5"/>
            <path id="Path_47877" data-name="Path 47877" d="M1041.072,1529.486a62.824,62.824,0,0,1-19.3,13.523,48.548,48.548,0,0,1-16.844,3.822c-.759.021-1.5.064-2.279.064a1.644,1.644,0,0,1-.325.023c-8.966.021-17.931-.218-26.961-.566q-7.359-.325-14.739-.672l-13.936-.738a19.142,19.142,0,0,1-13.112-5.644,17.968,17.968,0,0,1-3.473-4.646,2.232,2.232,0,0,1-.238-.456,16.468,16.468,0,0,1-1.325-3.625q-.261-1.3-.456-2.67a.1.1,0,0,0-.021-.064c.021.02.043,0,.087,0,1.974.239,4.037.434,6.077.608.131,0,.283.023.413.023,3.951.3,7.989.477,12.026.781l8.357.456,6.383.261v.044l8.791.455c0-.043-.021-.064,0-.087l5.839.282h.261a.434.434,0,0,0-.021.152l12.135.63,1.107.065,5.86.261c1.215.087,2.432.131,3.668.2s2.476.13,3.734.173c2.149.153,4.3.218,6.491.326,5.8.37,11.612.587,17.409.912,6.447.326,11.223-.976,14.327-3.95Z" transform="translate(-928.066 -1416.478)" fill="none" stroke="#4b58aa" stroke-width="1.5"/>
            <line id="Line_500" data-name="Line 500" x1="0.109" y2="0.022" transform="translate(112.79 19.992)" fill="none" stroke="#4b58aa" stroke-width="1.5"/>
            <path id="Path_47878" data-name="Path 47878" d="M1023.189,1454.2l-.021-.325c-.456-4.32-.543-8.575-.8-12.742,0-.087-.021-.2-.021-.283-.13-2.214-.282-4.363-.608-6.511-.021-.021,0-.044-.021-.065l-.065.065" transform="translate(-910.27 -1434.271)" fill="none" stroke="#4b58aa" stroke-width="1.5"/>
            <path id="Path_47879" data-name="Path 47879" d="M928.139,1542.386c1.974.238,4.037.433,6.078.607.13,0,.282.021.412.021,3.951.3,7.989.478,12.026.782l8.357.456,6.382.261v.043l8.792.456c0-.043-.021-.064,0-.087l5.839.283h.261a.425.425,0,0,0-.021.151l12.134.63,1.107.065,5.862.261c1.215.087,2.432.13,3.668.2s2.474.13,3.734.174c2.149.151,4.3.217,6.491.325,5.795.369,11.612.587,17.408.912,6.447.326,11.222-.976,14.327-3.95a1.233,1.233,0,0,0,.26-.217c3.083-3.082,4.473-7.9,4.168-14.414-.108-1.889-.151-3.8-.3-5.687l-.456-8.923c-.2-4.406-.39-8.812-.63-13.219-.2-3.755-.39-7.467-.608-11.2-.13-2.953-.282-5.926-.456-8.879-.087-1.779-.174-3.6-.282-5.4-.043-1-.064-2.018-.13-3,0-.564-.044-1.128-.087-1.694-.021-.889-.108-1.8-.174-2.691l-.2-4.016-1.043-13.068-.043-.217c-.021.021-.021.021-.065-.023l.044.131" transform="translate(-928.052 -1431.028)" fill="none" stroke="#4b58aa" stroke-width="1.5"/>
            <path id="Path_47880" data-name="Path 47880" d="M1022.743,1451.325" transform="translate(-910.062 -1431.028)" fill="none" stroke="#4b58aa" stroke-width="1.5"/>
          </g>
        </g>
        <g id="Group_4757-2" data-name="Group 4757" transform="translate(981.028 2367.099)">
          <g id="Group_4459-2" data-name="Group 4459">
            <path id="Path_47883" data-name="Path 47883" d="M1024.55,2198.283a1.209,1.209,0,0,0,.261-.217,12.845,12.845,0,0,0,2.844-4.407l-.023-.021a22.745,22.745,0,0,0,1.346-9.941c-.087-1.911-.174-3.821-.282-5.709l-.456-8.922c-.2-4.407-.413-8.792-.651-13.2-.2-3.756-.369-7.489-.587-11.223-.151-2.973-.3-5.9-.477-8.856-.065-1.8-.151-3.625-.282-5.406-.021-1.019-.065-2.019-.131-3.038-.021-.543-.02-1.107-.064-1.671-.044-.911-.131-1.78-.2-2.671l-.173-4.037-1.043-13.067-.043-.218c-.044,0-.044,0-.066-.021v.13c-.064-.021-.152-.021-.217-.043l-.023-.108a.528.528,0,0,1,0-.261c.065-.023.087,0,.131,0h.087l.065-.023a.1.1,0,0,0-.022-.064l-.022-.022v-.3c-.716-6.708-.564-13.242-1.476-19.537q1.075.1,2.084.261a15.4,15.4,0,0,1,9.811,5.817,8.662,8.662,0,0,1,.782,1,17.944,17.944,0,0,1,1.389,2.213c.218.392.413.761.587,1.151a23.65,23.65,0,0,1,.955,2.387c.087.261.174.521.239.76a21.781,21.781,0,0,1,1.172,5.687c.152,2.41.325,4.84.477,7.293.456,6.794.8,13.611,1.172,20.448q.359,7.521.868,15.065c.044.477.044.956.065,1.454a77.357,77.357,0,0,1-.672,14.392,62.7,62.7,0,0,1-2.062,9.661c-.63,2.061-1.368,4.058-2.171,6.034a60.014,60.014,0,0,1-9.377,15.152c-.434.52-.889,1.02-1.346,1.519-.781.912-1.563,1.78-2.409,2.626Z" transform="translate(-910.09 -2066.37)" fill="none" stroke="#4b58aa" stroke-width="1.5"/>
            <path id="Path_47884" data-name="Path 47884" d="M1041.1,2088.473c-5.883-.715-12.243-.955-18.6-1.41l-8.336-.434-6.382-.261v-.043l-8.77-.477c0,.043-.021.064-.021.108l-5.862-.3h-.217a.425.425,0,0,0-.021-.151l-12.135-.63-1.084-.044-5.861-.26c-1.216-.088-2.432-.131-3.647-.218-1.259-.044-2.5-.108-3.734-.174-2.171-.129-4.3-.216-6.513-.3-5.8-.37-11.614-.587-17.409-.912a25,25,0,0,0-9.031.955,12.821,12.821,0,0,0-5.3,3l-.043-.042a57.8,57.8,0,0,1,4.471-4.168,61.2,61.2,0,0,1,14.8-9.334,48.2,48.2,0,0,1,16.844-3.863c.782-.043,1.52-.044,2.279-.065a1.593,1.593,0,0,0,.326-.022c8.987,0,17.951.238,26.96.564q7.359.325,14.76.695l13.914.717a19.133,19.133,0,0,1,13.112,5.644,18.092,18.092,0,0,1,5.036,8.726C1040.82,2086.672,1040.973,2087.562,1041.1,2088.473Z" transform="translate(-928.139 -2069.415)" fill="none" stroke="#4b58aa" stroke-width="1.5"/>
          </g>
        </g>
        <path id="Path_47887" data-name="Path 47887" d="M1352.659,1156.2,1061.5,1447.361l-39.789,39.789-.065.065" transform="translate(70.671 124.024)" fill="none" stroke="#4b58aa" stroke-width="1.5"/>
        <path id="Path_47888" data-name="Path 47888" d="M981.028,1527.836l-.065.065-41.46,41.46L841.061,1667.8,650.017,1858.846" transform="translate(0 194.695)" fill="none" stroke="#4b58aa" stroke-width="1.5"/>
        <path id="Path_47891" data-name="Path 47891" d="M892.34,1561.829c.738.694,1.476,1.432,2.192,2.148a411.6,411.6,0,0,1,0,582.27" transform="translate(46.081 201.159)" fill="none" stroke="#4b58aa" stroke-width="1.5"/>
        <circle id="Ellipse_241" data-name="Ellipse 241" cx="363.588" cy="363.588" r="363.588" transform="translate(1060.25 1691.994)" fill="none" stroke="#4b58aa" stroke-width="1.5"/>
        <path id="Path_47895" data-name="Path 47895" d="M2340.757,2846.963l-.065-.065-218.329-218.329-113.832-113.832-.022-.021-.022-.022-1.194-1.194-113.137-113.137-217.83-217.83L1488.74,1992.84" transform="translate(191.155 319.183)" fill="none" stroke="#4b58aa" stroke-width="1.5"/>
        <g id="Group_4757-3" data-name="Group 4757" transform="translate(2517.755 3148.649)">
          <g id="Group_4459-3" data-name="Group 4459">
            <path id="Path_47901" data-name="Path 47901" d="M2235.843,2835.612c.022.021.043,0,.087,0l-.065.065C2235.843,2835.656,2235.865,2835.633,2235.843,2835.612Z" transform="translate(-2216.187 -2705.262)" fill="none" stroke="#4b58aa" stroke-width="1.5"/>
            <path id="Path_47902" data-name="Path 47902" d="M2317.106,2742.978l-8.791-.456v.087l-5.883-.282h-.217a.427.427,0,0,0,.021-.152l-12.134-.63-1.107-.065-5.862-.261c-1.237-.064-2.432-.13-3.668-.2s-2.474-.13-3.733-.173c-2.149-.152-4.3-.218-6.491-.326-5.8-.369-11.613-.587-17.409-.912-6.49-.282-11.223.976-14.348,3.973a1.051,1.051,0,0,0-.239.194c-3.083,3.083-4.514,7.9-4.167,14.414.086,1.91.151,3.8.282,5.709l.456,8.921c.2,4.406.412,8.792.651,13.2.2,3.755.39,7.467.586,11.222.131,2.953.3,5.906.477,8.857.066,1.8.175,3.6.283,5.4.021,1.021.064,2.019.108,3.018.043.564.065,1.107.108,1.671.021.89.108,1.8.174,2.691l.174,4.038,1.063,13.046.044.218.044.043v-.13a.825.825,0,0,0,.239.021l-.021.108a.542.542,0,0,1,.043.26v.044a.436.436,0,0,1-.153-.023h-.174c.021.021.044.044.021.066l.065.021-.022.326c.457,4.45.544,8.791.826,13.068.13,2.17.325,4.319.63,6.446l-2.085-.26a14.539,14.539,0,0,1-4.8-1.585,15.5,15.5,0,0,1-4.993-4.211,5.968,5.968,0,0,1-.782-1,14.654,14.654,0,0,1-1.389-2.215c-.216-.39-.412-.759-.585-1.15-.369-.8-.674-1.585-.956-2.387a3.085,3.085,0,0,1-.238-.761,21.68,21.68,0,0,1-1.172-5.687c-.152-2.41-.326-4.842-.479-7.295-.456-6.793-.8-13.609-1.15-20.425-.282-5.014-.543-10.051-.869-15.065a11.138,11.138,0,0,1-.064-1.453,75.492,75.492,0,0,1,.628-14.392,65.217,65.217,0,0,1,2.084-9.682c.631-2.062,1.369-4.059,2.171-6.034a59.562,59.562,0,0,1,10.723-16.671c.782-.912,1.564-1.78,2.388-2.648a62.172,62.172,0,0,1,19.32-13.5,48.957,48.957,0,0,1,16.844-3.863c.759-.023,1.52-.043,2.3-.044.087,0,.2-.021.326-.021,8.943,0,17.93.216,26.917.564q7.391.293,14.76.7l13.914.717a19.017,19.017,0,0,1,13.134,5.665,18.644,18.644,0,0,1,3.473,4.6,16.7,16.7,0,0,1,1.563,4.081q.293,1.334.456,2.67c.021.021,0,.043.021.065-.021-.023-.043,0-.087,0-2.127-.26-4.319-.456-6.556-.608-3.907-.3-7.923-.5-11.961-.8l-.021.022-8.357-.456-6.359-.281Z" transform="translate(-2219.328 -2726.089)" fill="none" stroke="#4b58aa" stroke-width="1.5"/>
          </g>
        </g>
        <g id="Group_4757-4" data-name="Group 4757" transform="translate(1758.562 3144.634)">
          <g id="Group_4459-4" data-name="Group 4459" transform="translate(0)">
            <path id="Path_47903" data-name="Path 47903" d="M1677.85,2851.583a1.2,1.2,0,0,0,.262-.217,12.863,12.863,0,0,0,2.843-4.406l-.022-.022a22.733,22.733,0,0,0,1.346-9.941c-.087-1.91-.173-3.82-.282-5.709l-.456-8.922c-.2-4.406-.413-8.792-.651-13.2-.2-3.755-.369-7.488-.587-11.223-.151-2.973-.3-5.9-.477-8.856-.066-1.8-.151-3.624-.282-5.4-.021-1.02-.066-2.02-.13-3.04-.023-.542-.021-1.105-.065-1.671-.043-.912-.13-1.779-.2-2.67l-.174-4.038-1.042-13.066-.044-.218c-.043,0-.043,0-.065-.021v.131c-.064-.022-.151-.022-.217-.044l-.021-.108a.505.505,0,0,1,0-.261c.064-.021.086,0,.13,0h.087l.065-.021a.1.1,0,0,0-.023-.065l-.021-.021v-.3c-.717-6.707-.564-13.24-1.476-19.535q1.074.1,2.084.261a15.4,15.4,0,0,1,9.812,5.816,8.812,8.812,0,0,1,.781,1,18.021,18.021,0,0,1,1.39,2.214c.217.391.412.76.586,1.151a23.481,23.481,0,0,1,.954,2.386c.087.261.175.521.239.76a21.725,21.725,0,0,1,1.172,5.687c.152,2.41.325,4.84.477,7.294.456,6.793.8,13.609,1.172,20.447q.359,7.521.869,15.065c.043.477.043.956.064,1.454a77.356,77.356,0,0,1-.673,14.393,62.852,62.852,0,0,1-2.061,9.66c-.631,2.061-1.369,4.058-2.171,6.034a60.053,60.053,0,0,1-9.377,15.152c-.436.52-.89,1.02-1.347,1.519-.781.913-1.563,1.78-2.409,2.626Z" transform="translate(-1563.39 -2719.67)" fill="none" stroke="#4b58aa" stroke-width="1.5"/>
            <path id="Path_47904" data-name="Path 47904" d="M1694.4,2741.774c-5.883-.717-12.243-.956-18.6-1.412l-8.335-.434-6.383-.26v-.043l-8.77-.478c0,.043-.021.064-.021.108l-5.862-.3h-.217a.428.428,0,0,0-.021-.152l-12.134-.63-1.085-.043-5.862-.261c-1.215-.088-2.43-.131-3.647-.218-1.259-.043-2.5-.108-3.734-.174-2.171-.13-4.3-.217-6.513-.3-5.8-.369-11.612-.587-17.409-.912a24.991,24.991,0,0,0-9.03.955,12.815,12.815,0,0,0-5.3,3l-.043-.043a57.8,57.8,0,0,1,4.471-4.168,61.226,61.226,0,0,1,14.8-9.334,48.182,48.182,0,0,1,16.844-3.863c.782-.043,1.52-.043,2.279-.066a1.5,1.5,0,0,0,.326-.021c8.987,0,17.951.239,26.96.564q7.359.327,14.76.7l13.915.717a19.131,19.131,0,0,1,13.111,5.644,18.091,18.091,0,0,1,5.036,8.726C1694.12,2739.972,1694.272,2740.862,1694.4,2741.774Z" transform="translate(-1581.439 -2722.715)" fill="none" stroke="#4b58aa" stroke-width="1.5"/>
          </g>
        </g>
        <g id="Group_4757-5" data-name="Group 4757" transform="translate(2508.756 2388.773)">
          <g id="Group_4459-5" data-name="Group 4459">
            <path id="Path_47905" data-name="Path 47905" d="M2345.471,2184.113c-1.3,1.346-2.648,2.648-4.081,3.863a61.335,61.335,0,0,1-15.195,9.639,48.21,48.21,0,0,1-16.844,3.863l-2.279.065a1.557,1.557,0,0,0-.326.021c-8.987,0-17.951-.238-26.938-.586q-7.391-.292-14.762-.695l-13.934-.7a19.15,19.15,0,0,1-13.134-5.665,18.05,18.05,0,0,1-5.014-8.7c-.174-.913-.348-1.825-.477-2.736,5.926.718,12.265.935,18.6,1.412l8.336.434,6.4.282v.043l8.771.435c.021-.021,0-.043.021-.066l5.86.261.239.023a.426.426,0,0,0-.021.151l12.134.63,1.108.065,5.86.259c1.215.044,2.431.131,3.668.2,1.216.043,2.453.108,3.733.174,2.128.13,4.3.217,6.491.325,5.795.369,11.613.585,17.387.89a24.738,24.738,0,0,0,9.486-1.107,12.333,12.333,0,0,0,4.84-2.844Z" transform="translate(-2212.826 -2069.587)" fill="none" stroke="#4b58aa" stroke-width="1.5"/>
            <path id="Path_47906" data-name="Path 47906" d="M2235.628,2200.524l-2.084-.26a15.29,15.29,0,0,1-9.791-5.8,8.948,8.948,0,0,1-.782-1,18.121,18.121,0,0,1-1.388-2.214c-.218-.392-.413-.76-.608-1.173-.347-.782-.674-1.585-.934-2.367-.086-.259-.173-.52-.238-.76a21.688,21.688,0,0,1-1.172-5.686c-.153-2.41-.326-4.842-.478-7.294-.456-6.794-.8-13.611-1.172-20.448q-.359-7.523-.869-15.065c-.043-.478-.043-.955-.065-1.455a77.339,77.339,0,0,1,.673-14.391,59.766,59.766,0,0,1,2.061-9.66c.63-2.062,1.367-4.059,2.172-6.035a59.776,59.776,0,0,1,9.03-14.761c.564-.651,1.107-1.281,1.692-1.91.782-.912,1.563-1.781,2.41-2.627l.043.043a1.056,1.056,0,0,0-.238.2,12.582,12.582,0,0,0-3.017,4.929,24.19,24.19,0,0,0-1.151,9.485c.087,1.866.151,3.8.3,5.688l.456,8.921c.2,4.406.39,8.813.63,13.219.2,3.755.391,7.467.586,11.223.152,2.93.3,5.9.478,8.856.065,1.8.174,3.6.282,5.4.043,1,.064,2.019.108,3.017.044.565.065,1.108.108,1.672.022.89.108,1.8.174,2.691l.174,4.038,1.064,13.045.087.608v.347C2234.847,2187.674,2234.716,2194.185,2235.628,2200.524Z" transform="translate(-2215.968 -2087.626)" fill="none" stroke="#4b58aa" stroke-width="1.5"/>
          </g>
        </g>
        <line id="Line_505" data-name="Line 505" x1="851.824" y2="853.099" transform="translate(1869.691 2309.511)" fill="none" stroke="#4b58aa" stroke-width="1.5"/>
        <line id="Line_506" data-name="Line 506" x1="1552.248" y1="5.612" transform="translate(1427.552 2831.086)" fill="none" stroke="#4b58aa" stroke-width="1.5"/>
        <path id="Path_47909" data-name="Path 47909" d="M1711.353,2886.561a411.519,411.519,0,0,1,582.269,0c.717.717,1.455,1.454,2.15,2.192" transform="translate(201.828 430.144)" fill="none" stroke="#4b58aa" stroke-width="1.5"/>
        <circle id="Ellipse_243" data-name="Ellipse 243" cx="363.588" cy="363.588" r="363.588" transform="translate(1837.784 2469.529)" fill="none" stroke="#4b58aa" stroke-width="1.5"/>
        <circle id="Ellipse_244" data-name="Ellipse 244" cx="174.52" cy="174.52" r="174.52" transform="translate(2027.783 2661.667)" fill="none" stroke="#4b58aa" stroke-width="1.5"/>
        <path id="Path_47915" data-name="Path 47915" d="M2530.379,1730.546l-409.124-407.47-113.832-113.832-.022-.022-.022-.022-1.194-1.194L1893.049,1094.87l-217.83-217.83-.065-.065" transform="translate(190.945 70.924)" fill="none" stroke="#4b58aa" stroke-width="1.5"/>
        <g id="Group_4757-6" data-name="Group 4757" transform="translate(1757.157 834.957)">
          <g id="Group_4459-6" data-name="Group 4459">
            <path id="Path_47916" data-name="Path 47916" d="M1674.521,788.645c-.13-2.214-.282-4.363-.607-6.511l2.084.259A14.57,14.57,0,0,1,1680.73,784c-1.564,1.129-3.126,2.3-4.668,3.451C1675.542,787.843,1675.021,788.232,1674.521,788.645Z" transform="translate(-1562.448 -782.069)" fill="none" stroke="#4b58aa" stroke-width="1.5"/>
            <path id="Path_47917" data-name="Path 47917" d="M1693.265,877.294a62.843,62.843,0,0,1-19.3,13.523,48.511,48.511,0,0,1-16.844,3.82c-.759.023-1.5.065-2.279.065a1.549,1.549,0,0,1-.325.021c-8.965.023-17.931-.217-26.961-.564q-7.359-.325-14.739-.672l-13.936-.738a19.137,19.137,0,0,1-13.111-5.644,17.946,17.946,0,0,1-3.474-4.646,2.293,2.293,0,0,1-.238-.456,16.467,16.467,0,0,1-1.324-3.625q-.259-1.3-.456-2.67a.109.109,0,0,0-.021-.065c.021.021.043,0,.087,0,1.975.239,4.037.434,6.078.608.13,0,.282.021.412.021,3.951.3,7.988.478,12.027.782l8.356.456,6.383.261v.043l8.791.456c0-.043-.022-.066,0-.087l5.839.282h.261a.429.429,0,0,0-.021.152l12.135.63,1.107.065,5.86.261c1.216.087,2.432.13,3.668.2s2.476.13,3.734.173c2.149.152,4.3.218,6.491.326,5.8.369,11.614.587,17.408.912,6.447.326,11.223-.977,14.327-3.95Z" transform="translate(-1580.258 -764.286)" fill="none" stroke="#4b58aa" stroke-width="1.5"/>
            <line id="Line_508" data-name="Line 508" x1="0.109" y2="0.022" transform="translate(112.79 19.992)" fill="none" stroke="#4b58aa" stroke-width="1.5"/>
            <path id="Path_47918" data-name="Path 47918" d="M1675.382,802.006l-.023-.326c-.456-4.319-.543-8.574-.8-12.742,0-.087-.023-.2-.023-.282-.13-2.214-.282-4.363-.607-6.511-.023-.023,0-.044-.023-.065l-.064.065" transform="translate(-1562.462 -782.079)" fill="none" stroke="#4b58aa" stroke-width="1.5"/>
            <path id="Path_47919" data-name="Path 47919" d="M1580.331,890.193c1.975.239,4.037.434,6.078.608.13,0,.282.021.412.021,3.951.3,7.988.477,12.027.782l8.356.456,6.383.261v.043l8.791.456c0-.043-.022-.066,0-.087l5.839.282h.261a.432.432,0,0,0-.021.152l12.135.63,1.107.065,5.86.261c1.216.086,2.432.13,3.668.2s2.476.13,3.735.174c2.148.151,4.3.217,6.49.325,5.8.369,11.614.587,17.408.912,6.447.326,11.223-.977,14.327-3.95a1.28,1.28,0,0,0,.261-.218c3.082-3.082,4.471-7.9,4.168-14.413-.109-1.889-.152-3.8-.3-5.688l-.456-8.922c-.2-4.406-.39-8.813-.63-13.219-.2-3.755-.39-7.467-.607-11.2-.131-2.953-.283-5.926-.456-8.879-.087-1.779-.174-3.6-.283-5.4-.043-1-.064-2.02-.13-3,0-.564-.043-1.129-.087-1.694-.021-.89-.108-1.8-.174-2.691l-.2-4.017-1.041-13.067-.044-.218c-.021.023-.021.023-.065-.021l.044.131" transform="translate(-1580.244 -778.836)" fill="none" stroke="#4b58aa" stroke-width="1.5"/>
            <path id="Path_47920" data-name="Path 47920" d="M1674.935,799.132" transform="translate(-1562.254 -778.836)" fill="none" stroke="#4b58aa" stroke-width="1.5"/>
          </g>
        </g>
        <g id="Group_4905" data-name="Group 4905" transform="translate(-4)">
          <g id="Group_4757-7" data-name="Group 4757" transform="translate(1737.453 1609.859)">
            <g id="Group_4459-7" data-name="Group 4459" transform="translate(0 0)">
              <path id="Path_47885" data-name="Path 47885" d="M1692.172,1530.813c-1.3,1.346-2.648,2.648-4.081,3.863a61.373,61.373,0,0,1-15.195,9.639,48.2,48.2,0,0,1-16.844,3.863l-2.279.065a1.566,1.566,0,0,0-.326.021c-8.987,0-17.951-.239-26.938-.587q-7.391-.293-14.762-.694l-13.936-.7a19.15,19.15,0,0,1-13.132-5.665,18.05,18.05,0,0,1-5.014-8.7c-.174-.912-.348-1.823-.477-2.735,5.926.716,12.265.933,18.6,1.411l8.336.434,6.4.281v.044l8.77.434c.021-.021,0-.044.021-.066l5.86.261.239.022a.428.428,0,0,0-.021.152l12.134.63,1.107.065,5.862.259c1.215.044,2.432.131,3.668.2,1.216.043,2.453.108,3.734.174,2.127.13,4.3.217,6.49.325,5.8.369,11.614.586,17.388.89a24.71,24.71,0,0,0,9.486-1.108,12.325,12.325,0,0,0,4.84-2.843Z" transform="translate(-1559.526 -1416.287)" fill="none" stroke="#4b58aa" stroke-width="1.5"/>
              <path id="Path_47886" data-name="Path 47886" d="M1582.328,1547.224l-2.084-.261a15.286,15.286,0,0,1-9.79-5.8,8.938,8.938,0,0,1-.782-1,18.376,18.376,0,0,1-1.389-2.214c-.217-.391-.412-.76-.608-1.173-.346-.781-.672-1.584-.933-2.366-.087-.259-.174-.52-.239-.759a21.793,21.793,0,0,1-1.172-5.688c-.151-2.409-.325-4.84-.476-7.293-.457-6.793-.8-13.61-1.172-20.447q-.359-7.523-.869-15.065c-.043-.477-.044-.956-.064-1.454a77.36,77.36,0,0,1,.672-14.393,59.694,59.694,0,0,1,2.061-9.659c.63-2.061,1.368-4.06,2.171-6.034a59.816,59.816,0,0,1,9.031-14.761c.564-.651,1.106-1.281,1.692-1.91.782-.913,1.563-1.78,2.409-2.627l.044.043a1.09,1.09,0,0,0-.239.2,12.606,12.606,0,0,0-3.017,4.928,24.213,24.213,0,0,0-1.15,9.486c.087,1.866.151,3.8.3,5.687l.456,8.923c.2,4.406.39,8.812.63,13.219.2,3.755.39,7.467.586,11.222.152,2.93.3,5.9.479,8.857.064,1.8.173,3.6.282,5.4.043,1,.064,2.018.108,3.017.044.565.064,1.108.108,1.672.021.89.108,1.8.174,2.691l.174,4.037,1.064,13.047.087.608v.348C1581.547,1534.374,1581.416,1540.885,1582.328,1547.224Z" transform="translate(-1562.668 -1434.326)" fill="none" stroke="#4b58aa" stroke-width="1.5"/>
            </g>
          </g>
          <g id="Group_4757-8" data-name="Group 4757" transform="translate(1757.244 1590.883)">
            <g id="Group_4459-8" data-name="Group 4459">
              <path id="Path_47923" data-name="Path 47923" d="M1676.742,1546.091a1.217,1.217,0,0,0,.262-.217,12.884,12.884,0,0,0,2.843-4.407l-.023-.021a22.737,22.737,0,0,0,1.346-9.942c-.087-1.91-.173-3.82-.282-5.709l-.456-8.921c-.2-4.407-.413-8.792-.651-13.2-.2-3.756-.369-7.49-.587-11.223-.151-2.973-.3-5.9-.477-8.856-.064-1.8-.151-3.625-.282-5.406-.021-1.019-.065-2.019-.13-3.039-.023-.543-.021-1.107-.066-1.671-.043-.912-.13-1.781-.2-2.671l-.174-4.037-1.041-13.067-.044-.218c-.043,0-.043,0-.066-.022v.13c-.064-.021-.151-.021-.217-.043l-.021-.109a.5.5,0,0,1,0-.261c.064-.021.086,0,.13,0h.087l.065-.021a.112.112,0,0,0-.021-.066l-.023-.021v-.3c-.716-6.708-.564-13.242-1.476-19.537q1.075.1,2.084.261a15.4,15.4,0,0,1,9.812,5.818,8.751,8.751,0,0,1,.781,1,18.116,18.116,0,0,1,1.39,2.214c.217.392.412.761.586,1.151a23.7,23.7,0,0,1,.954,2.387c.087.261.175.521.239.76a21.721,21.721,0,0,1,1.172,5.687c.153,2.41.326,4.84.477,7.293.456,6.795.8,13.611,1.173,20.448q.359,7.521.869,15.064c.043.479.043.956.065,1.456a77.471,77.471,0,0,1-.674,14.391,62.882,62.882,0,0,1-2.061,9.659c-.631,2.063-1.369,4.06-2.171,6.035a60.058,60.058,0,0,1-9.377,15.151c-.434.521-.89,1.021-1.346,1.52-.782.912-1.564,1.779-2.41,2.627Z" transform="translate(-1562.282 -1414.178)" fill="none" stroke="#4b58aa" stroke-width="1.5"/>
              <path id="Path_47924" data-name="Path 47924" d="M1693.294,1436.281c-5.883-.716-12.243-.954-18.6-1.41l-8.335-.434-6.383-.261v-.043l-8.77-.478c0,.044-.021.065-.021.108l-5.862-.3h-.217a.434.434,0,0,0-.021-.152l-12.134-.629-1.085-.044-5.862-.26c-1.215-.088-2.43-.131-3.647-.218-1.259-.044-2.5-.109-3.733-.174-2.171-.13-4.3-.217-6.513-.3-5.8-.37-11.612-.587-17.408-.912a24.99,24.99,0,0,0-9.03.954,12.817,12.817,0,0,0-5.3,3l-.043-.044a57.783,57.783,0,0,1,4.471-4.167,61.189,61.189,0,0,1,14.8-9.334,48.191,48.191,0,0,1,16.844-3.863c.782-.044,1.52-.044,2.279-.066a1.552,1.552,0,0,0,.326-.021c8.987,0,17.951.238,26.96.564q7.359.325,14.76.694l13.915.718a19.124,19.124,0,0,1,13.111,5.644,18.087,18.087,0,0,1,5.036,8.725C1693.012,1434.479,1693.164,1435.369,1693.294,1436.281Z" transform="translate(-1580.331 -1417.223)" fill="none" stroke="#4b58aa" stroke-width="1.5"/>
            </g>
          </g>
        </g>
        <g id="Group_4757-9" data-name="Group 4757" transform="translate(2512.437 835.023)">
          <g id="Group_4459-9" data-name="Group 4459">
            <path id="Path_47925" data-name="Path 47925" d="M2344.364,878.621c-1.3,1.346-2.648,2.648-4.081,3.863a61.357,61.357,0,0,1-15.195,9.638,48.143,48.143,0,0,1-16.845,3.863l-2.279.067a1.481,1.481,0,0,0-.326.021c-8.987,0-17.951-.239-26.938-.587q-7.391-.293-14.76-.694L2250,894.1a19.153,19.153,0,0,1-13.134-5.666,18.046,18.046,0,0,1-5.014-8.7c-.174-.912-.348-1.823-.478-2.735,5.926.716,12.265.933,18.6,1.412l8.335.434,6.4.281v.044l8.771.434c.021-.023,0-.044.021-.066l5.86.261.239.021a.429.429,0,0,0-.021.152l12.134.63,1.108.064,5.86.261c1.215.043,2.431.131,3.668.2,1.216.044,2.453.108,3.733.174,2.128.131,4.3.218,6.492.326,5.794.369,11.612.586,17.387.89a24.718,24.718,0,0,0,9.486-1.108,12.328,12.328,0,0,0,4.84-2.843Z" transform="translate(-2211.718 -764.095)" fill="none" stroke="#4b58aa" stroke-width="1.5"/>
            <path id="Path_47926" data-name="Path 47926" d="M2234.52,895.032l-2.084-.261a15.285,15.285,0,0,1-9.79-5.8,8.9,8.9,0,0,1-.782-1,18.1,18.1,0,0,1-1.388-2.215c-.218-.39-.413-.759-.608-1.172-.348-.782-.674-1.584-.934-2.366-.086-.259-.173-.52-.238-.759a21.7,21.7,0,0,1-1.172-5.688c-.152-2.409-.326-4.84-.477-7.293-.456-6.795-.8-13.609-1.172-20.447q-.359-7.523-.869-15.065c-.042-.477-.042-.956-.064-1.454a77.375,77.375,0,0,1,.673-14.393,59.655,59.655,0,0,1,2.063-9.659c.628-2.063,1.366-4.06,2.171-6.034a59.767,59.767,0,0,1,9.03-14.76c.564-.652,1.107-1.281,1.692-1.91.782-.913,1.563-1.781,2.41-2.627l.043.043a1,1,0,0,0-.238.2,12.578,12.578,0,0,0-3.017,4.928,24.192,24.192,0,0,0-1.151,9.486c.087,1.866.151,3.8.3,5.687l.456,8.921c.2,4.407.391,8.813.63,13.22.2,3.755.392,7.467.585,11.222.153,2.93.3,5.9.479,8.857.065,1.8.174,3.6.282,5.4.043,1,.065,2.018.108,3.017.044.564.066,1.107.11,1.672.021.889.107,1.8.173,2.691l.174,4.037,1.064,13.047.087.608v.346C2233.739,882.182,2233.608,888.693,2234.52,895.032Z" transform="translate(-2214.86 -782.134)" fill="none" stroke="#4b58aa" stroke-width="1.5"/>
          </g>
        </g>
        <line id="Line_509" data-name="Line 509" x1="848.067" y2="847.246" transform="translate(1678.516 948.266)" fill="none" stroke="#4b58aa" stroke-width="1.5"/>
        <path id="Path_47927" data-name="Path 47927" d="M2004.851,504.012,1713.695,795.168l-39.789,39.789-.065.065" transform="translate(194.695 0)" fill="none" stroke="#4b58aa" stroke-width="1.5"/>
        <path id="Path_47928" data-name="Path 47928" d="M1633.22,875.643l-.065.065-41.46,41.46-98.441,98.441-191.044,191.043" transform="translate(124.024 70.671)" fill="none" stroke="#4b58aa" stroke-width="1.5"/>
        <line id="Line_510" data-name="Line 510" x1="1552.248" y1="5.612" transform="translate(1426.233 1277.335)" fill="none" stroke="#4b58aa" stroke-width="1.5"/>
        <path id="Path_47932" data-name="Path 47932" d="M2289.64,748.647l-.022.023c-160.784,160.784-421.485,160.784-582.269,0l-.021-.023" transform="translate(201.063 46.521)" fill="none" stroke="#4b58aa" stroke-width="1.5"/>
        <circle id="Ellipse_245" data-name="Ellipse 245" cx="363.588" cy="363.588" r="363.588" transform="translate(1836.466 915.778)" fill="none" stroke="#4b58aa" stroke-width="1.5"/>
        <circle id="Ellipse_246" data-name="Ellipse 246" cx="174.52" cy="174.52" r="174.52" transform="translate(2022.464 1107.916)" fill="none" stroke="#4b58aa" stroke-width="1.5"/>
        <g id="Group_4757-10" data-name="Group 4757" transform="translate(3293.971 2372.433)">
          <g id="Group_4459-10" data-name="Group 4459">
            <path id="Path_47941" data-name="Path 47941" d="M2888.035,2183.42c.021.021.043,0,.087,0l-.065.066C2888.035,2183.464,2888.056,2183.441,2888.035,2183.42Z" transform="translate(-2868.379 -2053.069)" fill="none" stroke="#4b58aa" stroke-width="1.5"/>
            <path id="Path_47942" data-name="Path 47942" d="M2969.3,2090.784l-8.792-.456v.088l-5.882-.282h-.218a.441.441,0,0,0,.021-.152l-12.133-.63-1.107-.066-5.861-.261c-1.237-.064-2.43-.13-3.668-.2s-2.474-.13-3.733-.173c-2.15-.152-4.3-.218-6.49-.326-5.8-.369-11.614-.587-17.41-.912-6.49-.283-11.222.976-14.347,3.973a1,1,0,0,0-.24.194c-3.082,3.083-4.515,7.9-4.168,14.414.087,1.91.151,3.8.282,5.709l.456,8.922c.2,4.406.412,8.791.651,13.2.2,3.755.392,7.467.587,11.222.13,2.953.3,5.9.478,8.856.065,1.8.174,3.6.282,5.406.021,1.021.065,2.019.108,3.017.044.565.066,1.108.108,1.672.023.89.11,1.8.174,2.691l.174,4.038,1.064,13.045.043.217.044.044v-.129a.817.817,0,0,0,.239.021l-.022.108a.561.561,0,0,1,.044.261v.044a.434.434,0,0,1-.152-.023h-.174c.023.021.044.044.023.065l.064.021-.021.325c.456,4.45.543,8.792.825,13.069.13,2.17.325,4.319.629,6.446l-2.084-.26a14.513,14.513,0,0,1-4.8-1.584,15.507,15.507,0,0,1-4.992-4.211,5.894,5.894,0,0,1-.781-1,14.55,14.55,0,0,1-1.39-2.214c-.217-.39-.412-.76-.586-1.15-.369-.8-.672-1.585-.956-2.389a3.055,3.055,0,0,1-.238-.759,21.744,21.744,0,0,1-1.172-5.688c-.152-2.409-.326-4.84-.478-7.293-.455-6.795-.8-13.61-1.15-20.426-.282-5.015-.543-10.051-.869-15.065a11.19,11.19,0,0,1-.064-1.454,75.471,75.471,0,0,1,.628-14.392,65.038,65.038,0,0,1,2.085-9.682c.629-2.061,1.367-4.058,2.171-6.034a59.556,59.556,0,0,1,10.722-16.672c.782-.911,1.564-1.78,2.387-2.648a62.166,62.166,0,0,1,19.32-13.5,48.989,48.989,0,0,1,16.844-3.865c.76-.021,1.52-.043,2.3-.043.087,0,.2-.021.325-.021,8.943,0,17.93.217,26.917.564q7.393.292,14.76.7l13.915.716a19.019,19.019,0,0,1,13.133,5.665,18.655,18.655,0,0,1,3.473,4.6,16.672,16.672,0,0,1,1.563,4.081q.292,1.334.456,2.669c.022.021,0,.043.022.065-.022-.022-.044,0-.087,0-2.128-.261-4.32-.457-6.555-.608-3.909-.3-7.925-.5-11.961-.8l-.022.021-8.356-.456-6.36-.282Z" transform="translate(-2871.52 -2073.897)" fill="none" stroke="#4b58aa" stroke-width="1.5"/>
          </g>
        </g>
        <g id="Group_4757-11" data-name="Group 4757" transform="translate(2526.778 2371.418)">
          <g id="Group_4459-11" data-name="Group 4459">
            <path id="Path_47943" data-name="Path 47943" d="M2330.042,2199.391a1.206,1.206,0,0,0,.262-.217,12.876,12.876,0,0,0,2.843-4.407l-.021-.021a22.731,22.731,0,0,0,1.345-9.941c-.086-1.91-.172-3.82-.282-5.709l-.456-8.921c-.2-4.407-.412-8.792-.651-13.2-.195-3.756-.369-7.489-.586-11.223-.151-2.973-.3-5.9-.478-8.856-.064-1.8-.151-3.625-.282-5.406-.021-1.019-.065-2.019-.13-3.039-.021-.542-.021-1.107-.065-1.671-.043-.912-.13-1.781-.2-2.671l-.174-4.037-1.041-13.067-.044-.218c-.043,0-.043,0-.064-.021v.13c-.065-.021-.152-.021-.218-.043l-.021-.109a.511.511,0,0,1,0-.26c.064-.022.087,0,.13,0H2330l.065-.022a.1.1,0,0,0-.021-.064l-.023-.023v-.3c-.716-6.708-.564-13.242-1.476-19.537q1.074.1,2.084.261a15.405,15.405,0,0,1,9.812,5.818,8.856,8.856,0,0,1,.781,1,17.986,17.986,0,0,1,1.39,2.214c.217.392.412.76.585,1.151a23.874,23.874,0,0,1,.956,2.387c.087.261.174.521.239.761a21.755,21.755,0,0,1,1.171,5.686c.152,2.41.326,4.841.478,7.294.456,6.795.8,13.61,1.172,20.448q.358,7.521.869,15.065c.043.477.044.956.065,1.454a77.451,77.451,0,0,1-.672,14.392,62.748,62.748,0,0,1-2.062,9.66c-.63,2.062-1.368,4.059-2.171,6.034a59.975,59.975,0,0,1-9.377,15.151c-.435.521-.89,1.021-1.346,1.52-.781.911-1.562,1.779-2.41,2.627Z" transform="translate(-2215.582 -2067.478)" fill="none" stroke="#4b58aa" stroke-width="1.5"/>
            <path id="Path_47944" data-name="Path 47944" d="M2346.594,2089.581c-5.882-.716-12.242-.955-18.6-1.41l-8.336-.434-6.381-.261v-.043l-8.771-.478c0,.044-.021.065-.021.109l-5.862-.3h-.217a.426.426,0,0,0-.021-.151l-12.134-.63-1.085-.044-5.86-.26c-1.217-.088-2.432-.131-3.648-.218-1.259-.044-2.5-.108-3.734-.174-2.171-.13-4.3-.217-6.511-.3-5.8-.37-11.614-.587-17.41-.912a24.988,24.988,0,0,0-9.03.955,12.815,12.815,0,0,0-5.3,3l-.043-.043a57.776,57.776,0,0,1,4.471-4.168,61.209,61.209,0,0,1,14.8-9.334,48.2,48.2,0,0,1,16.844-3.864c.782-.043,1.52-.044,2.279-.065a1.553,1.553,0,0,0,.326-.022c8.987,0,17.951.238,26.961.564q7.359.324,14.76.7l13.914.717a19.128,19.128,0,0,1,13.111,5.644,18.09,18.09,0,0,1,5.036,8.726C2346.312,2087.78,2346.464,2088.669,2346.594,2089.581Z" transform="translate(-2233.631 -2070.523)" fill="none" stroke="#4b58aa" stroke-width="1.5"/>
          </g>
        </g>
        <g id="Group_4757-12" data-name="Group 4757" transform="translate(3289.972 1612.557)">
          <g id="Group_4459-12" data-name="Group 4459">
            <path id="Path_47945" data-name="Path 47945" d="M2997.664,1531.921c-1.3,1.346-2.648,2.648-4.082,3.863a61.374,61.374,0,0,1-15.193,9.639,48.2,48.2,0,0,1-16.846,3.863l-2.279.066a1.561,1.561,0,0,0-.326.021c-8.986,0-17.951-.239-26.938-.587q-7.391-.293-14.76-.694l-13.936-.7a19.15,19.15,0,0,1-13.133-5.665,18.059,18.059,0,0,1-5.014-8.7c-.174-.912-.347-1.823-.477-2.735,5.926.717,12.264.933,18.6,1.412l8.335.434,6.4.281v.044l8.77.435c.021-.021,0-.044.021-.066l5.861.261.238.021a.43.43,0,0,0-.021.152l12.135.63,1.107.065,5.86.259c1.216.044,2.432.131,3.669.2,1.215.043,2.451.108,3.732.174,2.128.13,4.3.217,6.491.325,5.795.369,11.613.586,17.387.89a24.71,24.71,0,0,0,9.486-1.108,12.327,12.327,0,0,0,4.84-2.843Z" transform="translate(-2865.018 -1417.395)" fill="none" stroke="#4b58aa" stroke-width="1.5"/>
            <path id="Path_47946" data-name="Path 47946" d="M2887.82,1548.332l-2.084-.261a15.286,15.286,0,0,1-9.791-5.8,8.82,8.82,0,0,1-.781-1,18.1,18.1,0,0,1-1.389-2.214c-.218-.391-.413-.76-.608-1.173-.347-.781-.673-1.584-.933-2.366-.087-.259-.174-.52-.239-.759a21.75,21.75,0,0,1-1.172-5.688c-.151-2.409-.326-4.84-.477-7.293-.456-6.795-.8-13.61-1.173-20.447q-.359-7.523-.869-15.065c-.043-.477-.043-.956-.064-1.454a77.359,77.359,0,0,1,.672-14.393,59.681,59.681,0,0,1,2.063-9.659c.628-2.063,1.366-4.06,2.171-6.034a59.814,59.814,0,0,1,9.03-14.76c.564-.652,1.107-1.281,1.692-1.91.782-.913,1.563-1.78,2.41-2.627l.043.043a1.048,1.048,0,0,0-.238.2,12.576,12.576,0,0,0-3.017,4.928,24.19,24.19,0,0,0-1.151,9.485c.087,1.866.152,3.8.3,5.687l.457,8.923c.2,4.406.391,8.812.628,13.219.2,3.755.392,7.467.587,11.222.151,2.93.3,5.9.478,8.857.065,1.8.174,3.6.282,5.4.043,1,.065,2.019.108,3.017.044.565.066,1.107.11,1.672.021.89.108,1.8.173,2.691l.174,4.037,1.064,13.047.087.608v.348C2887.04,1535.482,2886.909,1541.993,2887.82,1548.332Z" transform="translate(-2868.159 -1435.434)" fill="none" stroke="#4b58aa" stroke-width="1.5"/>
          </g>
        </g>
        <path id="Path_47950" data-name="Path 47950" d="M3032.557,2149.793a411.519,411.519,0,0,1,0-582.269c.717-.717,1.454-1.454,2.192-2.149" transform="translate(430.142 201.834)" fill="none" stroke="#4b58aa" stroke-width="1.5"/>
        <circle id="Ellipse_247" data-name="Ellipse 247" cx="363.588" cy="363.588" r="363.588" transform="translate(2616 1693.313)" fill="none" stroke="#4b58aa" stroke-width="1.5"/>
        <g id="Group_4757-13" data-name="Group 4757" transform="translate(1730.307 2388.773)">
          <g id="Group_4459-13" data-name="Group 4459" transform="translate(4 -2)">
            <path id="Path_47905-2" data-name="Path 47905" d="M2345.471,2184.113c-1.3,1.346-2.648,2.648-4.081,3.863a61.335,61.335,0,0,1-15.195,9.639,48.21,48.21,0,0,1-16.844,3.863l-2.279.065a1.557,1.557,0,0,0-.326.021c-8.987,0-17.951-.238-26.938-.586q-7.391-.292-14.762-.695l-13.934-.7a19.15,19.15,0,0,1-13.134-5.665,18.05,18.05,0,0,1-5.014-8.7c-.174-.913-.348-1.825-.477-2.736,5.926.718,12.265.935,18.6,1.412l8.336.434,6.4.282v.043l8.771.435c.021-.021,0-.043.021-.066l5.86.261.239.023a.426.426,0,0,0-.021.151l12.134.63,1.108.065,5.86.259c1.215.044,2.431.131,3.668.2,1.216.043,2.453.108,3.733.174,2.128.13,4.3.217,6.491.325,5.795.369,11.613.585,17.387.89a24.738,24.738,0,0,0,9.486-1.107,12.333,12.333,0,0,0,4.84-2.844Z" transform="translate(-2212.826 -2069.587)" fill="none" stroke="#4b58aa" stroke-width="1.5"/>
            <path id="Path_47906-2" data-name="Path 47906" d="M2235.628,2200.524l-2.084-.26a15.29,15.29,0,0,1-9.791-5.8,8.948,8.948,0,0,1-.782-1,18.121,18.121,0,0,1-1.388-2.214c-.218-.392-.413-.76-.608-1.173-.347-.782-.674-1.585-.934-2.367-.086-.259-.173-.52-.238-.76a21.688,21.688,0,0,1-1.172-5.686c-.153-2.41-.326-4.842-.478-7.294-.456-6.794-.8-13.611-1.172-20.448q-.359-7.523-.869-15.065c-.043-.478-.043-.955-.065-1.455a77.339,77.339,0,0,1,.673-14.391,59.766,59.766,0,0,1,2.061-9.66c.63-2.062,1.367-4.059,2.172-6.035a59.776,59.776,0,0,1,9.03-14.761c.564-.651,1.107-1.281,1.692-1.91.782-.912,1.563-1.781,2.41-2.627l.043.043a1.056,1.056,0,0,0-.238.2,12.582,12.582,0,0,0-3.017,4.929,24.19,24.19,0,0,0-1.151,9.485c.087,1.866.151,3.8.3,5.688l.456,8.921c.2,4.406.39,8.813.63,13.219.2,3.755.391,7.467.586,11.223.152,2.93.3,5.9.478,8.856.065,1.8.174,3.6.282,5.4.043,1,.064,2.019.108,3.017.044.565.065,1.108.108,1.672.022.89.108,1.8.174,2.691l.174,4.038,1.064,13.045.087.608v.347C2234.847,2187.674,2234.716,2194.185,2235.628,2200.524Z" transform="translate(-2215.968 -2087.626)" fill="none" stroke="#4b58aa" stroke-width="1.5"/>
          </g>
        </g>
        <g id="Group_4757-14" data-name="Group 4757" transform="translate(1753.328 2368.418)">
          <g id="Group_4459-14" data-name="Group 4459">
            <path id="Path_47943-2" data-name="Path 47943" d="M2330.042,2199.391a1.206,1.206,0,0,0,.262-.217,12.876,12.876,0,0,0,2.843-4.407l-.021-.021a22.731,22.731,0,0,0,1.345-9.941c-.086-1.91-.172-3.82-.282-5.709l-.456-8.921c-.2-4.407-.412-8.792-.651-13.2-.195-3.756-.369-7.489-.586-11.223-.151-2.973-.3-5.9-.478-8.856-.064-1.8-.151-3.625-.282-5.406-.021-1.019-.065-2.019-.13-3.039-.021-.542-.021-1.107-.065-1.671-.043-.912-.13-1.781-.2-2.671l-.174-4.037-1.041-13.067-.044-.218c-.043,0-.043,0-.064-.021v.13c-.065-.021-.152-.021-.218-.043l-.021-.109a.511.511,0,0,1,0-.26c.064-.022.087,0,.13,0H2330l.065-.022a.1.1,0,0,0-.021-.064l-.023-.023v-.3c-.716-6.708-.564-13.242-1.476-19.537q1.074.1,2.084.261a15.405,15.405,0,0,1,9.812,5.818,8.856,8.856,0,0,1,.781,1,17.986,17.986,0,0,1,1.39,2.214c.217.392.412.76.585,1.151a23.874,23.874,0,0,1,.956,2.387c.087.261.174.521.239.761a21.755,21.755,0,0,1,1.171,5.686c.152,2.41.326,4.841.478,7.294.456,6.795.8,13.61,1.172,20.448q.358,7.521.869,15.065c.043.477.044.956.065,1.454a77.451,77.451,0,0,1-.672,14.392,62.748,62.748,0,0,1-2.062,9.66c-.63,2.062-1.368,4.059-2.171,6.034a59.975,59.975,0,0,1-9.377,15.151c-.435.521-.89,1.021-1.346,1.52-.781.911-1.562,1.779-2.41,2.627Z" transform="translate(-2215.582 -2067.478)" fill="none" stroke="#4b58aa" stroke-width="1.5"/>
            <path id="Path_47944-2" data-name="Path 47944" d="M2346.594,2089.581c-5.882-.716-12.242-.955-18.6-1.41l-8.336-.434-6.381-.261v-.043l-8.771-.478c0,.044-.021.065-.021.109l-5.862-.3h-.217a.426.426,0,0,0-.021-.151l-12.134-.63-1.085-.044-5.86-.26c-1.217-.088-2.432-.131-3.648-.218-1.259-.044-2.5-.108-3.734-.174-2.171-.13-4.3-.217-6.511-.3-5.8-.37-11.614-.587-17.41-.912a24.988,24.988,0,0,0-9.03.955,12.815,12.815,0,0,0-5.3,3l-.043-.043a57.776,57.776,0,0,1,4.471-4.168,61.209,61.209,0,0,1,14.8-9.334,48.2,48.2,0,0,1,16.844-3.864c.782-.043,1.52-.044,2.279-.065a1.553,1.553,0,0,0,.326-.022c8.987,0,17.951.238,26.961.564q7.359.324,14.76.7l13.914.717a19.128,19.128,0,0,1,13.111,5.644,18.09,18.09,0,0,1,5.036,8.726C2346.312,2087.78,2346.464,2088.669,2346.594,2089.581Z" transform="translate(-2233.631 -2070.523)" fill="none" stroke="#4b58aa" stroke-width="1.5"/>
          </g>
        </g>
        <g id="Group_4906" data-name="Group 4906" transform="translate(2510.252 1592.883)">
          <g id="Group_4757-15" data-name="Group 4757" transform="translate(19.792 18.976)">
            <g id="Group_4459-15" data-name="Group 4459">
              <path id="Path_47885-2" data-name="Path 47885" d="M1579.187,1530.813c1.3,1.346,2.648,2.648,4.081,3.863a61.376,61.376,0,0,0,15.195,9.639,48.2,48.2,0,0,0,16.844,3.863l2.279.065a1.566,1.566,0,0,1,.326.021c8.987,0,17.951-.239,26.938-.587q7.391-.293,14.762-.694l13.936-.7a19.15,19.15,0,0,0,13.132-5.665,18.05,18.05,0,0,0,5.014-8.7c.174-.912.348-1.823.477-2.735-5.926.716-12.265.933-18.6,1.411l-8.336.434-6.4.281v.044l-8.77.434c-.021-.021,0-.044-.021-.066l-5.86.261-.239.022a.428.428,0,0,1,.021.152l-12.134.63-1.107.065-5.862.259c-1.215.044-2.432.131-3.668.2-1.216.043-2.453.108-3.734.174-2.127.13-4.3.217-6.49.325-5.8.369-11.614.586-17.388.89a24.71,24.71,0,0,1-9.486-1.108,12.325,12.325,0,0,1-4.84-2.843Z" transform="translate(-1579.187 -1416.287)" fill="none" stroke="#4b58aa" stroke-width="1.5"/>
              <path id="Path_47886-2" data-name="Path 47886" d="M1562.667,1547.224l2.084-.261a15.286,15.286,0,0,0,9.791-5.8,8.938,8.938,0,0,0,.782-1,18.376,18.376,0,0,0,1.389-2.214c.217-.391.412-.76.608-1.173.346-.781.672-1.584.933-2.366.087-.259.174-.52.239-.759a21.793,21.793,0,0,0,1.172-5.688c.151-2.409.325-4.84.476-7.293.457-6.793.8-13.61,1.172-20.447q.359-7.523.869-15.065c.043-.477.044-.956.064-1.454a77.36,77.36,0,0,0-.672-14.393,59.694,59.694,0,0,0-2.061-9.659c-.63-2.061-1.368-4.06-2.171-6.034a59.813,59.813,0,0,0-9.031-14.761c-.564-.651-1.106-1.281-1.692-1.91-.782-.913-1.563-1.78-2.409-2.627l-.044.043a1.09,1.09,0,0,1,.239.2,12.606,12.606,0,0,1,3.017,4.928,24.213,24.213,0,0,1,1.15,9.486c-.087,1.866-.151,3.8-.3,5.687l-.456,8.923c-.2,4.406-.39,8.812-.63,13.219-.2,3.755-.39,7.467-.586,11.222-.152,2.93-.3,5.9-.479,8.857-.064,1.8-.173,3.6-.282,5.4-.043,1-.064,2.018-.108,3.017-.044.565-.064,1.108-.108,1.672-.021.89-.108,1.8-.174,2.691l-.174,4.037-1.064,13.047-.087.608v.348C1563.449,1534.374,1563.58,1540.885,1562.667,1547.224Z" transform="translate(-1449.682 -1434.326)" fill="none" stroke="#4b58aa" stroke-width="1.5"/>
            </g>
          </g>
          <g id="Group_4757-16" data-name="Group 4757" transform="translate(0)">
            <g id="Group_4459-16" data-name="Group 4459">
              <path id="Path_47923-2" data-name="Path 47923" d="M1693.43,1546.091a1.217,1.217,0,0,1-.262-.217,12.884,12.884,0,0,1-2.843-4.407l.023-.021A22.737,22.737,0,0,1,1689,1531.5c.087-1.91.173-3.82.282-5.709l.456-8.921c.2-4.407.413-8.792.651-13.2.2-3.756.369-7.49.587-11.223.151-2.973.3-5.9.477-8.856.064-1.8.151-3.625.282-5.406.021-1.019.065-2.019.13-3.039.023-.543.021-1.107.066-1.671.043-.912.13-1.781.2-2.671l.174-4.037,1.041-13.067.044-.218c.043,0,.043,0,.066-.022v.13c.064-.021.151-.021.217-.043l.021-.109a.5.5,0,0,0,0-.261c-.064-.021-.086,0-.13,0h-.087l-.065-.021a.112.112,0,0,1,.021-.066l.023-.021v-.3c.716-6.708.564-13.242,1.476-19.537q-1.075.1-2.084.261a15.4,15.4,0,0,0-9.812,5.818,8.766,8.766,0,0,0-.781,1,18.116,18.116,0,0,0-1.39,2.214c-.217.392-.412.761-.586,1.151a23.7,23.7,0,0,0-.954,2.387c-.087.261-.175.521-.239.76a21.721,21.721,0,0,0-1.172,5.687c-.153,2.41-.326,4.84-.477,7.293-.456,6.795-.8,13.611-1.173,20.448q-.359,7.521-.869,15.064c-.043.479-.043.956-.065,1.456a77.471,77.471,0,0,0,.674,14.391,62.882,62.882,0,0,0,2.061,9.659c.631,2.063,1.369,4.06,2.171,6.035a60.062,60.062,0,0,0,9.378,15.151c.434.521.89,1.021,1.346,1.52.782.912,1.564,1.779,2.41,2.627Z" transform="translate(-1675.245 -1414.178)" fill="none" stroke="#4b58aa" stroke-width="1.5"/>
              <path id="Path_47924-2" data-name="Path 47924" d="M1580.331,1436.281c5.883-.716,12.243-.954,18.6-1.41l8.335-.434,6.383-.261v-.043l8.77-.478c0,.044.021.065.021.108l5.862-.3h.217a.434.434,0,0,1,.021-.152l12.134-.629,1.085-.044,5.862-.26c1.215-.088,2.43-.131,3.647-.218,1.259-.044,2.5-.109,3.733-.174,2.171-.13,4.3-.217,6.513-.3,5.8-.37,11.613-.587,17.409-.912a24.99,24.99,0,0,1,9.03.954,12.817,12.817,0,0,1,5.3,3l.043-.044a57.783,57.783,0,0,0-4.471-4.167,61.189,61.189,0,0,0-14.8-9.334,48.191,48.191,0,0,0-16.845-3.863c-.782-.044-1.52-.044-2.279-.066a1.552,1.552,0,0,1-.326-.021c-8.987,0-17.951.238-26.96.564q-7.359.325-14.76.694l-13.915.718a19.125,19.125,0,0,0-13.111,5.644,18.087,18.087,0,0,0-5.036,8.725C1580.613,1434.479,1580.461,1435.369,1580.331,1436.281Z" transform="translate(-1560.648 -1417.223)" fill="none" stroke="#4b58aa" stroke-width="1.5"/>
            </g>
          </g>
        </g>
        <circle id="Ellipse_248" data-name="Ellipse 248" cx="413.5" cy="413.5" r="413.5" transform="translate(1788.016 1643.011)" fill="none" stroke="#4b58aa" stroke-width="1.5"/>
      </g>
    </g>
  </g>
</svg>
