<svg xmlns="http://www.w3.org/2000/svg" xmlns:xlink="http://www.w3.org/1999/xlink" width="360" height="602.741" viewBox="0 0 360 602.741">
  <defs>
    <clipPath id="clip-path">
      <rect id="Rectangle_22008" data-name="Rectangle 22008" width="602.741" height="360" transform="translate(113 54.022)" fill="#fff" stroke="#707070" stroke-width="1"/>
    </clipPath>
  </defs>
  <g id="Mask_Group_54" data-name="Mask Group 54" transform="translate(414.022 -113) rotate(90)" clip-path="url(#clip-path)">
    <g id="Group_4959" data-name="Group 4959" transform="translate(-256.81 -437.834)">
      <g id="Group_4757" data-name="Group 4757" transform="translate(143.313 479.479)">
        <g id="Group_4459" data-name="Group 4459" transform="translate(0 0)">
          <path id="Path_48072" data-name="Path 48072" d="M1021.984,1437.146c-.056-.959-.122-1.89-.263-2.82l.9.113a6.289,6.289,0,0,1,2.049.7c-.677.489-1.353,1-2.021,1.495C1022.426,1436.8,1022.2,1436.968,1021.984,1437.146Z" transform="translate(-973.449 -1434.297)" fill="none" stroke="#4b58aa" stroke-width="1"/>
          <path id="Path_48073" data-name="Path 48073" d="M977.006,1528.55a27.209,27.209,0,0,1-8.357,5.856,21.016,21.016,0,0,1-7.295,1.655c-.329.009-.648.028-.987.028a.723.723,0,0,1-.141.01c-3.883.009-7.765-.095-11.676-.245q-3.187-.141-6.383-.291l-6.035-.32a8.289,8.289,0,0,1-5.678-2.444,7.777,7.777,0,0,1-1.5-2.012.952.952,0,0,1-.1-.2,7.143,7.143,0,0,1-.574-1.57q-.113-.564-.2-1.156a.045.045,0,0,0-.009-.028c.009.009.019,0,.038,0,.855.1,1.748.188,2.632.263.057,0,.123.01.179.01,1.711.132,3.46.207,5.208.338l3.619.2,2.764.113v.019l3.807.2c0-.019-.009-.028,0-.038l2.529.122h.113a.187.187,0,0,0-.009.066l5.255.273.479.028,2.538.113c.526.038,1.053.057,1.588.085s1.072.056,1.617.075c.931.066,1.861.094,2.811.141,2.51.16,5.029.254,7.539.395,2.792.141,4.861-.423,6.2-1.711Z" transform="translate(-928.066 -1479.61)" fill="none" stroke="#4b58aa" stroke-width="1"/>
          <line id="Line_541" data-name="Line 541" x1="0.047" y2="0.009" transform="translate(48.846 8.658)" fill="none" stroke="#4b58aa" stroke-width="1"/>
          <path id="Path_48074" data-name="Path 48074" d="M1022.316,1442.9l-.009-.141c-.2-1.871-.235-3.714-.348-5.518,0-.038-.009-.085-.009-.123-.056-.959-.122-1.89-.263-2.82-.009-.009,0-.019-.009-.028l-.028.028" transform="translate(-973.414 -1434.271)" fill="none" stroke="#4b58aa" stroke-width="1"/>
          <path id="Path_48075" data-name="Path 48075" d="M928.139,1490.76c.855.1,1.748.188,2.632.263.056,0,.122.009.178.009,1.711.132,3.46.207,5.208.339l3.62.2,2.764.113v.019l3.807.2c0-.018-.009-.028,0-.037l2.529.123h.113a.184.184,0,0,0-.009.065l5.255.273.479.028,2.538.113c.526.037,1.053.056,1.589.084s1.071.056,1.617.075c.931.066,1.862.094,2.811.141,2.509.16,5.029.254,7.539.4,2.792.141,4.86-.423,6.2-1.711a.527.527,0,0,0,.112-.094c1.335-1.335,1.937-3.422,1.805-6.242-.047-.818-.065-1.645-.131-2.463l-.2-3.864c-.085-1.908-.169-3.816-.273-5.725-.084-1.626-.169-3.234-.263-4.85-.056-1.279-.122-2.567-.2-3.845-.038-.771-.075-1.56-.122-2.341-.018-.432-.028-.874-.056-1.3,0-.244-.019-.488-.038-.734-.009-.385-.047-.78-.075-1.165l-.084-1.739-.452-5.659-.018-.094c-.009.009-.009.009-.028-.01l.019.057" transform="translate(-928.102 -1442.534)" fill="none" stroke="#4b58aa" stroke-width="1"/>
          <path id="Path_48076" data-name="Path 48076" d="M1022.743,1451.325" transform="translate(-973.944 -1442.535)" fill="none" stroke="#4b58aa" stroke-width="1"/>
        </g>
      </g>
      <g id="Group_4757-2" data-name="Group 4757" transform="translate(143.351 806.848)">
        <g id="Group_4459-2" data-name="Group 4459">
          <path id="Path_48077" data-name="Path 48077" d="M1023.7,2134.3a.513.513,0,0,0,.113-.094,5.556,5.556,0,0,0,1.232-1.909l-.01-.009a9.855,9.855,0,0,0,.583-4.305c-.038-.827-.075-1.655-.122-2.472l-.2-3.864c-.084-1.908-.179-3.807-.282-5.715-.085-1.627-.16-3.243-.254-4.861-.065-1.287-.131-2.557-.207-3.835-.028-.78-.065-1.57-.122-2.341-.009-.442-.029-.875-.057-1.316-.01-.235-.009-.479-.028-.724-.019-.395-.057-.771-.085-1.157l-.075-1.748-.451-5.659-.019-.094c-.019,0-.019,0-.028-.01v.057c-.028-.01-.066-.01-.094-.019l-.01-.047a.221.221,0,0,1,0-.113c.028-.01.037,0,.057,0h.037l.028-.01a.044.044,0,0,0-.01-.028l-.009-.01v-.131c-.31-2.905-.245-5.735-.639-8.461q.465.042.9.113a6.671,6.671,0,0,1,4.249,2.52,3.7,3.7,0,0,1,.339.432,7.732,7.732,0,0,1,.6.959c.094.17.179.329.254.5a10.275,10.275,0,0,1,.413,1.034c.038.113.075.226.1.329a9.448,9.448,0,0,1,.508,2.463c.066,1.043.141,2.1.207,3.158.2,2.943.348,5.894.508,8.855q.155,3.257.376,6.525c.019.206.019.414.028.629a33.5,33.5,0,0,1-.291,6.233,27.149,27.149,0,0,1-.893,4.184c-.273.893-.592,1.758-.94,2.613a25.974,25.974,0,0,1-4.061,6.561c-.188.226-.385.442-.583.658-.338.395-.677.771-1.043,1.138Z" transform="translate(-974.132 -2077.175)" fill="none" stroke="#4b58aa" stroke-width="1"/>
          <path id="Path_48078" data-name="Path 48078" d="M977.06,2077.668c-2.548-.31-5.3-.414-8.057-.611l-3.61-.188-2.764-.113v-.019l-3.8-.207c0,.018-.009.028-.009.047l-2.539-.132h-.094a.186.186,0,0,0-.009-.066l-5.255-.273-.469-.019-2.539-.113c-.527-.038-1.053-.057-1.579-.094-.545-.019-1.081-.047-1.617-.075-.94-.056-1.861-.093-2.82-.131-2.51-.16-5.03-.254-7.539-.395a10.815,10.815,0,0,0-3.911.413,5.547,5.547,0,0,0-2.294,1.3l-.019-.019a25.129,25.129,0,0,1,1.936-1.805,26.51,26.51,0,0,1,6.411-4.043,20.88,20.88,0,0,1,7.295-1.673c.339-.019.658-.019.987-.028a.676.676,0,0,0,.141-.01c3.892,0,7.774.1,11.675.245q3.187.14,6.392.3l6.026.31a8.288,8.288,0,0,1,5.679,2.445,7.833,7.833,0,0,1,2.181,3.779C976.938,2076.888,977,2077.274,977.06,2077.668Z" transform="translate(-928.139 -2069.415)" fill="none" stroke="#4b58aa" stroke-width="1"/>
        </g>
      </g>
      <path id="Path_48079" data-name="Path 48079" d="M1165,1156.2,1038.908,1282.3l-17.231,17.231-.028.028" transform="translate(-830.1 -820.048)" fill="none" stroke="#4b58aa" stroke-width="1"/>
      <path id="Path_48080" data-name="Path 48080" d="M793.368,1527.836l-.028.028-17.955,17.955-42.632,42.632-82.735,82.735" transform="translate(-650.017 -1000.131)" fill="none" stroke="#4b58aa" stroke-width="1"/>
      <path id="Path_48081" data-name="Path 48081" d="M892.34,1561.829c.32.3.639.62.949.93a178.252,178.252,0,0,1,0,252.164" transform="translate(-767.441 -1016.603)" fill="none" stroke="#4b58aa" stroke-width="1"/>
      <path id="Path_48082" data-name="Path 48082" d="M1857.724,2362.735l-.028-.028-94.552-94.552-49.3-49.3-.009-.01-.01-.009-.517-.517-49-49-94.336-94.335-85.64-87.749" transform="translate(-1028.418 -1191.844)" fill="none" stroke="#4b58aa" stroke-width="1"/>
      <g id="Group_4757-3" data-name="Group 4757" transform="translate(808.862 1145.315)">
        <g id="Group_4459-3" data-name="Group 4459">
          <path id="Path_48083" data-name="Path 48083" d="M2235.843,2835.612c.01.009.018,0,.038,0l-.028.028C2235.843,2835.631,2235.853,2835.621,2235.843,2835.612Z" transform="translate(-2227.331 -2779.161)" fill="none" stroke="#4b58aa" stroke-width="1"/>
          <path id="Path_48084" data-name="Path 48084" d="M2261.672,2733.4l-3.807-.2v.038l-2.548-.122h-.094a.179.179,0,0,0,.01-.066l-5.254-.272-.48-.029-2.538-.113-1.589-.085c-.536-.028-1.072-.056-1.616-.075-.931-.066-1.862-.094-2.811-.141-2.51-.16-5.029-.254-7.54-.395-2.811-.122-4.86.422-6.214,1.721a.461.461,0,0,0-.1.083c-1.335,1.335-1.955,3.422-1.8,6.243.037.827.065,1.645.122,2.472l.2,3.864c.084,1.908.178,3.808.282,5.716.084,1.626.168,3.234.253,4.86.056,1.279.132,2.557.207,3.835.029.781.076,1.561.123,2.341.009.442.027.874.046,1.307.019.245.029.479.047.724.009.385.047.781.075,1.166l.075,1.749.46,5.65.019.094.019.019v-.056a.368.368,0,0,0,.1.009l-.01.047a.228.228,0,0,1,.019.113v.019a.186.186,0,0,1-.067-.01h-.075c.009.01.019.019.009.028l.029.009-.01.142c.2,1.927.235,3.807.357,5.659.056.94.141,1.871.273,2.792l-.9-.112a6.3,6.3,0,0,1-2.078-.687,6.711,6.711,0,0,1-2.162-1.824,2.553,2.553,0,0,1-.338-.432,6.278,6.278,0,0,1-.6-.959c-.094-.169-.179-.329-.253-.5-.16-.348-.292-.686-.415-1.033a1.328,1.328,0,0,1-.1-.33,9.371,9.371,0,0,1-.507-2.462c-.066-1.044-.142-2.1-.208-3.159-.2-2.942-.347-5.894-.5-8.846-.122-2.172-.236-4.353-.377-6.524a4.92,4.92,0,0,1-.027-.629,32.682,32.682,0,0,1,.272-6.233,28.206,28.206,0,0,1,.9-4.193c.273-.893.593-1.757.94-2.613a25.793,25.793,0,0,1,4.644-7.219c.339-.395.677-.771,1.034-1.146a26.912,26.912,0,0,1,8.367-5.848,21.2,21.2,0,0,1,7.294-1.673c.329-.01.658-.019,1-.019.038,0,.085-.01.141-.01,3.874,0,7.765.094,11.657.245q3.2.127,6.393.3l6.025.31a8.235,8.235,0,0,1,5.688,2.453,8.091,8.091,0,0,1,1.5,1.993,7.243,7.243,0,0,1,.676,1.767q.128.578.2,1.156c.009.009,0,.019.009.029-.009-.01-.019,0-.038,0-.921-.113-1.871-.2-2.838-.263-1.693-.132-3.432-.217-5.18-.348l-.009.01-3.62-.2-2.754-.122Z" transform="translate(-2219.328 -2726.089)" fill="none" stroke="#4b58aa" stroke-width="1"/>
        </g>
      </g>
      <g id="Group_4757-4" data-name="Group 4757" transform="translate(480.078 1143.576)">
        <g id="Group_4459-4" data-name="Group 4459" transform="translate(0)">
          <path id="Path_48085" data-name="Path 48085" d="M1677,2787.6a.539.539,0,0,0,.113-.094,5.57,5.57,0,0,0,1.232-1.908l-.01-.01a9.849,9.849,0,0,0,.583-4.305c-.038-.827-.075-1.655-.122-2.472l-.2-3.864c-.085-1.908-.179-3.807-.282-5.716-.084-1.626-.16-3.243-.254-4.86-.065-1.287-.132-2.556-.207-3.835-.028-.78-.065-1.57-.122-2.34-.009-.442-.029-.875-.056-1.317-.01-.235-.01-.479-.028-.723-.019-.395-.056-.771-.084-1.157l-.075-1.749-.451-5.658-.019-.094c-.018,0-.018,0-.028-.009v.057c-.028-.01-.065-.01-.094-.019l-.009-.047a.218.218,0,0,1,0-.113c.028-.009.037,0,.056,0h.038l.028-.009a.046.046,0,0,0-.01-.029l-.009-.009v-.132c-.31-2.9-.244-5.734-.639-8.46q.465.041.9.113a6.669,6.669,0,0,1,4.249,2.519,3.8,3.8,0,0,1,.338.433,7.764,7.764,0,0,1,.6.958c.094.169.178.329.254.5a10.084,10.084,0,0,1,.413,1.033c.038.113.076.226.1.329a9.408,9.408,0,0,1,.508,2.463c.066,1.044.141,2.1.207,3.159.2,2.942.348,5.894.508,8.855q.156,3.257.376,6.525c.018.206.018.414.028.629a33.5,33.5,0,0,1-.291,6.233,27.222,27.222,0,0,1-.893,4.184c-.273.893-.593,1.757-.94,2.613a26,26,0,0,1-4.061,6.562c-.189.226-.386.442-.584.658-.338.395-.677.77-1.043,1.137Z" transform="translate(-1627.432 -2730.476)" fill="none" stroke="#4b58aa" stroke-width="1"/>
          <path id="Path_48086" data-name="Path 48086" d="M1630.36,2730.969c-2.548-.31-5.3-.414-8.057-.612l-3.609-.188-2.764-.113v-.019l-3.8-.207c0,.019-.009.028-.009.047l-2.538-.132h-.094a.182.182,0,0,0-.01-.066l-5.255-.273-.47-.019-2.538-.113c-.526-.038-1.052-.057-1.579-.094-.545-.018-1.081-.047-1.617-.075-.94-.056-1.861-.094-2.82-.132-2.51-.16-5.029-.254-7.539-.395a10.826,10.826,0,0,0-3.91.413,5.546,5.546,0,0,0-2.294,1.3l-.019-.019a25,25,0,0,1,1.936-1.8,26.518,26.518,0,0,1,6.412-4.042,20.868,20.868,0,0,1,7.295-1.673c.339-.019.658-.019.987-.029a.633.633,0,0,0,.141-.009c3.892,0,7.774.1,11.675.244q3.187.142,6.392.3l6.027.31a8.287,8.287,0,0,1,5.677,2.444,7.835,7.835,0,0,1,2.181,3.779C1630.238,2730.189,1630.3,2730.574,1630.36,2730.969Z" transform="translate(-1581.439 -2722.715)" fill="none" stroke="#4b58aa" stroke-width="1"/>
        </g>
      </g>
      <g id="Group_4757-5" data-name="Group 4757" transform="translate(804.965 816.235)">
        <g id="Group_4459-5" data-name="Group 4459">
          <path id="Path_48087" data-name="Path 48087" d="M2281.417,2183.19c-.564.583-1.147,1.147-1.768,1.673a26.593,26.593,0,0,1-6.58,4.174,20.885,20.885,0,0,1-7.3,1.673l-.987.028a.684.684,0,0,0-.141.01c-3.892,0-7.775-.1-11.666-.254-2.134-.084-4.268-.188-6.393-.3l-6.035-.3a8.293,8.293,0,0,1-5.688-2.454,7.809,7.809,0,0,1-2.171-3.769c-.075-.4-.151-.79-.207-1.185,2.567.311,5.312.4,8.057.611l3.609.188,2.774.122v.019l3.8.188c.01-.01,0-.018.01-.029l2.538.113.1.01a.184.184,0,0,0-.009.065l5.255.272.479.029,2.538.112c.527.019,1.053.057,1.589.085s1.063.047,1.617.075c.922.056,1.862.094,2.812.141,2.509.159,5.028.253,7.53.386a10.726,10.726,0,0,0,4.108-.479,5.341,5.341,0,0,0,2.1-1.232Z" transform="translate(-2223.972 -2133.593)" fill="none" stroke="#4b58aa" stroke-width="1"/>
          <path id="Path_48088" data-name="Path 48088" d="M2224.482,2136.519l-.9-.113a6.621,6.621,0,0,1-4.24-2.51,3.89,3.89,0,0,1-.339-.432,7.849,7.849,0,0,1-.6-.959c-.094-.169-.179-.329-.263-.508-.151-.338-.292-.686-.405-1.025-.037-.112-.074-.225-.1-.329a9.391,9.391,0,0,1-.507-2.463c-.066-1.044-.142-2.1-.207-3.158-.2-2.943-.348-5.895-.507-8.855q-.156-3.259-.376-6.525c-.018-.207-.018-.413-.028-.63a33.518,33.518,0,0,1,.292-6.232,25.868,25.868,0,0,1,.893-4.184c.272-.893.592-1.757.94-2.613a25.9,25.9,0,0,1,3.911-6.393c.244-.282.479-.554.733-.827.338-.394.677-.771,1.043-1.137l.018.019a.461.461,0,0,0-.1.084,5.443,5.443,0,0,0-1.307,2.135,10.472,10.472,0,0,0-.5,4.107c.038.809.065,1.646.131,2.464l.2,3.864c.085,1.908.169,3.817.272,5.724.085,1.626.169,3.234.254,4.861.065,1.269.132,2.556.207,3.835.028.781.075,1.561.122,2.34.019.433.028.875.047,1.307.019.245.029.48.047.724.01.385.047.78.075,1.165l.076,1.749.46,5.649.038.264v.15C2224.143,2130.954,2224.087,2133.774,2224.482,2136.519Z" transform="translate(-2215.968 -2087.626)" fill="none" stroke="#4b58aa" stroke-width="1"/>
        </g>
      </g>
      <path id="Path_48120" data-name="Path 48120" d="M372.9-4.888,0,369.452" transform="translate(511.167 798.286)" fill="none" stroke="#4b58aa" stroke-width="1"/>
      <line id="Line_543" data-name="Line 543" x1="672.233" y1="2.43" transform="translate(336.727 1007.787)" fill="none" stroke="#4b58aa" stroke-width="1"/>
      <path id="Path_48089" data-name="Path 48089" d="M1711.353,2818.194a178.217,178.217,0,0,1,252.164,0c.31.31.63.63.931.949" transform="translate(-1164.314 -1600.099)" fill="none" stroke="#4b58aa" stroke-width="1"/>
      <circle id="Ellipse_250" data-name="Ellipse 250" cx="157.459" cy="157.459" r="157.459" transform="translate(514.387 821.856)" fill="none" stroke="#4b58aa" stroke-width="1"/>
      <circle id="Ellipse_251" data-name="Ellipse 251" cx="75.58" cy="75.58" r="75.58" transform="translate(596.67 934.417)" fill="none" stroke="#4b58aa" stroke-width="1"/>
      <path id="Path_48090" data-name="Path 48090" d="M2051.683,1254.109l-183.336-183.941-49.3-49.3-.009-.009-.009-.009-.517-.517-49-49L1675.182,877l-.028-.028" transform="translate(-1168.62 -703.581)" fill="none" stroke="#4b58aa" stroke-width="1"/>
      <g id="Group_4757-6" data-name="Group 4757" transform="translate(479.47 143.323)">
        <g id="Group_4459-6" data-name="Group 4459">
          <path id="Path_48091" data-name="Path 48091" d="M1674.177,784.954c-.056-.959-.122-1.89-.263-2.82l.9.112a6.317,6.317,0,0,1,2.049.7c-.677.489-1.354,1-2.021,1.495C1674.619,784.607,1674.393,784.775,1674.177,784.954Z" transform="translate(-1625.641 -782.106)" fill="none" stroke="#4b58aa" stroke-width="1"/>
          <path id="Path_48092" data-name="Path 48092" d="M1629.2,876.358a27.218,27.218,0,0,1-8.358,5.856,21.009,21.009,0,0,1-7.295,1.654c-.329.01-.648.028-.987.028a.67.67,0,0,1-.141.009c-3.883.01-7.765-.094-11.676-.244q-3.187-.141-6.383-.291l-6.035-.32a8.288,8.288,0,0,1-5.678-2.444,7.776,7.776,0,0,1-1.5-2.012.99.99,0,0,1-.1-.2,7.138,7.138,0,0,1-.573-1.57q-.112-.563-.2-1.156a.047.047,0,0,0-.009-.028c.009.009.019,0,.038,0,.855.1,1.748.188,2.632.263.056,0,.123.009.179.009,1.711.132,3.459.207,5.208.339l3.619.2,2.764.113v.019l3.807.2c0-.018-.01-.028,0-.038l2.528.122h.113a.182.182,0,0,0-.01.066l5.255.273.479.028,2.538.113c.527.038,1.053.056,1.588.085s1.072.056,1.617.075c.931.066,1.862.094,2.811.141,2.51.16,5.029.254,7.539.395,2.792.141,4.861-.423,6.2-1.711Z" transform="translate(-1580.258 -827.418)" fill="none" stroke="#4b58aa" stroke-width="1"/>
          <line id="Line_544" data-name="Line 544" x1="0.047" y2="0.009" transform="translate(48.846 8.658)" fill="none" stroke="#4b58aa" stroke-width="1"/>
          <path id="Path_48093" data-name="Path 48093" d="M1674.509,790.709l-.01-.141c-.2-1.871-.235-3.713-.348-5.518,0-.038-.01-.084-.01-.122-.056-.959-.122-1.89-.263-2.82-.01-.01,0-.019-.01-.028l-.028.028" transform="translate(-1625.606 -782.079)" fill="none" stroke="#4b58aa" stroke-width="1"/>
          <path id="Path_48094" data-name="Path 48094" d="M1580.331,838.568c.856.1,1.748.188,2.632.263.056,0,.122.009.178.009,1.712.132,3.46.207,5.209.339l3.619.2,2.764.113v.019l3.807.2c0-.018-.01-.028,0-.038l2.528.122h.113a.185.185,0,0,0-.009.066l5.255.273.479.028,2.538.113c.527.037,1.053.056,1.589.085s1.072.056,1.618.075c.93.065,1.861.094,2.811.141,2.51.16,5.029.254,7.539.395,2.792.141,4.86-.423,6.2-1.711a.55.55,0,0,0,.113-.094c1.335-1.335,1.936-3.422,1.8-6.242-.047-.818-.066-1.645-.132-2.463l-.2-3.863c-.084-1.908-.169-3.817-.273-5.725-.085-1.626-.169-3.234-.263-4.851-.057-1.279-.123-2.566-.2-3.845-.037-.771-.075-1.561-.123-2.34-.019-.433-.028-.875-.056-1.3,0-.244-.019-.489-.037-.734-.01-.385-.047-.78-.076-1.165l-.084-1.74-.451-5.659-.019-.094c-.009.01-.009.01-.028-.009l.019.057" transform="translate(-1580.293 -790.342)" fill="none" stroke="#4b58aa" stroke-width="1"/>
          <path id="Path_48095" data-name="Path 48095" d="M1674.935,799.132" transform="translate(-1626.136 -790.342)" fill="none" stroke="#4b58aa" stroke-width="1"/>
        </g>
      </g>
      <g id="Group_4957" data-name="Group 4957" transform="translate(469.204 470.692)">
        <g id="Group_4757-7" data-name="Group 4757" transform="translate(0 8.218)">
          <g id="Group_4459-7" data-name="Group 4459" transform="translate(0 0)">
            <path id="Path_48096" data-name="Path 48096" d="M1628.118,1529.89c-.565.583-1.147,1.147-1.768,1.673a26.576,26.576,0,0,1-6.581,4.175,20.867,20.867,0,0,1-7.295,1.673l-.987.028a.678.678,0,0,0-.141.009c-3.892,0-7.774-.1-11.666-.254q-3.2-.127-6.393-.3l-6.035-.3a8.293,8.293,0,0,1-5.687-2.453,7.814,7.814,0,0,1-2.172-3.77c-.075-.395-.151-.79-.207-1.184,2.566.31,5.311.4,8.056.611l3.61.188,2.773.122v.019l3.8.188c.009-.01,0-.019.009-.029l2.538.113.1.01a.184.184,0,0,0-.009.066l5.255.272.479.028,2.538.113c.526.019,1.053.057,1.589.085s1.062.047,1.617.075c.921.056,1.861.094,2.811.141,2.51.16,5.03.254,7.53.386a10.708,10.708,0,0,0,4.108-.48,5.34,5.34,0,0,0,2.1-1.231Z" transform="translate(-1570.672 -1480.293)" fill="none" stroke="#4b58aa" stroke-width="1"/>
            <path id="Path_48097" data-name="Path 48097" d="M1571.182,1483.219l-.9-.113a6.619,6.619,0,0,1-4.24-2.51,3.86,3.86,0,0,1-.339-.432,7.913,7.913,0,0,1-.6-.959c-.094-.17-.178-.329-.263-.508-.15-.338-.292-.686-.4-1.025-.038-.112-.075-.225-.1-.329a9.446,9.446,0,0,1-.508-2.463c-.066-1.043-.141-2.1-.206-3.158-.2-2.942-.348-5.894-.508-8.855q-.155-3.258-.376-6.524c-.018-.207-.019-.414-.028-.63a33.5,33.5,0,0,1,.291-6.233,25.887,25.887,0,0,1,.893-4.183c.273-.893.592-1.758.94-2.613a25.9,25.9,0,0,1,3.911-6.392c.244-.282.479-.555.733-.827.339-.4.677-.771,1.043-1.138l.019.019a.479.479,0,0,0-.1.084,5.462,5.462,0,0,0-1.307,2.134,10.49,10.49,0,0,0-.5,4.108c.038.808.066,1.645.131,2.463l.2,3.864c.084,1.908.169,3.816.273,5.725.084,1.626.169,3.234.253,4.86.066,1.269.132,2.557.207,3.836.028.781.075,1.56.122,2.341.019.432.028.874.047,1.307.019.245.028.48.047.724.009.386.047.78.075,1.165l.075,1.749.461,5.65.037.263v.15C1570.844,1477.654,1570.787,1480.474,1571.182,1483.219Z" transform="translate(-1562.668 -1434.326)" fill="none" stroke="#4b58aa" stroke-width="1"/>
          </g>
        </g>
        <g id="Group_4757-8" data-name="Group 4757" transform="translate(8.571)">
          <g id="Group_4459-8" data-name="Group 4459">
            <path id="Path_48098" data-name="Path 48098" d="M1675.893,1482.11a.539.539,0,0,0,.114-.094,5.581,5.581,0,0,0,1.231-1.909l-.01-.009a9.843,9.843,0,0,0,.583-4.306c-.038-.827-.075-1.655-.122-2.473l-.2-3.863c-.084-1.909-.179-3.808-.282-5.716-.085-1.627-.16-3.244-.254-4.861-.065-1.287-.131-2.557-.207-3.835-.028-.781-.066-1.57-.122-2.341-.009-.441-.028-.874-.056-1.316-.01-.235-.009-.479-.029-.723-.019-.395-.056-.771-.084-1.157l-.075-1.748-.451-5.659-.019-.095c-.019,0-.019,0-.028-.009v.056c-.028-.009-.066-.009-.094-.019l-.01-.047a.223.223,0,0,1,0-.113c.028-.009.037,0,.057,0h.037l.028-.009a.047.047,0,0,0-.009-.028l-.01-.01v-.131c-.31-2.9-.244-5.735-.639-8.461q.466.043.9.113a6.672,6.672,0,0,1,4.249,2.519,3.775,3.775,0,0,1,.338.433,7.848,7.848,0,0,1,.6.958c.094.17.178.329.254.5a10.262,10.262,0,0,1,.413,1.034c.038.113.076.225.1.329a9.414,9.414,0,0,1,.507,2.462c.066,1.044.141,2.1.207,3.159.2,2.943.348,5.894.507,8.855q.155,3.257.376,6.524c.019.207.019.414.029.63a33.546,33.546,0,0,1-.292,6.233,27.247,27.247,0,0,1-.893,4.183c-.273.893-.593,1.758-.94,2.614a26.006,26.006,0,0,1-4.061,6.561c-.188.226-.386.442-.583.658-.339.395-.678.771-1.044,1.137Z" transform="translate(-1626.324 -1424.983)" fill="none" stroke="#4b58aa" stroke-width="1"/>
            <path id="Path_48099" data-name="Path 48099" d="M1629.252,1425.476c-2.548-.31-5.3-.413-8.057-.611l-3.609-.188-2.764-.113v-.019l-3.8-.207c0,.019-.009.028-.009.047l-2.539-.132h-.094a.189.189,0,0,0-.009-.066l-5.255-.272-.47-.019-2.538-.112c-.526-.038-1.052-.057-1.58-.094-.545-.019-1.081-.048-1.617-.075-.94-.056-1.861-.094-2.82-.132-2.51-.16-5.029-.254-7.539-.395a10.818,10.818,0,0,0-3.911.413,5.551,5.551,0,0,0-2.294,1.3l-.019-.019a25.067,25.067,0,0,1,1.936-1.8,26.5,26.5,0,0,1,6.411-4.043,20.875,20.875,0,0,1,7.295-1.673c.339-.019.658-.019.987-.028a.694.694,0,0,0,.141-.009c3.892,0,7.774.1,11.675.244q3.187.141,6.392.3l6.026.311a8.282,8.282,0,0,1,5.678,2.444,7.832,7.832,0,0,1,2.181,3.779C1629.13,1424.7,1629.2,1425.081,1629.252,1425.476Z" transform="translate(-1580.331 -1417.223)" fill="none" stroke="#4b58aa" stroke-width="1"/>
          </g>
        </g>
      </g>
      <g id="Group_4757-9" data-name="Group 4757" transform="translate(806.559 143.351)">
        <g id="Group_4459-9" data-name="Group 4459">
          <path id="Path_48100" data-name="Path 48100" d="M2280.309,877.7c-.564.583-1.147,1.147-1.768,1.673a26.569,26.569,0,0,1-6.58,4.174,20.855,20.855,0,0,1-7.3,1.673l-.987.029a.638.638,0,0,0-.141.009c-3.892,0-7.775-.1-11.667-.254q-3.2-.127-6.392-.3l-6.035-.3a8.294,8.294,0,0,1-5.688-2.454,7.812,7.812,0,0,1-2.171-3.769c-.075-.395-.151-.79-.207-1.185,2.567.31,5.312.4,8.056.611l3.61.188,2.773.122v.019l3.8.188c.009-.01,0-.019.009-.028l2.538.113.1.009a.19.19,0,0,0-.009.066l5.255.273.48.028,2.538.113c.526.018,1.052.057,1.588.084s1.062.047,1.616.075c.922.057,1.862.094,2.811.141,2.51.16,5.029.254,7.53.385a10.7,10.7,0,0,0,4.108-.48,5.341,5.341,0,0,0,2.1-1.231Z" transform="translate(-2222.864 -828.1)" fill="none" stroke="#4b58aa" stroke-width="1"/>
          <path id="Path_48101" data-name="Path 48101" d="M2223.374,831.027l-.9-.113a6.619,6.619,0,0,1-4.24-2.51,3.846,3.846,0,0,1-.339-.432,7.847,7.847,0,0,1-.6-.959c-.094-.169-.179-.329-.263-.508-.151-.339-.292-.686-.4-1.025-.037-.112-.075-.225-.1-.329a9.385,9.385,0,0,1-.507-2.463c-.066-1.043-.141-2.1-.207-3.158-.2-2.943-.348-5.894-.508-8.855q-.156-3.258-.376-6.524c-.018-.207-.018-.414-.028-.63a33.55,33.55,0,0,1,.291-6.233,25.828,25.828,0,0,1,.893-4.183c.272-.893.592-1.758.94-2.613a25.9,25.9,0,0,1,3.91-6.392c.245-.283.479-.555.733-.827.339-.4.677-.771,1.044-1.138l.019.019a.451.451,0,0,0-.1.084,5.445,5.445,0,0,0-1.307,2.134,10.474,10.474,0,0,0-.5,4.108c.037.808.065,1.645.131,2.463l.2,3.864c.085,1.909.169,3.817.273,5.725.084,1.626.17,3.234.253,4.86.066,1.269.132,2.557.208,3.836.028.78.075,1.56.122,2.341.018.432.028.874.047,1.307.019.244.029.479.048.724.009.385.046.78.074,1.165l.075,1.748.461,5.65.038.263v.15C2223.035,825.462,2222.979,828.282,2223.374,831.027Z" transform="translate(-2214.86 -782.134)" fill="none" stroke="#4b58aa" stroke-width="1"/>
        </g>
      </g>
      <line id="Line_545" data-name="Line 545" x1="374.959" y2="374.963" transform="translate(456.921 173.394)" fill="none" stroke="#4b58aa" stroke-width="1"/>
      <path id="Path_48102" data-name="Path 48102" d="M1817.192,504.012,1691.1,630.1l-17.231,17.231-.028.028" transform="translate(-1146.136 -504.012)" fill="none" stroke="#4b58aa" stroke-width="1"/>
      <path id="Path_48103" data-name="Path 48103" d="M1445.56,875.643l-.028.028-17.955,17.955-42.632,42.632-82.735,82.735" transform="translate(-966.053 -684.095)" fill="none" stroke="#4b58aa" stroke-width="1"/>
      <line id="Line_546" data-name="Line 546" x1="672.233" y1="2.43" transform="translate(336.156 334.903)" fill="none" stroke="#4b58aa" stroke-width="1"/>
      <path id="Path_48104" data-name="Path 48104" d="M1959.51,748.647l-.01.01a178.311,178.311,0,0,1-252.164,0l-.009-.01" transform="translate(-1162.363 -622.556)" fill="none" stroke="#4b58aa" stroke-width="1"/>
      <circle id="Ellipse_252" data-name="Ellipse 252" cx="157.459" cy="157.459" r="157.459" transform="translate(513.816 206.938)" fill="none" stroke="#4b58aa" stroke-width="1"/>
      <circle id="Ellipse_253" data-name="Ellipse 253" cx="75.58" cy="75.58" r="75.58" transform="translate(594.366 261.533)" fill="none" stroke="#4b58aa" stroke-width="1"/>
      <g id="Group_4757-10" data-name="Group 4757" transform="translate(1145.019 809.158)">
        <g id="Group_4459-10" data-name="Group 4459">
          <path id="Path_48105" data-name="Path 48105" d="M2888.035,2183.42c.01.01.019,0,.038,0l-.029.028C2888.035,2183.439,2888.044,2183.429,2888.035,2183.42Z" transform="translate(-2879.522 -2126.969)" fill="none" stroke="#4b58aa" stroke-width="1"/>
          <path id="Path_48106" data-name="Path 48106" d="M2913.865,2081.21l-3.808-.2v.038l-2.548-.122h-.094a.188.188,0,0,0,.009-.066l-5.255-.272-.48-.028-2.538-.113-1.588-.085c-.536-.028-1.072-.056-1.617-.075-.931-.066-1.861-.094-2.811-.141-2.51-.159-5.029-.254-7.54-.395-2.811-.123-4.86.423-6.213,1.72a.447.447,0,0,0-.1.084c-1.334,1.335-1.955,3.422-1.8,6.243.038.827.065,1.645.122,2.472l.2,3.864c.085,1.908.178,3.807.282,5.716.084,1.626.17,3.234.254,4.86.056,1.278.132,2.557.207,3.835.028.781.075,1.561.122,2.341.009.442.028.874.047,1.306.019.245.028.48.047.724.01.385.048.78.075,1.166l.075,1.749.461,5.65.019.094.019.019v-.056a.357.357,0,0,0,.1.009l-.01.047a.24.24,0,0,1,.019.113v.019a.187.187,0,0,1-.066-.01h-.075c.01.009.019.019.01.029l.028.009-.009.14c.2,1.927.235,3.807.357,5.66.056.94.14,1.871.272,2.792l-.9-.113a6.279,6.279,0,0,1-2.078-.686,6.716,6.716,0,0,1-2.162-1.824,2.586,2.586,0,0,1-.338-.433,6.29,6.29,0,0,1-.6-.959c-.094-.169-.178-.329-.253-.5-.16-.348-.291-.687-.414-1.035a1.313,1.313,0,0,1-.1-.329,9.431,9.431,0,0,1-.508-2.463c-.066-1.043-.141-2.1-.207-3.158-.2-2.943-.348-5.894-.5-8.845-.122-2.172-.235-4.353-.376-6.524a4.805,4.805,0,0,1-.028-.63,32.694,32.694,0,0,1,.272-6.233,28.106,28.106,0,0,1,.9-4.193c.272-.893.592-1.757.94-2.613a25.792,25.792,0,0,1,4.644-7.22c.339-.395.677-.77,1.034-1.147a26.92,26.92,0,0,1,8.367-5.847,21.2,21.2,0,0,1,7.294-1.674c.329-.009.659-.019,1-.019.038,0,.084-.009.14-.009,3.873,0,7.765.094,11.657.244q3.2.126,6.392.3l6.026.31a8.237,8.237,0,0,1,5.688,2.454,8.084,8.084,0,0,1,1.5,1.993,7.225,7.225,0,0,1,.677,1.768q.127.577.2,1.156c.01.009,0,.018.01.028-.01-.01-.019,0-.038,0-.922-.113-1.871-.2-2.839-.264-1.693-.132-3.432-.216-5.18-.347l-.01.009-3.619-.2-2.754-.122Z" transform="translate(-2871.52 -2073.897)" fill="none" stroke="#4b58aa" stroke-width="1"/>
        </g>
      </g>
      <g id="Group_4757-11" data-name="Group 4757" transform="translate(812.77 808.719)">
        <g id="Group_4459-11" data-name="Group 4459">
          <path id="Path_48107" data-name="Path 48107" d="M2329.193,2135.41a.517.517,0,0,0,.114-.094,5.581,5.581,0,0,0,1.231-1.908l-.009-.009a9.844,9.844,0,0,0,.582-4.305c-.037-.827-.075-1.655-.122-2.472l-.2-3.864c-.085-1.909-.178-3.807-.282-5.715-.084-1.627-.159-3.243-.254-4.861-.066-1.288-.132-2.557-.207-3.835-.028-.781-.065-1.571-.123-2.342-.009-.441-.028-.875-.056-1.316-.009-.235-.009-.479-.029-.724-.019-.395-.056-.771-.084-1.156l-.075-1.749-.451-5.659-.02-.094c-.018,0-.018,0-.028-.01v.056c-.028-.009-.066-.009-.094-.018l-.009-.047a.222.222,0,0,1,0-.113c.028-.01.038,0,.057,0h.038l.028-.01a.044.044,0,0,0-.01-.028l-.01-.01V2095c-.31-2.9-.244-5.735-.639-8.461q.465.042.9.113a6.67,6.67,0,0,1,4.249,2.519,3.833,3.833,0,0,1,.338.433,7.685,7.685,0,0,1,.6.959c.094.169.179.329.254.5a10.16,10.16,0,0,1,.414,1.034c.038.113.075.226.1.329a9.4,9.4,0,0,1,.507,2.463c.066,1.043.141,2.1.207,3.158.2,2.943.348,5.894.508,8.855q.155,3.257.376,6.524c.019.207.019.414.028.63a33.549,33.549,0,0,1-.291,6.233,27.228,27.228,0,0,1-.893,4.184c-.273.893-.593,1.757-.94,2.614a25.968,25.968,0,0,1-4.061,6.561c-.188.226-.386.442-.583.658-.338.395-.677.77-1.044,1.137Z" transform="translate(-2279.624 -2078.282)" fill="none" stroke="#4b58aa" stroke-width="1"/>
          <path id="Path_48108" data-name="Path 48108" d="M2282.552,2078.776c-2.547-.31-5.3-.413-8.056-.61l-3.61-.188-2.764-.113v-.019l-3.8-.207c0,.019-.009.028-.009.047l-2.538-.132h-.094a.183.183,0,0,0-.009-.066l-5.255-.273-.47-.019-2.538-.112c-.527-.038-1.053-.057-1.58-.094-.545-.019-1.081-.047-1.617-.075-.94-.056-1.861-.094-2.82-.132-2.51-.16-5.03-.254-7.54-.394a10.809,10.809,0,0,0-3.911.413,5.546,5.546,0,0,0-2.294,1.3l-.018-.018a24.819,24.819,0,0,1,1.936-1.8,26.491,26.491,0,0,1,6.411-4.043,20.869,20.869,0,0,1,7.295-1.673c.339-.019.658-.019.987-.029a.657.657,0,0,0,.141-.009c3.892,0,7.774.1,11.676.244q3.187.141,6.393.3l6.026.31a8.283,8.283,0,0,1,5.678,2.444,7.833,7.833,0,0,1,2.181,3.779C2282.43,2078,2282.5,2078.382,2282.552,2078.776Z" transform="translate(-2233.631 -2070.523)" fill="none" stroke="#4b58aa" stroke-width="1"/>
        </g>
      </g>
      <g id="Group_4757-12" data-name="Group 4757" transform="translate(1143.287 480.078)">
        <g id="Group_4459-12" data-name="Group 4459">
          <path id="Path_48109" data-name="Path 48109" d="M2933.61,1531c-.564.583-1.147,1.147-1.768,1.673a26.583,26.583,0,0,1-6.58,4.174,20.874,20.874,0,0,1-7.3,1.673l-.987.028a.675.675,0,0,0-.142.009c-3.891,0-7.774-.1-11.666-.254q-3.2-.127-6.392-.3l-6.035-.3a8.3,8.3,0,0,1-5.688-2.454,7.825,7.825,0,0,1-2.171-3.77c-.075-.395-.15-.79-.207-1.184,2.566.31,5.311.4,8.056.611l3.61.188,2.773.121v.019l3.8.189c.009-.01,0-.019.009-.028l2.538.113.1.009a.188.188,0,0,0-.009.066l5.255.273.48.028,2.538.112c.527.019,1.053.057,1.589.085s1.062.047,1.616.075c.922.056,1.862.094,2.811.141,2.51.16,5.029.254,7.53.385a10.7,10.7,0,0,0,4.108-.48,5.342,5.342,0,0,0,2.1-1.231Z" transform="translate(-2876.165 -1481.401)" fill="none" stroke="#4b58aa" stroke-width="1"/>
          <path id="Path_48110" data-name="Path 48110" d="M2876.674,1484.327l-.9-.113a6.618,6.618,0,0,1-4.24-2.51,3.754,3.754,0,0,1-.338-.432,7.79,7.79,0,0,1-.6-.959c-.094-.169-.179-.329-.264-.508-.151-.338-.292-.686-.4-1.025-.038-.112-.075-.225-.1-.329a9.417,9.417,0,0,1-.508-2.463c-.065-1.043-.141-2.1-.207-3.158-.2-2.943-.348-5.894-.508-8.855q-.155-3.258-.376-6.524c-.018-.207-.018-.414-.027-.63a33.55,33.55,0,0,1,.291-6.233,25.842,25.842,0,0,1,.893-4.183c.272-.893.591-1.758.94-2.613a25.9,25.9,0,0,1,3.91-6.392c.244-.282.479-.555.733-.827.338-.4.677-.771,1.043-1.138l.019.018a.449.449,0,0,0-.1.085,5.442,5.442,0,0,0-1.307,2.135,10.477,10.477,0,0,0-.5,4.108c.038.808.066,1.645.131,2.463l.2,3.864c.084,1.908.169,3.816.272,5.725.084,1.626.17,3.234.254,4.86.065,1.269.132,2.557.207,3.836.028.78.075,1.56.122,2.341.019.433.029.874.047,1.307.02.245.029.479.048.724.009.385.047.78.075,1.165l.075,1.748.461,5.65.038.263v.15C2876.336,1478.762,2876.28,1481.582,2876.674,1484.327Z" transform="translate(-2868.16 -1435.434)" fill="none" stroke="#4b58aa" stroke-width="1"/>
        </g>
      </g>
      <path id="Path_48111" data-name="Path 48111" d="M2964.19,1818.469a178.216,178.216,0,0,1,0-252.163c.31-.311.63-.63.95-.931" transform="translate(-1746.1 -1018.322)" fill="none" stroke="#4b58aa" stroke-width="1"/>
      <g id="Group_4757-13" data-name="Group 4757" transform="translate(469.574 815.369)">
        <g id="Group_4459-13" data-name="Group 4459" transform="translate(0 0)">
          <path id="Path_48112" data-name="Path 48112" d="M2281.417,2183.19c-.564.583-1.147,1.147-1.768,1.673a26.593,26.593,0,0,1-6.58,4.174,20.885,20.885,0,0,1-7.3,1.673l-.987.028a.684.684,0,0,0-.141.01c-3.892,0-7.775-.1-11.666-.254-2.134-.084-4.268-.188-6.393-.3l-6.035-.3a8.293,8.293,0,0,1-5.688-2.454,7.809,7.809,0,0,1-2.171-3.769c-.075-.4-.151-.79-.207-1.185,2.567.311,5.312.4,8.057.611l3.609.188,2.774.122v.019l3.8.188c.01-.01,0-.018.01-.029l2.538.113.1.01a.184.184,0,0,0-.009.065l5.255.272.479.029,2.538.112c.527.019,1.053.057,1.589.085s1.063.047,1.617.075c.922.056,1.862.094,2.812.141,2.509.159,5.028.253,7.53.386a10.726,10.726,0,0,0,4.108-.479,5.341,5.341,0,0,0,2.1-1.232Z" transform="translate(-2223.972 -2133.593)" fill="none" stroke="#4b58aa" stroke-width="1"/>
          <path id="Path_48113" data-name="Path 48113" d="M2224.482,2136.519l-.9-.113a6.621,6.621,0,0,1-4.24-2.51,3.89,3.89,0,0,1-.339-.432,7.849,7.849,0,0,1-.6-.959c-.094-.169-.179-.329-.263-.508-.151-.338-.292-.686-.405-1.025-.037-.112-.074-.225-.1-.329a9.391,9.391,0,0,1-.507-2.463c-.066-1.044-.142-2.1-.207-3.158-.2-2.943-.348-5.895-.507-8.855q-.156-3.259-.376-6.525c-.018-.207-.018-.413-.028-.63a33.518,33.518,0,0,1,.292-6.232,25.868,25.868,0,0,1,.893-4.184c.272-.893.592-1.757.94-2.613a25.9,25.9,0,0,1,3.911-6.393c.244-.282.479-.554.733-.827.338-.394.677-.771,1.043-1.137l.018.019a.461.461,0,0,0-.1.084,5.443,5.443,0,0,0-1.307,2.135,10.472,10.472,0,0,0-.5,4.107c.038.809.065,1.646.131,2.464l.2,3.864c.085,1.908.169,3.817.272,5.724.085,1.626.169,3.234.254,4.861.065,1.269.132,2.556.207,3.835.028.781.075,1.561.122,2.34.019.433.028.875.047,1.307.019.245.029.48.047.724.01.385.047.78.075,1.165l.076,1.749.46,5.649.038.264v.15C2224.143,2130.954,2224.087,2133.774,2224.482,2136.519Z" transform="translate(-2215.968 -2087.626)" fill="none" stroke="#4b58aa" stroke-width="1"/>
        </g>
      </g>
      <g id="Group_4757-14" data-name="Group 4757" transform="translate(477.812 807.419)">
        <g id="Group_4459-14" data-name="Group 4459">
          <path id="Path_48114" data-name="Path 48114" d="M2329.193,2135.41a.517.517,0,0,0,.114-.094,5.581,5.581,0,0,0,1.231-1.908l-.009-.009a9.844,9.844,0,0,0,.582-4.305c-.037-.827-.075-1.655-.122-2.472l-.2-3.864c-.085-1.909-.178-3.807-.282-5.715-.084-1.627-.159-3.243-.254-4.861-.066-1.288-.132-2.557-.207-3.835-.028-.781-.065-1.571-.123-2.342-.009-.441-.028-.875-.056-1.316-.009-.235-.009-.479-.029-.724-.019-.395-.056-.771-.084-1.156l-.075-1.749-.451-5.659-.02-.094c-.018,0-.018,0-.028-.01v.056c-.028-.009-.066-.009-.094-.018l-.009-.047a.222.222,0,0,1,0-.113c.028-.01.038,0,.057,0h.038l.028-.01a.044.044,0,0,0-.01-.028l-.01-.01V2095c-.31-2.9-.244-5.735-.639-8.461q.465.042.9.113a6.67,6.67,0,0,1,4.249,2.519,3.833,3.833,0,0,1,.338.433,7.685,7.685,0,0,1,.6.959c.094.169.179.329.254.5a10.16,10.16,0,0,1,.414,1.034c.038.113.075.226.1.329a9.4,9.4,0,0,1,.507,2.463c.066,1.043.141,2.1.207,3.158.2,2.943.348,5.894.508,8.855q.155,3.257.376,6.524c.019.207.019.414.028.63a33.549,33.549,0,0,1-.291,6.233,27.228,27.228,0,0,1-.893,4.184c-.273.893-.593,1.757-.94,2.614a25.968,25.968,0,0,1-4.061,6.561c-.188.226-.386.442-.583.658-.338.395-.677.77-1.044,1.137Z" transform="translate(-2279.624 -2078.282)" fill="none" stroke="#4b58aa" stroke-width="1"/>
          <path id="Path_48115" data-name="Path 48115" d="M2282.552,2078.776c-2.547-.31-5.3-.413-8.056-.61l-3.61-.188-2.764-.113v-.019l-3.8-.207c0,.019-.009.028-.009.047l-2.538-.132h-.094a.183.183,0,0,0-.009-.066l-5.255-.273-.47-.019-2.538-.112c-.527-.038-1.053-.057-1.58-.094-.545-.019-1.081-.047-1.617-.075-.94-.056-1.861-.094-2.82-.132-2.51-.16-5.03-.254-7.54-.394a10.809,10.809,0,0,0-3.911.413,5.546,5.546,0,0,0-2.294,1.3l-.018-.018a24.819,24.819,0,0,1,1.936-1.8,26.491,26.491,0,0,1,6.411-4.043,20.869,20.869,0,0,1,7.295-1.673c.339-.019.658-.019.987-.029a.657.657,0,0,0,.141-.009c3.892,0,7.774.1,11.676.244q3.187.141,6.393.3l6.026.31a8.283,8.283,0,0,1,5.678,2.444,7.833,7.833,0,0,1,2.181,3.779C2282.43,2078,2282.5,2078.382,2282.552,2078.776Z" transform="translate(-2233.631 -2070.523)" fill="none" stroke="#4b58aa" stroke-width="1"/>
        </g>
      </g>
      <g id="Group_4958" data-name="Group 4958" transform="translate(805.613 471.558)">
        <g id="Group_4757-15" data-name="Group 4757" transform="translate(8.571 8.218)">
          <g id="Group_4459-15" data-name="Group 4459">
            <path id="Path_48116" data-name="Path 48116" d="M1579.187,1529.89c.564.583,1.147,1.147,1.767,1.673a26.578,26.578,0,0,0,6.58,4.175,20.868,20.868,0,0,0,7.295,1.673l.987.028a.678.678,0,0,1,.141.009c3.892,0,7.774-.1,11.666-.254q3.2-.127,6.393-.3l6.035-.3a8.294,8.294,0,0,0,5.687-2.453,7.82,7.82,0,0,0,2.172-3.77c.075-.395.15-.79.207-1.184-2.567.31-5.312.4-8.056.611l-3.61.188-2.773.122v.019l-3.8.188c-.009-.01,0-.019-.009-.029l-2.538.113-.1.01a.189.189,0,0,1,.009.066l-5.255.272-.479.028-2.539.113c-.526.019-1.053.057-1.589.085s-1.062.047-1.617.075c-.921.056-1.861.094-2.811.141-2.51.16-5.029.254-7.53.386a10.708,10.708,0,0,1-4.108-.48,5.342,5.342,0,0,1-2.1-1.231Z" transform="translate(-1579.187 -1480.293)" fill="none" stroke="#4b58aa" stroke-width="1"/>
            <path id="Path_48117" data-name="Path 48117" d="M1562.668,1483.219l.9-.113a6.62,6.62,0,0,0,4.24-2.51,3.9,3.9,0,0,0,.339-.432,7.913,7.913,0,0,0,.6-.959c.094-.17.178-.329.263-.508.15-.338.291-.686.4-1.025.037-.112.075-.225.1-.329a9.42,9.42,0,0,0,.507-2.463c.066-1.043.141-2.1.207-3.158.2-2.942.348-5.894.508-8.855q.155-3.258.376-6.524c.019-.207.019-.414.028-.63a33.512,33.512,0,0,0-.291-6.233,25.861,25.861,0,0,0-.893-4.183c-.273-.893-.592-1.758-.94-2.613a25.894,25.894,0,0,0-3.911-6.392c-.244-.282-.479-.555-.733-.827-.339-.4-.677-.771-1.043-1.138l-.019.019a.474.474,0,0,1,.1.084,5.458,5.458,0,0,1,1.307,2.134,10.49,10.49,0,0,1,.5,4.108c-.038.808-.066,1.645-.131,2.463l-.2,3.864c-.084,1.908-.169,3.816-.272,5.725-.084,1.626-.169,3.234-.254,4.86-.066,1.269-.132,2.557-.207,3.836-.028.781-.075,1.56-.122,2.341-.018.432-.028.874-.047,1.307-.019.245-.028.48-.047.724-.01.386-.047.78-.075,1.165l-.075,1.749-.461,5.65-.037.263v.15C1563.006,1477.654,1563.063,1480.474,1562.668,1483.219Z" transform="translate(-1513.737 -1434.326)" fill="none" stroke="#4b58aa" stroke-width="1"/>
          </g>
        </g>
        <g id="Group_4757-16" data-name="Group 4757" transform="translate(0)">
          <g id="Group_4459-16" data-name="Group 4459">
            <path id="Path_48118" data-name="Path 48118" d="M1683.12,1482.11a.543.543,0,0,1-.113-.094,5.58,5.58,0,0,1-1.232-1.909l.01-.009a9.849,9.849,0,0,1-.583-4.306c.038-.827.075-1.655.122-2.473l.2-3.863c.085-1.909.179-3.808.282-5.716.084-1.627.16-3.244.254-4.861.065-1.287.131-2.557.207-3.835.028-.781.066-1.57.122-2.341.009-.441.028-.874.056-1.316.01-.235.01-.479.029-.723.019-.395.056-.771.084-1.157l.075-1.748.451-5.659.019-.095c.019,0,.019,0,.028-.009v.056c.028-.009.066-.009.094-.019l.009-.047a.217.217,0,0,0,0-.113c-.027-.009-.037,0-.056,0h-.037l-.028-.009a.047.047,0,0,1,.009-.028l.01-.01v-.131c.31-2.9.245-5.735.639-8.461-.31.028-.611.066-.9.113a6.671,6.671,0,0,0-4.249,2.519,3.759,3.759,0,0,0-.338.433,7.761,7.761,0,0,0-.6.958c-.094.17-.178.329-.254.5a10.12,10.12,0,0,0-.413,1.034c-.038.113-.076.225-.1.329a9.4,9.4,0,0,0-.508,2.462c-.066,1.044-.141,2.1-.207,3.159-.2,2.943-.348,5.894-.508,8.855q-.155,3.257-.376,6.524c-.019.207-.019.414-.028.63a33.567,33.567,0,0,0,.292,6.233,27.232,27.232,0,0,0,.893,4.183c.273.893.593,1.758.94,2.614a26.007,26.007,0,0,0,4.061,6.561c.188.226.386.442.583.658.339.395.677.771,1.044,1.137Z" transform="translate(-1675.245 -1424.983)" fill="none" stroke="#4b58aa" stroke-width="1"/>
            <path id="Path_48119" data-name="Path 48119" d="M1580.331,1425.476c2.548-.31,5.3-.413,8.057-.611l3.609-.188,2.764-.113v-.019l3.8-.207c0,.019.009.028.009.047l2.539-.132h.094a.186.186,0,0,1,.009-.066l5.255-.272.47-.019,2.539-.112c.526-.038,1.053-.057,1.579-.094.546-.019,1.082-.048,1.617-.075.94-.056,1.862-.094,2.821-.132,2.51-.16,5.029-.254,7.539-.395a10.818,10.818,0,0,1,3.911.413,5.546,5.546,0,0,1,2.294,1.3l.019-.019a24.983,24.983,0,0,0-1.937-1.8,26.486,26.486,0,0,0-6.411-4.043,20.872,20.872,0,0,0-7.295-1.673c-.339-.019-.658-.019-.987-.028a.7.7,0,0,1-.141-.009c-3.892,0-7.774.1-11.675.244q-3.187.141-6.392.3l-6.026.311a8.282,8.282,0,0,0-5.678,2.444,7.836,7.836,0,0,0-2.181,3.779C1580.453,1424.7,1580.387,1425.081,1580.331,1425.476Z" transform="translate(-1571.807 -1417.223)" fill="none" stroke="#4b58aa" stroke-width="1"/>
          </g>
        </g>
      </g>
      <circle id="Ellipse_257" data-name="Ellipse 257" cx="150" cy="150" r="150" transform="translate(521.846 521.856)" fill="none" stroke="#4b58aa" stroke-width="1"/>
      <circle id="Ellipse_258" data-name="Ellipse 258" cx="150" cy="150" r="150" transform="translate(821.846 521.856)" fill="none" stroke="#4b58aa" stroke-width="1"/>
      <circle id="Ellipse_259" data-name="Ellipse 259" cx="150" cy="150" r="150" transform="translate(221.846 521.856)" fill="none" stroke="#4b58aa" stroke-width="1"/>
    </g>
  </g>
</svg>
