<svg xmlns="http://www.w3.org/2000/svg" width="283" height="427" viewBox="0 0 283 427">
  <g id="Group_5017" data-name="Group 5017" transform="translate(-759 -1987)">
    <g id="Rectangle_22029" data-name="Rectangle 22029" transform="translate(759 1987)" fill="#4b58aa" stroke="#ededed" stroke-width="1">
      <rect width="283" height="427" rx="141.5" stroke="none"/>
      <rect x="0.5" y="0.5" width="282" height="426" rx="141" fill="none"/>
    </g>
    <g id="Group_4685" data-name="Group 4685" transform="translate(785.403 2110.784)">
      <g id="Group_4515" data-name="Group 4515" transform="translate(33.037 17.005)">
        <path id="Path_47211" data-name="Path 47211" d="M174.771,122c.074.074.166.111.24.185.535.5,1.089.941,1.643,1.421.664.535,1.329,1.052,2.012,1.55l9.209-20.523h-31.56C162.368,110.538,168.5,116.351,174.771,122Z" transform="translate(-132.018 9.019)" fill="#ededed"/>
        <path id="Path_47212" data-name="Path 47212" d="M185.427,104.632l-11.682,26.115c.867.388,1.753.72,2.658,1.052,8.231,3.008,17.2,3.931,26.484,3.507a64.571,64.571,0,0,0,19.139-3.765c.978-.369,1.956-.757,2.916-1.163l-11.535-25.746Z" transform="translate(-117.28 9.019)" fill="#ededed"/>
        <path id="Path_47213" data-name="Path 47213" d="M211.078,125.063c.369-.24.738-.48,1.107-.738a74.326,74.326,0,0,0,10.52-8.674c.332-.314.664-.628.978-.96,3.285-3.377,6.607-6.718,9.929-10.059H201.9Z" transform="translate(-93.468 9.019)" fill="#ededed"/>
        <path id="Path_47214" data-name="Path 47214" d="M188.007,62.252h-5.131c-.941.923-1.864,1.864-2.787,2.787-1.2,1.181-2.4,2.381-3.58,3.58-.683.664-1.347,1.329-2.012,1.975-.388.369-.757.738-1.107,1.126-.609.591-1.2,1.2-1.772,1.809l-2.695,2.658-8.767,9.357-.221.2c-4.8,5.315-10.206,9.818-14.23,15.244a14.9,14.9,0,0,0-2.547,8.674c-.148,4.116,1.624,8.213,5.2,11.83l8.434,8.434h31.209Z" transform="translate(-143.15 -26.817)" fill="#ededed"/>
        <path id="Path_47215" data-name="Path 47215" d="M196.435,57.152h11.387V67.931h25.524c-.83-.812-1.642-1.624-2.491-2.473-1.4-1.44-2.842-2.842-4.319-4.282-3.8-3.913-7.715-7.714-11.535-11.553-4.411-4.393-8.748-6.57-13.122-6.57-4.319,0-8.674,2.141-12.993,6.441-1.255,1.255-2.547,2.51-3.783,3.783L179.179,59.2c-2.935,2.9-5.888,5.814-8.8,8.73h26.06Z" transform="translate(-120.129 -43.052)" fill="#ededed"/>
        <path id="Path_47216" data-name="Path 47216" d="M173.175,129.93H225.9V62.252H173.175Zm9.94-57.427h33.623V118.96H183.115Z" transform="translate(-117.762 -26.817)" fill="#ededed"/>
        <path id="Path_47217" data-name="Path 47217" d="M250.043,100.548c-3.913-4.669-8.711-9.3-13.307-14.1h-.018l-5.537-5.555L226.9,76.7l.037-.037-5.814-5.814L217.1,66.774l-4.522-4.522h-5.112V129.93h31.91c1.015-1.015,2.03-2.049,3.027-3.082,1.606-1.643,3.175-3.267,4.762-4.909a18.983,18.983,0,0,0,3.156-4.319,2.524,2.524,0,0,0,.351-.628,15.72,15.72,0,0,0,1.015-2.1,9.79,9.79,0,0,0,.406-1.107,15.181,15.181,0,0,0,.572-2.27,5.9,5.9,0,0,0,.148-1.126A12.729,12.729,0,0,0,250.043,100.548Z" transform="translate(-88.767 -26.817)" fill="#ededed"/>
        <rect id="Rectangle_21819" data-name="Rectangle 21819" width="12.65" height="25.344" transform="translate(75.772 56.242)" fill="#ededed"/>
      </g>
    </g>
  </g>
</svg>
