<svg xmlns="http://www.w3.org/2000/svg" xmlns:xlink="http://www.w3.org/1999/xlink" width="552.954" height="142.656" viewBox="0 0 552.954 142.656"><defs><style>.a{fill:#4b58aa;}.b{clip-path:url(#a);}.c{fill:none;stroke:#4b58aa;stroke-miterlimit:10;stroke-width:1px;}</style><clipPath id="a"><rect class="a" width="142.656" height="552.954" rx="10"/></clipPath></defs><g class="b" transform="translate(0 142.656) rotate(-90)"><g transform="translate(9.235 -213.994)"><g transform="translate(27.209 586.136)"><g transform="translate(0)"><path class="c" d="M0,0H.028L.007.021Z" transform="translate(6.17 40.92)"/><path class="c" d="M30.694,5.3l-2.759-.143v.028L26.088,5.1h-.067a.135.135,0,0,0,.007-.049l-3.811-.2-.347-.021-1.839-.083-1.153-.06c-.388-.021-.776-.042-1.172-.055-.675-.046-1.35-.067-2.038-.1-1.819-.115-3.644-.185-5.463-.286C8.167,4.157,6.681,4.553,5.7,5.493a.359.359,0,0,0-.074.06,5.728,5.728,0,0,0-1.308,4.525c.028.6.046,1.192.088,1.793l.143,2.8c.063,1.382.129,2.76.206,4.144.06,1.178.123,2.343.183,3.522.042.927.095,1.853.15,2.78.021.566.056,1.132.088,1.7.007.321.021.635.035.947.014.178.021.349.035.525.007.28.035.566.053.846L5.353,30.4l.333,4.1.014.067.014.014v-.041a.269.269,0,0,0,.076.007l-.007.035a.173.173,0,0,1,.014.081v.014a.136.136,0,0,1-.049-.007H5.694l0,.021.021.007-.007.1c.143,1.4.171,2.761.259,4.1.042.679.1,1.354.2,2.022l-.654-.081a4.554,4.554,0,0,1-1.507-.5A4.886,4.886,0,0,1,2.443,39.02a1.9,1.9,0,0,1-.245-.314,4.508,4.508,0,0,1-.437-.7c-.067-.122-.129-.238-.185-.36-.115-.252-.21-.5-.3-.749a.969.969,0,0,1-.076-.24,6.884,6.884,0,0,1-.367-1.784c-.048-.756-.1-1.521-.15-2.29C.541,30.454.432,28.314.324,26.174.234,24.6.153,23.019.051,21.446a3.41,3.41,0,0,1-.021-.458,23.688,23.688,0,0,1,.2-4.518,20.112,20.112,0,0,1,.654-3.039c.2-.647.427-1.273.682-1.9A18.672,18.672,0,0,1,4.929,6.3c.245-.286.492-.559.751-.832a19.473,19.473,0,0,1,6.064-4.238A15.341,15.341,0,0,1,17.032.021c.238-.007.478-.014.723-.014.028,0,.06-.007.1-.007,2.808,0,5.63.067,8.449.178C27.854.238,29.4.314,30.941.4l4.368.224A5.967,5.967,0,0,1,39.432,2.4a5.84,5.84,0,0,1,1.091,1.444,5.245,5.245,0,0,1,.49,1.282c.063.277.109.557.143.837l.007.021h-.028c-.668-.081-1.357-.143-2.057-.19-1.227-.1-2.489-.157-3.755-.254l-.007.007L32.691,5.4,30.7,5.315Z"/></g></g><g transform="translate(25.954 347.589)"><g transform="translate(0)"><path class="c" d="M35.471.511a17.642,17.642,0,0,1-1.283,1.213,19.22,19.22,0,0,1-4.77,3.025,15.087,15.087,0,0,1-5.287,1.213l-.716.021a.469.469,0,0,0-.1.007c-2.822,0-5.637-.076-8.456-.185-1.549-.06-3.094-.136-4.636-.217l-4.375-.22A6.012,6.012,0,0,1,1.724,3.591,5.669,5.669,0,0,1,.15.857C.1.573.042.286,0,0,1.86.224,3.85.293,5.84.444L8.458.58l2.011.088V.682l2.752.136L13.228.8l1.84.081.074.007a.207.207,0,0,0,0,.049l3.808.2.347.021,1.839.083c.384.012.765.039,1.153.06s.77.035,1.172.056c.668.039,1.35.067,2.038.1,1.819.115,3.645.182,5.458.28a7.775,7.775,0,0,0,2.977-.349A3.854,3.854,0,0,0,35.45.49Z" transform="translate(6.171 35.443)"/><path class="c" d="M6.171,35.443l-.654-.083a4.792,4.792,0,0,1-3.073-1.819,2.773,2.773,0,0,1-.245-.314,5.545,5.545,0,0,1-.437-.693c-.067-.122-.129-.238-.19-.37-.108-.245-.213-.5-.294-.742-.028-.081-.053-.164-.074-.238A6.813,6.813,0,0,1,.835,29.4c-.046-.756-.1-1.518-.148-2.29C.544,24.974.433,22.837.317,20.69c-.074-1.574-.162-3.15-.273-4.73-.014-.15-.014-.3-.018-.455a24.263,24.263,0,0,1,.21-4.518A18.736,18.736,0,0,1,.883,7.952c.2-.647.43-1.273.682-1.893A18.644,18.644,0,0,1,4.4,1.426c.176-.206.347-.4.532-.6.245-.286.49-.559.756-.825L5.7.014a.331.331,0,0,0-.076.062A3.966,3.966,0,0,0,4.68,1.622,7.618,7.618,0,0,0,4.317,4.6c.028.585.049,1.192.095,1.784l.143,2.8c.062,1.384.125,2.766.2,4.15.062,1.179.122,2.343.185,3.524.046.92.095,1.853.148,2.78.021.564.055,1.13.09,1.7.014.312.021.633.032.947.014.175.021.347.035.525.007.28.035.566.055.843l.053,1.269.335,4.1.028.192v.109C5.926,31.408,5.884,33.453,6.171,35.443Z"/></g></g><path class="c" d="M37.858,183.466a129.183,129.183,0,0,1,0-182.791c.224-.227.455-.458.686-.675" transform="translate(42.32 396.14)"/><path class="c" d="M208.6,208.6l-.021-.02-68.54-68.54-35.735-35.735-.007-.007-.007-.007-.375-.375L68.4,68.4.02.021,0,0" transform="translate(68.395 627.115)"/><g transform="translate(32.94 591.659)"><path class="c" d="M.189,2.043C.15,1.349.1.675,0,0L.654.081a4.622,4.622,0,0,1,1.486.5C1.648.94,1.158,1.308.675,1.668.511,1.791.347,1.914.189,2.043Z" transform="translate(34.992 0.021)"/><path class="c" d="M35.475.518a19.719,19.719,0,0,1-6.057,4.245,15.215,15.215,0,0,1-5.29,1.2c-.238.007-.469.021-.714.021a.5.5,0,0,1-.1.007C20.5,6,17.683,5.923,14.848,5.815q-2.309-.1-4.627-.213L5.847,5.371A6,6,0,0,1,1.731,3.6,5.626,5.626,0,0,1,.64,2.14.661.661,0,0,1,.564,2,5.184,5.184,0,0,1,.15.86C.095.587.046.307.007.021L0,0C.007.007.014,0,.026,0,.647.076,1.294.136,1.934.192c.042,0,.088.007.129.007C3.3.293,4.571.349,5.84.444L8.463.587l2,.081V.682l2.759.143V.8l1.833.088h.083a.138.138,0,0,0-.007.048l3.808.2.349.021,1.839.081c.381.028.763.042,1.151.06s.777.042,1.172.056c.675.048,1.349.069,2.038.1,1.819.115,3.646.185,5.465.286A5.847,5.847,0,0,0,35.455.5Z" transform="translate(0 34.958)"/><line class="c" x1="0.034" y2="0.007" transform="translate(35.407 6.276)"/><path class="c" d="M.483,6.256l-.007-.1C.333,4.8.307,3.462.224,2.154c0-.028-.007-.062-.007-.09C.176,1.37.129.7.028.021L.021,0,0,.021" transform="translate(34.965 0)"/><path class="c" d="M0,28.586c.622.076,1.269.137,1.909.192.042,0,.088.007.129.007,1.241.095,2.507.15,3.776.245l2.623.143,2,.081v.014l2.759.143v-.028l1.833.09h.083a.12.12,0,0,0-.007.046l3.808.2.349.021,1.84.081c.381.028.763.042,1.151.06s.777.042,1.172.056c.675.048,1.349.069,2.038.1,1.819.116,3.647.185,5.465.287a5.846,5.846,0,0,0,4.5-1.241.333.333,0,0,0,.083-.067,5.787,5.787,0,0,0,1.308-4.525c-.035-.594-.049-1.193-.1-1.786l-.143-2.8c-.06-1.382-.122-2.766-.2-4.148-.062-1.179-.123-2.346-.192-3.517-.039-.927-.088-1.86-.143-2.787-.025-.559-.053-1.13-.088-1.7-.014-.314-.021-.633-.042-.941,0-.178-.011-.354-.025-.531-.007-.28-.035-.566-.056-.846l-.06-1.259L35.45.076,35.436.007c-.007.007-.007.007-.021-.007l.014.042" transform="translate(0.026 6.371)"/><path class="c" d="M0,0" transform="translate(35.374 6.371)"/></g><g transform="translate(271.299 830.227)"><g transform="translate(0)"><path class="c" d="M0,0H.028L.007.021Z" transform="translate(6.169 40.92)"/><path class="c" d="M30.7,5.3l-2.759-.143v.028L26.09,5.1h-.07a.124.124,0,0,0,.007-.046l-3.808-.2L21.87,4.83l-1.84-.081-1.151-.062c-.388-.021-.776-.039-1.172-.053-.675-.049-1.35-.069-2.038-.1-1.819-.118-3.647-.185-5.466-.287-2.038-.09-3.522.305-4.5,1.246a.282.282,0,0,0-.074.063,5.727,5.727,0,0,0-1.31,4.525c.028.6.049,1.192.09,1.791l.143,2.8c.06,1.384.129,2.762.2,4.143.063,1.179.122,2.346.185,3.524.039.927.095,1.854.15,2.78.019.566.053,1.13.088,1.7.007.321.021.633.035.947.014.178.021.347.032.524.007.28.034.566.055.846L5.353,30.4l.333,4.095.014.069.014.014v-.041a.254.254,0,0,0,.074.007l-.007.035a.168.168,0,0,1,.014.081v.014a.125.125,0,0,1-.046-.007H5.693l.007.021.021.007-.007.1c.143,1.4.171,2.759.259,4.1.042.682.1,1.357.2,2.025l-.654-.081a4.583,4.583,0,0,1-1.5-.5,4.81,4.81,0,0,1-1.567-1.322,1.8,1.8,0,0,1-.247-.312,4.843,4.843,0,0,1-.435-.7c-.069-.122-.129-.238-.185-.361-.116-.254-.21-.5-.3-.751a.96.96,0,0,1-.074-.238,6.721,6.721,0,0,1-.367-1.787c-.048-.756-.1-1.518-.15-2.288C.542,30.453.433,28.314.322,26.174.235,24.6.154,23.019.05,21.443a3.774,3.774,0,0,1-.019-.455,23.651,23.651,0,0,1,.2-4.518,20.347,20.347,0,0,1,.654-3.039c.2-.647.43-1.276.682-1.895A18.685,18.685,0,0,1,4.931,6.3c.245-.286.49-.559.749-.832a19.556,19.556,0,0,1,6.066-4.238A15.436,15.436,0,0,1,17.033.018c.238-.007.476-.011.721-.011.028,0,.063-.007.1-.007,2.805,0,5.627.067,8.449.175C27.853.238,29.4.312,30.94.4l4.368.224A5.963,5.963,0,0,1,39.431,2.4a5.8,5.8,0,0,1,1.091,1.444,5.242,5.242,0,0,1,.492,1.28c.06.28.109.559.141.839l.007.021h-.025c-.668-.083-1.357-.143-2.059-.192-1.227-.095-2.486-.157-3.755-.252l-.007.007L32.692,5.4l-2-.088Z"/></g></g><g transform="translate(32.966 828.965)"><path class="c" d="M.469,35.429a.411.411,0,0,0,.083-.069,4.024,4.024,0,0,0,.892-1.382l-.007-.007a7.174,7.174,0,0,0,.423-3.122c-.028-.6-.056-1.2-.088-1.791l-.143-2.8c-.062-1.384-.129-2.761-.206-4.144-.06-1.179-.115-2.35-.182-3.524-.049-.934-.1-1.853-.15-2.78-.021-.564-.048-1.137-.09-1.7-.007-.321-.021-.633-.039-.954-.007-.171-.007-.347-.021-.525C.927,12.347.9,12.075.878,11.8L.825,10.528.5,6.427.483,6.357.462,6.35v.042C.444,6.385.416,6.385.4,6.378L.388,6.344a.159.159,0,0,1,0-.081c.021-.007.028,0,.042,0H.455l.021-.007L.469,6.235.462,6.228V6.133C.238,4.028.287,1.976,0,0,.224.021.444.048.654.083A4.823,4.823,0,0,1,3.735,1.909a2.7,2.7,0,0,1,.245.312,5.749,5.749,0,0,1,.437.7c.067.123.13.238.183.36a7.66,7.66,0,0,1,.3.751c.027.081.055.164.076.238a6.908,6.908,0,0,1,.368,1.786c.046.756.1,1.518.15,2.288.141,2.133.252,4.273.368,6.42q.111,2.361.273,4.73c.014.148.014.3.021.455a24.264,24.264,0,0,1-.212,4.518A19.591,19.591,0,0,1,5.294,27.5c-.2.649-.43,1.276-.682,1.9a18.787,18.787,0,0,1-2.944,4.756c-.136.164-.28.321-.423.478-.245.287-.49.559-.756.825Z" transform="translate(35.464 5.983)"/><path class="c" d="M35.464,5.983c-1.846-.224-3.843-.3-5.84-.444L27.006,5.4l-2-.081,0-.014-2.755-.15-.007.035L20.4,5.1h-.067a.139.139,0,0,0-.007-.049l-3.811-.2-.34-.014-1.84-.083c-.381-.028-.765-.039-1.146-.067s-.783-.035-1.172-.056c-.682-.039-1.349-.067-2.045-.095-1.819-.116-3.644-.185-5.463-.287a7.877,7.877,0,0,0-2.836.3,4.015,4.015,0,0,0-1.664.94L0,5.479A18.261,18.261,0,0,1,1.4,4.171a19.229,19.229,0,0,1,4.647-2.93A15.106,15.106,0,0,1,11.34.028c.245-.014.478-.014.716-.021a.478.478,0,0,0,.1-.007c2.822,0,5.637.076,8.465.178,1.539.067,3.085.143,4.633.217l4.368.224A6.006,6.006,0,0,1,33.74,2.392,5.67,5.67,0,0,1,35.32,5.133C35.376,5.417,35.422,5.7,35.464,5.983Z"/></g><g transform="translate(270.043 591.68)"><g transform="translate(0)"><path class="c" d="M35.468.513c-.409.421-.832.83-1.28,1.211a19.226,19.226,0,0,1-4.77,3.027,15.194,15.194,0,0,1-5.29,1.213l-.714.019a.452.452,0,0,0-.1.007c-2.822,0-5.636-.074-8.458-.182-1.546-.062-3.095-.136-4.634-.219L5.846,5.371A6.007,6.007,0,0,1,1.724,3.591,5.662,5.662,0,0,1,.15.86C.095.573.041.286,0,0,1.86.226,3.85.293,5.84.444L8.456.58l2.01.088V.682l2.755.136,0-.021L15.067.88l.074.007a.125.125,0,0,0-.007.046l3.808.2.349.021,1.84.081c.381.014.763.042,1.151.062s.772.032,1.174.053c.668.042,1.347.069,2.036.1,1.821.115,3.646.183,5.458.277a7.747,7.747,0,0,0,2.979-.347A3.849,3.849,0,0,0,35.447.492Z" transform="translate(6.172 35.441)"/><path class="c" d="M6.172,35.441l-.654-.081a4.8,4.8,0,0,1-3.074-1.819,2.969,2.969,0,0,1-.245-.314,5.566,5.566,0,0,1-.437-.7c-.067-.122-.129-.238-.192-.367-.109-.245-.21-.5-.291-.742-.028-.083-.056-.164-.076-.24A6.876,6.876,0,0,1,.836,29.4c-.049-.756-.1-1.521-.15-2.29-.143-2.133-.252-4.273-.368-6.42C.242,19.114.154,17.54.046,15.959c-.014-.15-.014-.3-.021-.458a24.273,24.273,0,0,1,.213-4.518A18.46,18.46,0,0,1,.885,7.952c.2-.647.427-1.273.682-1.9A18.793,18.793,0,0,1,4.4,1.423c.178-.2.349-.4.531-.6.245-.287.49-.559.756-.825L5.7.014a.361.361,0,0,0-.074.06,3.962,3.962,0,0,0-.948,1.548A7.564,7.564,0,0,0,4.319,4.6c.028.587.046,1.192.095,1.786l.143,2.8c.062,1.382.122,2.766.2,4.15.06,1.179.123,2.343.183,3.522.049.92.095,1.853.15,2.78.021.566.055,1.132.088,1.7.014.314.021.635.035.947.014.178.021.349.035.525.007.28.035.566.053.846l.056,1.266.335,4.1.026.189v.109C5.927,31.408,5.886,33.451,6.172,35.441Z"/></g></g><path class="c" d="M0,37.857a129.187,129.187,0,0,1,182.789,0c.227.224.457.458.675.689" transform="translate(81.507 845.126)"/><path class="c" d="M37.856,183.466a129.19,129.19,0,0,1,0-182.791c.224-.224.458-.455.689-.675" transform="translate(286.41 640.228)"/><path class="c" d="M182.8,0,182.8.007A129.258,129.258,0,0,1,.007.007L0,0" transform="translate(80.416 579.169)"/><path class="c" d="M276.6,305.883c.143,1.4.171,2.759.259,4.1q-.7.513-1.384,1.017c-.2.143-.381.284-.578.427q-6.514,4.794-13.337,8.893c-.273.164-.546.328-.825.485a171.334,171.334,0,0,1-86.311,23.74h-1.514a172.9,172.9,0,0,1-87.5-24.075c-.164-.095-.326-.19-.483-.291a173.537,173.537,0,0,1-14.728-9.847.036.036,0,0,1-.026-.014l-.485-.363c-.074-.06-.15-.109-.224-.169l-.007-.007a7.169,7.169,0,0,0,.423-3.122c-.028-.6-.055-1.2-.088-1.791l-.143-2.8c-.062-1.384-.129-2.761-.206-4.143-.06-1.179-.115-2.35-.182-3.524-.048-.934-.1-1.853-.15-2.78-.021-.564-.049-1.137-.09-1.7-.007-.321-.021-.633-.039-.954-.007-.171-.007-.347-.021-.525-.014-.286-.042-.559-.063-.839l-.053-1.266-.328-4.1-.014-.069-.021-.007v.042c-.019-.007-.046-.007-.067-.014l-.007-.034a.162.162,0,0,1,0-.081c.021-.007.028,0,.042,0h.025l.021-.007-.007-.021-.007-.007v-.095c-.224-2.105-.176-4.157-.462-6.133-1.846-.224-3.843-.3-5.84-.444l-2.618-.136-2-.081,0-.014-2.755-.15-.007.035-1.84-.095h-.067a.143.143,0,0,0-.007-.049l-3.811-.2-.34-.014-1.839-.083c-.381-.028-.765-.039-1.146-.067s-.783-.035-1.172-.055c-.682-.039-1.349-.067-2.045-.095-1.819-.115-3.644-.185-5.463-.286a7.884,7.884,0,0,0-2.836.3c-.014-.014-.028-.042-.041-.055s-.014-.025-.028-.039l-.2-.286A172.17,172.17,0,0,1,6.563,218.242,172.938,172.938,0,0,1,0,171.651v-.832a172.352,172.352,0,0,1,6.277-45.976A169.634,169.634,0,0,1,23.361,84.494a165.672,165.672,0,0,1,9.805-14.875c.178-.259.374-.511.559-.763.28-.388.571-.79.864-1.179,1.241.095,2.507.15,3.776.245l2.623.143,2,.081v.014l2.759.143v-.028l1.833.088h.083a.136.136,0,0,0-.007.048l3.808.2.349.021,1.839.081c.381.028.762.042,1.151.06s.776.042,1.172.056c.675.048,1.349.069,2.038.1,1.819.115,3.647.185,5.465.287a5.847,5.847,0,0,0,4.5-1.241L68,68c.259-.273.511-.552.756-.837a18.721,18.721,0,0,0,3.36-5.228c.252-.619.483-1.248.682-1.895a19.69,19.69,0,0,0,.661-3.032,24.328,24.328,0,0,0,.2-4.518c0-.157-.007-.307-.018-.458-.1-1.581-.185-3.154-.273-4.728-.111-2.14-.226-4.287-.363-6.427-.053-.763-.1-1.518-.155-2.283a6.8,6.8,0,0,0-.37-1.784.892.892,0,0,0-.067-.233,5.756,5.756,0,0,0-.3-.749c-.053-.122-.123-.245-.189-.367a4.719,4.719,0,0,0-.437-.7,1.845,1.845,0,0,0-.245-.312,4.667,4.667,0,0,0-1.5-1.282l-.081-.042c.182-.143.36-.277.55-.414q6.645-4.846,13.644-8.983c.164-.108.347-.21.518-.314a169.64,169.64,0,0,1,50.48-19.6A172.069,172.069,0,0,1,171.664,0h.259a172.844,172.844,0,0,1,86.885,23.865c.109.055.217.122.319.185a172.413,172.413,0,0,1,14.9,9.914c.1.069.185.13.279.2a7.567,7.567,0,0,0-.36,2.977c.028.587.046,1.193.095,1.786l.143,2.8c.062,1.382.122,2.766.2,4.15.06,1.179.123,2.343.183,3.522.048.92.095,1.853.15,2.78.021.566.056,1.132.088,1.7.014.314.021.635.035.948.014.178.021.349.035.524.007.28.035.566.053.846l.055,1.266.335,4.1.026.189v.109c.213,2.094.171,4.137.458,6.126,1.86.226,3.85.293,5.84.443l2.616.136,2.011.088v.014l2.755.136,0-.021,1.842.083.074.007a.122.122,0,0,0-.007.046l3.808.2.349.021,1.84.081c.381.014.763.042,1.151.062s.772.032,1.174.053c.668.042,1.347.069,2.036.1,1.821.115,3.646.183,5.458.277a7.746,7.746,0,0,0,2.979-.346l.259.339c.021.021.035.048.053.07.1.122.185.238.273.367a172.753,172.753,0,0,1,27.627,55.92,172.82,172.82,0,0,1,6.616,46.836c.007.143.007.28.007.416a172.328,172.328,0,0,1-6.427,46.9,169.815,169.815,0,0,1-17.575,40.934q-3.987,6.687-8.627,13.071c-.171.238-.354.476-.531.709-.476.654-.954,1.294-1.444,1.948-1.227-.095-2.487-.157-3.755-.252l-.007.007-2.623-.143-2-.088v-.014l-2.759-.143v.028l-1.846-.09h-.07a.122.122,0,0,0,.007-.046l-3.809-.2-.349-.021-1.84-.081-1.151-.062c-.388-.021-.776-.039-1.172-.053-.675-.049-1.349-.069-2.038-.1-1.819-.118-3.647-.185-5.465-.287-2.038-.09-3.522.305-4.5,1.246a.285.285,0,0,0-.074.063,5.728,5.728,0,0,0-1.31,4.525c.028.6.048,1.193.09,1.791l.143,2.8c.06,1.384.129,2.761.2,4.143.063,1.179.122,2.346.185,3.524.04.927.095,1.854.15,2.78.019.567.053,1.13.088,1.7.007.321.021.633.035.947.014.178.021.347.032.525.007.28.035.566.055.846l.056,1.266.333,4.1.014.069.014.014v-.041a.255.255,0,0,0,.074.007l-.007.034a.167.167,0,0,1,.014.081v.014a.121.121,0,0,1-.046-.007h-.056l.007.021.021.007Z" transform="translate(0.414 559.138)"/><ellipse class="c" cx="114.141" cy="114.141" rx="114.141" ry="114.141" transform="translate(59.092 617.031)"/><g transform="translate(32.527 103.893)"><g transform="translate(0)"><path class="c" d="M.192,2.043C.15,1.35.1.675,0,0L.656.081a4.582,4.582,0,0,1,1.483.5c-.49.356-.98.723-1.465,1.084C.513,1.791.349,1.914.192,2.043Z" transform="translate(34.99 0.021)"/><path class="c" d="M35.475.518a19.7,19.7,0,0,1-6.059,4.245,15.2,15.2,0,0,1-5.288,1.2c-.238.007-.469.021-.714.021a.494.494,0,0,1-.1.007C20.5,6,17.683,5.923,14.848,5.814q-2.309-.1-4.627-.213L5.847,5.371A6,6,0,0,1,1.731,3.6,5.624,5.624,0,0,1,.64,2.14.73.73,0,0,1,.564,2,5.324,5.324,0,0,1,.148.86C.095.587.046.307,0,.021L0,0C0,.007.011,0,.025,0,.647.076,1.294.136,1.934.192c.042,0,.088.007.13.007C3.3.294,4.571.349,5.84.444L8.463.587l2,.081V.682l2.759.143V.8l1.833.088h.083a.132.132,0,0,0-.007.049l3.808.2.349.021,1.839.081c.381.028.763.042,1.151.06s.777.042,1.172.055c.675.049,1.349.067,2.038.1,1.819.115,3.644.185,5.465.287A5.847,5.847,0,0,0,35.454.5Z" transform="translate(0 34.958)"/><line class="c" x1="0.034" y2="0.007" transform="translate(35.407 6.276)"/><path class="c" d="M.483,6.256l-.007-.1C.333,4.8.3,3.462.224,2.154c0-.028-.007-.062-.007-.09C.176,1.37.129.7.025.021L.021,0,0,.021" transform="translate(34.965 0)"/><path class="c" d="M0,28.586c.622.076,1.269.136,1.909.192.042,0,.088.007.13.007,1.241.095,2.507.15,3.776.245l2.623.143,2,.081v.014l2.759.143v-.028l1.833.09h.083a.118.118,0,0,0-.007.046l3.808.2.349.021,1.839.081c.381.028.763.042,1.151.06s.777.042,1.172.055c.675.048,1.349.069,2.038.1,1.819.116,3.644.185,5.465.287a5.847,5.847,0,0,0,4.5-1.241.287.287,0,0,0,.081-.067q1.452-1.452,1.31-4.525c-.035-.594-.048-1.192-.1-1.786l-.143-2.8c-.06-1.382-.122-2.766-.2-4.148-.062-1.181-.122-2.346-.192-3.517-.039-.927-.088-1.86-.143-2.787-.026-.559-.053-1.13-.088-1.7-.014-.314-.021-.633-.042-.94,0-.178-.014-.354-.026-.531-.007-.28-.035-.566-.055-.846l-.062-1.259L35.45.076,35.436.007c-.007.007-.007.007-.021-.007l.014.042" transform="translate(0.025 6.371)"/><path class="c" d="M0,0" transform="translate(35.374 6.371)"/></g></g><g transform="translate(270.885 342.461)"><g transform="translate(0)"><path class="c" d="M0,0H.028L.007.021Z" transform="translate(6.169 40.92)"/><path class="c" d="M30.7,5.3l-2.759-.143v.028L26.089,5.1H26.02a.123.123,0,0,0,.007-.046l-3.808-.2L21.87,4.83,20.03,4.749l-1.151-.062c-.388-.021-.776-.039-1.172-.053-.675-.049-1.349-.069-2.038-.1-1.819-.118-3.647-.185-5.466-.287-2.038-.09-3.524.305-4.5,1.246a.331.331,0,0,0-.076.063,5.735,5.735,0,0,0-1.308,4.525c.028.6.049,1.192.09,1.791l.143,2.8c.06,1.384.129,2.761.2,4.143.06,1.179.122,2.346.185,3.524.039.927.095,1.854.148,2.78.021.566.055,1.13.09,1.7.007.321.021.633.035.947.011.178.018.347.032.525.007.28.035.566.055.846L5.351,30.4l.335,4.1.014.069.014.014v-.041a.246.246,0,0,0,.074.007l-.007.034a.164.164,0,0,1,.014.081v.014a.12.12,0,0,1-.046-.007H5.693l.007.021.021.007-.007.1c.143,1.4.171,2.759.259,4.1.039.682.1,1.356.2,2.024l-.654-.081a4.586,4.586,0,0,1-1.5-.5,4.844,4.844,0,0,1-1.569-1.322,1.931,1.931,0,0,1-.245-.312,4.818,4.818,0,0,1-.437-.7c-.067-.123-.129-.238-.182-.361-.116-.254-.213-.5-.3-.751a.947.947,0,0,1-.074-.238,6.828,6.828,0,0,1-.37-1.787c-.046-.756-.1-1.518-.148-2.288C.542,30.453.431,28.314.322,26.174.235,24.6.154,23.019.05,21.443a3.8,3.8,0,0,1-.018-.455,23.668,23.668,0,0,1,.2-4.518,20.358,20.358,0,0,1,.654-3.039c.2-.647.43-1.276.682-1.9A18.691,18.691,0,0,1,4.931,6.3c.245-.287.49-.559.749-.832a19.574,19.574,0,0,1,6.064-4.238A15.455,15.455,0,0,1,17.033.019c.238-.007.476-.012.721-.012.028,0,.063-.007.1-.007,2.808,0,5.63.067,8.451.176C27.853.238,29.4.312,30.94.4l4.368.224A5.963,5.963,0,0,1,39.431,2.4a5.793,5.793,0,0,1,1.091,1.444,5.233,5.233,0,0,1,.49,1.28,8.194,8.194,0,0,1,.143.839l.007.021h-.028c-.668-.083-1.354-.143-2.057-.192-1.227-.095-2.487-.157-3.755-.252l-.007.007L32.692,5.4l-2-.088Z"/></g></g><g transform="translate(32.552 341.199)"><path class="c" d="M.469,35.429a.407.407,0,0,0,.083-.069,4.016,4.016,0,0,0,.892-1.382l-.007-.007a7.179,7.179,0,0,0,.423-3.122c-.028-.6-.056-1.2-.09-1.791l-.141-2.8c-.063-1.384-.132-2.761-.206-4.143-.062-1.179-.115-2.35-.185-3.524-.046-.934-.095-1.853-.148-2.78-.021-.566-.049-1.137-.09-1.7-.007-.321-.021-.633-.039-.955-.007-.171-.007-.347-.021-.525C.927,12.348.9,12.075.878,11.8L.825,10.529.5,6.427.483,6.358.462,6.351v.042C.441,6.385.416,6.385.4,6.378L.388,6.344a.155.155,0,0,1,0-.081c.021-.007.028,0,.042,0H.455l.021-.007L.469,6.235.462,6.228V6.134C.238,4.028.286,1.976,0,0,.224.021.441.049.654.081a4.834,4.834,0,0,1,3.08,1.828,2.938,2.938,0,0,1,.245.312,5.765,5.765,0,0,1,.437.7c.067.122.129.238.182.36a7.37,7.37,0,0,1,.3.751c.028.081.056.164.074.238a6.815,6.815,0,0,1,.37,1.786c.046.756.1,1.518.148,2.288.143,2.133.254,4.273.37,6.42.074,1.574.162,3.147.273,4.73.014.148.014.3.018.455a24.264,24.264,0,0,1-.21,4.518A19.588,19.588,0,0,1,5.294,27.5c-.2.649-.43,1.276-.682,1.9a18.791,18.791,0,0,1-2.944,4.756c-.136.164-.28.321-.423.478-.245.286-.49.559-.756.825Z" transform="translate(35.464 5.983)"/><path class="c" d="M35.464,5.983c-1.846-.224-3.843-.3-5.84-.443L27.006,5.4l-2-.081V5.308l-2.752-.15-.007.035L20.4,5.1h-.069a.2.2,0,0,0,0-.049l-3.811-.2-.34-.014-1.84-.083c-.384-.028-.765-.039-1.146-.067s-.783-.034-1.172-.055c-.682-.039-1.35-.067-2.045-.095-1.819-.116-3.645-.185-5.465-.286a7.823,7.823,0,0,0-2.833.3,4.016,4.016,0,0,0-1.664.94L0,5.479A17.876,17.876,0,0,1,1.4,4.171a19.179,19.179,0,0,1,4.648-2.93A15.089,15.089,0,0,1,11.34.028c.245-.014.478-.014.716-.021a.469.469,0,0,0,.1-.007c2.822,0,5.636.074,8.463.178,1.542.067,3.087.143,4.633.217l4.37.224A6.011,6.011,0,0,1,33.74,2.392,5.672,5.672,0,0,1,35.32,5.13C35.374,5.417,35.422,5.7,35.464,5.983Z"/></g><g transform="translate(269.629 103.914)"><path class="c" d="M35.468.513c-.409.421-.832.83-1.28,1.211a19.307,19.307,0,0,1-4.77,3.027,15.213,15.213,0,0,1-5.29,1.213l-.714.018a.5.5,0,0,0-.1.007c-2.819,0-5.634-.074-8.456-.182-1.546-.063-3.094-.136-4.633-.22L5.847,5.371A6.006,6.006,0,0,1,1.724,3.591,5.664,5.664,0,0,1,.15.86C.095.573.039.286,0,0,1.86.227,3.85.293,5.84.444L8.456.58l2.011.088V.682l2.752.136L13.225.8,15.065.88l.076.007a.123.123,0,0,0-.007.046l3.808.2.349.021,1.84.081c.381.014.762.042,1.151.062s.77.032,1.172.053c.668.042,1.349.069,2.038.1,1.819.118,3.647.185,5.458.279a7.75,7.75,0,0,0,2.979-.346A3.891,3.891,0,0,0,35.447.492Z" transform="translate(6.173 35.441)"/><path class="c" d="M6.173,35.441l-.654-.081a4.806,4.806,0,0,1-3.074-1.819,2.646,2.646,0,0,1-.245-.314,5.556,5.556,0,0,1-.437-.7c-.069-.122-.129-.238-.192-.367-.109-.245-.21-.5-.291-.742-.028-.083-.055-.164-.076-.24A6.891,6.891,0,0,1,.837,29.4c-.049-.756-.1-1.52-.15-2.29-.143-2.133-.252-4.273-.367-6.42C.243,19.114.155,17.54.047,15.959c-.014-.15-.014-.3-.021-.458a24.283,24.283,0,0,1,.21-4.518A18.943,18.943,0,0,1,.883,7.952c.2-.647.43-1.273.682-1.895A18.871,18.871,0,0,1,4.4,1.423c.178-.2.347-.4.532-.6.245-.287.49-.559.755-.825L5.7.014a.313.313,0,0,0-.074.06A3.936,3.936,0,0,0,4.68,1.622,7.569,7.569,0,0,0,4.32,4.6c.026.587.046,1.192.095,1.786l.143,2.8c.06,1.382.123,2.766.2,4.15.062,1.178.125,2.343.185,3.522.049.92.095,1.853.15,2.78.021.566.053,1.132.088,1.7.014.314.021.635.035.947.014.178.021.349.035.525.007.28.032.566.053.846l.056,1.266.333,4.1.028.19v.109C5.928,31.408,5.886,33.451,6.173,35.441Z"/></g><line class="c" x1="206.63" y2="207.379" transform="translate(68.695 139.464)"/><path class="c" d="M103.913,0l-91.4,91.4L.021,103.893,0,103.913" transform="translate(67.49 0)"/><line class="c" x1="1.766" y1="487.29" transform="translate(171.403 0.004)"/><path class="c" d="M0,37.857a129.189,129.189,0,0,1,182.791,0c.227.224.458.458.675.689" transform="translate(81.091 357.36)"/><path class="c" d="M37.857,183.466a129.19,129.19,0,0,1,0-182.791c.224-.224.458-.455.689-.675" transform="translate(285.996 152.462)"/><path class="c" d="M182.8,0,182.8.007A129.255,129.255,0,0,1,.007.007L0,0" transform="translate(80.003 91.403)"/><path class="c" d="M276.6,305.883c.143,1.4.171,2.759.259,4.1L275.474,311c-.2.143-.381.284-.578.427q-6.513,4.794-13.337,8.893c-.272.164-.545.328-.825.485a171.332,171.332,0,0,1-86.311,23.74H172.91a172.886,172.886,0,0,1-87.5-24.075c-.164-.095-.328-.19-.483-.291a173.444,173.444,0,0,1-14.728-9.847.031.031,0,0,1-.025-.014l-.486-.363c-.074-.06-.15-.109-.224-.169l-.007-.007a7.178,7.178,0,0,0,.423-3.122c-.028-.6-.056-1.2-.09-1.791l-.141-2.8c-.062-1.384-.132-2.761-.206-4.143-.062-1.179-.116-2.35-.185-3.524-.046-.934-.095-1.853-.148-2.78-.021-.566-.049-1.137-.09-1.7-.007-.321-.021-.633-.039-.954-.007-.171-.007-.347-.021-.525-.014-.287-.042-.559-.062-.839l-.053-1.266-.328-4.1-.014-.069-.021-.007v.042c-.021-.007-.046-.007-.067-.014l-.007-.035a.159.159,0,0,1,0-.081c.021-.007.028,0,.042,0h.026l.021-.007-.007-.021-.007-.007v-.095c-.224-2.105-.176-4.157-.462-6.133-1.846-.224-3.843-.3-5.84-.444l-2.618-.136-2-.081v-.014l-2.752-.15-.007.035-1.839-.095h-.069a.19.19,0,0,0,0-.049l-3.811-.2-.34-.014-1.84-.083c-.384-.028-.765-.039-1.146-.067s-.783-.035-1.171-.055c-.682-.039-1.35-.067-2.045-.095-1.819-.116-3.644-.185-5.465-.287a7.821,7.821,0,0,0-2.833.3c-.014-.014-.028-.042-.042-.056s-.014-.028-.028-.039l-.2-.287A172.17,172.17,0,0,1,6.563,218.243,172.936,172.936,0,0,1,0,171.652v-.832a172.356,172.356,0,0,1,6.277-45.976A169.729,169.729,0,0,1,23.359,84.494a166.247,166.247,0,0,1,9.808-14.876c.176-.259.374-.511.559-.763.277-.388.571-.79.864-1.179,1.241.095,2.507.15,3.776.245l2.623.143,2,.081v.014l2.759.143v-.028l1.832.088h.083a.134.134,0,0,0-.007.049l3.808.2.349.021,1.84.081c.381.028.763.042,1.151.06s.777.042,1.172.055c.675.048,1.349.067,2.038.1,1.818.116,3.644.185,5.465.287a5.846,5.846,0,0,0,4.5-1.241L68,68c.259-.273.511-.552.756-.836a18.714,18.714,0,0,0,3.36-5.227c.252-.619.483-1.248.682-1.9a19.7,19.7,0,0,0,.661-3.032,24.361,24.361,0,0,0,.2-4.518c-.007-.157-.007-.307-.018-.458-.1-1.581-.185-3.154-.273-4.728-.111-2.14-.227-4.287-.363-6.427-.053-.763-.1-1.518-.157-2.283a6.709,6.709,0,0,0-.368-1.784.993.993,0,0,0-.067-.233,5.7,5.7,0,0,0-.3-.749c-.055-.122-.122-.245-.191-.367a4.672,4.672,0,0,0-.435-.7,1.952,1.952,0,0,0-.245-.314,4.68,4.68,0,0,0-1.5-1.28l-.084-.042c.185-.143.363-.277.552-.414q6.645-4.846,13.644-8.983c.162-.109.347-.21.517-.314a169.624,169.624,0,0,1,50.48-19.6A172.068,172.068,0,0,1,171.664,0h.259A172.827,172.827,0,0,1,258.8,23.867c.111.055.22.122.321.185a172.73,172.73,0,0,1,14.9,9.914c.095.069.185.13.28.2a7.566,7.566,0,0,0-.361,2.977c.026.587.046,1.192.095,1.786l.143,2.8c.06,1.382.123,2.766.2,4.151.063,1.178.125,2.343.185,3.522.048.92.095,1.853.15,2.78.021.566.053,1.132.088,1.7.014.314.021.635.035.947.014.178.021.349.035.525.007.28.032.566.053.846l.056,1.266.333,4.1.028.19v.109c.213,2.094.171,4.136.458,6.126,1.86.226,3.85.293,5.839.444l2.616.136,2.011.088v.014l2.752.136.007-.021,1.839.083.076.007a.123.123,0,0,0-.007.046l3.808.2.349.021,1.839.081c.381.014.763.042,1.151.062s.77.032,1.172.053c.668.042,1.349.069,2.038.1,1.819.118,3.647.185,5.458.28a7.748,7.748,0,0,0,2.979-.347c.088.115.169.224.259.34.021.021.032.048.053.069.1.122.185.238.273.367a172.738,172.738,0,0,1,27.627,55.92,172.824,172.824,0,0,1,6.616,46.836c.007.143.007.28.007.416a172.323,172.323,0,0,1-6.427,46.9,169.819,169.819,0,0,1-17.574,40.934q-3.987,6.687-8.627,13.071c-.171.238-.354.476-.532.71-.476.654-.954,1.294-1.444,1.948-1.227-.095-2.486-.157-3.755-.252l-.007.007-2.623-.143-2-.088v-.014l-2.759-.143v.028l-1.847-.09h-.069a.124.124,0,0,0,.007-.046l-3.808-.2-.349-.021-1.84-.081-1.151-.062c-.388-.021-.776-.039-1.172-.053-.675-.049-1.349-.069-2.038-.1-1.819-.118-3.647-.185-5.466-.287-2.038-.09-3.524.305-4.5,1.246a.336.336,0,0,0-.077.063,5.734,5.734,0,0,0-1.308,4.525c.028.6.049,1.193.09,1.791l.143,2.8c.06,1.384.129,2.762.2,4.143.06,1.179.122,2.346.185,3.524.04.927.095,1.854.148,2.78.021.566.056,1.13.09,1.7.007.321.021.633.035.947.011.178.018.347.032.525.007.28.035.566.055.846l.053,1.266.335,4.1.014.069.014.014v-.042a.241.241,0,0,0,.074.007l-.007.035a.163.163,0,0,1,.014.081v.014a.12.12,0,0,1-.046-.007h-.056l.007.021.021.007Z" transform="translate(0 71.372)"/><ellipse class="c" cx="114.141" cy="114.141" rx="114.141" ry="114.141" transform="translate(58.678 129.265)"/><path class="c" d="M208.6,208.6l-.021-.021-68.54-68.54-35.735-35.735-.007-.007-.007-.007-.375-.375L68.4,68.4.021.021,0,0" transform="translate(312.071 383.439)"/><g transform="translate(276.615 347.984)"><g transform="translate(0)"><path class="c" d="M.192,2.045C.15,1.35.1.675,0,0L.654.083a4.566,4.566,0,0,1,1.486.5C1.65.941,1.158,1.31.675,1.671.511,1.793.347,1.916.192,2.045Z" transform="translate(34.992 0.018)"/><path class="c" d="M35.475.518a19.731,19.731,0,0,1-6.057,4.245,15.2,15.2,0,0,1-5.287,1.2c-.238.007-.472.021-.717.021a.473.473,0,0,1-.1.007C20.5,6,17.683,5.921,14.85,5.812c-1.542-.067-3.081-.136-4.629-.21L5.847,5.368A6.012,6.012,0,0,1,1.731,3.6,5.626,5.626,0,0,1,.64,2.14.93.93,0,0,1,.566,2,5.093,5.093,0,0,1,.15.857C.095.585.049.305.007.021L0,0C.007.007.014,0,.028,0,.647.074,1.294.136,1.937.19c.039,0,.088.007.129.007C3.3.294,4.573.347,5.84.441L8.465.585l2,.083V.682l2.761.143V.8l1.833.088h.081a.136.136,0,0,0-.007.049l3.811.2.347.021,1.839.083c.381.025.765.039,1.153.06s.776.042,1.172.055c.675.046,1.35.067,2.036.1,1.821.115,3.647.182,5.465.286A5.854,5.854,0,0,0,35.457.5Z" transform="translate(0 34.957)"/><line class="c" x1="0.034" y2="0.007" transform="translate(35.408 6.275)"/><path class="c" d="M.485,6.256l-.007-.1C.335,4.8.307,3.462.226,2.151c0-.025-.007-.06-.007-.088C.178,1.368.129.693.028.019L.021,0,0,.019" transform="translate(34.964 0)"/><path class="c" d="M0,28.586c.619.074,1.266.136,1.909.19.039,0,.088.007.129.007,1.239.1,2.507.15,3.774.245l2.623.143,2,.083v.014l2.762.143v-.028l1.832.088h.081a.136.136,0,0,0-.007.049l3.811.2.347.021,1.839.081c.381.028.765.042,1.153.063s.776.042,1.172.055c.675.046,1.35.067,2.036.1,1.821.115,3.647.182,5.465.286a5.853,5.853,0,0,0,4.5-1.241.552.552,0,0,0,.081-.067c.968-.968,1.4-2.482,1.308-4.525-.035-.594-.049-1.195-.095-1.786l-.143-2.8c-.062-1.384-.122-2.766-.2-4.151-.06-1.178-.122-2.343-.19-3.515-.041-.927-.088-1.86-.143-2.787-.028-.559-.055-1.132-.088-1.7-.014-.312-.021-.633-.042-.941,0-.176-.014-.354-.028-.532-.007-.277-.034-.564-.053-.843l-.062-1.262-.328-4.1L35.436.007c-.007.007-.007.007-.021-.007l.014.039" transform="translate(0.028 6.371)"/><path class="c" d="M0,0" transform="translate(35.374 6.371)"/></g></g><g transform="translate(514.975 586.55)"><g transform="translate(0)"><path class="c" d="M0,0H.028L.007.018Z" transform="translate(6.17 40.922)"/><path class="c" d="M30.694,5.3l-2.759-.143v.028L26.088,5.1h-.067a.137.137,0,0,0,.007-.049l-3.811-.2-.347-.021-1.839-.083c-.388-.019-.765-.039-1.153-.06s-.776-.042-1.172-.056c-.675-.046-1.349-.067-2.038-.1-1.819-.116-3.644-.185-5.463-.286C8.167,4.157,6.681,4.553,5.7,5.493a.449.449,0,0,0-.074.06,5.727,5.727,0,0,0-1.308,4.525c.027.6.046,1.192.088,1.793l.143,2.8c.062,1.382.129,2.759.206,4.143.06,1.179.123,2.343.183,3.522.042.927.1,1.853.15,2.78.021.566.055,1.132.088,1.7.007.319.021.633.035.945.014.178.021.349.034.527.007.277.035.564.053.843L5.352,30.4,5.687,34.5l.012.067.014.014v-.039a.257.257,0,0,0,.076.007l-.007.032a.177.177,0,0,1,.014.083v.014a.224.224,0,0,1-.049-.007H5.694l0,.019.021.007-.007.1c.143,1.4.171,2.759.259,4.1.041.682.1,1.357.2,2.024l-.654-.083a4.552,4.552,0,0,1-1.507-.5A4.885,4.885,0,0,1,2.443,39.02a1.827,1.827,0,0,1-.245-.314,4.42,4.42,0,0,1-.437-.7c-.067-.122-.129-.238-.185-.36-.115-.252-.21-.5-.3-.749a.984.984,0,0,1-.077-.238,6.9,6.9,0,0,1-.367-1.786c-.049-.756-.1-1.521-.15-2.29C.541,30.454.432,28.314.324,26.174.234,24.6.153,23.019.051,21.446a3.4,3.4,0,0,1-.021-.457,23.681,23.681,0,0,1,.2-4.518,20.388,20.388,0,0,1,.654-3.039c.2-.647.428-1.273.682-1.9A18.668,18.668,0,0,1,4.93,6.3c.245-.286.492-.559.751-.832a19.475,19.475,0,0,1,6.064-4.238A15.334,15.334,0,0,1,17.032.021c.238-.007.478-.014.723-.014.028,0,.06-.007.1-.007,2.808,0,5.63.069,8.449.178C27.854.238,29.4.314,30.941.4l4.368.224A5.976,5.976,0,0,1,39.432,2.4a5.844,5.844,0,0,1,1.091,1.444,5.248,5.248,0,0,1,.49,1.282c.062.28.109.557.143.837l.007.021h-.027c-.668-.081-1.357-.143-2.057-.189-1.227-.1-2.489-.157-3.755-.252l-.007,0-2.625-.141L30.7,5.315Z"/></g></g><g transform="translate(276.643 585.29)"><g transform="translate(0)"><path class="c" d="M.471,35.427a.319.319,0,0,0,.081-.067,4.026,4.026,0,0,0,.892-1.384l0-.007a7.125,7.125,0,0,0,.421-3.12c-.025-.6-.053-1.2-.088-1.793l-.143-2.8c-.06-1.382-.129-2.759-.2-4.144-.062-1.179-.118-2.35-.185-3.522-.048-.934-.095-1.854-.15-2.78-.021-.566-.046-1.139-.088-1.7C1,13.792.982,13.477.961,13.159c-.007-.171-.007-.349-.021-.525-.014-.286-.039-.559-.06-.839L.825,10.529.5,6.424.485,6.357.464,6.35v.042C.444,6.385.416,6.385.4,6.378L.388,6.343a.154.154,0,0,1,0-.081c.021-.007.028,0,.041,0H.457l.021-.007L.471,6.235.464,6.228V6.133C.24,4.026.286,1.976,0,0,.226.021.444.046.654.081A4.843,4.843,0,0,1,3.734,1.906a2.686,2.686,0,0,1,.245.314,5.4,5.4,0,0,1,.437.7c.069.122.129.238.185.36a7.3,7.3,0,0,1,.3.749c.028.083.055.164.076.24A6.886,6.886,0,0,1,5.343,6.05c.048.756.1,1.52.15,2.29.143,2.133.252,4.273.367,6.42.076,1.574.164,3.148.273,4.728.014.15.014.3.021.458a24.284,24.284,0,0,1-.21,4.518A19.886,19.886,0,0,1,5.3,27.5c-.2.647-.43,1.273-.682,1.9a18.855,18.855,0,0,1-2.944,4.756c-.136.164-.28.321-.423.476-.245.287-.49.559-.755.825Z" transform="translate(35.461 5.983)"/><path class="c" d="M35.461,5.983c-1.846-.227-3.843-.3-5.84-.444L27.006,5.4l-2-.081V5.308l-2.753-.15-.007.035L20.4,5.1h-.067a.125.125,0,0,0-.007-.046l-3.808-.2-.342-.014-1.84-.081c-.381-.028-.763-.042-1.144-.069s-.783-.032-1.172-.053c-.682-.042-1.35-.069-2.045-.095-1.819-.118-3.647-.185-5.465-.287a7.842,7.842,0,0,0-2.836.3,4.043,4.043,0,0,0-1.661.941L0,5.477A18.63,18.63,0,0,1,1.4,4.169,19.282,19.282,0,0,1,6.05,1.239,15.208,15.208,0,0,1,11.34.026c.245-.012.476-.012.714-.018a.506.506,0,0,0,.1-.007c2.819,0,5.634.074,8.463.176,1.539.069,3.088.143,4.633.22l4.368.224a6,6,0,0,1,4.116,1.772A5.676,5.676,0,0,1,35.318,5.13C35.373,5.417,35.422,5.7,35.461,5.983Z"/></g></g><g transform="translate(513.72 348.003)"><g transform="translate(0)"><path class="c" d="M35.471.511c-.409.423-.832.832-1.283,1.213a19.222,19.222,0,0,1-4.77,3.025,15.09,15.09,0,0,1-5.287,1.213l-.716.021a.48.48,0,0,0-.1.007c-2.822,0-5.636-.076-8.456-.185-1.548-.06-3.094-.136-4.636-.217L5.847,5.371a6.016,6.016,0,0,1-4.123-1.78A5.662,5.662,0,0,1,.15.86C.1.573.042.287,0,0,1.86.224,3.85.294,5.84.444L8.458.58l2.011.088V.682l2.752.136L13.228.8l1.84.081.074.007a.2.2,0,0,0,0,.048l3.809.2.347.021,1.839.083c.384.014.765.04,1.153.06s.77.035,1.172.055c.668.042,1.35.067,2.038.1,1.819.116,3.644.185,5.458.28a7.775,7.775,0,0,0,2.976-.347A3.889,3.889,0,0,0,35.45.49Z" transform="translate(6.171 35.443)"/><path class="c" d="M6.171,35.443l-.654-.081a4.806,4.806,0,0,1-3.073-1.821,3.022,3.022,0,0,1-.245-.312,5.466,5.466,0,0,1-.434-.7c-.069-.122-.132-.238-.192-.368-.109-.247-.213-.5-.294-.744-.027-.081-.053-.164-.074-.238A6.812,6.812,0,0,1,.835,29.4c-.046-.756-.1-1.518-.148-2.288-.143-2.133-.254-4.273-.37-6.42-.074-1.574-.162-3.147-.273-4.73-.012-.148-.014-.3-.018-.455a24.264,24.264,0,0,1,.21-4.518A18.662,18.662,0,0,1,.883,7.954c.2-.649.43-1.276.682-1.9A18.7,18.7,0,0,1,4.4,1.426c.176-.206.347-.4.532-.6.245-.287.49-.559.756-.825L5.7.014a.332.332,0,0,0-.076.062A3.967,3.967,0,0,0,4.68,1.622,7.621,7.621,0,0,0,4.317,4.6c.028.585.049,1.192.1,1.784l.143,2.8c.06,1.384.122,2.768.2,4.15.062,1.179.122,2.346.185,3.524.046.92.095,1.854.15,2.78.018.566.053,1.13.088,1.7.014.314.021.633.035.948.012.178.019.347.032.525.007.279.035.566.055.846l.053,1.266.335,4.095.028.192v.108C5.926,31.408,5.884,33.453,6.171,35.443Z"/></g></g><line class="c" x1="206.63" y2="207.379" transform="translate(312.785 383.554)"/><path class="c" d="M103.913,0l-91.4,91.4L.021,103.893,0,103.914" transform="translate(311.58 244.09)"/><path class="c" d="M103.913,0l-.02.02L90.877,13.036l-30.9,30.9L0,103.914" transform="translate(172.729 382.941)"/><line class="c" x1="487.294" y1="1.762" transform="translate(172.729 486.858)"/><line class="c" x1="1.766" y1="487.29" transform="translate(415.493 244.094)"/><path class="c" d="M0,37.858a129.184,129.184,0,0,1,182.791,0c.224.224.455.455.675.686" transform="translate(325.182 601.45)"/><path class="c" d="M37.858,183.466a129.183,129.183,0,0,1,0-182.791c.224-.224.455-.458.686-.675" transform="translate(530.086 396.553)"/><path class="c" d="M0,0C.231.217.464.448.689.675A128.654,128.654,0,0,1,34.16,58.6a129.793,129.793,0,0,1-.319,68.083A128.58,128.58,0,0,1,.689,183.463" transform="translate(263.267 395.643)"/><path class="c" d="M182.8,0,182.8.007A129.254,129.254,0,0,1,.007.007L0,0" transform="translate(324.091 335.491)"/><path class="c" d="M276.6,305.883c.143,1.4.171,2.759.259,4.1-.462.34-.927.682-1.382,1.015-.2.143-.381.286-.58.43q-6.51,4.794-13.337,8.892c-.273.164-.543.328-.822.483a171.386,171.386,0,0,1-86.314,23.743H172.91a172.955,172.955,0,0,1-87.5-24.076c-.164-.095-.328-.192-.485-.294A172.469,172.469,0,0,1,70.2,310.331a.036.036,0,0,1-.028-.014l-.483-.361c-.076-.062-.15-.108-.226-.171l0-.007a7.127,7.127,0,0,0,.42-3.12c-.025-.6-.053-1.2-.088-1.793l-.143-2.8c-.06-1.382-.129-2.759-.2-4.144-.062-1.179-.118-2.35-.185-3.522-.049-.934-.095-1.853-.15-2.78-.021-.566-.046-1.139-.088-1.7-.007-.321-.021-.635-.042-.954-.007-.171-.007-.349-.021-.525-.014-.286-.039-.559-.06-.839l-.056-1.266-.326-4.1-.014-.067-.021-.007v.042c-.021-.007-.048-.007-.069-.014l-.007-.035a.155.155,0,0,1,0-.081c.021-.007.028,0,.042,0h.028l.021-.007-.007-.021-.007-.007v-.094c-.224-2.108-.178-4.157-.465-6.133-1.846-.227-3.843-.3-5.84-.444l-2.616-.136-2-.081v-.014l-2.752-.15-.007.035-1.842-.1h-.067a.123.123,0,0,0-.007-.046l-3.808-.2-.342-.014-1.84-.081c-.381-.028-.763-.042-1.144-.069s-.783-.033-1.172-.053c-.682-.042-1.35-.069-2.045-.095-1.819-.118-3.647-.185-5.466-.287a7.832,7.832,0,0,0-2.835.3c-.014-.014-.028-.039-.039-.053s-.014-.028-.028-.041L33.955,274A173.081,173.081,0,0,1,0,171.652v-.832a172.419,172.419,0,0,1,6.274-45.976A169.629,169.629,0,0,1,23.359,84.494a165.549,165.549,0,0,1,9.805-14.875c.178-.259.377-.511.559-.765.28-.388.573-.79.867-1.179,1.239.1,2.507.15,3.774.245l2.625.143,2,.083v.014l2.762.143v-.028l1.833.088h.081a.134.134,0,0,0-.007.048l3.811.2.347.021,1.839.083c.381.026.765.039,1.153.06s.776.041,1.172.055c.675.046,1.349.067,2.036.1,1.821.115,3.647.182,5.465.286a5.854,5.854,0,0,0,4.5-1.241L68,68c.259-.273.513-.552.758-.839a18.718,18.718,0,0,0,3.36-5.225c.252-.622.483-1.248.679-1.9A19.367,19.367,0,0,0,73.458,57a24.311,24.311,0,0,0,.2-4.518c-.007-.155-.007-.305-.021-.455-.095-1.581-.185-3.154-.272-4.731-.109-2.14-.224-4.285-.361-6.424-.056-.765-.1-1.521-.157-2.283a6.9,6.9,0,0,0-.368-1.786.9.9,0,0,0-.069-.231,5.415,5.415,0,0,0-.3-.749c-.055-.122-.125-.245-.192-.37a4.488,4.488,0,0,0-.437-.693,1.679,1.679,0,0,0-.245-.314,4.628,4.628,0,0,0-1.5-1.28l-.081-.042c.185-.143.36-.28.552-.416q6.645-4.846,13.641-8.98c.164-.111.349-.213.518-.314a169.664,169.664,0,0,1,50.482-19.6A172.067,172.067,0,0,1,171.661,0h.259A172.778,172.778,0,0,1,258.8,23.867c.108.053.217.123.321.182a173.179,173.179,0,0,1,14.9,9.916c.095.067.182.129.28.2a7.617,7.617,0,0,0-.363,2.979c.028.585.048,1.192.1,1.784l.143,2.8c.06,1.384.123,2.768.2,4.15.062,1.179.122,2.346.185,3.524.046.92.095,1.853.15,2.78.019.566.053,1.13.088,1.7.014.314.021.633.035.948.011.178.018.346.032.525.007.28.035.566.056.846l.053,1.266.335,4.095.028.192v.109c.21,2.092.169,4.137.455,6.126,1.86.224,3.85.294,5.84.444l2.618.136,2.011.088v.014l2.752.137.007-.021,1.84.081.074.007a.2.2,0,0,0,0,.049l3.808.2.347.021,1.839.083c.384.014.765.04,1.154.06s.769.035,1.171.055c.668.042,1.35.067,2.038.1,1.819.116,3.645.185,5.458.28a7.772,7.772,0,0,0,2.977-.347c.09.116.171.224.259.34.021.021.034.049.055.067.094.125.185.24.272.37A172.925,172.925,0,0,1,344.557,172.9c.007.143.007.28.007.416a172.447,172.447,0,0,1-6.424,46.905,169.864,169.864,0,0,1-17.575,40.934q-3.986,6.683-8.627,13.071c-.171.238-.356.476-.531.707-.478.654-.954,1.294-1.444,1.95-1.227-.1-2.489-.157-3.755-.252l-.007,0-2.625-.141-1.994-.09,0-.014-2.759-.143v.028l-1.846-.088h-.067a.14.14,0,0,0,.007-.048l-3.811-.2-.347-.021-1.839-.083c-.389-.018-.765-.039-1.153-.06s-.777-.042-1.172-.055c-.675-.046-1.35-.067-2.038-.1-1.819-.115-3.644-.185-5.463-.286-2.038-.088-3.524.307-4.506,1.248a.459.459,0,0,0-.074.06,5.727,5.727,0,0,0-1.308,4.525c.027.6.046,1.193.087,1.793l.144,2.8c.062,1.382.129,2.759.205,4.144.06,1.179.123,2.343.183,3.522.042.927.1,1.853.15,2.78.021.566.055,1.132.088,1.7.007.319.021.633.035.945.014.178.021.349.035.527.007.277.034.564.053.843l.055,1.269.335,4.095.012.067.014.014v-.039a.255.255,0,0,0,.076.007l-.007.032a.176.176,0,0,1,.014.083v.014a.22.22,0,0,1-.049-.007h-.053l0,.018.021.007Z" transform="translate(244.091 315.463)"/><ellipse class="c" cx="114.141" cy="114.141" rx="114.141" ry="114.141" transform="translate(302.768 373.355)"/><ellipse class="c" cx="54.787" cy="54.787" rx="54.787" ry="54.787" transform="translate(361.159 433.672)"/></g></g></svg>