<svg xmlns="http://www.w3.org/2000/svg" xmlns:xlink="http://www.w3.org/1999/xlink" width="314.638" height="86.127" viewBox="0 0 314.638 86.127">
  <defs>
    <clipPath id="clip-path">
      <rect id="Rectangle_22001" data-name="Rectangle 22001" width="86.127" height="314.638" rx="10" transform="translate(0)" fill="#4b58aa"/>
    </clipPath>
  </defs>
  <g id="Mask_Group_48" data-name="Mask Group 48" transform="translate(314.638 0) rotate(90)" clip-path="url(#clip-path)">
    <g id="Group_4926" data-name="Group 4926" transform="translate(-364.562 -169.398)">
      <g id="Group_4757" data-name="Group 4757" transform="translate(398.428 394.713)">
        <g id="Group_4459" data-name="Group 4459">
          <path id="Path_47956" data-name="Path 47956" d="M.019,0H0L.014.014Z" transform="translate(23.546 27.556)" fill="none" stroke="#4b58aa" stroke-miterlimit="10" stroke-width="1"/>
          <path id="Path_47957" data-name="Path 47957" d="M7.05,3.57l1.858-.1v.019l1.244-.059H10.2a.091.091,0,0,1,0-.033l2.566-.132.233-.014L14.23,3.2l.777-.041c.261-.014.523-.028.789-.037.454-.031.909-.045,1.373-.068,1.225-.078,2.454-.125,3.679-.193a3.966,3.966,0,0,1,3.035.84.243.243,0,0,1,.05.04,3.857,3.857,0,0,1,.881,3.047c-.019.4-.031.8-.059,1.208l-.1,1.886c-.042.931-.087,1.858-.138,2.79-.041.794-.083,1.578-.123,2.372-.028.624-.064,1.248-.1,1.872-.014.381-.037.762-.059,1.142,0,.216-.014.428-.023.638-.009.12-.014.235-.023.353,0,.188-.023.381-.036.57l-.037.853-.224,2.759-.009.045-.009.009v-.028a.181.181,0,0,1-.051,0l0,.023a.116.116,0,0,0-.009.055v.009a.09.09,0,0,0,.033,0h.036l0,.014-.014,0,0,.068c-.1.942-.115,1.86-.174,2.764-.028.457-.07.912-.134,1.362L24,27.5a3.069,3.069,0,0,0,1.015-.335,3.288,3.288,0,0,0,1.055-.89,1.285,1.285,0,0,0,.165-.212,3.036,3.036,0,0,0,.294-.469c.045-.082.087-.16.125-.243.078-.17.142-.335.2-.5a.659.659,0,0,0,.052-.162,4.637,4.637,0,0,0,.247-1.2c.033-.509.068-1.024.1-1.542.1-1.436.17-2.878.243-4.319.061-1.06.115-2.124.184-3.184a2.3,2.3,0,0,0,.014-.308,15.954,15.954,0,0,0-.134-3.042,13.536,13.536,0,0,0-.441-2.046c-.132-.436-.288-.857-.459-1.276A12.574,12.574,0,0,0,24.4,4.245c-.165-.193-.331-.377-.506-.56A13.114,13.114,0,0,0,19.811.831,10.334,10.334,0,0,0,16.25.014c-.16,0-.322-.009-.487-.009-.019,0-.04,0-.068,0C13.8,0,11.9.045,10.005.12,8.962.16,7.921.212,6.883.266L3.942.417a4.018,4.018,0,0,0-2.776,1.2,3.935,3.935,0,0,0-.735.973,3.534,3.534,0,0,0-.33.864c-.042.187-.073.375-.1.563l0,.014H.019c.45-.054.913-.1,1.385-.128C2.23,3.836,3.08,3.8,3.932,3.73l0,0,1.768-.1,1.343-.059Z" fill="none" stroke="#4b58aa" stroke-miterlimit="10" stroke-width="1"/>
        </g>
      </g>
      <g id="Group_4757-2" data-name="Group 4757" transform="translate(398.951 234.072)">
        <g id="Group_4459-2" data-name="Group 4459">
          <path id="Path_47958" data-name="Path 47958" d="M0,.344c.276.285.56.56.864.817A12.945,12.945,0,0,0,4.076,3.2a10.16,10.16,0,0,0,3.561.817l.482.014a.325.325,0,0,1,.069,0c1.9,0,3.8-.051,5.694-.125,1.043-.04,2.084-.092,3.122-.146l2.946-.148a4.048,4.048,0,0,0,2.776-1.2A3.816,3.816,0,0,0,23.785.577c.036-.191.073-.384.1-.577-1.253.151-2.593.2-3.933.3L18.191.391,16.837.45V.459L14.983.551l0-.014L13.74.591l-.05,0a.137.137,0,0,1,0,.033L11.129.761,10.9.775,9.656.831C9.4.839,9.141.857,8.88.872s-.518.023-.789.037c-.45.026-.909.045-1.373.068-1.225.078-2.454.123-3.676.188a5.235,5.235,0,0,1-2-.235A2.6,2.6,0,0,1,.014.33Z" transform="translate(0 23.868)" fill="none" stroke="#4b58aa" stroke-miterlimit="10" stroke-width="1"/>
          <path id="Path_47959" data-name="Path 47959" d="M0,23.868l.44-.056a3.227,3.227,0,0,0,2.07-1.225,1.865,1.865,0,0,0,.165-.212,3.731,3.731,0,0,0,.294-.467c.045-.082.087-.16.128-.249.073-.165.143-.334.2-.5.019-.054.036-.11.05-.16a4.581,4.581,0,0,0,.249-1.2c.031-.509.068-1.022.1-1.542.1-1.436.171-2.876.249-4.322.05-1.06.109-2.121.184-3.186.009-.1.009-.2.012-.307A16.337,16.337,0,0,0,4,7.4a12.608,12.608,0,0,0-.436-2.043C3.427,4.919,3.271,4.5,3.1,4.081A12.559,12.559,0,0,0,1.192.96C1.074.822.959.69.834.556.669.363.5.179.325,0L.316.009A.221.221,0,0,1,.367.052,2.672,2.672,0,0,1,1,1.093,5.13,5.13,0,0,1,1.248,3.1c-.019.394-.033.8-.064,1.2l-.1,1.886C1.046,7.118,1,8.049.954,8.981c-.042.794-.082,1.578-.124,2.373C.8,11.974.766,12.6.73,13.227c-.014.38-.037.761-.061,1.142-.009.21-.014.426-.022.638-.009.118-.014.234-.023.353,0,.188-.023.381-.037.568l-.036.854L.325,19.54l-.019.129v.073C.165,21.151.193,22.528,0,23.868Z" transform="translate(23.887)" fill="none" stroke="#4b58aa" stroke-miterlimit="10" stroke-width="1"/>
        </g>
      </g>
      <path id="Path_47960" data-name="Path 47960" d="M.462,123.549A86.58,86.58,0,0,0,22.788,85.308,87.405,87.405,0,0,0,23,39.46,86.663,86.663,0,0,0,.462.454C.311.3.156.146,0,0" transform="translate(390.015 266.767)" fill="none" stroke="#4b58aa" stroke-miterlimit="10" stroke-width="1"/>
      <path id="Path_47961" data-name="Path 47961" d="M0,140.477l.014-.014L46.17,94.308,70.234,70.243l0,0,0,0,.252-.252L94.413,46.064,140.464.014,140.477,0" transform="translate(257.935 422.309)" fill="none" stroke="#4b58aa" stroke-miterlimit="10" stroke-width="1"/>
      <g id="Group_4757-3" data-name="Group 4757" transform="translate(397.282 398.433)">
        <g id="Group_4459-3" data-name="Group 4459">
          <path id="Path_47962" data-name="Path 47962" d="M1.313,1.376C1.34.909,1.373.454,1.441,0L1,.055A3.114,3.114,0,0,0,0,.394c.331.24.661.487.987.73C1.1,1.206,1.208,1.289,1.313,1.376Z" transform="translate(0 0.014)" fill="none" stroke="#4b58aa" stroke-miterlimit="10" stroke-width="1"/>
          <path id="Path_47963" data-name="Path 47963" d="M0,.349A13.279,13.279,0,0,0,4.079,3.207a10.245,10.245,0,0,0,3.562.808c.16,0,.316.014.481.014a.33.33,0,0,0,.07,0c1.894,0,3.789-.045,5.7-.118q1.555-.07,3.116-.143l2.946-.156a4.039,4.039,0,0,0,2.772-1.194,3.787,3.787,0,0,0,.735-.982.448.448,0,0,0,.051-.1,3.49,3.49,0,0,0,.279-.766c.037-.184.07-.372.1-.565l0-.014s-.009,0-.017,0c-.419.051-.854.092-1.285.129-.028,0-.059,0-.087,0-.836.064-1.688.1-2.543.165L18.191.4,16.841.45V.459l-1.858.1V.537L13.749.6h-.056a.094.094,0,0,1,0,.033L11.133.763,10.9.777,9.659.831C9.4.85,9.146.859,8.885.872S8.362.9,8.1.909c-.454.033-.909.047-1.373.068-1.225.078-2.456.125-3.68.193A3.938,3.938,0,0,1,.014.335Z" transform="translate(1.116 23.541)" fill="none" stroke="#4b58aa" stroke-miterlimit="10" stroke-width="1"/>
          <line id="Line_518" data-name="Line 518" x2="0.023" y2="0.005" transform="translate(1.139 4.226)" fill="none" stroke="#4b58aa" stroke-miterlimit="10" stroke-width="1"/>
          <path id="Path_47964" data-name="Path 47964" d="M0,4.213l0-.069c.1-.914.114-1.813.17-2.694,0-.019,0-.042,0-.061C.207.923.238.469.307.014L.311,0,.325.014" transform="translate(1.135)" fill="none" stroke="#4b58aa" stroke-miterlimit="10" stroke-width="1"/>
          <path id="Path_47965" data-name="Path 47965" d="M24.8,19.251c-.419.051-.854.092-1.285.129-.028,0-.059,0-.087,0-.836.064-1.688.1-2.543.165l-1.766.1-1.349.055v.009l-1.858.1v-.019l-1.234.061h-.056a.08.08,0,0,1,0,.031l-2.565.134-.235.014-1.239.054c-.257.019-.513.028-.775.04s-.523.028-.789.037c-.454.033-.909.047-1.373.068-1.225.078-2.456.125-3.68.193a3.937,3.937,0,0,1-3.028-.836.229.229,0,0,1-.056-.045,3.9,3.9,0,0,1-.881-3.047c.023-.4.033-.8.065-1.2L.17,13.4c.041-.931.082-1.863.132-2.794.042-.794.083-1.579.129-2.368.027-.624.059-1.253.1-1.877C.545,5.988.564,5.6.587,5.223.6,5.011.6,4.8.616,4.589c0-.12.008-.238.017-.358,0-.188.023-.381.037-.57l.04-.848L.931.051.941,0s0,0,.014,0L.945.028" transform="translate(0.185 4.291)" fill="none" stroke="#4b58aa" stroke-miterlimit="10" stroke-width="1"/>
          <path id="Path_47966" data-name="Path 47966" d="M0,0" transform="translate(1.184 4.291)" fill="none" stroke="#4b58aa" stroke-miterlimit="10" stroke-width="1"/>
        </g>
      </g>
      <g id="Group_4757-4" data-name="Group 4757" transform="translate(234.055 559.088)">
        <g id="Group_4459-4" data-name="Group 4459">
          <path id="Path_47967" data-name="Path 47967" d="M.019,0H0L.014.014Z" transform="translate(23.546 27.556)" fill="none" stroke="#4b58aa" stroke-miterlimit="10" stroke-width="1"/>
          <path id="Path_47968" data-name="Path 47968" d="M7.048,3.57l1.858-.1v.019l1.243-.061H10.2a.085.085,0,0,1,0-.031l2.565-.134.235-.014L14.23,3.2l.775-.042c.261-.014.523-.027.789-.036.454-.033.909-.047,1.373-.069,1.225-.079,2.456-.125,3.681-.193A3.956,3.956,0,0,1,23.88,3.7a.189.189,0,0,1,.05.042,3.856,3.856,0,0,1,.882,3.047c-.019.4-.033.8-.061,1.206l-.1,1.886c-.04.932-.087,1.86-.137,2.79-.042.794-.082,1.58-.125,2.373-.026.624-.064,1.248-.1,1.872-.012.381-.036.761-.059,1.142,0,.216-.014.426-.023.638-.01.12-.014.233-.022.353,0,.188-.023.381-.037.57l-.037.853-.224,2.758-.009.047-.009.009v-.028a.174.174,0,0,1-.05,0l0,.023a.114.114,0,0,0-.009.055v.009a.085.085,0,0,0,.031,0h.037l0,.014-.014,0,0,.068c-.1.942-.115,1.858-.174,2.762-.028.459-.068.914-.132,1.363L24,27.5a3.085,3.085,0,0,0,1.013-.336,3.238,3.238,0,0,0,1.055-.89,1.224,1.224,0,0,0,.167-.21,3.259,3.259,0,0,0,.293-.468c.047-.083.087-.16.124-.243.078-.171.142-.336.2-.506a.646.646,0,0,0,.05-.16,4.525,4.525,0,0,0,.247-1.2c.033-.509.07-1.022.1-1.541.1-1.437.169-2.878.244-4.319.059-1.06.114-2.124.184-3.186a2.525,2.525,0,0,0,.013-.306,15.935,15.935,0,0,0-.132-3.042,13.7,13.7,0,0,0-.44-2.047c-.134-.436-.29-.859-.459-1.276A12.581,12.581,0,0,0,24.4,4.244c-.165-.193-.33-.377-.5-.56A13.171,13.171,0,0,0,19.809.83,10.4,10.4,0,0,0,16.248.013c-.16,0-.32-.008-.485-.008-.019,0-.042,0-.07,0C13.8,0,11.9.045,10,.118,8.962.16,7.919.21,6.883.266L3.942.417a4.015,4.015,0,0,0-2.776,1.2,3.907,3.907,0,0,0-.734.973A3.529,3.529,0,0,0,.1,3.45c-.041.188-.073.377-.095.565l0,.014H.017c.45-.056.914-.1,1.387-.129.826-.064,1.674-.106,2.529-.17l0,0,1.766-.1,1.345-.059Z" fill="none" stroke="#4b58aa" stroke-miterlimit="10" stroke-width="1"/>
        </g>
      </g>
      <g id="Group_4757-5" data-name="Group 4757" transform="translate(394.228 558.239)">
        <g id="Group_4459-5" data-name="Group 4459">
          <path id="Path_47969" data-name="Path 47969" d="M3.845,23.859a.274.274,0,0,1-.056-.047,2.706,2.706,0,0,1-.6-.931l0,0a4.83,4.83,0,0,1-.285-2.1c.019-.4.037-.808.059-1.206l.1-1.886c.042-.932.087-1.86.139-2.79.04-.794.078-1.583.123-2.373.033-.629.065-1.248.1-1.872.014-.38.033-.766.061-1.142,0-.216.014-.426.027-.643,0-.115,0-.234.014-.353.009-.193.028-.377.042-.565l.036-.853.221-2.762.009-.047.014,0V4.3c.012,0,.031,0,.045-.01l0-.023a.108.108,0,0,0,0-.055c-.014,0-.019,0-.028,0H3.854l-.014,0,0-.014,0,0V4.13C4,2.712,3.968,1.331,4.161,0c-.151.014-.3.033-.44.056a3.248,3.248,0,0,0-2.075,1.23,1.8,1.8,0,0,0-.165.21,3.87,3.87,0,0,0-.294.468c-.045.083-.087.16-.123.243a5.146,5.146,0,0,0-.2.506c-.019.054-.037.11-.051.16a4.653,4.653,0,0,0-.247,1.2C.532,4.585.495,5.1.462,5.616.367,7.053.292,8.494.214,9.94Q.14,11.529.031,13.125c-.009.1-.009.2-.014.307A16.338,16.338,0,0,0,.16,16.474,13.193,13.193,0,0,0,.6,18.516c.132.438.289.859.459,1.276a12.649,12.649,0,0,0,1.982,3.2c.092.11.188.216.285.322.165.193.33.377.509.556Z" transform="translate(0 4.029)" fill="none" stroke="#4b58aa" stroke-miterlimit="10" stroke-width="1"/>
          <path id="Path_47970" data-name="Path 47970" d="M0,4.029c1.243-.151,2.588-.2,3.933-.3L5.7,3.638l1.349-.054,0-.01,1.855-.1,0,.023,1.239-.064h.045a.094.094,0,0,1,0-.033l2.566-.132.229-.009L14.225,3.2c.257-.019.515-.026.772-.045s.528-.023.789-.037c.459-.026.909-.045,1.377-.064,1.225-.078,2.454-.125,3.679-.193a5.3,5.3,0,0,1,1.91.2,2.7,2.7,0,0,1,1.12.633l.009-.009a12.3,12.3,0,0,0-.946-.881A12.947,12.947,0,0,0,19.806.836,10.176,10.176,0,0,0,16.245.019C16.081.009,15.923.009,15.763,0a.324.324,0,0,1-.068,0c-1.9,0-3.8.051-5.7.12-1.036.045-2.077.1-3.12.146L3.933.417A4.044,4.044,0,0,0,1.161,1.611,3.819,3.819,0,0,0,.1,3.456C.059,3.648.028,3.836,0,4.029Z" transform="translate(4.161)" fill="none" stroke="#4b58aa" stroke-miterlimit="10" stroke-width="1"/>
        </g>
      </g>
      <g id="Group_4757-6" data-name="Group 4757" transform="translate(234.578 398.447)">
        <g id="Group_4459-6" data-name="Group 4459">
          <path id="Path_47971" data-name="Path 47971" d="M0,.346C.276.629.56.9.862,1.161A12.944,12.944,0,0,0,4.074,3.2a10.23,10.23,0,0,0,3.562.817l.481.013a.3.3,0,0,1,.069,0c1.9,0,3.8-.05,5.7-.123,1.041-.042,2.084-.092,3.12-.148l2.946-.146a4.045,4.045,0,0,0,2.776-1.2A3.814,3.814,0,0,0,23.784.579c.037-.193.073-.386.1-.579-1.253.152-2.592.2-3.932.3L18.191.391,16.837.45V.459L14.982.551l0-.014-1.24.056-.05,0a.084.084,0,0,1,0,.031L11.129.763l-.235.014L9.655.831C9.4.84,9.141.859,8.88.873s-.52.022-.791.036c-.45.028-.907.047-1.371.07-1.226.078-2.456.123-3.676.187A5.218,5.218,0,0,1,1.036.932,2.594,2.594,0,0,1,.014.331Z" transform="translate(0 23.866)" fill="none" stroke="#4b58aa" stroke-miterlimit="10" stroke-width="1"/>
          <path id="Path_47972" data-name="Path 47972" d="M0,23.866l.44-.055a3.236,3.236,0,0,0,2.07-1.225,2,2,0,0,0,.165-.212,3.738,3.738,0,0,0,.294-.468c.045-.082.087-.16.129-.247.073-.165.142-.334.2-.5.019-.056.037-.111.051-.162a4.631,4.631,0,0,0,.247-1.2c.033-.509.069-1.024.1-1.542.1-1.436.17-2.878.248-4.323.051-1.06.11-2.12.183-3.184.009-.1.009-.2.014-.308A16.345,16.345,0,0,0,4,7.4a12.432,12.432,0,0,0-.436-2.042C3.428,4.919,3.273,4.5,3.1,4.079A12.653,12.653,0,0,0,1.194.959C1.074.822.959.688.836.556.671.363.506.179.327,0L.318.009a.242.242,0,0,1,.05.04,2.67,2.67,0,0,1,.638,1.043,5.094,5.094,0,0,1,.243,2c-.019.4-.031.8-.064,1.2l-.1,1.886c-.042.931-.083,1.863-.134,2.795-.041.794-.083,1.578-.123,2.372C.8,11.972.767,12.6.73,13.225c-.014.381-.037.763-.059,1.142-.009.212-.014.428-.023.638-.009.12-.014.235-.023.353,0,.188-.023.381-.036.57l-.037.853L.325,19.54l-.017.128v.073C.165,21.151.193,22.526,0,23.866Z" transform="translate(23.885)" fill="none" stroke="#4b58aa" stroke-miterlimit="10" stroke-width="1"/>
        </g>
      </g>
      <line id="Line_519" data-name="Line 519" x2="139.148" y2="139.652" transform="translate(258.783 422.387)" fill="none" stroke="#4b58aa" stroke-miterlimit="10" stroke-width="1"/>
      <path id="Path_47973" data-name="Path 47973" d="M123.547,25.494a87,87,0,0,0-123.093,0C.3,25.645.146,25.8,0,25.958" transform="translate(266.035 569.122)" fill="none" stroke="#4b58aa" stroke-miterlimit="10" stroke-width="1"/>
      <path id="Path_47974" data-name="Path 47974" d="M.464,123.549a86.593,86.593,0,0,0,22.326-38.24A87.423,87.423,0,0,0,23,39.461,86.644,86.644,0,0,0,.464.454C.313.3.156.148,0,0" transform="translate(225.64 431.14)" fill="none" stroke="#4b58aa" stroke-miterlimit="10" stroke-width="1"/>
      <path id="Path_47975" data-name="Path 47975" d="M0,0,0,0A87.044,87.044,0,0,0,123.1,0l0,0" transform="translate(267.213 390.021)" fill="none" stroke="#4b58aa" stroke-miterlimit="10" stroke-width="1"/>
      <path id="Path_47976" data-name="Path 47976" d="M45.77,205.987c-.1.941-.115,1.858-.174,2.762l.932.685c.132.1.257.192.389.288Q51.3,212.95,55.9,215.71c.184.11.367.221.556.327a115.379,115.379,0,0,0,58.124,15.987H115.6a116.433,116.433,0,0,0,58.926-16.213c.111-.064.22-.128.325-.2a116.769,116.769,0,0,0,9.918-6.631.024.024,0,0,0,.017-.009l.327-.245c.05-.04.1-.073.151-.114l.005,0a4.828,4.828,0,0,1-.285-2.1c.019-.4.037-.808.059-1.206l.1-1.886c.042-.932.087-1.86.139-2.79.04-.794.078-1.583.123-2.373.033-.629.065-1.248.1-1.872.014-.38.033-.766.061-1.142,0-.216.014-.426.027-.643,0-.115,0-.234.014-.353.009-.193.028-.376.042-.565l.036-.853.221-2.762.009-.047.014,0v.028c.012,0,.031,0,.045-.01l0-.023a.109.109,0,0,0,0-.054c-.014,0-.019,0-.028,0h-.017l-.014,0,0-.014,0,0v-.064c.151-1.418.118-2.8.311-4.13,1.243-.151,2.588-.2,3.932-.3l1.763-.092,1.349-.054,0-.009,1.855-.1,0,.023,1.239-.064h.045a.1.1,0,0,1,0-.033l2.566-.132.229-.01,1.239-.056c.257-.019.515-.026.772-.045s.527-.023.789-.037c.459-.026.909-.045,1.377-.064,1.225-.078,2.454-.125,3.679-.193a5.312,5.312,0,0,1,1.91.2c.009-.009.019-.028.028-.037s.009-.017.019-.027l.137-.193a115.939,115.939,0,0,0,18.447-37.547,116.461,116.461,0,0,0,4.42-31.375v-.56a116.07,116.07,0,0,0-4.227-30.961A114.24,114.24,0,0,0,216.3,56.9a111.591,111.591,0,0,0-6.6-10.017c-.12-.174-.252-.344-.377-.514-.188-.261-.385-.532-.582-.794-.836.064-1.689.1-2.543.165l-1.766.1-1.349.054V45.9l-1.858.1v-.019l-1.234.059h-.056a.093.093,0,0,1,0,.033l-2.565.134-.235.014-1.239.054c-.257.019-.514.028-.775.04s-.523.028-.789.037c-.454.033-.909.047-1.372.068-1.225.078-2.456.125-3.68.193a3.938,3.938,0,0,1-3.028-.836l-.014.014q-.261-.275-.509-.563a12.6,12.6,0,0,1-2.263-3.52c-.17-.417-.325-.84-.459-1.276a13.26,13.26,0,0,1-.445-2.042,16.37,16.37,0,0,1-.132-3.042c0-.106,0-.207.012-.308.065-1.064.124-2.124.184-3.184.075-1.441.153-2.887.244-4.328.036-.514.069-1.022.1-1.538a4.585,4.585,0,0,1,.249-1.2.6.6,0,0,1,.045-.157,3.891,3.891,0,0,1,.2-.5c.036-.082.083-.165.128-.247a3.168,3.168,0,0,1,.294-.468,1.238,1.238,0,0,1,.165-.21,3.142,3.142,0,0,1,1.01-.864l.054-.028c-.123-.1-.243-.187-.37-.279q-4.475-3.263-9.188-6.049c-.11-.073-.234-.142-.349-.212a114.238,114.238,0,0,0-33.994-13.2A115.87,115.87,0,0,0,116.435,0h-.174A116.395,116.395,0,0,0,57.752,16.072c-.073.037-.146.082-.215.125A116.083,116.083,0,0,0,47.5,22.873c-.065.047-.124.087-.188.134a5.1,5.1,0,0,1,.243,2c-.019.4-.031.8-.064,1.2l-.1,1.886c-.042.931-.082,1.863-.134,2.795-.04.794-.083,1.578-.123,2.372-.033.619-.064,1.248-.1,1.872-.014.381-.037.762-.059,1.142-.009.212-.014.428-.023.638-.009.12-.014.235-.023.353,0,.188-.023.381-.036.57l-.037.853-.226,2.759-.017.128v.073c-.143,1.41-.115,2.786-.308,4.126-1.253.152-2.593.2-3.932.3l-1.762.092-1.354.059v.009l-1.855.092,0-.014-1.24.056-.05,0a.083.083,0,0,1,0,.031l-2.565.134-.235.014-1.239.054c-.257.009-.514.028-.775.042s-.52.022-.791.036c-.45.028-.907.047-1.371.07-1.226.078-2.456.123-3.676.187a5.217,5.217,0,0,1-2.006-.233l-.174.229c-.014.014-.023.033-.036.047-.065.082-.125.16-.184.247A116.331,116.331,0,0,0,4.46,84.893,116.381,116.381,0,0,0,0,116.433c0,.1,0,.188,0,.28A116.038,116.038,0,0,0,4.328,148.3a114.348,114.348,0,0,0,11.835,27.566q2.685,4.5,5.809,8.8c.115.16.238.321.358.478.321.44.643.871.973,1.312.826-.064,1.674-.106,2.529-.17l0,0,1.766-.1,1.345-.059v-.009l1.858-.1v.019l1.243-.061H32.1a.082.082,0,0,1,0-.031l2.565-.134.235-.014,1.239-.054.775-.042c.262-.014.523-.026.789-.036.454-.033.909-.047,1.373-.068,1.225-.08,2.456-.125,3.68-.193a3.956,3.956,0,0,1,3.033.839.192.192,0,0,1,.05.042,3.857,3.857,0,0,1,.882,3.047c-.019.4-.033.8-.061,1.206l-.1,1.886c-.04.932-.087,1.86-.137,2.79-.042.794-.083,1.58-.124,2.373-.027.624-.064,1.248-.1,1.872-.013.381-.036.761-.059,1.142,0,.216-.014.426-.023.638-.009.12-.014.233-.022.353,0,.188-.023.381-.037.569l-.038.853-.224,2.758-.009.047-.009.009v-.028a.17.17,0,0,1-.05,0l0,.023a.112.112,0,0,0-.009.055v.009a.081.081,0,0,0,.031,0h.037l0,.014-.014,0Z" transform="translate(212.155 376.533)" fill="none" stroke="#4b58aa" stroke-miterlimit="10" stroke-width="1"/>
      <ellipse id="Ellipse_236" data-name="Ellipse 236" cx="76.864" cy="76.864" rx="76.864" ry="76.864" transform="translate(250.948 415.519)" fill="none" stroke="#4b58aa" stroke-miterlimit="10" stroke-width="1"/>
      <path id="Path_47977" data-name="Path 47977" d="M0,140.477l.014-.014L46.169,94.308,70.234,70.243l0,0,0,0,.252-.252L94.413,46.064,140.463.014,140.477,0" transform="translate(258.214 93.84)" fill="none" stroke="#4b58aa" stroke-miterlimit="10" stroke-width="1"/>
      <g id="Group_4757-7" data-name="Group 4757" transform="translate(397.563 69.963)">
        <g id="Group_4459-7" data-name="Group 4459">
          <path id="Path_47978" data-name="Path 47978" d="M1.312,1.376C1.34.909,1.371.455,1.441,0L1,.054A3.088,3.088,0,0,0,0,.394c.33.24.66.487.987.73C1.1,1.206,1.206,1.289,1.312,1.376Z" transform="translate(0 0.014)" fill="none" stroke="#4b58aa" stroke-miterlimit="10" stroke-width="1"/>
          <path id="Path_47979" data-name="Path 47979" d="M0,.349A13.272,13.272,0,0,0,4.08,3.208a10.233,10.233,0,0,0,3.561.808c.16,0,.316.014.481.014a.331.331,0,0,0,.07,0c1.9,0,3.789-.045,5.7-.118q1.555-.07,3.116-.143l2.946-.156a4.042,4.042,0,0,0,2.772-1.194,3.785,3.785,0,0,0,.734-.982.494.494,0,0,0,.051-.1,3.583,3.583,0,0,0,.28-.766c.036-.184.069-.372.1-.565l0-.014s-.008,0-.017,0c-.419.051-.854.092-1.285.129-.028,0-.059,0-.087,0-.836.064-1.688.1-2.543.165L18.191.4,16.841.45V.459l-1.858.1V.537L13.749.6h-.056a.088.088,0,0,1,0,.033L11.133.763,10.9.777,9.659.831C9.4.85,9.146.859,8.885.872S8.362.9,8.1.909c-.454.033-.909.045-1.373.068-1.225.078-2.454.125-3.68.193A3.937,3.937,0,0,1,.014.335Z" transform="translate(1.114 23.541)" fill="none" stroke="#4b58aa" stroke-miterlimit="10" stroke-width="1"/>
          <line id="Line_520" data-name="Line 520" x2="0.023" y2="0.005" transform="translate(1.137 4.226)" fill="none" stroke="#4b58aa" stroke-miterlimit="10" stroke-width="1"/>
          <path id="Path_47980" data-name="Path 47980" d="M0,4.213l0-.068C.1,3.231.12,2.331.174,1.451c0-.019,0-.042,0-.061C.207.923.238.469.308.014L.311,0,.325.014" transform="translate(1.133)" fill="none" stroke="#4b58aa" stroke-miterlimit="10" stroke-width="1"/>
          <path id="Path_47981" data-name="Path 47981" d="M24.8,19.251c-.419.051-.854.092-1.285.129-.028,0-.059,0-.087,0-.836.064-1.688.1-2.543.165l-1.766.1-1.349.055v.009l-1.858.1v-.019l-1.234.061h-.056a.08.08,0,0,1,0,.031l-2.565.134-.235.014-1.239.054c-.257.019-.514.028-.775.041s-.523.028-.789.037c-.454.033-.909.047-1.373.068-1.225.078-2.454.125-3.68.193a3.937,3.937,0,0,1-3.028-.836.192.192,0,0,1-.055-.045,3.891,3.891,0,0,1-.882-3.047c.023-.4.033-.8.065-1.2L.17,13.4c.04-.93.082-1.863.132-2.793.042-.8.083-1.58.129-2.369.027-.624.059-1.253.1-1.877C.545,5.988.564,5.6.587,5.223.6,5.011.6,4.8.615,4.589c0-.12.009-.238.017-.358,0-.188.023-.381.037-.57l.042-.848L.931.051.941,0s0,0,.014,0L.945.028" transform="translate(0.183 4.291)" fill="none" stroke="#4b58aa" stroke-miterlimit="10" stroke-width="1"/>
          <path id="Path_47982" data-name="Path 47982" d="M0,0" transform="translate(1.183 4.291)" fill="none" stroke="#4b58aa" stroke-miterlimit="10" stroke-width="1"/>
        </g>
      </g>
      <g id="Group_4757-8" data-name="Group 4757" transform="translate(234.333 230.619)">
        <g id="Group_4459-8" data-name="Group 4459">
          <path id="Path_47983" data-name="Path 47983" d="M.019,0H0L.014.014Z" transform="translate(23.545 27.556)" fill="none" stroke="#4b58aa" stroke-miterlimit="10" stroke-width="1"/>
          <path id="Path_47984" data-name="Path 47984" d="M7.048,3.57l1.858-.1v.019l1.243-.061H10.2a.082.082,0,0,1,0-.031l2.565-.134.235-.014L14.23,3.2l.775-.042c.261-.014.523-.026.789-.036.454-.033.909-.047,1.372-.068,1.225-.079,2.456-.125,3.681-.193A3.954,3.954,0,0,1,23.88,3.7a.221.221,0,0,1,.051.042,3.862,3.862,0,0,1,.881,3.047c-.019.4-.033.8-.061,1.206l-.1,1.886c-.04.932-.087,1.86-.137,2.79-.04.794-.082,1.58-.124,2.373-.026.624-.064,1.248-.1,1.872-.014.381-.037.761-.061,1.142,0,.216-.014.426-.023.638-.008.12-.012.233-.022.353,0,.188-.024.381-.037.57l-.036.853-.226,2.758-.009.047-.009.009v-.028a.166.166,0,0,1-.05,0l0,.023a.112.112,0,0,0-.009.055v.009a.081.081,0,0,0,.031,0h.037l0,.014-.014,0,0,.068c-.1.942-.115,1.858-.174,2.762-.026.459-.068.914-.132,1.363L24,27.5a3.086,3.086,0,0,0,1.013-.336,3.259,3.259,0,0,0,1.057-.89,1.3,1.3,0,0,0,.165-.21,3.234,3.234,0,0,0,.294-.468c.045-.083.087-.16.123-.243.078-.171.143-.336.2-.506a.631.631,0,0,0,.05-.16,4.6,4.6,0,0,0,.249-1.2c.031-.509.068-1.022.1-1.541.1-1.437.171-2.877.245-4.319.059-1.06.114-2.124.184-3.186a2.552,2.552,0,0,0,.012-.307,15.943,15.943,0,0,0-.132-3.042,13.7,13.7,0,0,0-.44-2.046c-.134-.436-.289-.859-.459-1.276A12.586,12.586,0,0,0,24.4,4.244c-.165-.193-.33-.377-.5-.56A13.182,13.182,0,0,0,19.811.83,10.408,10.408,0,0,0,16.249.013c-.16,0-.321-.008-.486-.008-.019,0-.042,0-.068,0C13.8,0,11.9.045,10,.118,8.962.16,7.92.21,6.883.266L3.942.417a4.015,4.015,0,0,0-2.776,1.2,3.9,3.9,0,0,0-.734.973A3.522,3.522,0,0,0,.1,3.45a5.479,5.479,0,0,0-.1.565l0,.014H.019c.45-.056.912-.1,1.385-.129.826-.064,1.675-.106,2.529-.17l0,0,1.766-.1,1.345-.059Z" fill="none" stroke="#4b58aa" stroke-miterlimit="10" stroke-width="1"/>
        </g>
      </g>
      <g id="Group_4757-9" data-name="Group 4757" transform="translate(394.507 229.769)">
        <g id="Group_4459-9" data-name="Group 4459">
          <path id="Path_47985" data-name="Path 47985" d="M3.844,23.859a.279.279,0,0,1-.056-.047,2.7,2.7,0,0,1-.6-.931l0,0a4.835,4.835,0,0,1-.285-2.1c.019-.4.038-.808.061-1.206l.095-1.886c.042-.932.089-1.859.139-2.79.042-.794.078-1.583.124-2.373.031-.629.064-1.248.1-1.872.014-.381.033-.766.061-1.142,0-.216.014-.426.026-.643,0-.115,0-.233.014-.353.009-.193.028-.377.042-.565L3.6,7.09l.221-2.762.009-.047.014,0V4.3c.014,0,.031,0,.045-.009l0-.023a.1.1,0,0,0,0-.054c-.014,0-.019,0-.028,0H3.854l-.014,0,0-.014,0,0V4.13C4,2.713,3.967,1.331,4.16,0c-.151.014-.3.033-.44.055A3.255,3.255,0,0,0,1.645,1.286a1.958,1.958,0,0,0-.165.21,3.873,3.873,0,0,0-.294.468c-.045.082-.087.16-.123.243a5.009,5.009,0,0,0-.2.506c-.019.054-.037.11-.05.16a4.588,4.588,0,0,0-.249,1.2C.531,4.585.494,5.1.462,5.617.366,7.053.291,8.494.214,9.94.164,11,.1,12.059.03,13.125c-.009.1-.009.2-.012.307a16.342,16.342,0,0,0,.142,3.042,13.193,13.193,0,0,0,.436,2.042c.134.437.29.859.459,1.276a12.656,12.656,0,0,0,1.983,3.2c.092.11.188.216.285.322.165.193.33.377.509.555Z" transform="translate(0 4.029)" fill="none" stroke="#4b58aa" stroke-miterlimit="10" stroke-width="1"/>
          <path id="Path_47986" data-name="Path 47986" d="M0,4.029c1.243-.151,2.588-.2,3.933-.3L5.7,3.638l1.349-.054v-.01l1.853-.1,0,.023,1.239-.064h.047a.131.131,0,0,1,0-.033l2.566-.132.229-.01L14.226,3.2c.258-.019.515-.026.772-.045s.527-.023.789-.037c.459-.026.909-.045,1.377-.064,1.225-.078,2.454-.124,3.68-.193a5.27,5.27,0,0,1,1.908.2,2.7,2.7,0,0,1,1.121.633l.009-.009a12.027,12.027,0,0,0-.946-.881A12.913,12.913,0,0,0,19.806.836,10.161,10.161,0,0,0,16.245.019C16.081.009,15.923.009,15.763,0a.32.32,0,0,1-.068,0c-1.9,0-3.8.05-5.7.12-1.038.045-2.079.1-3.12.146L3.933.417A4.048,4.048,0,0,0,1.161,1.611,3.819,3.819,0,0,0,.1,3.455C.061,3.648.028,3.836,0,4.029Z" transform="translate(4.16)" fill="none" stroke="#4b58aa" stroke-miterlimit="10" stroke-width="1"/>
        </g>
      </g>
      <g id="Group_4757-10" data-name="Group 4757" transform="translate(234.856 69.977)">
        <g id="Group_4459-10" data-name="Group 4459">
          <path id="Path_47987" data-name="Path 47987" d="M0,.346C.275.629.56.9.862,1.161A13.007,13.007,0,0,0,4.074,3.2a10.246,10.246,0,0,0,3.562.817l.481.012a.328.328,0,0,1,.07,0c1.9,0,3.794-.05,5.694-.123,1.041-.042,2.084-.092,3.12-.148l2.946-.146a4.044,4.044,0,0,0,2.776-1.2,3.814,3.814,0,0,0,1.06-1.84c.037-.193.075-.386.1-.579-1.253.152-2.593.2-3.932.3L18.191.391,16.837.45V.459L14.983.551l0-.014L13.74.593l-.052,0a.082.082,0,0,1,0,.031L11.129.763l-.235.014L9.655.831C9.4.84,9.141.859,8.88.873s-.518.022-.789.036c-.45.028-.909.047-1.373.069-1.225.079-2.456.124-3.676.188A5.219,5.219,0,0,1,1.036.932,2.62,2.62,0,0,1,.014.331Z" transform="translate(0 23.866)" fill="none" stroke="#4b58aa" stroke-miterlimit="10" stroke-width="1"/>
          <path id="Path_47988" data-name="Path 47988" d="M0,23.866l.44-.055a3.237,3.237,0,0,0,2.07-1.225,1.8,1.8,0,0,0,.165-.212,3.763,3.763,0,0,0,.294-.468c.047-.082.087-.16.129-.247.073-.165.142-.335.2-.5.019-.056.037-.11.051-.162a4.642,4.642,0,0,0,.247-1.2c.033-.509.069-1.024.1-1.542.1-1.437.17-2.878.247-4.323.051-1.06.11-2.12.184-3.184.009-.1.009-.2.014-.308A16.354,16.354,0,0,0,4,7.4a12.766,12.766,0,0,0-.436-2.042c-.134-.436-.29-.858-.459-1.276A12.7,12.7,0,0,0,1.194.959C1.074.822.96.688.836.556.671.363.506.179.327,0L.318.009a.21.21,0,0,1,.05.04,2.65,2.65,0,0,1,.638,1.043,5.1,5.1,0,0,1,.243,2c-.017.4-.031.8-.064,1.2l-.1,1.886c-.041.931-.083,1.863-.132,2.8-.042.794-.084,1.578-.124,2.372C.8,11.972.767,12.6.73,13.225c-.014.381-.036.763-.059,1.142-.01.212-.014.428-.023.638-.009.12-.014.235-.023.353,0,.188-.022.381-.036.57l-.037.853L.327,19.54l-.019.128v.073C.165,21.151.193,22.526,0,23.866Z" transform="translate(23.885)" fill="none" stroke="#4b58aa" stroke-miterlimit="10" stroke-width="1"/>
        </g>
      </g>
      <line id="Line_521" data-name="Line 521" x2="139.148" y2="139.652" transform="translate(259.062 93.917)" fill="none" stroke="#4b58aa" stroke-miterlimit="10" stroke-width="1"/>
      <path id="Path_47989" data-name="Path 47989" d="M0,0,61.552,61.552l8.411,8.411.014.014" transform="translate(329.044)" fill="none" stroke="#4b58aa" stroke-miterlimit="10" stroke-width="1"/>
      <path id="Path_47990" data-name="Path 47990" d="M0,0,.014.014,8.779,8.779,29.589,29.59,69.977,69.977" transform="translate(422.549 93.505)" fill="none" stroke="#4b58aa" stroke-miterlimit="10" stroke-width="1"/>
      <line id="Line_522" data-name="Line 522" y1="1.186" x2="328.152" transform="translate(164.374 163.484)" fill="none" stroke="#4b58aa" stroke-miterlimit="10" stroke-width="1"/>
      <line id="Line_523" data-name="Line 523" y1="328.149" x2="1.189" transform="translate(327.855 0.003)" fill="none" stroke="#4b58aa" stroke-miterlimit="10" stroke-width="1"/>
      <path id="Path_47991" data-name="Path 47991" d="M123.549,25.494a87,87,0,0,0-123.094,0C.3,25.645.146,25.8,0,25.958" transform="translate(266.313 240.652)" fill="none" stroke="#4b58aa" stroke-miterlimit="10" stroke-width="1"/>
      <path id="Path_47992" data-name="Path 47992" d="M.464,123.549a86.59,86.59,0,0,0,22.326-38.24A87.407,87.407,0,0,0,23,39.461,86.641,86.641,0,0,0,.464.454C.313.3.156.148,0,0" transform="translate(225.919 102.671)" fill="none" stroke="#4b58aa" stroke-miterlimit="10" stroke-width="1"/>
      <path id="Path_47993" data-name="Path 47993" d="M0,0,0,0A87.043,87.043,0,0,0,123.1,0l0,0" transform="translate(267.493 61.552)" fill="none" stroke="#4b58aa" stroke-miterlimit="10" stroke-width="1"/>
      <path id="Path_47994" data-name="Path 47994" d="M45.77,205.986c-.1.942-.115,1.858-.174,2.762l.932.685c.132.1.257.191.389.288Q51.3,212.95,55.9,215.71c.183.11.367.221.556.327a115.376,115.376,0,0,0,58.123,15.987H115.6a116.422,116.422,0,0,0,58.926-16.213c.11-.064.221-.128.325-.2a116.768,116.768,0,0,0,9.918-6.631c.009,0,.012,0,.017-.009l.327-.244c.05-.04.1-.073.151-.114l0,0a4.833,4.833,0,0,1-.285-2.1c.019-.4.037-.808.061-1.206l.095-1.886c.042-.932.089-1.859.138-2.79.042-.794.078-1.583.125-2.373.031-.629.064-1.248.1-1.872.014-.381.033-.766.061-1.142,0-.216.014-.426.026-.643,0-.115,0-.233.014-.353.009-.193.028-.377.042-.565l.036-.853.221-2.762.009-.047.014,0v.028c.014,0,.031,0,.045-.009l0-.023a.106.106,0,0,0,0-.055c-.014,0-.019,0-.028,0h-.017l-.014,0,0-.014,0,0v-.064c.151-1.418.118-2.8.311-4.13,1.244-.151,2.588-.2,3.933-.3l1.763-.092,1.349-.054v-.009l1.854-.1,0,.023,1.239-.064h.047a.132.132,0,0,1,0-.033l2.566-.132.229-.009,1.239-.056c.258-.019.515-.026.772-.045s.527-.023.789-.037c.459-.026.909-.045,1.377-.064,1.225-.078,2.454-.124,3.681-.193a5.266,5.266,0,0,1,1.908.2c.009-.009.019-.028.028-.037s.009-.019.019-.026l.137-.193a115.944,115.944,0,0,0,18.447-37.547,116.458,116.458,0,0,0,4.42-31.375v-.56a116.059,116.059,0,0,0-4.227-30.961,114.294,114.294,0,0,0-11.5-27.172,111.956,111.956,0,0,0-6.6-10.018c-.118-.174-.252-.344-.376-.513-.187-.262-.385-.532-.582-.794-.836.064-1.688.1-2.543.165l-1.766.1-1.349.055V45.9l-1.858.1v-.019l-1.234.059h-.056a.091.091,0,0,1,0,.033l-2.565.134-.235.014-1.239.054c-.257.019-.514.028-.775.041s-.523.028-.789.037c-.454.033-.909.045-1.373.068-1.225.078-2.454.125-3.681.193a3.938,3.938,0,0,1-3.028-.836l-.014.014q-.261-.275-.509-.563a12.6,12.6,0,0,1-2.263-3.52c-.17-.417-.325-.84-.459-1.276a13.263,13.263,0,0,1-.445-2.042,16.414,16.414,0,0,1-.132-3.042c0-.106,0-.207.012-.308.065-1.064.125-2.124.184-3.184.075-1.441.153-2.887.244-4.328.036-.514.068-1.022.106-1.538a4.514,4.514,0,0,1,.247-1.2.662.662,0,0,1,.045-.157,3.846,3.846,0,0,1,.2-.5c.037-.083.082-.165.129-.247a3.158,3.158,0,0,1,.293-.468,1.314,1.314,0,0,1,.165-.212,3.15,3.15,0,0,1,1.01-.862l.056-.028c-.125-.1-.245-.187-.372-.279q-4.475-3.263-9.188-6.049c-.109-.073-.234-.142-.349-.212a114.225,114.225,0,0,0-33.994-13.2A115.876,115.876,0,0,0,116.435,0h-.174A116.386,116.386,0,0,0,57.753,16.072c-.075.037-.148.082-.216.125A116.334,116.334,0,0,0,47.5,22.873c-.064.047-.125.087-.188.134a5.1,5.1,0,0,1,.243,2c-.017.4-.031.8-.064,1.2L47.4,28.1c-.041.931-.083,1.863-.132,2.795-.042.794-.084,1.578-.125,2.372-.033.619-.064,1.248-.1,1.872-.014.381-.036.763-.059,1.142-.009.212-.014.428-.023.638-.009.12-.014.235-.023.353,0,.188-.022.381-.036.57l-.037.853-.224,2.759-.019.128v.073c-.143,1.41-.115,2.786-.308,4.126-1.253.152-2.593.2-3.932.3l-1.762.092-1.354.059v.009l-1.853.092,0-.014-1.239.056-.051,0a.084.084,0,0,1,0,.031l-2.565.134-.235.014-1.239.055c-.257.009-.514.028-.775.042s-.518.022-.789.036c-.45.028-.909.047-1.373.068-1.225.079-2.456.124-3.676.188a5.218,5.218,0,0,1-2.006-.233c-.059.078-.114.151-.174.229-.014.014-.022.033-.036.047-.065.082-.124.16-.183.247A116.328,116.328,0,0,0,4.46,84.893,116.391,116.391,0,0,0,0,116.433c0,.1,0,.188,0,.28A116.043,116.043,0,0,0,4.328,148.3a114.353,114.353,0,0,0,11.835,27.565q2.685,4.5,5.809,8.8c.115.16.238.321.358.478.321.44.643.871.973,1.312.826-.064,1.675-.106,2.529-.17l0,0,1.766-.1,1.345-.059v-.009l1.858-.1v.019l1.244-.061H32.1a.086.086,0,0,1,0-.031l2.564-.134.235-.014,1.239-.055.775-.042c.261-.014.523-.026.789-.036.454-.033.909-.047,1.372-.068,1.225-.08,2.456-.125,3.681-.193a3.954,3.954,0,0,1,3.033.839.225.225,0,0,1,.052.042,3.862,3.862,0,0,1,.881,3.047c-.019.4-.033.8-.061,1.206l-.1,1.886c-.04.932-.087,1.86-.137,2.79-.04.794-.083,1.58-.124,2.373-.026.624-.064,1.248-.1,1.872-.014.381-.037.761-.061,1.142,0,.216-.014.426-.024.638-.007.12-.012.234-.022.353,0,.188-.023.381-.037.57l-.036.853-.226,2.758-.009.047-.009.009v-.028a.161.161,0,0,1-.05,0l0,.023a.109.109,0,0,0-.009.055v.009a.082.082,0,0,0,.031,0h.037l0,.014-.014,0Z" transform="translate(212.434 48.063)" fill="none" stroke="#4b58aa" stroke-miterlimit="10" stroke-width="1"/>
      <ellipse id="Ellipse_237" data-name="Ellipse 237" cx="76.864" cy="76.864" rx="76.864" ry="76.864" transform="translate(251.227 87.049)" fill="none" stroke="#4b58aa" stroke-miterlimit="10" stroke-width="1"/>
      <path id="Path_47995" data-name="Path 47995" d="M0,140.477l.014-.014L46.17,94.308,70.234,70.243l0,0,0,0,.252-.252L94.413,46.064,140.463.014,140.477,0" transform="translate(93.839 258.214)" fill="none" stroke="#4b58aa" stroke-miterlimit="10" stroke-width="1"/>
      <g id="Group_4757-11" data-name="Group 4757" transform="translate(233.188 234.338)">
        <g id="Group_4459-11" data-name="Group 4459">
          <path id="Path_47996" data-name="Path 47996" d="M1.312,1.377C1.34.909,1.373.454,1.441,0L1,.056A3.075,3.075,0,0,0,0,.4c.33.238.661.487.987.73C1.1,1.208,1.208,1.29,1.312,1.377Z" transform="translate(0 0.012)" fill="none" stroke="#4b58aa" stroke-miterlimit="10" stroke-width="1"/>
          <path id="Path_47997" data-name="Path 47997" d="M0,.349A13.289,13.289,0,0,0,4.079,3.207a10.239,10.239,0,0,0,3.561.808c.16,0,.318.014.482.014a.318.318,0,0,0,.068,0c1.9,0,3.791-.047,5.7-.12,1.038-.045,2.075-.092,3.117-.142l2.946-.157a4.048,4.048,0,0,0,2.772-1.192,3.787,3.787,0,0,0,.734-.982.617.617,0,0,0,.05-.1,3.43,3.43,0,0,0,.28-.767c.037-.184.069-.372.1-.563l0-.014s-.009,0-.019,0c-.417.05-.853.092-1.285.128-.026,0-.059,0-.087,0C21.664.2,20.81.233,19.957.3l-1.768.1L16.841.45V.459l-1.86.1V.537L13.748.6h-.054a.091.091,0,0,1,0,.033L11.132.761,10.9.775,9.66.831C9.4.848,9.145.858,8.883.872S8.36.9,8.094.909C7.64.94,7.185.954,6.723.977c-1.226.078-2.456.123-3.68.193A3.942,3.942,0,0,1,.012.335Z" transform="translate(1.116 23.541)" fill="none" stroke="#4b58aa" stroke-miterlimit="10" stroke-width="1"/>
          <line id="Line_524" data-name="Line 524" x2="0.023" y2="0.005" transform="translate(1.138 4.226)" fill="none" stroke="#4b58aa" stroke-miterlimit="10" stroke-width="1"/>
          <path id="Path_47998" data-name="Path 47998" d="M0,4.213l0-.07c.1-.913.115-1.811.17-2.694,0-.017,0-.04,0-.059C.207.921.24.467.308.013L.313,0,.327.013" transform="translate(1.133)" fill="none" stroke="#4b58aa" stroke-miterlimit="10" stroke-width="1"/>
          <path id="Path_47999" data-name="Path 47999" d="M24.8,19.251c-.417.05-.853.092-1.285.128-.026,0-.059,0-.087,0-.834.065-1.688.1-2.541.165l-1.766.1-1.349.056v.009l-1.86.1v-.019l-1.234.059h-.055a.092.092,0,0,1,0,.033l-2.566.132-.233.014-1.239.054c-.257.019-.515.028-.777.042s-.523.028-.789.037c-.454.031-.909.045-1.371.069-1.226.078-2.456.123-3.68.193a3.942,3.942,0,0,1-3.03-.836.378.378,0,0,1-.054-.045,3.893,3.893,0,0,1-.881-3.047c.023-.4.033-.8.064-1.2l.1-1.886c.042-.932.083-1.863.134-2.8C.343,9.815.385,9.031.43,8.242c.028-.624.059-1.253.1-1.877C.545,5.989.564,5.6.586,5.221.6,5.011.6,4.795.614,4.588c0-.118.009-.238.019-.358,0-.187.023-.38.036-.568l.042-.85L.931.05.939,0s0,0,.014,0L.944.027" transform="translate(0.185 4.29)" fill="none" stroke="#4b58aa" stroke-miterlimit="10" stroke-width="1"/>
          <path id="Path_48000" data-name="Path 48000" d="M0,0" transform="translate(1.184 4.29)" fill="none" stroke="#4b58aa" stroke-miterlimit="10" stroke-width="1"/>
        </g>
      </g>
      <g id="Group_4757-12" data-name="Group 4757" transform="translate(69.958 394.992)">
        <g id="Group_4459-12" data-name="Group 4459">
          <path id="Path_48001" data-name="Path 48001" d="M.019,0H0L.014.012Z" transform="translate(23.546 27.558)" fill="none" stroke="#4b58aa" stroke-miterlimit="10" stroke-width="1"/>
          <path id="Path_48002" data-name="Path 48002" d="M7.05,3.57l1.858-.1v.019l1.244-.059H10.2a.094.094,0,0,1,0-.033l2.566-.132.234-.014L14.23,3.2c.261-.013.515-.026.777-.04s.523-.028.789-.037c.454-.031.909-.045,1.372-.068,1.225-.078,2.454-.125,3.679-.193a3.966,3.966,0,0,1,3.035.84.307.307,0,0,1,.05.04,3.857,3.857,0,0,1,.881,3.047c-.018.4-.031.8-.059,1.208l-.1,1.886c-.042.931-.087,1.858-.138,2.79-.041.794-.083,1.578-.123,2.372-.028.624-.066,1.248-.1,1.872-.014.381-.037.762-.059,1.144,0,.215-.014.426-.023.636-.009.12-.014.235-.023.355,0,.187-.023.38-.036.568l-.037.854L23.89,23.23l-.008.045-.009.009v-.027a.173.173,0,0,1-.051,0l0,.022a.12.12,0,0,0-.009.056v.009a.154.154,0,0,0,.033,0h.036l0,.012-.014,0,0,.07c-.1.94-.115,1.858-.174,2.762-.028.459-.07.914-.134,1.363L24,27.5a3.063,3.063,0,0,0,1.015-.335,3.29,3.29,0,0,0,1.055-.89,1.235,1.235,0,0,0,.165-.212,2.973,2.973,0,0,0,.294-.469c.045-.082.087-.16.125-.243.078-.17.142-.334.2-.5a.664.664,0,0,0,.052-.16,4.65,4.65,0,0,0,.247-1.2c.033-.509.068-1.024.1-1.542.1-1.436.17-2.877.243-4.319.061-1.06.115-2.124.184-3.184a2.3,2.3,0,0,0,.014-.308,15.949,15.949,0,0,0-.134-3.042,13.739,13.739,0,0,0-.44-2.047c-.133-.436-.288-.857-.459-1.276A12.572,12.572,0,0,0,24.4,4.245c-.165-.193-.331-.377-.506-.56A13.113,13.113,0,0,0,19.811.831,10.323,10.323,0,0,0,16.25.014c-.16,0-.322-.009-.487-.009-.019,0-.041,0-.068,0C13.8,0,11.9.047,10.005.12,8.962.16,7.921.212,6.883.266L3.942.417a4.025,4.025,0,0,0-2.776,1.2,3.934,3.934,0,0,0-.735.973,3.539,3.539,0,0,0-.33.864c-.042.188-.073.375-.1.563l0,.014H.019c.45-.054.914-.1,1.385-.128.826-.065,1.676-.106,2.529-.17l0,0L5.705,3.64l1.343-.061Z" fill="none" stroke="#4b58aa" stroke-miterlimit="10" stroke-width="1"/>
        </g>
      </g>
      <g id="Group_4757-13" data-name="Group 4757" transform="translate(230.132 394.144)">
        <g id="Group_4459-13" data-name="Group 4459">
          <path id="Path_48003" data-name="Path 48003" d="M3.844,23.857a.215.215,0,0,1-.054-.045,2.71,2.71,0,0,1-.6-.932l0,0a4.8,4.8,0,0,1-.283-2.1c.017-.4.036-.808.059-1.208l.1-1.886c.04-.931.087-1.858.137-2.79.042-.794.079-1.583.125-2.372.033-.629.064-1.248.1-1.872.014-.381.031-.767.059-1.142,0-.216.014-.428.028-.643,0-.115,0-.235.014-.353.009-.193.026-.377.04-.565l.037-.853.219-2.764.009-.045.014,0V4.3c.014,0,.033,0,.047-.009l0-.024a.1.1,0,0,0,0-.054c-.014,0-.019,0-.028,0H3.854l-.014,0,0-.014,0,0V4.13c.151-1.419.12-2.8.313-4.13-.152.014-.3.031-.44.055A3.261,3.261,0,0,0,1.647,1.284a1.835,1.835,0,0,0-.165.212,3.651,3.651,0,0,0-.294.469c-.047.082-.087.16-.125.243a4.893,4.893,0,0,0-.2.5c-.019.056-.037.111-.051.162a4.632,4.632,0,0,0-.247,1.2C.531,4.583.5,5.1.463,5.616.366,7.053.293,8.494.215,9.94.164,11,.1,12.059.032,13.124c-.009.1-.009.2-.014.308a16.354,16.354,0,0,0,.142,3.042,13.4,13.4,0,0,0,.436,2.042c.134.436.289.857.459,1.276a12.7,12.7,0,0,0,1.983,3.2c.092.111.188.216.285.321.165.193.33.377.509.556Z" transform="translate(0 4.029)" fill="none" stroke="#4b58aa" stroke-miterlimit="10" stroke-width="1"/>
          <path id="Path_48004" data-name="Path 48004" d="M0,4.029c1.243-.153,2.588-.2,3.932-.3l1.762-.092,1.349-.055V3.575l1.854-.1,0,.023,1.24-.065h.045a.084.084,0,0,1,0-.031l2.565-.134.23-.009L14.225,3.2c.257-.019.514-.028.77-.047s.527-.022.789-.036c.459-.028.909-.047,1.377-.064,1.225-.079,2.456-.125,3.68-.193a5.28,5.28,0,0,1,1.91.2,2.722,2.722,0,0,1,1.119.633l.009-.009a12.544,12.544,0,0,0-.945-.881A12.984,12.984,0,0,0,19.806.834,10.242,10.242,0,0,0,16.244.017C16.079.009,15.923.009,15.763,0a.332.332,0,0,1-.07,0c-1.9,0-3.794.05-5.7.118-1.036.047-2.079.1-3.12.148L3.932.417A4.041,4.041,0,0,0,1.161,1.611,3.824,3.824,0,0,0,.1,3.455C.059,3.648.026,3.836,0,4.029Z" transform="translate(4.162)" fill="none" stroke="#4b58aa" stroke-miterlimit="10" stroke-width="1"/>
        </g>
      </g>
      <g id="Group_4757-14" data-name="Group 4757" transform="translate(70.481 234.351)">
        <g id="Group_4459-14" data-name="Group 4459">
          <path id="Path_48005" data-name="Path 48005" d="M0,.344c.276.285.56.56.864.817A12.945,12.945,0,0,0,4.076,3.2a10.162,10.162,0,0,0,3.561.817l.482.014a.328.328,0,0,1,.068,0c1.9,0,3.8-.051,5.694-.125,1.043-.04,2.084-.092,3.122-.146l2.946-.146a4.051,4.051,0,0,0,2.776-1.2,3.814,3.814,0,0,0,1.06-1.84c.036-.193.073-.386.1-.579-1.253.151-2.593.2-3.933.3L18.191.391,16.837.45V.459L14.983.551l0-.014L13.74.591l-.05,0a.136.136,0,0,1,0,.033L11.129.761,10.9.775,9.656.831C9.4.84,9.141.858,8.88.871s-.518.023-.789.037c-.45.028-.909.045-1.373.068-1.225.078-2.454.125-3.676.188a5.238,5.238,0,0,1-2-.233A2.618,2.618,0,0,1,.014.33Z" transform="translate(0 23.868)" fill="none" stroke="#4b58aa" stroke-miterlimit="10" stroke-width="1"/>
          <path id="Path_48006" data-name="Path 48006" d="M0,23.868l.44-.054a3.237,3.237,0,0,0,2.07-1.226,2.053,2.053,0,0,0,.165-.21,3.7,3.7,0,0,0,.292-.468c.047-.083.089-.16.129-.248.073-.166.143-.336.2-.5.018-.054.036-.11.05-.16a4.581,4.581,0,0,0,.249-1.2c.031-.509.068-1.022.1-1.541.1-1.436.171-2.877.249-4.323.05-1.06.109-2.12.184-3.185.008-.1.009-.2.012-.307A16.338,16.338,0,0,0,4,7.4a12.575,12.575,0,0,0-.436-2.042C3.427,4.919,3.271,4.5,3.1,4.08A12.589,12.589,0,0,0,1.192.96C1.074.822.959.689.834.556.669.363.5.179.325,0L.316.009A.225.225,0,0,1,.367.051,2.671,2.671,0,0,1,1,1.092,5.132,5.132,0,0,1,1.248,3.1c-.019.394-.033.8-.065,1.2l-.1,1.886C1.046,7.118,1,8.05.954,8.981c-.042.794-.083,1.58-.124,2.373-.031.62-.064,1.248-.1,1.872-.012.381-.036.761-.059,1.142-.009.212-.014.426-.023.638-.008.12-.012.233-.022.353,0,.188-.023.381-.037.57l-.036.853L.325,19.54l-.019.129v.073C.165,21.151.193,22.528,0,23.868Z" transform="translate(23.887)" fill="none" stroke="#4b58aa" stroke-miterlimit="10" stroke-width="1"/>
        </g>
      </g>
      <line id="Line_525" data-name="Line 525" x2="139.148" y2="139.652" transform="translate(94.688 258.291)" fill="none" stroke="#4b58aa" stroke-miterlimit="10" stroke-width="1"/>
      <path id="Path_48007" data-name="Path 48007" d="M0,0,61.552,61.552l8.411,8.411.014.014" transform="translate(164.67 164.374)" fill="none" stroke="#4b58aa" stroke-miterlimit="10" stroke-width="1"/>
      <path id="Path_48008" data-name="Path 48008" d="M0,0,.014.014,8.779,8.779,29.589,29.59,69.977,69.977" transform="translate(258.175 257.879)" fill="none" stroke="#4b58aa" stroke-miterlimit="10" stroke-width="1"/>
      <line id="Line_526" data-name="Line 526" y1="1.186" x2="328.152" transform="translate(0 327.858)" fill="none" stroke="#4b58aa" stroke-miterlimit="10" stroke-width="1"/>
      <line id="Line_527" data-name="Line 527" y1="328.149" x2="1.189" transform="translate(163.482 164.377)" fill="none" stroke="#4b58aa" stroke-miterlimit="10" stroke-width="1"/>
      <path id="Path_48009" data-name="Path 48009" d="M123.549,25.495a86.994,86.994,0,0,0-123.094,0C.3,25.645.148,25.8,0,25.957" transform="translate(101.939 405.026)" fill="none" stroke="#4b58aa" stroke-miterlimit="10" stroke-width="1"/>
      <path id="Path_48010" data-name="Path 48010" d="M.462,123.549a86.583,86.583,0,0,0,22.325-38.24A87.41,87.41,0,0,0,23,39.46,86.668,86.668,0,0,0,.462.454C.311.3.156.146,0,0" transform="translate(61.546 267.045)" fill="none" stroke="#4b58aa" stroke-miterlimit="10" stroke-width="1"/>
      <path id="Path_48011" data-name="Path 48011" d="M25.957,0c-.156.146-.313.3-.464.454a87.011,87.011,0,0,0,0,123.093" transform="translate(241.224 266.432)" fill="none" stroke="#4b58aa" stroke-miterlimit="10" stroke-width="1"/>
      <path id="Path_48012" data-name="Path 48012" d="M0,0,0,0A87.042,87.042,0,0,0,123.1,0l0,0" transform="translate(103.118 225.925)" fill="none" stroke="#4b58aa" stroke-miterlimit="10" stroke-width="1"/>
      <path id="Path_48013" data-name="Path 48013" d="M45.77,205.986c-.1.94-.115,1.858-.174,2.762l.931.683c.134.1.257.193.391.289Q51.3,212.95,55.9,215.71c.184.111.366.221.554.326a115.415,115.415,0,0,0,58.125,15.989H115.6a116.469,116.469,0,0,0,58.927-16.213c.11-.064.221-.129.327-.2a116.169,116.169,0,0,0,9.916-6.631.024.024,0,0,0,.019-.009l.325-.243c.051-.042.1-.073.153-.115l0,0a4.8,4.8,0,0,1-.283-2.1c.017-.4.036-.808.059-1.208l.1-1.886c.04-.931.087-1.858.137-2.79.042-.794.08-1.583.125-2.372.033-.629.064-1.248.1-1.872.014-.381.031-.767.059-1.142,0-.216.014-.428.028-.643,0-.115,0-.235.014-.353.009-.193.026-.377.04-.565l.037-.853.219-2.764.009-.045.014,0v.028c.014,0,.033,0,.047-.009l0-.023a.1.1,0,0,0,0-.055c-.014,0-.019,0-.028,0h-.019l-.014,0,0-.014,0,0v-.064c.151-1.419.12-2.8.313-4.13,1.243-.153,2.588-.2,3.932-.3l1.762-.092,1.349-.055v-.009l1.854-.1,0,.023,1.24-.065h.045a.08.08,0,0,1,0-.031l2.564-.134.23-.009,1.239-.055c.257-.019.514-.028.77-.047s.528-.022.789-.036c.459-.028.909-.047,1.377-.064,1.225-.079,2.456-.125,3.681-.193a5.275,5.275,0,0,1,1.909.2c.009-.009.019-.027.027-.036s.009-.019.019-.028l.138-.193a116.555,116.555,0,0,0,22.866-68.921v-.56a116.112,116.112,0,0,0-4.225-30.961A114.235,114.235,0,0,0,216.3,56.9a111.511,111.511,0,0,0-6.6-10.018c-.12-.174-.254-.344-.377-.515-.188-.262-.386-.532-.584-.794-.834.065-1.689.1-2.541.165l-1.768.1-1.348.056V45.9l-1.86.1v-.019l-1.234.059h-.054a.089.089,0,0,1,0,.033l-2.566.132-.233.014-1.239.056c-.257.017-.515.026-.777.041s-.523.028-.789.037c-.454.031-.909.045-1.371.069-1.226.078-2.456.123-3.681.193a3.942,3.942,0,0,1-3.03-.836l-.012.014c-.174-.184-.345-.372-.51-.565a12.6,12.6,0,0,1-2.263-3.518c-.17-.419-.325-.84-.458-1.276a13.056,13.056,0,0,1-.445-2.043,16.357,16.357,0,0,1-.134-3.042c0-.1,0-.206.014-.307.064-1.064.124-2.124.183-3.186.073-1.441.151-2.885.243-4.326.037-.515.069-1.024.106-1.538a4.646,4.646,0,0,1,.248-1.2.615.615,0,0,1,.047-.156,3.664,3.664,0,0,1,.2-.5c.037-.082.084-.165.129-.249a3.016,3.016,0,0,1,.294-.467,1.129,1.129,0,0,1,.165-.212,3.119,3.119,0,0,1,1.01-.862l.054-.028c-.124-.1-.243-.188-.372-.28q-4.475-3.263-9.186-6.048c-.111-.075-.235-.143-.349-.212a114.254,114.254,0,0,0-34-13.2A115.865,115.865,0,0,0,116.436,0h-.174A116.35,116.35,0,0,0,57.752,16.072c-.073.036-.146.083-.216.123A116.618,116.618,0,0,0,47.5,22.873l-.188.132a5.131,5.131,0,0,1,.244,2.006c-.019.394-.033.8-.065,1.2l-.1,1.886c-.041.932-.083,1.864-.132,2.795-.042.794-.082,1.58-.124,2.373-.031.62-.064,1.248-.1,1.872-.013.381-.036.761-.059,1.142-.01.212-.014.426-.024.638-.008.12-.012.233-.021.353,0,.188-.023.381-.037.57l-.036.853-.226,2.758-.019.129v.073c-.142,1.409-.114,2.786-.307,4.126-1.253.151-2.593.2-3.932.3l-1.763.092-1.354.059v.009l-1.853.092,0-.014-1.239.054-.05,0a.131.131,0,0,1,0,.033l-2.565.132-.233.014-1.239.056c-.259.009-.515.027-.777.041s-.518.023-.789.037c-.45.028-.909.045-1.373.068-1.225.078-2.454.125-3.676.188a5.236,5.236,0,0,1-2-.234c-.061.078-.115.151-.174.229-.014.014-.023.033-.037.045-.064.084-.125.162-.184.249a116.452,116.452,0,0,0-23.058,69.2c-.005.1-.005.188-.005.28A116.13,116.13,0,0,0,4.327,148.3a114.383,114.383,0,0,0,11.835,27.565q2.684,4.5,5.809,8.8c.115.16.24.321.358.476.322.44.643.872.973,1.313.826-.065,1.676-.106,2.529-.17l0,0,1.768-.095,1.343-.061v-.009l1.858-.1v.019l1.243-.059h.045a.092.092,0,0,1,0-.033l2.566-.132.233-.014,1.239-.056c.262-.012.515-.026.777-.04s.523-.028.789-.037c.454-.031.909-.045,1.372-.069,1.225-.078,2.454-.124,3.679-.193a3.966,3.966,0,0,1,3.035.84.313.313,0,0,1,.05.041,3.857,3.857,0,0,1,.881,3.047c-.019.4-.031.8-.059,1.208l-.1,1.886c-.042.931-.087,1.858-.138,2.79-.041.794-.083,1.578-.123,2.372-.028.624-.065,1.248-.1,1.872-.014.381-.037.762-.059,1.144,0,.215-.014.426-.023.636-.009.12-.014.235-.023.355,0,.187-.023.38-.036.568l-.037.854-.225,2.758-.008.045-.01.01v-.027a.173.173,0,0,1-.051,0l0,.022a.118.118,0,0,0-.009.056v.009a.15.15,0,0,0,.033,0h.036l0,.012-.014,0Z" transform="translate(48.06 212.438)" fill="none" stroke="#4b58aa" stroke-miterlimit="10" stroke-width="1"/>
      <ellipse id="Ellipse_238" data-name="Ellipse 238" cx="76.864" cy="76.864" rx="76.864" ry="76.864" transform="translate(86.853 251.423)" fill="none" stroke="#4b58aa" stroke-miterlimit="10" stroke-width="1"/>
      <ellipse id="Ellipse_239" data-name="Ellipse 239" cx="36.894" cy="36.894" rx="36.894" ry="36.894" transform="translate(127.472 292.042)" fill="none" stroke="#4b58aa" stroke-miterlimit="10" stroke-width="1"/>
    </g>
  </g>
</svg>
