<svg xmlns="http://www.w3.org/2000/svg" xmlns:xlink="http://www.w3.org/1999/xlink" width="210.249" height="572.273" viewBox="0 0 210.249 572.273">
  <defs>
    <clipPath id="clip-path">
      <rect id="Rectangle_21965" data-name="Rectangle 21965" width="210.249" height="572.273" rx="10" fill="#4b58aa"/>
    </clipPath>
  </defs>
  <g id="Mask_Group_43" data-name="Mask Group 43" clip-path="url(#clip-path)">
    <g id="Group_4820" data-name="Group 4820" transform="translate(-76.094 -308.106)">
      <g id="Group_4757" data-name="Group 4757" transform="translate(120.731 717.916)">
        <g id="Group_4459" data-name="Group 4459" transform="translate(0)">
          <path id="Path_47640" data-name="Path 47640" d="M800.785,775.354h.034l-.026.025Z" transform="translate(-793.227 -725.234)" fill="none" stroke="#4b58aa" stroke-width="1.5"/>
          <path id="Path_47641" data-name="Path 47641" d="M835.71,764.14l-3.379-.175V764l-2.262-.108h-.082a.166.166,0,0,0,.008-.059l-4.668-.241-.425-.025-2.253-.1-1.413-.074c-.475-.026-.951-.051-1.435-.068-.826-.057-1.653-.082-2.5-.125-2.228-.141-4.464-.226-6.691-.351-2.5-.108-4.317.377-5.52,1.529a.44.44,0,0,0-.09.073c-1.186,1.186-1.735,3.04-1.6,5.542.034.736.056,1.46.107,2.2l.175,3.43c.077,1.693.159,3.38.252,5.075.074,1.444.15,2.87.224,4.314.051,1.135.116,2.27.184,3.405.026.693.068,1.387.107,2.077.008.393.025.778.043,1.16.017.218.025.428.042.643.009.342.042.693.065,1.036l.068,1.551.407,5.018.017.082.017.017v-.051a.324.324,0,0,0,.094.008L805.2,800a.212.212,0,0,1,.017.1v.017a.165.165,0,0,1-.06-.009h-.065l.006.026.026.009-.009.125c.175,1.712.21,3.382.317,5.027.051.832.128,1.659.243,2.477l-.8-.1a5.577,5.577,0,0,1-1.846-.608,5.983,5.983,0,0,1-1.919-1.619,2.328,2.328,0,0,1-.3-.385,5.524,5.524,0,0,1-.535-.852c-.082-.15-.158-.291-.227-.441-.141-.308-.258-.609-.365-.917a1.19,1.19,0,0,1-.094-.294,8.433,8.433,0,0,1-.45-2.185c-.059-.926-.125-1.863-.184-2.805-.176-2.612-.309-5.234-.442-7.855-.11-1.928-.209-3.864-.334-5.791a4.174,4.174,0,0,1-.026-.56,29.014,29.014,0,0,1,.243-5.534,24.635,24.635,0,0,1,.8-3.722c.24-.792.523-1.559.835-2.321a22.87,22.87,0,0,1,4.121-6.408c.3-.351.6-.685.92-1.019a23.85,23.85,0,0,1,7.427-5.191,18.79,18.79,0,0,1,6.476-1.486c.292-.008.586-.017.886-.017.034,0,.073-.009.124-.009,3.439,0,6.9.082,10.348.218,1.9.073,3.79.167,5.678.266l5.35.275a7.309,7.309,0,0,1,5.05,2.18,7.155,7.155,0,0,1,1.336,1.769,6.429,6.429,0,0,1,.6,1.571c.077.34.133.682.175,1.025l.009.026H848.5c-.818-.1-1.661-.175-2.519-.232-1.5-.119-3.049-.193-4.6-.311l-.009.009-3.216-.176-2.443-.107Z" transform="translate(-798.115 -757.647)" fill="none" stroke="#4b58aa" stroke-width="1.5"/>
        </g>
      </g>
      <g id="Group_4757-2" data-name="Group 4757" transform="translate(119.193 425.737)">
        <g id="Group_4459-2" data-name="Group 4459" transform="translate(0)">
          <path id="Path_47642" data-name="Path 47642" d="M843.687,670.385a21.623,21.623,0,0,1-1.571,1.486,23.543,23.543,0,0,1-5.842,3.705,18.481,18.481,0,0,1-6.476,1.486l-.878.026a.575.575,0,0,0-.125.008c-3.456,0-6.9-.093-10.357-.227-1.9-.073-3.79-.167-5.678-.266l-5.358-.269a7.363,7.363,0,0,1-5.05-2.177,6.944,6.944,0,0,1-1.928-3.348c-.065-.348-.133-.7-.184-1.05,2.279.275,4.716.359,7.153.543l3.207.167,2.463.107v.017l3.371.167.008-.026,2.253.1.09.009a.252.252,0,0,0-.005.06l4.665.241.425.026,2.253.1c.47.014.937.048,1.413.074s.943.042,1.435.068c.818.048,1.653.082,2.5.124,2.228.141,4.464.224,6.686.342a9.524,9.524,0,0,0,3.646-.427,4.722,4.722,0,0,0,1.862-1.093Z" transform="translate(-792.684 -626.348)" fill="none" stroke="#4b58aa" stroke-width="1.5"/>
          <path id="Path_47643" data-name="Path 47643" d="M805.13,697.834l-.8-.1a5.869,5.869,0,0,1-3.764-2.228,3.394,3.394,0,0,1-.3-.385,6.8,6.8,0,0,1-.535-.849c-.082-.15-.158-.292-.232-.453-.133-.3-.261-.608-.359-.909-.034-.1-.065-.2-.09-.291a8.346,8.346,0,0,1-.453-2.188c-.057-.926-.125-1.86-.181-2.805-.175-2.612-.311-5.231-.453-7.86-.091-1.928-.2-3.858-.334-5.794-.017-.184-.017-.365-.023-.558a29.719,29.719,0,0,1,.258-5.533,22.95,22.95,0,0,1,.792-3.716c.243-.792.527-1.56.835-2.318a22.838,22.838,0,0,1,3.473-5.675c.215-.252.424-.492.651-.736.3-.351.6-.685.926-1.01l.017.017a.406.406,0,0,0-.093.076,4.858,4.858,0,0,0-1.158,1.894,9.33,9.33,0,0,0-.444,3.649c.034.716.06,1.46.116,2.185l.175,3.431c.076,1.7.153,3.388.244,5.084.076,1.444.15,2.87.226,4.317.057,1.126.116,2.27.181,3.405.025.69.068,1.384.11,2.078.017.382.026.775.04,1.16.017.215.026.425.043.643.008.342.042.693.068,1.033l.065,1.554.411,5.016.034.235v.133C804.83,692.891,804.779,695.4,805.13,697.834Z" transform="translate(-797.572 -654.422)" fill="none" stroke="#4b58aa" stroke-width="1.5"/>
        </g>
      </g>
      <path id="Path_47644" data-name="Path 47644" d="M851.024,900.145a158.227,158.227,0,0,1,0-223.887c.275-.278.557-.56.841-.827" transform="translate(-665.415 -190.228)" fill="none" stroke="#4b58aa" stroke-width="1.5"/>
      <path id="Path_47645" data-name="Path 47645" d="M1071.441,1030.883l-.025-.025-83.949-83.949L943.7,903.14l-.008-.008-.008-.008-.459-.459-43.5-43.5L815.962,775.4l-.025-.025" transform="translate(-644.76 -7.272)" fill="none" stroke="#4b58aa" stroke-width="1.5"/>
      <g id="Group_4757-3" data-name="Group 4757" transform="translate(127.751 724.681)">
        <g id="Group_4459-3" data-name="Group 4459">
          <path id="Path_47646" data-name="Path 47646" d="M815.969,762.548c-.048-.849-.108-1.676-.232-2.5l.8.1a5.66,5.66,0,0,1,1.82.617c-.6.436-1.2.886-1.795,1.328C816.363,762.24,816.162,762.39,815.969,762.548Z" transform="translate(-772.877 -760.02)" fill="none" stroke="#4b58aa" stroke-width="1.5"/>
          <path id="Path_47647" data-name="Path 47647" d="M844.046,775.8a24.152,24.152,0,0,1-7.419,5.2,18.633,18.633,0,0,1-6.479,1.469c-.292.008-.575.025-.875.025a.6.6,0,0,1-.127.008c-3.445.008-6.892-.082-10.365-.215q-2.828-.128-5.667-.26l-5.358-.283a7.347,7.347,0,0,1-5.041-2.171,6.889,6.889,0,0,1-1.336-1.786.814.814,0,0,1-.093-.176,6.35,6.35,0,0,1-.507-1.393c-.068-.334-.127-.677-.176-1.028l-.008-.026c.008.009.017,0,.031,0,.761.094,1.554.167,2.338.235.051,0,.108.008.158.008,1.52.116,3.071.184,4.625.3l3.213.176,2.454.1V776l3.38.176v-.034l2.245.108h.1a.168.168,0,0,0-.008.059l4.664.243.428.026,2.253.1c.467.034.934.051,1.409.073s.951.051,1.435.068c.826.059,1.653.085,2.5.124,2.228.141,4.466.227,6.694.351,2.479.125,4.314-.376,5.508-1.52Z" transform="translate(-800.595 -732.347)" fill="none" stroke="#4b58aa" stroke-width="1.5"/>
          <line id="Line_431" data-name="Line 431" x1="0.042" y2="0.008" transform="translate(43.368 7.687)" fill="none" stroke="#4b58aa" stroke-width="1.5"/>
          <path id="Path_47648" data-name="Path 47648" d="M816.317,767.7l-.009-.125c-.175-1.661-.207-3.3-.308-4.9,0-.034-.009-.076-.009-.11-.051-.849-.108-1.676-.232-2.5l-.008-.026-.026.026" transform="translate(-772.899 -760.037)" fill="none" stroke="#4b58aa" stroke-width="1.5"/>
          <path id="Path_47649" data-name="Path 47649" d="M800.606,797.807c.761.094,1.554.167,2.338.235.051,0,.107.008.158.008,1.52.116,3.071.184,4.625.3l3.213.176,2.454.1v.017l3.38.176v-.034l2.245.11h.1a.146.146,0,0,0-.008.057l4.665.243.428.026,2.253.1c.467.034.934.051,1.409.073s.951.051,1.435.068c.826.059,1.653.085,2.5.125,2.228.141,4.466.226,6.694.351,2.479.125,4.314-.376,5.508-1.52a.409.409,0,0,0,.1-.082q1.775-1.779,1.6-5.542c-.043-.727-.06-1.461-.119-2.188l-.175-3.431c-.074-1.693-.15-3.388-.241-5.081-.076-1.444-.15-2.873-.235-4.308-.048-1.135-.108-2.279-.176-3.414-.031-.685-.065-1.384-.108-2.077-.017-.385-.026-.776-.051-1.152,0-.218-.014-.433-.031-.651-.009-.343-.043-.694-.068-1.036l-.073-1.543-.4-5.024-.017-.085c-.009.009-.009.009-.026-.008l.017.051" transform="translate(-800.575 -754.99)" fill="none" stroke="#4b58aa" stroke-width="1.5"/>
          <path id="Path_47650" data-name="Path 47650" d="M815.9,762.794" transform="translate(-772.575 -754.99)" fill="none" stroke="#4b58aa" stroke-width="1.5"/>
        </g>
      </g>
      <g id="Group_4757-4" data-name="Group 4757" transform="translate(419.699 1016.885)">
        <g id="Group_4459-4" data-name="Group 4459" transform="translate(0)">
          <path id="Path_47651" data-name="Path 47651" d="M906.408,880.978h.034l-.025.025Z" transform="translate(-898.852 -830.858)" fill="none" stroke="#4b58aa" stroke-width="1.5"/>
          <path id="Path_47652" data-name="Path 47652" d="M941.335,869.764l-3.38-.176v.034l-2.261-.11h-.085a.151.151,0,0,0,.009-.057l-4.665-.243-.427-.025-2.253-.1-1.41-.076c-.476-.025-.951-.048-1.435-.065-.826-.06-1.653-.085-2.5-.125-2.228-.144-4.467-.227-6.694-.351-2.5-.11-4.314.374-5.516,1.526a.345.345,0,0,0-.091.077c-1.186,1.186-1.738,3.037-1.6,5.542.034.733.06,1.461.11,2.194l.176,3.431c.073,1.7.158,3.383.249,5.075.077,1.444.15,2.873.227,4.316.048,1.135.116,2.27.184,3.405.023.694.065,1.384.108,2.078.008.393.025.776.042,1.161.017.218.025.425.04.642.008.343.042.694.068,1.036l.068,1.551.408,5.016.017.085.017.017v-.051a.312.312,0,0,0,.09.008l-.008.042a.206.206,0,0,1,.017.1v.017a.153.153,0,0,1-.056-.008h-.068l.009.026.025.008-.008.125c.175,1.712.209,3.38.317,5.024.051.835.125,1.662.241,2.48l-.8-.1a5.613,5.613,0,0,1-1.843-.611,5.892,5.892,0,0,1-1.919-1.619,2.208,2.208,0,0,1-.3-.382,5.934,5.934,0,0,1-.532-.852c-.085-.15-.159-.292-.226-.442-.142-.312-.258-.611-.368-.92a1.177,1.177,0,0,1-.091-.291,8.233,8.233,0,0,1-.45-2.188c-.059-.926-.127-1.859-.184-2.8-.175-2.613-.308-5.234-.444-7.855-.107-1.927-.207-3.864-.334-5.794a4.614,4.614,0,0,1-.023-.557,28.975,28.975,0,0,1,.241-5.534,24.924,24.924,0,0,1,.8-3.722c.244-.792.527-1.562.835-2.321a22.885,22.885,0,0,1,4.124-6.411c.3-.351.6-.685.917-1.019a23.952,23.952,0,0,1,7.43-5.191,18.907,18.907,0,0,1,6.476-1.486c.292-.008.583-.014.883-.014.034,0,.077-.008.128-.008,3.436,0,6.892.082,10.348.215,1.894.077,3.79.167,5.675.269l5.35.274a7.3,7.3,0,0,1,5.049,2.18,7.11,7.11,0,0,1,1.336,1.769,6.423,6.423,0,0,1,.6,1.568c.074.342.133.685.173,1.027l.008.025h-.031c-.818-.1-1.662-.175-2.522-.235-1.5-.116-3.046-.193-4.6-.309l-.009.008-3.213-.175-2.446-.108Z" transform="translate(-903.738 -863.271)" fill="none" stroke="#4b58aa" stroke-width="1.5"/>
        </g>
      </g>
      <g id="Group_4757-5" data-name="Group 4757" transform="translate(127.782 1015.34)">
        <g id="Group_4459-5" data-name="Group 4459">
          <path id="Path_47653" data-name="Path 47653" d="M816.527,908.709a.5.5,0,0,0,.1-.085,4.926,4.926,0,0,0,1.093-1.693l-.009-.009a8.786,8.786,0,0,0,.518-3.824c-.034-.733-.068-1.469-.108-2.194l-.176-3.431c-.076-1.7-.159-3.382-.252-5.075-.073-1.444-.141-2.878-.223-4.316-.06-1.143-.119-2.27-.184-3.4-.026-.691-.059-1.393-.11-2.078-.009-.393-.026-.775-.048-1.169-.008-.209-.008-.425-.025-.643-.017-.351-.051-.685-.077-1.027l-.065-1.551-.4-5.024-.017-.085-.026-.008v.051c-.023-.009-.056-.009-.082-.017l-.009-.042a.2.2,0,0,1,0-.1c.026-.009.034,0,.051,0h.031l.026-.009-.008-.025-.009-.009v-.116c-.274-2.579-.215-5.092-.566-7.512.274.025.544.059.8.1a5.907,5.907,0,0,1,3.773,2.236,3.287,3.287,0,0,1,.3.382,7.031,7.031,0,0,1,.535.852c.082.15.159.292.224.442a9.378,9.378,0,0,1,.368.92c.034.1.068.2.093.292a8.463,8.463,0,0,1,.45,2.188c.057.926.124,1.86.184,2.8.173,2.613.308,5.234.45,7.863q.136,2.891.334,5.794c.017.181.017.365.025.558a29.721,29.721,0,0,1-.26,5.534,23.987,23.987,0,0,1-.793,3.713c-.24.8-.526,1.562-.835,2.321A23.009,23.009,0,0,1,818,907.138c-.167.2-.343.393-.518.586-.3.351-.6.685-.926,1.01Z" transform="translate(-772.515 -857.986)" fill="none" stroke="#4b58aa" stroke-width="1.5"/>
          <path id="Path_47654" data-name="Path 47654" d="M844.043,870.053c-2.261-.275-4.707-.368-7.153-.544l-3.207-.167-2.454-.1,0-.017-3.374-.184-.008.042-2.253-.116h-.082a.17.17,0,0,0-.008-.06l-4.667-.241-.416-.017-2.253-.1c-.467-.034-.937-.048-1.4-.082-.484-.017-.96-.043-1.435-.068-.835-.048-1.653-.082-2.505-.116-2.228-.142-4.464-.226-6.691-.351a9.647,9.647,0,0,0-3.473.368,4.918,4.918,0,0,0-2.038,1.152l-.017-.017a22.351,22.351,0,0,1,1.721-1.6,23.554,23.554,0,0,1,5.692-3.589,18.5,18.5,0,0,1,6.476-1.486c.3-.017.586-.017.877-.025a.585.585,0,0,0,.125-.009c3.456,0,6.9.094,10.368.218,1.885.082,3.779.176,5.675.266l5.35.274a7.356,7.356,0,0,1,5.041,2.171,6.946,6.946,0,0,1,1.936,3.357C843.935,869.36,843.992,869.7,844.043,870.053Z" transform="translate(-800.606 -862.725)" fill="none" stroke="#4b58aa" stroke-width="1.5"/>
        </g>
      </g>
      <g id="Group_4757-6" data-name="Group 4757" transform="translate(418.161 724.706)">
        <g id="Group_4459-6" data-name="Group 4459" transform="translate(0)">
          <path id="Path_47655" data-name="Path 47655" d="M949.309,776.01c-.5.515-1.019,1.016-1.568,1.483A23.549,23.549,0,0,1,941.9,781.2a18.61,18.61,0,0,1-6.479,1.486l-.874.023a.55.55,0,0,0-.125.008c-3.456,0-6.9-.091-10.359-.224-1.894-.076-3.79-.167-5.675-.269l-5.358-.266a7.357,7.357,0,0,1-5.049-2.179,6.935,6.935,0,0,1-1.927-3.346c-.068-.351-.133-.7-.184-1.053,2.279.277,4.715.359,7.153.543l3.2.167,2.463.108v.017l3.374.167.006-.025,2.256.1.091.008a.152.152,0,0,0-.009.057l4.664.243.428.026,2.253.1c.467.017.934.051,1.409.076s.946.04,1.438.065c.818.051,1.65.085,2.494.127,2.23.141,4.466.224,6.686.34a9.49,9.49,0,0,0,3.649-.424,4.715,4.715,0,0,0,1.86-1.093Z" transform="translate(-898.306 -731.973)" fill="none" stroke="#4b58aa" stroke-width="1.5"/>
          <path id="Path_47656" data-name="Path 47656" d="M910.755,803.455l-.8-.1a5.886,5.886,0,0,1-3.765-2.228,3.642,3.642,0,0,1-.3-.385,6.8,6.8,0,0,1-.535-.852c-.082-.15-.158-.291-.235-.45-.133-.3-.258-.609-.357-.908-.034-.1-.068-.2-.093-.294a8.425,8.425,0,0,1-.45-2.185c-.06-.926-.125-1.862-.184-2.805-.176-2.612-.309-5.234-.45-7.863-.093-1.928-.2-3.855-.334-5.791-.017-.184-.017-.368-.026-.561a29.737,29.737,0,0,1,.26-5.534,22.611,22.611,0,0,1,.793-3.714c.241-.793.524-1.56.835-2.321a23.017,23.017,0,0,1,3.47-5.675c.218-.249.427-.493.651-.733.3-.351.6-.685.926-1.01l.017.017a.442.442,0,0,0-.09.074,4.853,4.853,0,0,0-1.161,1.9,9.263,9.263,0,0,0-.441,3.646c.034.719.056,1.461.116,2.188l.175,3.431c.076,1.693.15,3.388.243,5.083.074,1.444.15,2.87.224,4.314.059,1.126.116,2.27.184,3.405.025.693.068,1.387.107,2.078.017.385.025.778.042,1.16.017.218.025.427.042.642.009.343.042.694.065,1.036l.068,1.551.41,5.019.031.232v.133C910.455,798.516,910.4,801.018,910.755,803.455Z" transform="translate(-903.195 -760.046)" fill="none" stroke="#4b58aa" stroke-width="1.5"/>
        </g>
      </g>
      <line id="Line_432" data-name="Line 432" x1="253.087" y2="254.004" transform="translate(172.051 768.249)" fill="none" stroke="#4b58aa" stroke-width="1.5"/>
      <path id="Path_47657" data-name="Path 47657" d="M821.611,916.087a158.232,158.232,0,0,1,223.885,0c.277.275.56.56.826.844" transform="translate(-634.374 165.416)" fill="none" stroke="#4b58aa" stroke-width="1.5"/>
      <path id="Path_47658" data-name="Path 47658" d="M956.645,1005.768a158.236,158.236,0,0,1,0-223.888c.275-.275.561-.558.844-.826" transform="translate(-472.069 3.116)" fill="none" stroke="#4b58aa" stroke-width="1.5"/>
      <path id="Path_47659" data-name="Path 47659" d="M1045.043,754.632l-.009.009a158.319,158.319,0,0,1-223.887,0l-.009-.009" transform="translate(-635.238 -45.25)" fill="none" stroke="#4b58aa" stroke-width="1.5"/>
      <path id="Path_47660" data-name="Path 47660" d="M1125.306,1120.618c.175,1.712.209,3.38.317,5.024q-.853.628-1.7,1.245c-.241.176-.467.348-.708.524q-7.978,5.872-16.335,10.892c-.334.2-.668.4-1.011.594a209.854,209.854,0,0,1-105.716,29.078H998.3a211.774,211.774,0,0,1-107.177-29.488c-.2-.116-.4-.232-.592-.357a212.53,212.53,0,0,1-18.039-12.061.044.044,0,0,1-.031-.017l-.594-.445c-.09-.073-.184-.133-.274-.207l-.009-.008a8.783,8.783,0,0,0,.518-3.824c-.034-.733-.068-1.469-.107-2.194l-.176-3.431c-.076-1.7-.158-3.382-.252-5.075-.073-1.444-.141-2.879-.224-4.317-.059-1.143-.119-2.27-.184-3.4-.026-.691-.059-1.392-.11-2.078-.009-.394-.026-.776-.048-1.169-.008-.209-.008-.425-.025-.643-.017-.351-.051-.685-.077-1.027l-.065-1.551-.4-5.024-.017-.085-.026-.009v.051c-.023-.008-.057-.008-.082-.017l-.009-.042a.2.2,0,0,1,0-.1c.026-.009.034,0,.051,0h.031l.026-.009-.008-.025-.008-.009v-.116c-.275-2.578-.215-5.092-.566-7.512-2.261-.275-4.707-.368-7.152-.544l-3.207-.167-2.454-.1,0-.017-3.374-.184-.008.042-2.253-.116H851.3a.173.173,0,0,0-.008-.06l-4.668-.24-.416-.017-2.253-.1c-.467-.034-.937-.048-1.4-.082-.484-.017-.959-.042-1.435-.068-.835-.048-1.653-.082-2.505-.116-2.228-.141-4.464-.226-6.691-.351a9.657,9.657,0,0,0-3.473.368c-.017-.017-.034-.051-.051-.068s-.017-.031-.034-.048l-.249-.351a210.884,210.884,0,0,1-33.553-68.292,211.821,211.821,0,0,1-8.039-57.066v-1.019a211.1,211.1,0,0,1,7.688-56.313,207.771,207.771,0,0,1,20.926-49.421,202.933,202.933,0,0,1,12.01-18.22c.218-.317.458-.626.685-.934.342-.475.7-.968,1.058-1.444,1.52.116,3.071.184,4.625.3l3.213.176,2.454.1v.017l3.38.175v-.034l2.245.107h.1a.166.166,0,0,0-.009.059l4.665.243.427.026,2.253.1c.467.034.934.051,1.41.073s.951.051,1.435.068c.826.059,1.653.085,2.5.125,2.228.141,4.466.226,6.694.351,2.479.125,4.314-.376,5.508-1.52l.026.025q.476-.5.926-1.025a22.928,22.928,0,0,0,4.115-6.4c.308-.758.592-1.528.835-2.321a24.122,24.122,0,0,0,.809-3.714,29.788,29.788,0,0,0,.24-5.534c-.005-.192-.008-.376-.022-.561-.119-1.936-.226-3.863-.334-5.791-.136-2.621-.277-5.251-.444-7.872-.065-.934-.125-1.86-.19-2.8a8.33,8.33,0,0,0-.453-2.185,1.091,1.091,0,0,0-.082-.286,7.052,7.052,0,0,0-.368-.917c-.065-.15-.15-.3-.232-.45a5.773,5.773,0,0,0-.535-.852,2.261,2.261,0,0,0-.3-.382,5.715,5.715,0,0,0-1.837-1.571l-.1-.051c.224-.175.441-.34.673-.507q8.139-5.935,16.712-11c.2-.133.425-.257.634-.385a207.782,207.782,0,0,1,61.83-24,210.758,210.758,0,0,1,45.09-4.676h.317A211.7,211.7,0,0,1,1103.514,775.2c.133.068.266.15.391.227a211.182,211.182,0,0,1,18.254,12.143c.119.085.226.159.342.243a9.264,9.264,0,0,0-.441,3.646c.034.719.057,1.461.116,2.188l.176,3.431c.076,1.693.15,3.388.243,5.083.073,1.444.15,2.87.224,4.314.059,1.126.116,2.27.184,3.405.026.693.068,1.387.108,2.077.017.385.025.778.042,1.16.017.218.025.427.042.642.009.343.042.694.065,1.036l.068,1.551.41,5.019.031.232v.133c.26,2.565.209,5.067.561,7.5,2.279.277,4.716.359,7.153.543l3.2.167,2.463.108v.017l3.374.167.006-.026,2.256.1.091.008a.149.149,0,0,0-.009.057l4.665.243.427.026,2.253.1c.467.017.934.051,1.41.076s.945.039,1.438.065c.818.051,1.65.085,2.494.127,2.23.141,4.466.224,6.686.34a9.489,9.489,0,0,0,3.649-.424l.317.416c.026.026.042.059.065.085.119.15.226.291.334.45a211.59,211.59,0,0,1,33.838,68.493,211.675,211.675,0,0,1,8.1,57.366c.008.176.008.343.008.51a211.071,211.071,0,0,1-7.872,57.448,207.988,207.988,0,0,1-21.526,50.137q-4.883,8.19-10.567,16.009c-.209.292-.433.583-.651.869-.583.8-1.169,1.585-1.769,2.386-1.5-.116-3.046-.192-4.6-.308l-.008.008-3.213-.175-2.446-.108v-.017l-3.38-.176v.034l-2.261-.11h-.085a.149.149,0,0,0,.009-.057l-4.665-.244-.427-.025-2.253-.1-1.41-.076c-.475-.025-.951-.048-1.435-.065-.827-.059-1.653-.085-2.5-.124-2.227-.145-4.466-.227-6.694-.351-2.5-.11-4.314.374-5.516,1.526a.349.349,0,0,0-.091.077c-1.186,1.186-1.737,3.037-1.6,5.542.034.733.059,1.461.11,2.194l.175,3.431c.073,1.7.158,3.382.249,5.075.077,1.444.15,2.873.226,4.317.048,1.135.116,2.27.184,3.4.023.694.065,1.384.108,2.078.008.393.026.776.042,1.16.017.218.026.425.04.643.008.343.042.693.068,1.036l.068,1.551.407,5.016.017.084.017.017v-.051a.315.315,0,0,0,.09.008l-.009.042a.2.2,0,0,1,.017.1v.017a.15.15,0,0,1-.057-.009h-.068l.009.026.025.008Z" transform="translate(-698.609 -61.116)" fill="none" stroke="#4b58aa" stroke-width="1.5"/>
      <ellipse id="Ellipse_224" data-name="Ellipse 224" cx="139.803" cy="139.803" rx="139.803" ry="139.803" transform="translate(159.783 755.757)" fill="none" stroke="#4b58aa" stroke-width="1.5"/>
      <path id="Path_47661" data-name="Path 47661" d="M1071.262,819.815l-.025-.025-83.949-83.949-43.769-43.769-.008-.008-.008-.008-.459-.459-43.5-43.5-83.757-83.758-.025-.025" transform="translate(-645.088 -393.633)" fill="none" stroke="#4b58aa" stroke-width="1.5"/>
      <g id="Group_4757-7" data-name="Group 4757" transform="translate(127.244 127.251)">
        <g id="Group_4459-7" data-name="Group 4459" transform="translate(0)">
          <path id="Path_47662" data-name="Path 47662" d="M815.792,551.48c-.051-.849-.107-1.676-.235-2.5l.8.1a5.612,5.612,0,0,1,1.817.617c-.6.436-1.2.886-1.794,1.327C816.185,551.172,815.984,551.322,815.792,551.48Z" transform="translate(-772.7 -548.952)" fill="none" stroke="#4b58aa" stroke-width="1.5"/>
          <path id="Path_47663" data-name="Path 47663" d="M843.867,564.73a24.135,24.135,0,0,1-7.421,5.2,18.613,18.613,0,0,1-6.476,1.469c-.292.008-.575.025-.875.025a.606.606,0,0,1-.127.009c-3.448.008-6.892-.082-10.365-.215q-2.828-.128-5.667-.26l-5.358-.283a7.35,7.35,0,0,1-5.041-2.171,6.888,6.888,0,0,1-1.336-1.786.9.9,0,0,1-.094-.175,6.519,6.519,0,0,1-.509-1.393c-.065-.334-.125-.677-.175-1.028l-.006-.026c.006.009.014,0,.031,0,.761.094,1.554.167,2.338.235.051,0,.108.009.159.009,1.52.116,3.071.184,4.625.3l3.213.175,2.454.1v.017l3.38.175v-.034l2.245.108h.1a.163.163,0,0,0-.009.06l4.665.243.428.025,2.253.1c.467.034.934.051,1.409.074s.951.051,1.435.068c.826.059,1.653.082,2.5.125,2.227.141,4.464.226,6.694.351,2.48.125,4.314-.376,5.508-1.52Z" transform="translate(-800.416 -521.279)" fill="none" stroke="#4b58aa" stroke-width="1.5"/>
          <line id="Line_433" data-name="Line 433" x1="0.042" y2="0.008" transform="translate(43.367 7.687)" fill="none" stroke="#4b58aa" stroke-width="1.5"/>
          <path id="Path_47664" data-name="Path 47664" d="M816.138,556.631l-.008-.125c-.176-1.662-.209-3.3-.308-4.9,0-.034-.009-.076-.009-.11-.051-.849-.108-1.676-.235-2.5l-.006-.026-.025.026" transform="translate(-772.721 -548.969)" fill="none" stroke="#4b58aa" stroke-width="1.5"/>
          <path id="Path_47665" data-name="Path 47665" d="M800.427,586.739c.761.094,1.554.167,2.338.235.051,0,.108.008.159.008,1.52.116,3.071.184,4.625.3l3.213.175,2.454.1v.017l3.38.175v-.034l2.245.11h.1a.144.144,0,0,0-.009.057l4.665.243.428.026,2.253.1c.467.034.934.051,1.409.074s.951.051,1.435.068c.826.059,1.653.085,2.5.125,2.228.142,4.464.227,6.694.351,2.48.125,4.314-.376,5.508-1.52a.351.351,0,0,0,.1-.082q1.779-1.779,1.6-5.542c-.042-.727-.059-1.46-.119-2.188l-.176-3.431c-.073-1.692-.15-3.388-.241-5.081-.076-1.446-.15-2.873-.235-4.308-.048-1.135-.108-2.279-.175-3.414-.031-.685-.065-1.384-.108-2.078-.017-.385-.026-.775-.051-1.152,0-.218-.017-.433-.031-.651-.008-.343-.042-.693-.068-1.036l-.077-1.543-.4-5.024-.017-.085c-.008.008-.008.008-.025-.008l.017.051" transform="translate(-800.396 -543.922)" fill="none" stroke="#4b58aa" stroke-width="1.5"/>
          <path id="Path_47666" data-name="Path 47666" d="M815.723,551.726" transform="translate(-772.396 -543.922)" fill="none" stroke="#4b58aa" stroke-width="1.5"/>
        </g>
      </g>
      <g id="Group_4757-8" data-name="Group 4757" transform="translate(419.192 419.456)">
        <g id="Group_4459-8" data-name="Group 4459" transform="translate(0)">
          <path id="Path_47667" data-name="Path 47667" d="M906.229,669.91h.034l-.026.026Z" transform="translate(-898.673 -619.79)" fill="none" stroke="#4b58aa" stroke-width="1.5"/>
          <path id="Path_47668" data-name="Path 47668" d="M941.156,658.7l-3.38-.176v.034l-2.262-.11h-.085a.15.15,0,0,0,.009-.057l-4.665-.243-.428-.025-2.253-.1-1.409-.076c-.476-.026-.951-.048-1.435-.065-.826-.059-1.653-.085-2.5-.124-2.228-.145-4.467-.227-6.694-.351-2.5-.11-4.317.374-5.517,1.526a.408.408,0,0,0-.094.077c-1.183,1.186-1.735,3.037-1.6,5.542.034.733.06,1.461.11,2.194l.176,3.431c.074,1.7.158,3.382.249,5.075.073,1.444.15,2.873.226,4.317.048,1.135.116,2.27.181,3.405.025.693.068,1.384.11,2.078.008.394.026.776.043,1.16.014.218.023.425.039.643.008.343.043.694.068,1.036l.065,1.551.411,5.016.017.085.017.017V694.5a.3.3,0,0,0,.091.009l-.009.042a.2.2,0,0,1,.017.1v.017a.147.147,0,0,1-.057-.008h-.068l.009.025.025.009-.009.125c.176,1.712.21,3.38.317,5.024.048.835.125,1.661.241,2.479l-.8-.1a5.614,5.614,0,0,1-1.843-.612,5.931,5.931,0,0,1-1.922-1.619,2.362,2.362,0,0,1-.3-.382,5.9,5.9,0,0,1-.535-.852c-.082-.15-.158-.292-.223-.442-.142-.311-.26-.611-.368-.92a1.159,1.159,0,0,1-.09-.291,8.359,8.359,0,0,1-.453-2.188c-.057-.926-.125-1.859-.181-2.8-.176-2.613-.311-5.234-.445-7.855-.107-1.927-.207-3.864-.334-5.794a4.658,4.658,0,0,1-.023-.558,28.975,28.975,0,0,1,.241-5.534,24.929,24.929,0,0,1,.8-3.722c.243-.793.526-1.562.835-2.321a22.889,22.889,0,0,1,4.124-6.411c.3-.351.6-.685.917-1.019a23.973,23.973,0,0,1,7.427-5.191,18.929,18.929,0,0,1,6.479-1.486c.292-.009.583-.014.883-.014.034,0,.076-.008.125-.008,3.439,0,6.9.082,10.351.215,1.893.077,3.79.167,5.675.269l5.35.274a7.3,7.3,0,0,1,5.05,2.18,7.1,7.1,0,0,1,1.336,1.769,6.409,6.409,0,0,1,.6,1.568,10.006,10.006,0,0,1,.175,1.028l.008.025h-.034c-.818-.1-1.659-.175-2.519-.235-1.5-.116-3.046-.193-4.6-.309l-.008.009-3.213-.175-2.445-.108Z" transform="translate(-903.559 -652.203)" fill="none" stroke="#4b58aa" stroke-width="1.5"/>
        </g>
      </g>
      <g id="Group_4757-9" data-name="Group 4757" transform="translate(127.275 417.91)">
        <g id="Group_4459-9" data-name="Group 4459">
          <path id="Path_47669" data-name="Path 47669" d="M816.348,697.641a.5.5,0,0,0,.1-.085,4.917,4.917,0,0,0,1.092-1.693l-.008-.008a8.792,8.792,0,0,0,.518-3.824c-.034-.733-.068-1.469-.11-2.194l-.172-3.431c-.077-1.7-.161-3.382-.252-5.075-.076-1.444-.141-2.879-.226-4.317-.057-1.143-.116-2.27-.181-3.405-.026-.694-.059-1.393-.11-2.077-.008-.393-.025-.776-.048-1.169-.008-.209-.008-.424-.026-.642-.017-.351-.051-.685-.076-1.028l-.065-1.551-.4-5.024-.017-.085-.025-.009v.051c-.026-.009-.057-.009-.082-.017l-.008-.042a.191.191,0,0,1,0-.1c.026-.009.034,0,.051,0h.031l.026-.009-.008-.026-.009-.008v-.116c-.275-2.579-.215-5.092-.566-7.513.275.026.54.06.8.1a5.921,5.921,0,0,1,3.773,2.239,3.61,3.61,0,0,1,.3.382,7.068,7.068,0,0,1,.535.852c.082.15.158.292.224.442a9.045,9.045,0,0,1,.368.92c.034.1.068.2.091.292a8.348,8.348,0,0,1,.453,2.188c.056.926.124,1.86.181,2.8.175,2.613.311,5.234.453,7.863.091,1.928.2,3.855.334,5.794.017.181.017.365.023.558a29.719,29.719,0,0,1-.258,5.534,23.991,23.991,0,0,1-.792,3.714c-.244.8-.527,1.562-.835,2.321a23.014,23.014,0,0,1-3.606,5.825c-.167.2-.342.393-.518.586-.3.351-.6.685-.926,1.01Z" transform="translate(-772.336 -646.918)" fill="none" stroke="#4b58aa" stroke-width="1.5"/>
          <path id="Path_47670" data-name="Path 47670" d="M843.864,658.985c-2.262-.274-4.707-.368-7.153-.543l-3.207-.167-2.454-.1v-.017l-3.371-.184-.009.042-2.253-.116h-.085a.238.238,0,0,0-.006-.06l-4.667-.24-.416-.017-2.253-.1c-.47-.034-.937-.048-1.4-.082-.484-.017-.959-.042-1.435-.068-.835-.048-1.653-.082-2.505-.116-2.228-.142-4.464-.226-6.694-.351a9.582,9.582,0,0,0-3.47.368,4.918,4.918,0,0,0-2.038,1.152l-.017-.017a21.9,21.9,0,0,1,1.721-1.6,23.489,23.489,0,0,1,5.692-3.589,18.483,18.483,0,0,1,6.476-1.486c.3-.017.586-.017.878-.025a.578.578,0,0,0,.124-.008c3.456,0,6.9.091,10.365.218,1.888.082,3.782.176,5.675.266l5.352.274a7.362,7.362,0,0,1,5.041,2.171,6.947,6.947,0,0,1,1.936,3.354C843.754,658.292,843.813,658.634,843.864,658.985Z" transform="translate(-800.427 -651.657)" fill="none" stroke="#4b58aa" stroke-width="1.5"/>
        </g>
      </g>
      <g id="Group_4757-10" data-name="Group 4757" transform="translate(417.653 127.277)">
        <g id="Group_4459-10" data-name="Group 4459">
          <path id="Path_47671" data-name="Path 47671" d="M949.13,564.942c-.5.515-1.019,1.016-1.568,1.483a23.65,23.65,0,0,1-5.842,3.708,18.633,18.633,0,0,1-6.479,1.486l-.875.023a.607.607,0,0,0-.127.009c-3.453,0-6.9-.091-10.357-.224-1.893-.077-3.79-.167-5.675-.269l-5.358-.266a7.357,7.357,0,0,1-5.05-2.179,6.937,6.937,0,0,1-1.927-3.346c-.068-.351-.136-.7-.184-1.053,2.278.277,4.716.359,7.152.543l3.2.167,2.463.108v.017l3.371.167.009-.026,2.253.1.094.008a.151.151,0,0,0-.009.057l4.664.243.427.025,2.253.1c.467.017.934.051,1.409.076s.943.04,1.435.065c.818.051,1.653.085,2.5.125,2.227.144,4.466.226,6.686.342a9.492,9.492,0,0,0,3.649-.424,4.766,4.766,0,0,0,1.859-1.093Z" transform="translate(-898.126 -520.905)" fill="none" stroke="#4b58aa" stroke-width="1.5"/>
          <path id="Path_47672" data-name="Path 47672" d="M910.577,592.387l-.8-.1a5.887,5.887,0,0,1-3.765-2.228,3.24,3.24,0,0,1-.3-.385,6.8,6.8,0,0,1-.535-.852c-.085-.15-.158-.292-.235-.45-.133-.3-.258-.608-.357-.909-.034-.1-.068-.2-.094-.294a8.437,8.437,0,0,1-.45-2.185c-.059-.926-.125-1.862-.184-2.8-.175-2.613-.309-5.234-.45-7.863-.094-1.927-.2-3.855-.334-5.791-.017-.184-.017-.368-.026-.56a29.746,29.746,0,0,1,.258-5.534,23.21,23.21,0,0,1,.793-3.714c.244-.793.527-1.56.835-2.321a23.112,23.112,0,0,1,3.473-5.675c.218-.249.425-.493.651-.733.3-.351.6-.685.925-1.011L910,549a.385.385,0,0,0-.091.074,4.821,4.821,0,0,0-1.16,1.9,9.27,9.27,0,0,0-.442,3.646c.031.719.057,1.461.116,2.188l.175,3.431c.074,1.693.15,3.388.241,5.084.076,1.443.153,2.87.226,4.314.06,1.127.116,2.27.184,3.405.025.694.065,1.387.107,2.078.017.385.026.778.043,1.16.017.218.025.428.042.643.008.343.04.694.065,1.036l.068,1.551.407,5.019.034.232v.133C910.277,587.447,910.226,589.95,910.577,592.387Z" transform="translate(-903.016 -548.978)" fill="none" stroke="#4b58aa" stroke-width="1.5"/>
        </g>
      </g>
      <line id="Line_434" data-name="Line 434" x1="253.087" y2="254.004" transform="translate(171.544 170.819)" fill="none" stroke="#4b58aa" stroke-width="1.5"/>
      <path id="Path_47673" data-name="Path 47673" d="M942.822,504.012,830.87,615.964l-15.3,15.3-.025.025" transform="translate(-645.477 -504.012)" fill="none" stroke="#4b58aa" stroke-width="1.5"/>
      <path id="Path_47674" data-name="Path 47674" d="M882.737,564.1l-.025.025-15.942,15.942-37.851,37.852-73.458,73.458" transform="translate(-755.461 -394.027)" fill="none" stroke="#4b58aa" stroke-width="1.5"/>
      <line id="Line_435" data-name="Line 435" x1="596.852" y1="2.158" transform="translate(0 297.349)" fill="none" stroke="#4b58aa" stroke-width="1.5"/>
      <line id="Line_436" data-name="Line 436" x1="2.163" y1="596.847" transform="translate(297.344 0.005)" fill="none" stroke="#4b58aa" stroke-width="1.5"/>
      <path id="Path_47675" data-name="Path 47675" d="M821.431,705.019a158.234,158.234,0,0,1,223.887,0c.277.275.56.56.827.844" transform="translate(-634.704 -220.945)" fill="none" stroke="#4b58aa" stroke-width="1.5"/>
      <path id="Path_47676" data-name="Path 47676" d="M956.467,794.7a158.236,158.236,0,0,1,0-223.887c.274-.274.56-.558.844-.826" transform="translate(-472.398 -383.246)" fill="none" stroke="#4b58aa" stroke-width="1.5"/>
      <path id="Path_47677" data-name="Path 47677" d="M1044.862,543.564l-.008.008a158.315,158.315,0,0,1-223.885,0l-.009-.008" transform="translate(-635.566 -431.612)" fill="none" stroke="#4b58aa" stroke-width="1.5"/>
      <path id="Path_47678" data-name="Path 47678" d="M1125.127,909.55c.175,1.713.209,3.38.317,5.024q-.853.628-1.7,1.245c-.24.176-.467.348-.708.524q-7.978,5.872-16.335,10.892c-.334.2-.668.4-1.01.594a209.853,209.853,0,0,1-105.716,29.078h-1.854a211.755,211.755,0,0,1-107.177-29.488c-.2-.116-.4-.232-.592-.357A212.439,212.439,0,0,1,872.318,915a.038.038,0,0,1-.031-.017l-.595-.444c-.09-.074-.184-.133-.275-.207l-.008-.008a8.791,8.791,0,0,0,.518-3.824c-.034-.733-.068-1.469-.11-2.194l-.173-3.431c-.076-1.7-.161-3.382-.252-5.075-.076-1.444-.142-2.879-.226-4.317-.057-1.143-.116-2.27-.181-3.405-.026-.694-.06-1.392-.111-2.077-.008-.393-.025-.776-.048-1.169-.009-.209-.009-.425-.025-.643-.017-.351-.051-.685-.076-1.028l-.065-1.551-.4-5.024-.017-.085-.026-.009v.051c-.026-.009-.057-.009-.082-.017l-.009-.042a.194.194,0,0,1,0-.1c.026-.009.034,0,.051,0h.031l.025-.009-.008-.026-.008-.008v-.116c-.275-2.579-.215-5.092-.566-7.512-2.262-.275-4.707-.368-7.153-.543l-3.207-.167-2.454-.1v-.017l-3.371-.184-.009.043-2.253-.116h-.085a.237.237,0,0,0-.006-.059l-4.667-.24-.416-.017-2.253-.1c-.47-.034-.937-.048-1.4-.082-.484-.017-.959-.042-1.435-.068-.835-.048-1.653-.082-2.5-.116-2.228-.142-4.464-.226-6.694-.351a9.578,9.578,0,0,0-3.47.368c-.017-.017-.034-.051-.051-.068s-.017-.034-.034-.048l-.249-.351a210.877,210.877,0,0,1-33.552-68.291,211.818,211.818,0,0,1-8.039-57.066v-1.019a211.105,211.105,0,0,1,7.688-56.313,207.884,207.884,0,0,1,20.923-49.421,203.621,203.621,0,0,1,12.013-18.22c.215-.317.458-.625.685-.934.34-.476.7-.968,1.059-1.444,1.52.116,3.071.184,4.625.3l3.212.175,2.454.1v.017l3.38.175v-.034l2.244.108h.1a.165.165,0,0,0-.009.059l4.665.243.427.026,2.253.1c.467.034.934.051,1.409.074s.951.051,1.435.068c.826.059,1.653.082,2.5.125,2.227.142,4.464.227,6.694.351,2.479.124,4.314-.376,5.508-1.52l.026.026q.475-.5.925-1.025a22.922,22.922,0,0,0,4.116-6.4c.308-.759.592-1.529.835-2.321a24.11,24.11,0,0,0,.81-3.713,29.842,29.842,0,0,0,.24-5.534c-.009-.192-.009-.376-.023-.56-.119-1.936-.227-3.864-.334-5.791-.136-2.621-.278-5.25-.444-7.872-.065-.934-.125-1.86-.193-2.8a8.213,8.213,0,0,0-.45-2.185,1.219,1.219,0,0,0-.082-.286,6.982,6.982,0,0,0-.368-.917c-.068-.15-.15-.3-.234-.45a5.727,5.727,0,0,0-.532-.852,2.4,2.4,0,0,0-.3-.385,5.732,5.732,0,0,0-1.837-1.568l-.1-.051c.227-.176.445-.34.677-.507q8.139-5.936,16.711-11c.2-.133.425-.258.634-.385a207.76,207.76,0,0,1,61.83-24A210.753,210.753,0,0,1,996.6,534.9h.317a211.684,211.684,0,0,1,106.415,29.231c.136.068.269.15.393.227A211.574,211.574,0,0,1,1121.98,576.5c.116.085.227.159.343.244a9.268,9.268,0,0,0-.442,3.646c.031.719.057,1.461.116,2.188l.175,3.43c.074,1.693.15,3.388.241,5.084.077,1.443.153,2.87.227,4.314.059,1.127.116,2.27.184,3.405.026.693.065,1.387.108,2.078.017.385.025.778.042,1.16.017.218.026.427.042.642.008.343.04.694.065,1.036l.068,1.551.407,5.019.034.232v.133c.26,2.564.209,5.066.56,7.5,2.278.277,4.716.359,7.152.543l3.2.167,2.463.108V619l3.371.167.009-.026,2.253.1.094.008a.149.149,0,0,0-.009.057l4.665.243.427.025,2.253.1c.467.017.934.051,1.409.076s.943.04,1.435.065c.818.051,1.653.085,2.5.125,2.228.144,4.467.226,6.686.342a9.49,9.49,0,0,0,3.648-.424c.107.141.207.275.317.416.026.025.04.059.065.085.119.15.226.291.334.45a211.579,211.579,0,0,1,33.839,68.493,211.685,211.685,0,0,1,8.1,57.366c.008.176.008.343.008.509a211.067,211.067,0,0,1-7.872,57.448,207.994,207.994,0,0,1-21.526,50.137q-4.883,8.19-10.566,16.01c-.21.291-.433.583-.651.869-.583.8-1.169,1.585-1.769,2.386-1.5-.116-3.045-.193-4.6-.309l-.008.009-3.212-.175-2.446-.108v-.017l-3.379-.176v.034l-2.262-.11H1150a.154.154,0,0,0,.008-.057l-4.664-.243-.427-.025-2.253-.1-1.41-.076c-.476-.026-.951-.048-1.435-.065-.826-.06-1.653-.085-2.5-.125-2.228-.145-4.467-.227-6.694-.351-2.5-.11-4.317.374-5.516,1.526a.416.416,0,0,0-.094.077c-1.183,1.186-1.735,3.037-1.6,5.542.034.733.06,1.461.11,2.194l.176,3.431c.074,1.7.158,3.382.249,5.075.073,1.444.15,2.873.226,4.317.048,1.135.116,2.27.181,3.405.025.694.068,1.384.11,2.078.009.393.026.776.043,1.16.014.218.022.425.04.643.008.343.042.694.068,1.036l.065,1.551.411,5.016.017.085.017.017v-.051a.3.3,0,0,0,.091.009l-.009.042a.2.2,0,0,1,.017.1v.017a.148.148,0,0,1-.057-.008h-.068l.009.025.025.009Z" transform="translate(-698.936 -447.478)" fill="none" stroke="#4b58aa" stroke-width="1.5"/>
      <ellipse id="Ellipse_225" data-name="Ellipse 225" cx="139.803" cy="139.803" rx="139.803" ry="139.803" transform="translate(159.276 158.327)" fill="none" stroke="#4b58aa" stroke-width="1.5"/>
      <path id="Path_47679" data-name="Path 47679" d="M1176.885,925.439l-.025-.025-83.949-83.949L1049.142,797.7l-.009-.008-.008-.008-.459-.459-43.5-43.5L921.407,669.96l-.025-.025" transform="translate(-451.744 -200.289)" fill="none" stroke="#4b58aa" stroke-width="1.5"/>
      <g id="Group_4757-11" data-name="Group 4757" transform="translate(426.211 426.221)">
        <g id="Group_4459-11" data-name="Group 4459" transform="translate(0)">
          <path id="Path_47680" data-name="Path 47680" d="M921.416,657.106c-.051-.852-.11-1.679-.235-2.505l.8.1a5.592,5.592,0,0,1,1.82.617c-.6.433-1.2.886-1.794,1.327C921.806,656.8,921.605,656.947,921.416,657.106Z" transform="translate(-878.321 -654.578)" fill="none" stroke="#4b58aa" stroke-width="1.5"/>
          <path id="Path_47681" data-name="Path 47681" d="M949.49,670.354a24.168,24.168,0,0,1-7.419,5.2,18.621,18.621,0,0,1-6.476,1.469c-.292.009-.578.026-.878.026a.577.577,0,0,1-.124.009c-3.448.008-6.9-.085-10.365-.218-1.888-.082-3.773-.167-5.67-.258L913.2,676.3a7.364,7.364,0,0,1-5.041-2.168,6.888,6.888,0,0,1-1.336-1.786,1.138,1.138,0,0,1-.091-.175,6.24,6.24,0,0,1-.509-1.4c-.068-.334-.125-.676-.175-1.025l-.009-.026c.009.009.017,0,.034,0,.758.091,1.551.167,2.338.232.048,0,.107.008.158.008,1.517.119,3.071.184,4.622.3l3.216.176,2.451.1v.017l3.382.175V670.7l2.245.108h.1a.167.167,0,0,0-.008.059l4.668.24.425.026,2.253.1c.467.031.937.048,1.413.074s.951.051,1.435.068c.827.057,1.653.082,2.494.125,2.23.141,4.467.224,6.694.351,2.48.124,4.317-.377,5.511-1.52Z" transform="translate(-906.039 -626.903)" fill="none" stroke="#4b58aa" stroke-width="1.5"/>
          <line id="Line_437" data-name="Line 437" x1="0.042" y2="0.008" transform="translate(43.369 7.686)" fill="none" stroke="#4b58aa" stroke-width="1.5"/>
          <path id="Path_47682" data-name="Path 47682" d="M921.763,662.255l-.009-.127c-.175-1.661-.209-3.295-.308-4.9,0-.031-.009-.074-.009-.107-.051-.852-.11-1.679-.235-2.505l-.009-.023-.025.023" transform="translate(-878.344 -654.593)" fill="none" stroke="#4b58aa" stroke-width="1.5"/>
          <path id="Path_47683" data-name="Path 47683" d="M906.051,692.363c.758.091,1.551.167,2.338.232.048,0,.107.008.158.008,1.517.119,3.071.184,4.622.3l3.213.176,2.454.1v.017l3.383.175v-.034l2.244.107h.1a.167.167,0,0,0-.008.059l4.667.24.425.026,2.253.1c.467.034.937.051,1.413.077s.951.051,1.435.068c.827.056,1.653.082,2.494.125,2.23.141,4.466.224,6.694.351,2.479.125,4.317-.376,5.511-1.52a.672.672,0,0,0,.1-.082c1.186-1.186,1.718-3.04,1.6-5.542-.042-.727-.059-1.463-.116-2.188l-.176-3.431c-.076-1.7-.15-3.388-.243-5.084-.074-1.443-.15-2.87-.232-4.305-.051-1.135-.107-2.279-.175-3.414-.034-.685-.068-1.387-.107-2.08-.017-.382-.025-.776-.051-1.152,0-.215-.017-.433-.034-.651-.008-.34-.042-.691-.065-1.033l-.077-1.546-.4-5.024-.014-.082c-.008.008-.008.008-.026-.009l.017.048" transform="translate(-906.017 -649.546)" fill="none" stroke="#4b58aa" stroke-width="1.5"/>
          <path id="Path_47684" data-name="Path 47684" d="M921.346,657.35" transform="translate(-878.019 -649.546)" fill="none" stroke="#4b58aa" stroke-width="1.5"/>
        </g>
      </g>
      <g id="Group_4757-12" data-name="Group 4757" transform="translate(718.16 718.422)">
        <g id="Group_4459-12" data-name="Group 4459" transform="translate(0)">
          <path id="Path_47685" data-name="Path 47685" d="M1011.853,775.534h.034l-.026.023Z" transform="translate(-1004.295 -725.412)" fill="none" stroke="#4b58aa" stroke-width="1.5"/>
          <path id="Path_47686" data-name="Path 47686" d="M1046.778,764.319l-3.38-.176v.034l-2.262-.108h-.082a.167.167,0,0,0,.008-.059l-4.668-.24-.425-.026-2.253-.1c-.476-.023-.937-.048-1.413-.073s-.951-.051-1.435-.068c-.826-.057-1.653-.082-2.5-.125-2.228-.142-4.464-.227-6.692-.351-2.5-.108-4.317.376-5.519,1.528a.553.553,0,0,0-.09.074c-1.186,1.186-1.735,3.04-1.6,5.542.034.736.057,1.461.107,2.2l.176,3.431c.076,1.693.158,3.38.252,5.075.074,1.444.15,2.87.224,4.314.051,1.135.119,2.27.184,3.405.026.693.068,1.387.108,2.08.008.391.026.775.043,1.158.017.218.025.428.042.646.009.34.042.69.065,1.033l.068,1.554.41,5.016.014.082.017.017v-.048a.314.314,0,0,0,.093.009l-.009.04a.217.217,0,0,1,.017.1v.017a.275.275,0,0,1-.059-.009h-.065l.006.023.026.008-.008.127c.175,1.71.209,3.38.317,5.024.051.835.127,1.662.244,2.479l-.8-.1a5.573,5.573,0,0,1-1.845-.608,5.984,5.984,0,0,1-1.919-1.619,2.24,2.24,0,0,1-.3-.385,5.415,5.415,0,0,1-.535-.852c-.082-.15-.158-.292-.226-.441-.141-.309-.258-.609-.365-.917a1.2,1.2,0,0,1-.094-.292,8.456,8.456,0,0,1-.45-2.188c-.06-.926-.124-1.863-.184-2.805-.176-2.612-.309-5.234-.442-7.855-.11-1.927-.209-3.863-.334-5.791a4.159,4.159,0,0,1-.026-.56,29.006,29.006,0,0,1,.244-5.534,24.978,24.978,0,0,1,.8-3.722c.241-.793.524-1.56.835-2.321a22.864,22.864,0,0,1,4.121-6.408c.3-.351.6-.685.92-1.019a23.853,23.853,0,0,1,7.427-5.191,18.78,18.78,0,0,1,6.477-1.486c.291-.008.586-.017.886-.017.034,0,.074-.009.124-.009,3.439,0,6.9.085,10.348.218,1.9.074,3.79.167,5.678.266l5.35.275a7.32,7.32,0,0,1,5.049,2.18,7.155,7.155,0,0,1,1.336,1.769,6.43,6.43,0,0,1,.6,1.571c.076.343.133.682.175,1.025l.008.025h-.034c-.818-.1-1.662-.175-2.519-.232-1.5-.119-3.048-.192-4.6-.308l-.009.006-3.215-.173-2.443-.11Z" transform="translate(-1009.183 -757.826)" fill="none" stroke="#4b58aa" stroke-width="1.5"/>
        </g>
      </g>
      <g id="Group_4757-13" data-name="Group 4757" transform="translate(426.245 716.88)">
        <g id="Group_4459-13" data-name="Group 4459" transform="translate(0)">
          <path id="Path_47687" data-name="Path 47687" d="M921.974,803.262a.392.392,0,0,0,.1-.082,4.933,4.933,0,0,0,1.093-1.7l-.006-.009a8.726,8.726,0,0,0,.515-3.821c-.031-.736-.065-1.469-.107-2.2l-.176-3.43c-.073-1.693-.159-3.38-.249-5.075-.076-1.443-.144-2.879-.227-4.314-.059-1.143-.116-2.27-.184-3.405-.025-.693-.056-1.4-.107-2.078-.009-.393-.025-.778-.051-1.169-.008-.21-.008-.427-.025-.643-.017-.351-.048-.685-.073-1.027l-.068-1.551-.4-5.027-.017-.082-.026-.008v.051c-.025-.008-.059-.008-.085-.017l-.009-.043a.189.189,0,0,1,0-.1c.026-.008.034,0,.051,0h.034l.026-.008-.009-.026-.009-.009v-.116c-.275-2.581-.218-5.092-.569-7.512.277.026.543.057.8.1a5.932,5.932,0,0,1,3.773,2.236,3.3,3.3,0,0,1,.3.385,6.618,6.618,0,0,1,.535.852c.085.15.158.291.226.442a8.922,8.922,0,0,1,.365.917c.034.1.068.2.093.294a8.435,8.435,0,0,1,.45,2.185c.059.926.125,1.862.184,2.8.176,2.612.309,5.233.45,7.863.093,1.927.2,3.855.334,5.791.017.184.017.368.026.56a29.747,29.747,0,0,1-.258,5.534,24.384,24.384,0,0,1-.793,3.714c-.243.792-.526,1.56-.835,2.321a23.089,23.089,0,0,1-3.606,5.825c-.167.2-.343.394-.518.583-.3.351-.6.685-.925,1.011Z" transform="translate(-877.962 -752.542)" fill="none" stroke="#4b58aa" stroke-width="1.5"/>
          <path id="Path_47688" data-name="Path 47688" d="M949.485,764.609c-2.262-.278-4.707-.368-7.153-.544l-3.2-.167-2.454-.1v-.017L933.3,763.6l-.008.042-2.256-.119h-.082a.153.153,0,0,0-.008-.057l-4.665-.243-.419-.017-2.253-.1c-.467-.034-.934-.051-1.4-.085-.484-.017-.959-.04-1.435-.065-.835-.051-1.653-.085-2.505-.116-2.228-.145-4.467-.227-6.694-.351a9.6,9.6,0,0,0-3.473.365,4.95,4.95,0,0,0-2.035,1.152l-.017-.017a22.824,22.824,0,0,1,1.718-1.6,23.617,23.617,0,0,1,5.692-3.589,18.627,18.627,0,0,1,6.479-1.486c.3-.014.583-.014.875-.023a.611.611,0,0,0,.127-.009c3.453,0,6.9.091,10.365.215,1.885.085,3.782.176,5.675.269l5.35.275a7.35,7.35,0,0,1,5.041,2.171,6.952,6.952,0,0,1,1.936,3.354C949.377,763.916,949.437,764.258,949.485,764.609Z" transform="translate(-906.051 -757.281)" fill="none" stroke="#4b58aa" stroke-width="1.5"/>
        </g>
      </g>
      <g id="Group_4757-14" data-name="Group 4757" transform="translate(716.623 426.243)">
        <g id="Group_4459-14" data-name="Group 4459" transform="translate(0)">
          <path id="Path_47689" data-name="Path 47689" d="M1054.756,670.564c-.5.518-1.019,1.019-1.571,1.486a23.543,23.543,0,0,1-5.842,3.705,18.483,18.483,0,0,1-6.476,1.486l-.877.025a.585.585,0,0,0-.125.009c-3.456,0-6.9-.093-10.357-.227-1.9-.073-3.79-.167-5.678-.266l-5.358-.266a7.369,7.369,0,0,1-5.05-2.18,6.935,6.935,0,0,1-1.928-3.346c-.065-.351-.133-.7-.184-1.053,2.279.275,4.716.36,7.153.543l3.207.167,2.463.107v.017l3.371.167.008-.026,2.253.1.09.009a.245.245,0,0,0-.006.059l4.665.241.425.025,2.253.1c.47.017.937.048,1.412.074s.943.042,1.435.068c.818.051,1.653.082,2.5.125,2.228.142,4.464.227,6.685.343a9.523,9.523,0,0,0,3.646-.425,4.762,4.762,0,0,0,1.863-1.1Z" transform="translate(-1003.752 -626.527)" fill="none" stroke="#4b58aa" stroke-width="1.5"/>
          <path id="Path_47690" data-name="Path 47690" d="M1016.2,698.013l-.8-.1a5.886,5.886,0,0,1-3.764-2.23,3.7,3.7,0,0,1-.3-.382,6.694,6.694,0,0,1-.532-.852c-.085-.15-.161-.292-.235-.45-.133-.3-.26-.611-.36-.911-.034-.1-.065-.2-.09-.292a8.345,8.345,0,0,1-.453-2.188c-.057-.926-.124-1.86-.181-2.8-.176-2.613-.311-5.234-.453-7.863-.091-1.928-.2-3.855-.334-5.794-.014-.181-.017-.365-.023-.558a29.72,29.72,0,0,1,.258-5.534,22.864,22.864,0,0,1,.792-3.714c.243-.8.527-1.562.835-2.321a22.9,22.9,0,0,1,3.473-5.675c.215-.252.424-.492.651-.736.3-.351.6-.685.926-1.011l.017.017a.408.408,0,0,0-.094.076,4.859,4.859,0,0,0-1.158,1.894,9.335,9.335,0,0,0-.444,3.649c.034.716.06,1.46.119,2.185l.175,3.431c.073,1.7.15,3.391.241,5.083.076,1.444.15,2.873.226,4.316.057,1.127.116,2.27.184,3.405.023.694.065,1.384.108,2.078.017.385.026.776.043,1.161.014.218.023.424.04.643.008.342.042.693.068,1.036l.065,1.551.411,5.015.034.235v.133C1015.9,693.07,1015.847,695.576,1016.2,698.013Z" transform="translate(-1008.64 -654.601)" fill="none" stroke="#4b58aa" stroke-width="1.5"/>
        </g>
      </g>
      <line id="Line_438" data-name="Line 438" x1="253.087" y2="254.004" transform="translate(470.512 469.787)" fill="none" stroke="#4b58aa" stroke-width="1.5"/>
      <path id="Path_47691" data-name="Path 47691" d="M1048.445,609.635,936.493,721.588l-15.3,15.3-.025.025" transform="translate(-452.132 -310.667)" fill="none" stroke="#4b58aa" stroke-width="1.5"/>
      <path id="Path_47692" data-name="Path 47692" d="M988.361,669.72l-.025.025-15.942,15.942-37.851,37.851L861.085,797" transform="translate(-562.117 -200.683)" fill="none" stroke="#4b58aa" stroke-width="1.5"/>
      <line id="Line_439" data-name="Line 439" x1="596.852" y1="2.158" transform="translate(298.968 596.317)" fill="none" stroke="#4b58aa" stroke-width="1.5"/>
      <line id="Line_440" data-name="Line 440" x1="2.163" y1="596.847" transform="translate(596.312 298.973)" fill="none" stroke="#4b58aa" stroke-width="1.5"/>
      <path id="Path_47693" data-name="Path 47693" d="M927.055,810.644a158.228,158.228,0,0,1,223.887,0c.274.274.557.557.826.841" transform="translate(-441.358 -27.601)" fill="none" stroke="#4b58aa" stroke-width="1.5"/>
      <path id="Path_47694" data-name="Path 47694" d="M1062.092,900.324a158.227,158.227,0,0,1,0-223.888c.275-.275.558-.56.841-.826" transform="translate(-279.053 -189.901)" fill="none" stroke="#4b58aa" stroke-width="1.5"/>
      <path id="Path_47695" data-name="Path 47695" d="M900.263,675.216c.283.266.569.549.843.826a158.258,158.258,0,0,1,0,223.885" transform="translate(-490.401 -190.622)" fill="none" stroke="#4b58aa" stroke-width="1.5"/>
      <path id="Path_47696" data-name="Path 47696" d="M1150.488,649.187l-.009.008a158.314,158.314,0,0,1-223.887,0l-.009-.008" transform="translate(-442.223 -238.268)" fill="none" stroke="#4b58aa" stroke-width="1.5"/>
      <path id="Path_47697" data-name="Path 47697" d="M1230.748,1015.174c.175,1.71.209,3.38.317,5.024-.566.416-1.135.835-1.693,1.243-.243.176-.467.351-.71.526q-7.974,5.872-16.335,10.891c-.334.2-.665.4-1.007.592a209.919,209.919,0,0,1-105.72,29.081h-1.851a211.839,211.839,0,0,1-107.178-29.489c-.2-.116-.4-.235-.594-.36a211.263,211.263,0,0,1-18.036-12.061.044.044,0,0,1-.034-.017l-.592-.442c-.093-.076-.184-.133-.277-.209l-.005-.009a8.732,8.732,0,0,0,.515-3.821c-.031-.736-.065-1.469-.108-2.2l-.176-3.43c-.073-1.693-.158-3.38-.249-5.075-.076-1.444-.145-2.879-.227-4.314-.06-1.143-.116-2.27-.184-3.405-.025-.694-.057-1.4-.107-2.078-.008-.393-.025-.778-.051-1.169-.009-.21-.009-.428-.026-.643-.017-.351-.048-.685-.073-1.027l-.068-1.551-.4-5.027-.017-.082-.025-.008v.051c-.025-.008-.059-.008-.085-.017l-.009-.043a.19.19,0,0,1,0-.1c.026-.008.034,0,.051,0h.034l.025-.008-.009-.026-.008-.009v-.116c-.275-2.582-.218-5.092-.569-7.512-2.261-.278-4.707-.368-7.152-.544l-3.2-.167-2.454-.1v-.017l-3.371-.184-.008.043-2.256-.119h-.082a.15.15,0,0,0-.009-.057l-4.665-.244-.419-.017-2.253-.1c-.467-.034-.934-.051-1.4-.085-.484-.017-.959-.04-1.435-.065-.835-.051-1.653-.085-2.5-.116-2.228-.145-4.467-.227-6.694-.351a9.593,9.593,0,0,0-3.473.365c-.017-.017-.034-.048-.048-.065s-.017-.034-.034-.051l-.252-.351a212,212,0,0,1-41.589-125.355v-1.019a211.178,211.178,0,0,1,7.685-56.313,207.769,207.769,0,0,1,20.926-49.421,202.789,202.789,0,0,1,12.01-18.22c.218-.317.461-.626.685-.937.343-.476.7-.968,1.061-1.444,1.517.119,3.071.184,4.622.3l3.215.176,2.451.1v.017l3.382.175v-.034l2.245.108h.1a.164.164,0,0,0-.009.059l4.668.24.425.026,2.253.1c.467.031.937.048,1.413.074s.951.051,1.435.068c.827.056,1.653.082,2.494.125,2.23.141,4.467.224,6.694.351,2.479.124,4.316-.377,5.511-1.52l.022.026c.317-.334.628-.676.928-1.028a22.926,22.926,0,0,0,4.116-6.4c.309-.761.592-1.528.832-2.321a23.72,23.72,0,0,0,.81-3.716,29.766,29.766,0,0,0,.243-5.534c-.008-.19-.008-.374-.025-.558-.116-1.936-.226-3.864-.334-5.794-.133-2.621-.275-5.248-.442-7.869-.068-.937-.125-1.863-.193-2.8a8.452,8.452,0,0,0-.45-2.188,1.111,1.111,0,0,0-.085-.283,6.667,6.667,0,0,0-.365-.917c-.068-.15-.153-.3-.235-.453a5.493,5.493,0,0,0-.535-.849,2.051,2.051,0,0,0-.3-.385,5.668,5.668,0,0,0-1.837-1.568l-.1-.051c.226-.175.441-.342.677-.509q8.139-5.936,16.708-11c.2-.136.428-.26.634-.385a207.809,207.809,0,0,1,61.832-24.006,210.747,210.747,0,0,1,45.087-4.673h.317a211.622,211.622,0,0,1,106.418,29.231c.133.065.266.15.393.224a212.085,212.085,0,0,1,18.254,12.146c.116.082.223.158.343.24a9.332,9.332,0,0,0-.444,3.648c.034.716.059,1.461.119,2.185l.175,3.431c.074,1.7.15,3.391.241,5.083.076,1.444.15,2.873.226,4.316.057,1.127.116,2.27.184,3.405.023.693.065,1.384.107,2.078.017.385.026.776.043,1.161.014.218.022.424.039.642.009.342.042.693.068,1.036l.065,1.551.411,5.015.034.235v.133c.258,2.562.207,5.067.558,7.5,2.279.275,4.715.36,7.153.544l3.207.167,2.463.108v.017l3.371.167.008-.026,2.253.1.09.009a.246.246,0,0,0-.006.059l4.665.241.425.025,2.253.1c.47.017.937.048,1.413.074s.942.042,1.435.068c.818.051,1.653.082,2.5.125,2.228.142,4.464.227,6.686.343a9.521,9.521,0,0,0,3.646-.425c.111.141.21.275.317.416.025.025.042.059.068.082.115.153.226.294.334.453a211.8,211.8,0,0,1,41.939,125.855c.009.176.009.343.009.51a211.222,211.222,0,0,1-7.869,57.451,208.054,208.054,0,0,1-21.526,50.137q-4.882,8.186-10.566,16.009c-.209.292-.436.583-.651.866-.586.8-1.169,1.585-1.769,2.389-1.5-.119-3.048-.192-4.6-.308l-.009.006-3.216-.173-2.443-.111,0-.017-3.38-.176v.034l-2.261-.108h-.082a.17.17,0,0,0,.008-.059l-4.667-.24-.425-.026-2.253-.1c-.476-.023-.937-.048-1.413-.073s-.951-.051-1.435-.068c-.826-.057-1.653-.082-2.5-.125-2.228-.141-4.464-.226-6.691-.351-2.5-.108-4.317.376-5.52,1.528a.562.562,0,0,0-.09.074c-1.186,1.186-1.735,3.04-1.6,5.542.033.736.057,1.461.107,2.2l.176,3.431c.076,1.693.158,3.38.252,5.075.074,1.443.15,2.87.224,4.314.051,1.135.119,2.27.184,3.405.025.693.068,1.387.107,2.08.009.39.026.775.043,1.157.017.218.025.428.042.646.009.34.042.69.065,1.033l.068,1.554.41,5.016.014.082.017.017v-.048a.314.314,0,0,0,.093.009l-.008.04a.216.216,0,0,1,.017.1v.017a.27.27,0,0,1-.06-.009h-.065l.006.023.026.009Z" transform="translate(-505.59 -254.132)" fill="none" stroke="#4b58aa" stroke-width="1.5"/>
      <ellipse id="Ellipse_226" data-name="Ellipse 226" cx="139.803" cy="139.803" rx="139.803" ry="139.803" transform="translate(458.244 457.296)" fill="none" stroke="#4b58aa" stroke-width="1.5"/>
      <ellipse id="Ellipse_227" data-name="Ellipse 227" cx="67.104" cy="67.104" rx="67.104" ry="67.104" transform="translate(529.762 531.174)" fill="none" stroke="#4b58aa" stroke-width="1.5"/>
    </g>
  </g>
</svg>
