<svg xmlns="http://www.w3.org/2000/svg" width="59.199" height="67.138" viewBox="0 0 59.199 67.138">
  <g id="Group_4721" data-name="Group 4721" transform="translate(-674.7 -286.656)">
    <g id="Group_4459" data-name="Group 4459" transform="translate(733.398 287.157) rotate(90)">
      <path id="Path_47121" data-name="Path 47121" d="M66.107,33.679a2.435,2.435,0,0,1-.063.448,5.625,5.625,0,0,1-.231.918c-.049.154-.1.3-.161.448a7.175,7.175,0,0,1-.406.848,1.27,1.27,0,0,1-.147.252,7.708,7.708,0,0,1-1.268,1.738c-.638.659-1.275,1.318-1.92,1.976-1.795,1.844-3.617,3.673-5.438,5.495-1.339,1.345-2.677,2.691-4,4.05-.126.133-.26.26-.393.386a29.934,29.934,0,0,1-4.239,3.5,25.12,25.12,0,0,1-3.315,1.927c-.757.364-1.528.686-2.313.981A26.054,26.054,0,0,1,34.5,58.157a27.249,27.249,0,0,1-10.673-1.408,19.741,19.741,0,0,1-5.837-3.307c-.224-.19-.441-.372-.658-.567-.028-.028-.071-.049-.1-.077-2.53-2.278-5-4.618-7.436-6.994q-2-1.956-3.966-3.925L2.105,38.158A6.487,6.487,0,0,1,0,33.386a5.959,5.959,0,0,1,1.03-3.49c1.619-2.193,3.8-4,5.732-6.146l.091-.084-.007-.014a.045.045,0,0,0,.014-.021l.021.014.028.028a.229.229,0,0,0,.035.042l.007-.014a.225.225,0,0,0,.07-.07l.028-.028A.463.463,0,0,1,7,23.532l-.035.035c0-.014,0-.014-.007-.021L7,23.483,10.389,19.9l1.086-1.072c.231-.246.463-.491.708-.729.147-.154.294-.3.448-.448.266-.266.54-.533.813-.8.477-.484.96-.968,1.444-1.444q1.178-1.188,2.369-2.376c1-1,1.99-2,2.993-3q1.766-1.766,3.546-3.518l2.389-2.39C26.682,3.609,27.2,3.1,27.7,2.6A7.554,7.554,0,0,1,32.94,0c1.766,0,3.51.883,5.291,2.649C39.772,4.2,41.349,5.732,42.876,7.3c.6.581,1.177,1.149,1.745,1.731.336.336.666.666,1,1s.651.652.974.981l1.577,1.556.295.294L51.713,16.1a.143.143,0,0,1-.042.035l.063.063L53.3,17.765a.125.125,0,0,0,.028-.021l2.348,2.347-.014.014,1.724,1.689,2.228,2.236h.007c1.85,1.934,3.784,3.8,5.361,5.683A5.118,5.118,0,0,1,66.107,33.679Z" transform="translate(66.137 58.199) rotate(180)" fill="none" stroke="#4b58aa" stroke-width="1"/>
      <path id="Path_47120" data-name="Path 47120" d="M66.107,33.679a2.439,2.439,0,0,1-.063.449,5.623,5.623,0,0,1-.231.918c-.049.154-.1.3-.161.449a7.177,7.177,0,0,1-.406.848,1.269,1.269,0,0,1-.147.252,7.709,7.709,0,0,1-1.268,1.738c-.638.659-1.275,1.318-1.92,1.976-1.795,1.844-3.617,3.673-5.438,5.494-1.339,1.345-2.677,2.691-4,4.05-.126.133-.26.26-.393.386a29.937,29.937,0,0,1-4.239,3.5,25.114,25.114,0,0,1-3.315,1.927c-.757.364-1.528.686-2.313.981A26.056,26.056,0,0,1,34.5,58.157a27.248,27.248,0,0,1-10.673-1.408,19.742,19.742,0,0,1-5.837-3.307c-.224-.19-.441-.372-.658-.567-.028-.028-.071-.049-.1-.077-2.53-2.278-5-4.618-7.436-6.994q-2-1.956-3.966-3.925L2.105,38.158A6.487,6.487,0,0,1,0,33.386a5.959,5.959,0,0,1,1.03-3.49c1.619-2.193,3.8-4,5.732-6.146l.091-.084-.007-.014a.047.047,0,0,0,.014-.021l.021.014.028.028a.229.229,0,0,0,.035.042l.007-.014a.224.224,0,0,0,.07-.07l.028-.028A.461.461,0,0,1,7,23.532l-.035.035c0-.014,0-.014-.007-.021L7,23.483,10.389,19.9l1.086-1.072c.231-.246.463-.491.708-.729.147-.154.294-.3.448-.448.266-.266.54-.533.813-.8.477-.484.96-.968,1.444-1.444q1.178-1.188,2.369-2.376c1-1,1.99-2,2.993-3q1.766-1.766,3.546-3.518l2.39-2.39C26.682,3.609,27.2,3.1,27.7,2.6A7.554,7.554,0,0,1,32.94,0c1.766,0,3.51.883,5.291,2.649C39.772,4.2,41.349,5.732,42.876,7.3c.6.581,1.177,1.149,1.745,1.731.336.336.666.666,1,1s.651.652.974.981l1.577,1.556.295.294L51.713,16.1a.143.143,0,0,1-.042.035l.063.063L53.3,17.765a.127.127,0,0,0,.028-.021l2.348,2.347-.014.014,1.724,1.689,2.228,2.235h.007c1.85,1.934,3.784,3.8,5.361,5.684A5.117,5.117,0,0,1,66.107,33.679Z" transform="translate(0 0)" fill="none" stroke="#4b58aa" stroke-width="1"/>
    </g>
  </g>
</svg>
