<svg xmlns="http://www.w3.org/2000/svg" width="48.094" height="48.094" viewBox="0 0 48.094 48.094">
  <g id="Group_4830" data-name="Group 4830" transform="translate(-967.579 -715.579)">
    <g id="Group_4804" data-name="Group 4804" transform="translate(967.579 715.579)">
      <g id="Group_4733" data-name="Group 4733" transform="translate(48.094 15.136) rotate(90)">
        <path id="Path_47218" data-name="Path 47218" d="M1.482,11.2l.088.088c.355.353.71.705,1.068,1.056.657.641,1.323,1.273,2,1.886.008.008.018.012.026.02.058.054.118.1.179.154s.144.114.218.168a5.293,5.293,0,0,0,1.066.607c.094.042.19.078.289.114a7.368,7.368,0,0,0,2.876.381,7.012,7.012,0,0,0,2.078-.409c.106-.04.212-.082.317-.126s.2-.09.307-.138a6.3,6.3,0,0,0,.773-.439c.04-.026.08-.052.12-.08a8.072,8.072,0,0,0,1.142-.942c.036-.034.072-.068.106-.1.357-.367,2.435-2.459,2.543-2.571.175-.178.345-.355.517-.533a2.062,2.062,0,0,0,.343-.469.271.271,0,0,0,.038-.068,1.661,1.661,0,0,0,.11-.228.99.99,0,0,0,.044-.12A1.622,1.622,0,0,0,17.8,9.2a.646.646,0,0,0,.016-.122,1.384,1.384,0,0,0-.3-1.068C17.089,7.5,16.568,7,16.069,6.476h0l-.6-.6L15,5.417l0,0-.632-.631-.437-.443-.491-.491-.463-.463L12.89,3.3l-.332-.329c-.034-.034-.068-.07-.1-.1-.052-.054-.106-.106-.159-.16-.09-.088-.178-.176-.271-.269-.152-.156-.309-.309-.469-.465-.413-.425-.838-.838-1.253-1.255A2.054,2.054,0,0,0,8.878,0,2.037,2.037,0,0,0,7.467.7c-.136.136-.276.272-.411.411l-.643.643c-.319.315-.64.631-.956.948l-.806.808c-.114.114-.226.227-.337.339s-.2.2-.3.3c-.13.128-.261.259-.389.389L3.4,4.754c-.042.04-.082.08-.12.122-.066.064-.13.13-.192.2L2.8,5.361,1.847,6.377,1.823,6.4C1.3,6.977.714,7.466.278,8.055A1.616,1.616,0,0,0,0,9a1.743,1.743,0,0,0,.565,1.285Z" transform="translate(0 0)" fill="#4b58aa"/>
      </g>
      <g id="Group_4827" data-name="Group 4827" transform="translate(0 32.959) rotate(-90)">
        <path id="Path_47218-2" data-name="Path 47218" d="M1.482,11.2l.088.088c.355.353.71.705,1.068,1.056.657.641,1.323,1.273,2,1.886.008.008.018.012.026.02.058.054.118.1.179.154s.144.114.218.168a5.293,5.293,0,0,0,1.066.607c.094.042.19.078.289.114a7.368,7.368,0,0,0,2.876.381,7.012,7.012,0,0,0,2.078-.409c.106-.04.212-.082.317-.126s.2-.09.307-.138a6.293,6.293,0,0,0,.773-.439c.04-.026.08-.052.12-.08a8.073,8.073,0,0,0,1.142-.942c.036-.034.072-.068.106-.1.357-.367,2.435-2.459,2.543-2.571.175-.178.345-.355.517-.533a2.062,2.062,0,0,0,.343-.469.27.27,0,0,0,.038-.068,1.661,1.661,0,0,0,.11-.228.992.992,0,0,0,.044-.12A1.622,1.622,0,0,0,17.8,9.2a.645.645,0,0,0,.016-.122,1.384,1.384,0,0,0-.3-1.068C17.089,7.5,16.568,7,16.069,6.476h0l-.6-.6L15,5.417l0,0-.632-.631-.437-.443-.491-.491-.463-.463-.092-.09-.333-.329c-.034-.034-.068-.07-.1-.1-.052-.054-.106-.106-.159-.16-.09-.088-.178-.176-.271-.269-.152-.156-.309-.309-.469-.465-.413-.425-.838-.838-1.253-1.255A2.054,2.054,0,0,0,8.878,0,2.037,2.037,0,0,0,7.467.7c-.136.136-.276.272-.411.411l-.643.643c-.319.315-.64.631-.956.948l-.806.808c-.114.114-.226.227-.337.339s-.2.2-.3.3c-.13.128-.261.259-.389.389L3.4,4.754c-.042.04-.082.08-.12.122-.066.064-.13.13-.192.2L2.8,5.361,1.847,6.377,1.823,6.4C1.3,6.977.714,7.466.278,8.055A1.616,1.616,0,0,0,0,9a1.743,1.743,0,0,0,.565,1.285Z" transform="translate(0)" fill="#4b58aa"/>
      </g>
      <g id="Group_4828" data-name="Group 4828" transform="translate(32.958 48.094) rotate(180)">
        <path id="Path_47218-3" data-name="Path 47218" d="M1.482,11.2l.088.088c.355.353.71.705,1.068,1.056.657.641,1.323,1.273,2,1.886.008.008.018.012.026.02.058.054.118.1.179.154s.144.114.218.168a5.293,5.293,0,0,0,1.066.607c.094.042.19.078.289.114a7.368,7.368,0,0,0,2.876.381,7.012,7.012,0,0,0,2.078-.409c.106-.04.212-.082.317-.126s.2-.09.307-.138a6.3,6.3,0,0,0,.773-.439c.04-.026.08-.052.12-.08a8.072,8.072,0,0,0,1.142-.942c.036-.034.072-.068.106-.1.357-.367,2.435-2.459,2.543-2.571.175-.178.345-.355.517-.533a2.062,2.062,0,0,0,.343-.469.271.271,0,0,0,.038-.068,1.661,1.661,0,0,0,.11-.228.99.99,0,0,0,.044-.12A1.622,1.622,0,0,0,17.8,9.2a.646.646,0,0,0,.016-.122,1.384,1.384,0,0,0-.3-1.068C17.089,7.5,16.568,7,16.069,6.476h0l-.6-.6L15,5.417l0,0-.632-.631-.437-.443-.491-.491-.463-.463L12.89,3.3l-.332-.329c-.034-.034-.068-.07-.1-.1-.052-.054-.106-.106-.159-.16-.09-.088-.178-.176-.271-.269-.152-.156-.309-.309-.469-.465-.413-.425-.838-.838-1.253-1.255A2.054,2.054,0,0,0,8.878,0,2.037,2.037,0,0,0,7.467.7c-.136.136-.276.272-.411.411l-.643.643c-.319.315-.64.631-.956.948l-.806.808c-.114.114-.226.227-.337.339s-.2.2-.3.3c-.13.128-.261.259-.389.389L3.4,4.754c-.042.04-.082.08-.12.122-.066.064-.13.13-.192.2L2.8,5.361,1.847,6.377,1.823,6.4C1.3,6.977.714,7.466.278,8.055A1.616,1.616,0,0,0,0,9a1.743,1.743,0,0,0,.565,1.285Z" transform="translate(0 0)" fill="#4b58aa"/>
      </g>
      <g id="Group_4829" data-name="Group 4829" transform="translate(15.136)">
        <path id="Path_47218-4" data-name="Path 47218" d="M1.482,11.2l.088.088c.355.353.71.705,1.068,1.056.657.641,1.323,1.273,2,1.886.008.008.018.012.026.02.058.054.118.1.179.154s.144.114.218.168a5.293,5.293,0,0,0,1.066.607c.094.042.19.078.289.114a7.368,7.368,0,0,0,2.876.381,7.012,7.012,0,0,0,2.078-.409c.106-.04.212-.082.317-.126s.2-.09.307-.138a6.293,6.293,0,0,0,.773-.439c.04-.026.08-.052.12-.08a8.073,8.073,0,0,0,1.142-.942c.036-.034.072-.068.106-.1.357-.367,2.435-2.459,2.543-2.571.175-.178.345-.355.517-.533a2.062,2.062,0,0,0,.343-.469.27.27,0,0,0,.038-.068,1.661,1.661,0,0,0,.11-.228.992.992,0,0,0,.044-.12A1.622,1.622,0,0,0,17.8,9.2a.645.645,0,0,0,.016-.122,1.384,1.384,0,0,0-.3-1.068C17.089,7.5,16.568,7,16.069,6.476h0l-.6-.6L15,5.417l0,0-.632-.631-.437-.443-.491-.491-.463-.463-.092-.09-.333-.329c-.034-.034-.068-.07-.1-.1-.052-.054-.106-.106-.159-.16-.09-.088-.178-.176-.271-.269-.152-.156-.309-.309-.469-.465-.413-.425-.838-.838-1.253-1.255A2.054,2.054,0,0,0,8.878,0,2.037,2.037,0,0,0,7.467.7c-.136.136-.276.272-.411.411l-.643.643c-.319.315-.64.631-.956.948l-.806.808c-.114.114-.226.227-.337.339s-.2.2-.3.3c-.13.128-.261.259-.389.389L3.4,4.754c-.042.04-.082.08-.12.122-.066.064-.13.13-.192.2L2.8,5.361,1.847,6.377,1.823,6.4C1.3,6.977.714,7.466.278,8.055A1.616,1.616,0,0,0,0,9a1.743,1.743,0,0,0,.565,1.285Z" transform="translate(0 0)" fill="#4b58aa"/>
      </g>
    </g>
  </g>
</svg>
