<svg xmlns="http://www.w3.org/2000/svg" width="385.867" height="84.007" viewBox="0 0 385.867 84.007"><defs><style>.a{fill:#4b58aa;}</style></defs><g transform="translate(-33.037 -17.005)"><g transform="translate(141.258 25.734)"><path class="a" d="M227.655,521.137H206.179a37.348,37.348,0,0,0-1.72,5.191,7.84,7.84,0,0,0-.113,3.779,3.7,3.7,0,0,0,1.833,2.367,9.051,9.051,0,0,0,4.116.878H190.019a11.27,11.27,0,0,0,3.965-.764,8.515,8.515,0,0,0,3.067-2.29,19,19,0,0,0,2.732-4.313q1.308-2.71,2.956-6.757l12.269-30.769-3.366-8.7h10.549l17.883,44.588a29.118,29.118,0,0,0,1.87,3.969,9.824,9.824,0,0,0,2.283,2.749,9.5,9.5,0,0,0,2.992,1.641,14.152,14.152,0,0,0,4.078.65H224.212a5.672,5.672,0,0,0,4.863-2.483,5.8,5.8,0,0,0,.226-5.534Zm-.9-2.368-9.727-25.041-9.951,25.041Z" transform="translate(-190.019 -479.756)"/><path class="a" d="M309.664,525.145a15.573,15.573,0,0,0,.187,2.367,9.064,9.064,0,0,0,.636,2.253,5.01,5.01,0,0,0,1.2,1.717,2.662,2.662,0,0,0,1.871.688H295.9a2.762,2.762,0,0,0,1.944-.688,5.03,5.03,0,0,0,1.2-1.717,8.168,8.168,0,0,0,.6-2.253,19.572,19.572,0,0,0,.15-2.367V501.783a7.914,7.914,0,0,0-1.348-4.62,4.509,4.509,0,0,0-3.964-1.946,11.583,11.583,0,0,0-5.127,1.222,19.307,19.307,0,0,0-5.648,4.886v23.82a15.591,15.591,0,0,0,.187,2.367,9.017,9.017,0,0,0,.636,2.253,4.784,4.784,0,0,0,1.236,1.717,2.8,2.8,0,0,0,1.907.688H270.083a2.764,2.764,0,0,0,1.945-.688,4.627,4.627,0,0,0,1.159-1.717,9.02,9.02,0,0,0,.562-2.253,19.817,19.817,0,0,0,.149-2.367V501.783a10.153,10.153,0,0,0-.3-2.482,5.988,5.988,0,0,0-.973-2.1,4.651,4.651,0,0,0-1.8-1.451,6.419,6.419,0,0,0-2.768-.535,10.378,10.378,0,0,0-4.452,1.222,20.04,20.04,0,0,0-5.725,4.886v23.82a15.58,15.58,0,0,0,.187,2.367,9.021,9.021,0,0,0,.636,2.253,4.78,4.78,0,0,0,1.235,1.717,2.793,2.793,0,0,0,1.907.688H244.12a2.764,2.764,0,0,0,1.944-.688,5.012,5.012,0,0,0,1.2-1.717,8.128,8.128,0,0,0,.6-2.253,19.357,19.357,0,0,0,.15-2.367v-24.66a8.021,8.021,0,0,0-.449-2.9,1.64,1.64,0,0,0-1.645-1.145,5.352,5.352,0,0,0-2.395.839l14.366-8.169v8.474a29.183,29.183,0,0,1,6.473-4.962,15.7,15.7,0,0,1,7.893-2.062,11.085,11.085,0,0,1,7.258,2.214,10.588,10.588,0,0,1,3.591,5.42,27.117,27.117,0,0,1,6.623-5.42,16.339,16.339,0,0,1,8.417-2.214,12.539,12.539,0,0,1,5.087.954,10.2,10.2,0,0,1,5.725,6.108,12.489,12.489,0,0,1,.711,4.161Z" transform="translate(-187.717 -478.573)"/><path class="a" d="M320.593,489.042v11.07a15,15,0,0,1,5.425-7.367,13.141,13.141,0,0,1,7.444-2.33,14.655,14.655,0,0,1,6.1,1.374,16.794,16.794,0,0,1,5.425,3.971,20.48,20.48,0,0,1,3.891,6.336,22.9,22.9,0,0,1,1.5,8.551,26.013,26.013,0,0,1-1.646,9.544,21.861,21.861,0,0,1-4.377,7.1,19.283,19.283,0,0,1-6.248,4.466,17.7,17.7,0,0,1-7.258,1.565,18.625,18.625,0,0,1-5.238-.764,18.071,18.071,0,0,1-5.013-2.365V546.76q0,1.068.111,2.329a8.619,8.619,0,0,0,.524,2.329,4.373,4.373,0,0,0,1.2,1.756,3.006,3.006,0,0,0,2.057.687H306.9a2.736,2.736,0,0,0,1.984-.687,4.447,4.447,0,0,0,1.085-1.756,9.652,9.652,0,0,0,.487-2.329q.112-1.26.112-2.329V500.569c0-.34-.009-.662-.029-.967a2.918,2.918,0,0,0-4.338-2.343Zm0,27.026a20.717,20.717,0,0,0,.823,6.108,15.515,15.515,0,0,0,2.17,4.543,9.472,9.472,0,0,0,3.068,2.825,7.166,7.166,0,0,0,3.517.953,6.758,6.758,0,0,0,3.517-1.031,9.782,9.782,0,0,0,3.1-3.167A18.023,18.023,0,0,0,339,520.877a32.254,32.254,0,0,0,.825-7.787,34.51,34.51,0,0,0-.825-8.054,18.518,18.518,0,0,0-2.207-5.573,9.544,9.544,0,0,0-3.143-3.207,6.726,6.726,0,0,0-7.033-.076,9.782,9.782,0,0,0-3.03,2.786,15.038,15.038,0,0,0-2.17,4.466,20.056,20.056,0,0,0-.823,5.993Z" transform="translate(-179.79 -478.582)"/><path class="a" d="M401.2,496.193a10.631,10.631,0,0,1,1.871-3.092,9.778,9.778,0,0,1,2.468-2.023,10.607,10.607,0,0,1,2.806-1.106,12.561,12.561,0,0,1,2.88-.345,10.208,10.208,0,0,1,3.143.459l-2.169,8.4a19.131,19.131,0,0,0-3.1-1.336,9.388,9.388,0,0,0-2.882-.5,4.908,4.908,0,0,0-3.554,1.336q-1.386,1.337-1.384,4.542v22.6q0,1.146.113,2.4a8.071,8.071,0,0,0,.524,2.29,4.4,4.4,0,0,0,1.2,1.717,3.125,3.125,0,0,0,2.132.688H387.354a3.275,3.275,0,0,0,2.17-.688,4.575,4.575,0,0,0,1.272-1.717,7.313,7.313,0,0,0,.561-2.29q.113-1.26.113-2.4V509.706a19.335,19.335,0,0,1-4.452,1.184,42.3,42.3,0,0,1-4.751.42v8.551a15.337,15.337,0,0,0,.187,2.4,10.926,10.926,0,0,0,.561,2.176,4.867,4.867,0,0,0,.935,1.6,1.8,1.8,0,0,0,1.386.612,4.138,4.138,0,0,0,2.544-1.222l-8.755,7.787a13.771,13.771,0,0,1-4.153-3.816,14.542,14.542,0,0,1-1.981-4.2,23.733,23.733,0,0,1-6.81,5.459,16.158,16.158,0,0,1-7.632,2.023q-6.061,0-8.866-2.787a9.719,9.719,0,0,1-2.806-7.214,10.25,10.25,0,0,1,1.984-6.413,13.9,13.9,0,0,1,5.424-4.162,31.28,31.28,0,0,1,8.118-2.29,71.99,71.99,0,0,1,9.989-.8v-9.085q0-3.817-1.234-5.384a3.877,3.877,0,0,0-3.18-1.565,9.041,9.041,0,0,0-3.816.992,26.318,26.318,0,0,0-4.153,2.482,43.7,43.7,0,0,0-4,3.283,46.257,46.257,0,0,0-3.293,3.321l-3.516-9.772q4.038-1.3,8.455-2.253a41.044,41.044,0,0,1,8.678-.954,24.057,24.057,0,0,1,6.173.764,12.57,12.57,0,0,1,5.05,2.633,12.868,12.868,0,0,1,3.443,5,21.045,21.045,0,0,1,1.272,7.864v2.6a43.623,43.623,0,0,0,4.789-.572,11.868,11.868,0,0,0,4.415-1.718v-6.49a7.687,7.687,0,0,0-.487-2.634A1.92,1.92,0,0,0,389,496.193a3.907,3.907,0,0,0-1.01.153,5.494,5.494,0,0,0-1.235.535l14.516-8.247Zm-38.983,31.456a8.863,8.863,0,0,0,5.238-1.908,24.125,24.125,0,0,0,4.937-4.962v-9.391a44.813,44.813,0,0,0-5.311.5,19.233,19.233,0,0,0-5.051,1.451,9.908,9.908,0,0,0-3.741,2.862,7.369,7.369,0,0,0-1.46,4.733,8.1,8.1,0,0,0,1.385,4.7A4.545,4.545,0,0,0,362.213,527.648Z" transform="translate(-174.646 -478.633)"/><path class="a" d="M424.79,490.193a20.115,20.115,0,0,1,8.568,1.757,19,19,0,0,1,6.359,4.7,20.341,20.341,0,0,1,3.929,6.795,24.281,24.281,0,0,1,1.346,8.054,24.6,24.6,0,0,1-1.346,8.092,20.248,20.248,0,0,1-3.929,6.833,18.978,18.978,0,0,1-6.359,4.7,20.115,20.115,0,0,1-8.568,1.756,19.846,19.846,0,0,1-8.53-1.756,19.052,19.052,0,0,1-6.322-4.7,20.754,20.754,0,0,1-3.966-6.833,23.95,23.95,0,0,1-1.384-8.092,23.638,23.638,0,0,1,1.384-8.054,20.857,20.857,0,0,1,3.966-6.795,19.071,19.071,0,0,1,6.322-4.7A19.846,19.846,0,0,1,424.79,490.193Zm4.19,39.4a5.309,5.309,0,0,0,3.554-1.566,10.077,10.077,0,0,0,2.17-3.4,16.77,16.77,0,0,0,1.048-4.276,18.268,18.268,0,0,0,.037-4.2,43.521,43.521,0,0,0-1.8-9.429,28.589,28.589,0,0,0-3.33-7.214,15.088,15.088,0,0,0-4.489-4.544,9.45,9.45,0,0,0-5.35-1.488,6.091,6.091,0,0,0-3.929,1.717,10.024,10.024,0,0,0-2.244,3.666,15.836,15.836,0,0,0-.9,4.7,31.415,31.415,0,0,0,.113,4.657,42.035,42.035,0,0,0,1.721,8.818,24.282,24.282,0,0,0,3.256,6.795,14.961,14.961,0,0,0,4.564,4.314A10.206,10.206,0,0,0,428.981,529.589Z" transform="translate(-167.347 -478.436)"/></g><g transform="translate(33.037 17.005)"><path class="a" d="M167.05,114.734c.043.043.1.064.14.107.311.29.633.548.955.827.386.311.773.612,1.17.9l5.357-11.938H156.315C159.836,108.067,163.4,111.449,167.05,114.734Z" transform="translate(-142.182 -38.524)"/><path class="a" d="M180.54,104.632l-6.8,15.19c.5.225,1.02.419,1.546.612a39.452,39.452,0,0,0,15.405,2.04,37.558,37.558,0,0,0,11.132-2.19c.569-.215,1.138-.44,1.7-.676l-6.709-14.976Z" transform="translate(-140.901 -38.524)"/><path class="a" d="M207.24,116.516c.215-.14.429-.279.644-.429A43.23,43.23,0,0,0,214,111.041c.193-.183.387-.365.569-.558,1.911-1.965,3.843-3.908,5.776-5.851H201.9Z" transform="translate(-138.83 -38.524)"/><path class="a" d="M169.242,62.252h-2.984c-.548.537-1.084,1.084-1.621,1.621-.7.687-1.4,1.385-2.083,2.083-.4.386-.784.773-1.17,1.149-.225.215-.44.429-.644.655-.354.344-.7.7-1.031,1.052l-1.567,1.546-5.1,5.443-.129.118c-2.791,3.092-5.937,5.711-8.277,8.867a8.668,8.668,0,0,0-1.481,5.046,9.328,9.328,0,0,0,3.027,6.881l4.906,4.906h18.153Z" transform="translate(-143.15 -41.64)"/><path class="a" d="M185.533,51.254h6.624v6.269H207c-.483-.472-.955-.945-1.449-1.439-.816-.837-1.653-1.653-2.512-2.491-2.211-2.276-4.487-4.487-6.71-6.72-2.566-2.555-5.089-3.822-7.633-3.822-2.512,0-5.046,1.245-7.558,3.747-.73.73-1.481,1.46-2.2,2.2L175.5,52.445c-1.707,1.685-3.425,3.382-5.121,5.078h15.158Z" transform="translate(-141.149 -43.052)"/><path class="a" d="M173.175,101.618h30.671V62.252H173.175Zm5.782-33.4h19.557V95.237H178.957Z" transform="translate(-140.943 -41.64)"/><path class="a" d="M232.231,84.528c-2.276-2.716-5.067-5.411-7.74-8.2h-.011l-3.221-3.231-2.491-2.437.021-.021-3.382-3.382-2.34-2.372-2.63-2.63h-2.974v39.366h18.561c.59-.59,1.181-1.192,1.76-1.793.934-.955,1.847-1.9,2.77-2.856a11.041,11.041,0,0,0,1.836-2.512,1.468,1.468,0,0,0,.2-.365,9.136,9.136,0,0,0,.59-1.224,5.685,5.685,0,0,0,.236-.644,8.827,8.827,0,0,0,.333-1.32,3.435,3.435,0,0,0,.086-.655A7.4,7.4,0,0,0,232.231,84.528Z" transform="translate(-138.422 -41.64)"/><rect class="a" width="7.358" height="14.742" transform="translate(44.075 32.714)"/></g></g></svg>