<svg xmlns="http://www.w3.org/2000/svg" width="46.117" height="46.116" viewBox="0 0 46.117 46.116"><defs><style>.a{fill:#4b58aa;}</style></defs><g transform="translate(-64.319 -26.713)"><path class="a" d="M74.131,60.081a2.451,2.451,0,0,1-1.526-.572c-.127-.107-.245-.21-.365-.32-.268-.244-.538-.508-.812-.777L69.4,56.38l0,0L66.7,53.66c-.126-.123-.26-.26-.4-.4l-.111-.118c-.237-.227-.5-.492-.762-.758L64.9,51.85A3.145,3.145,0,0,1,63.857,49.7l0-.066,0-.065A3.157,3.157,0,0,1,64.946,47.4l1.319-1.32q.673-.679,1.354-1.352l.234-.232c.195-.2.4-.4.6-.6l.841-.836c.07-.073.15-.148.231-.223l.268-.275L70.9,41.528a21.716,21.716,0,0,1,1.812-1.681,2.8,2.8,0,0,1,1.651-.52,2.839,2.839,0,0,1,2.068.931l1.019,1.023c.878.885,2.026,2.057,3.121,3.274l.087.112h0a7.609,7.609,0,0,1,1.677,5.558,8.071,8.071,0,0,1-.751,3.05l-.055.119a8.86,8.86,0,0,1-1.477,2.138l-.381.4-.306.3c-.276.271-.552.541-.834.809l-.192.189c-.649.642-1.3,1.283-1.957,1.917a3.161,3.161,0,0,1-.644.479l-.127.072a2.923,2.923,0,0,1-.357.171c-.073.029-.141.052-.209.073a2.358,2.358,0,0,1-.355.088,1.546,1.546,0,0,1-.278.036A1.833,1.833,0,0,1,74.131,60.081Zm-2.9-4.695,1.593,1.6c.257.252.509.5.763.731.1.094.2.18.3.265a.441.441,0,0,0,.338.093l.238-.051a.984.984,0,0,0,.164-.073l.095-.055a1.179,1.179,0,0,0,.266-.192c.654-.629,1.3-1.263,1.939-1.9l.205-.2c.289-.275.558-.538.827-.8l.6-.6a6.869,6.869,0,0,0,1.166-1.674,6.332,6.332,0,0,0,.611-2.441A5.609,5.609,0,0,0,79.082,45.9l-.034-.042C78,44.69,76.935,43.6,76.03,42.691l-1.05-1.055a.867.867,0,0,0-.667-.309.691.691,0,0,0-.4.118,20.294,20.294,0,0,0-1.608,1.51l-.089.081-1.291,1.233c-.092.086-.151.142-.209.2l-.856.853c-.2.2-.4.388-.587.583l-.232.23c-.461.457-.908.9-1.354,1.352L66.3,48.867a1.22,1.22,0,0,0-.442.773,1.177,1.177,0,0,0,.4.743l.6.6c.254.256.509.513.766.765l.113.12c.128.127.252.254.378.376l3.132,3.14Z" transform="translate(0.466)"/><path class="a" d="M100.605,60.146a2.549,2.549,0,0,1-.338-.025,1.523,1.523,0,0,1-.216-.035,2.182,2.182,0,0,1-.359-.1,1.638,1.638,0,0,1-.166-.059,2.857,2.857,0,0,1-.311-.146L99.07,59.7a3.2,3.2,0,0,1-.675-.5c-.652-.631-1.295-1.273-1.936-1.915l-1.326-1.314a1.352,1.352,0,0,1-.121-.122l-.233-.249a8.864,8.864,0,0,1-1.487-2.159l-.065-.141a8.145,8.145,0,0,1-.734-3.107,7.535,7.535,0,0,1,1.746-5.542l.082-.093c.991-1.1,2.079-2.2,3.1-3.223l1.057-1.052a2.827,2.827,0,0,1,2.057-.889,2.764,2.764,0,0,1,1.556.471,10.373,10.373,0,0,1,1.22,1.1c.2.2.406.412.623.608l.09.081,1.35,1.3c.069.064.14.133.209.2l.113.114c.06.056.137.135.213.213l1.342,1.346c.44.439.89.893,1.338,1.349l1.309,1.318-.652.763.662-.75a3.161,3.161,0,0,1,1.057,2.181l0,.062-.005.064a3.194,3.194,0,0,1-1.1,2.187l-.447.449c-.276.276-.552.553-.832.823l-.1.108c-.129.131-.257.261-.387.386l-2.651,2.646,0,0-2.067,2.053c-.283.274-.562.545-.842.8-.121.109-.238.211-.357.31A2.46,2.46,0,0,1,100.605,60.146Zm-.462-2.133.01.005a.905.905,0,0,0,.117.057l.244.065a.469.469,0,0,0,.381-.1c.1-.08.2-.168.3-.259.26-.236.522-.49.788-.747l3.662-3.663.008.017,1.043-1.044c.127-.123.245-.243.362-.361l.154-.157c.258-.248.525-.516.792-.783l.509-.507a1.258,1.258,0,0,0,.452-.794,1.145,1.145,0,0,0-.378-.729l-.473-.472-.948-.955q-.669-.682-1.337-1.348L104.4,44.8c.014.025-.046-.04-.1-.094l-1.646-1.594c-.307-.276-.537-.508-.764-.738a8.847,8.847,0,0,0-.96-.884.686.686,0,0,0-.371-.1.859.859,0,0,0-.637.273l-1.088,1.085c-1,1-2.068,2.08-3.065,3.185a5.582,5.582,0,0,0-1.282,4.122,6.3,6.3,0,0,0,.563,2.418l.046.1a6.853,6.853,0,0,0,1.152,1.667l1.625,1.627c.634.634,1.268,1.268,1.914,1.893a1.188,1.188,0,0,0,.267.195Z" transform="translate(-0.534)"/><path class="a" d="M87.245,73.269l-.066,0A3.168,3.168,0,0,1,85,72.177l-1.32-1.321Q83,70.182,82.333,69.5l-.233-.235c-.2-.194-.4-.4-.6-.6l-.835-.838c-.077-.076-.152-.154-.227-.236l-.27-.262L79.131,66.22a21.631,21.631,0,0,1-1.678-1.81,2.712,2.712,0,0,1-.519-1.651,2.832,2.832,0,0,1,.929-2.065l1.025-1.021c.947-.94,2.076-2.044,3.275-3.121l.075-.062a7.566,7.566,0,0,1,5.594-1.7,8.069,8.069,0,0,1,3.05.75l.132.062a8.835,8.835,0,0,1,2.163,1.506l.65.645c.273.278.545.557.815.842l.22.222c.632.639,1.263,1.277,1.887,1.927a3.124,3.124,0,0,1,.477.641l.076.133a2.964,2.964,0,0,1,.169.355c.026.062.048.13.069.2a2.35,2.35,0,0,1,.1.4,1.1,1.1,0,0,1,.03.227,2.39,2.39,0,0,1-.551,1.816c-.107.127-.209.244-.317.363-.24.263-.5.524-.755.789l-2.151,2.145,0,0-2.629,2.609c-.116.118-.246.245-.378.375l-.078.077c-.283.286-.542.543-.8.8l-.551.549a3.145,3.145,0,0,1-2.146,1.04ZM82.38,66.714l.547.548c.2.2.39.4.584.59l.233.234c.454.459.9.906,1.35,1.352l1.38,1.384a1.227,1.227,0,0,0,.773.441,1.174,1.174,0,0,0,.744-.4l.611-.611c.251-.249.5-.5.748-.75l.14-.135c.122-.12.243-.238.358-.356l3.138-3.132.006.006,1.126-1.11c.072-.076.163-.169.256-.262l.24-.246c.243-.249.483-.493.708-.74.091-.1.178-.2.264-.3a.441.441,0,0,0,.092-.338l-.047-.227a.959.959,0,0,0-.073-.167l-.059-.1a1.133,1.133,0,0,0-.191-.264c-.619-.645-1.243-1.275-1.867-1.907l-.236-.238c-.277-.291-.542-.563-.807-.834l-.542-.542a7.021,7.021,0,0,0-1.728-1.215,6.323,6.323,0,0,0-2.44-.611,5.6,5.6,0,0,0-4.131,1.211l-.1.08c-1.148,1.035-2.243,2.1-3.163,3.018l-1.055,1.049a.881.881,0,0,0-.309.65.7.7,0,0,0,.118.421,20.3,20.3,0,0,0,1.51,1.608l.088.1L81.874,66.2c.093.1.149.157.207.215Z" transform="translate(0 -0.44)"/><path class="a" d="M87.087,44.664a7.57,7.57,0,0,1-4.827-1.781c-1.12-1.006-2.129-1.995-3.316-3.182l-1.053-1.058A2.824,2.824,0,0,1,77,36.584a2.645,2.645,0,0,1,.471-1.555,10.662,10.662,0,0,1,1.107-1.222c.2-.2.41-.4.607-.621l.079-.089,1.3-1.351c.044-.049.121-.13.2-.209l.113-.113c.046-.049.115-.116.183-.182l1.377-1.372c.438-.44.892-.89,1.35-1.338l1.354-1.346a3.152,3.152,0,0,1,2.158-1.029l.062,0,.062,0a3.186,3.186,0,0,1,2.188,1.1l.459.456c.272.272.544.543.811.819l.156.152c.115.115.231.229.341.344l2.7,2.7,0,0,1.988,2c.279.287.555.572.812.857.106.117.207.235.306.352a2.463,2.463,0,0,1,.543,1.911,1.18,1.18,0,0,1-.04.23,1.9,1.9,0,0,1-.091.345,1.627,1.627,0,0,1-.059.167,2.878,2.878,0,0,1-.144.306l-.086.151a3.122,3.122,0,0,1-.5.675c-.62.641-1.253,1.275-1.886,1.907-1.359,1.376-1.768,1.755-1.768,1.755a8.557,8.557,0,0,1-2.1,1.44l-.152.07a8.129,8.129,0,0,1-3.1.729A7.116,7.116,0,0,1,87.087,44.664Zm-4.62-11.992-.3.295c-.071.069-.124.125-.177.183l-.342.332-.928.987c-.276.3-.507.534-.735.76a8.991,8.991,0,0,0-.887.963.664.664,0,0,0-.1.369.859.859,0,0,0,.274.64l1.083,1.087c1.164,1.165,2.152,2.132,3.185,3.065a5.567,5.567,0,0,0,4.122,1.282,6.311,6.311,0,0,0,2.418-.563,6.985,6.985,0,0,0,1.768-1.2l1.654-1.653c.624-.625,1.25-1.251,1.865-1.886a1.149,1.149,0,0,0,.194-.265l.06-.1a.877.877,0,0,0,.057-.115l.066-.255a.484.484,0,0,0-.1-.371c-.076-.09-.164-.191-.256-.293-.241-.268-.5-.535-.762-.8l-4.675-4.7c-.111-.116-.214-.218-.317-.319l-.212-.21c-.235-.242-.5-.506-.763-.769l-.518-.52a1.244,1.244,0,0,0-.794-.452,1.139,1.139,0,0,0-.729.377l-.472.472-.954.948q-.684.671-1.348,1.338Z" transform="translate(0 0.56)"/></g></svg>