<svg xmlns="http://www.w3.org/2000/svg" width="17.592" height="15.72" viewBox="0 0 17.592 15.72"><defs><style>.a{fill:#4b58aa;stroke:#4b58aa;stroke-width:2px;}</style></defs><g transform="translate(1.001 1)"><path class="a" d="M-184.429,370.259l.077.077c.31.309.621.617.935.924.575.561,1.157,1.113,1.753,1.65.007.007.016.011.023.018.051.047.1.089.156.135s.126.1.191.147a4.625,4.625,0,0,0,.933.531c.082.037.167.068.252.1a6.445,6.445,0,0,0,2.516.333,6.13,6.13,0,0,0,1.818-.358c.093-.035.186-.072.277-.11s.179-.079.268-.121a5.527,5.527,0,0,0,.677-.384c.035-.023.07-.046.105-.07a7.058,7.058,0,0,0,1-.824c.032-.03.063-.06.093-.091.312-.321,2.13-2.151,2.225-2.249.153-.156.3-.31.452-.466a1.8,1.8,0,0,0,.3-.41.234.234,0,0,0,.033-.06,1.457,1.457,0,0,0,.1-.2.86.86,0,0,0,.039-.105,1.427,1.427,0,0,0,.054-.216.563.563,0,0,0,.014-.107,1.211,1.211,0,0,0-.263-.934c-.372-.444-.828-.884-1.264-1.34h0l-.526-.528-.407-.4,0,0-.552-.552-.382-.387-.43-.43-.4-.4-.081-.079-.291-.288c-.03-.03-.06-.061-.091-.091-.046-.047-.093-.093-.139-.14l-.237-.235c-.133-.137-.27-.27-.41-.407-.361-.372-.733-.733-1.1-1.1a1.8,1.8,0,0,0-1.247-.624,1.782,1.782,0,0,0-1.234.612c-.119.119-.242.238-.359.359l-.563.563c-.279.275-.559.552-.836.829l-.7.707c-.1.1-.2.2-.295.3s-.177.177-.265.265c-.114.112-.228.226-.34.34l-.191.188c-.037.035-.072.07-.105.107-.058.056-.114.114-.168.172l-.256.252-.833.889-.021.019c-.456.5-.97.933-1.352,1.448a1.414,1.414,0,0,0-.242.824,1.525,1.525,0,0,0,.494,1.124Z" transform="translate(185.726 -360.463)"/></g></svg>