<svg xmlns="http://www.w3.org/2000/svg" width="141.5" height="44.005" viewBox="0 0 141.5 44.005">
  <g id="Component_43_6" data-name="Component 43 – 6" transform="translate(0.75 0.75)">
    <g id="Group_4928" data-name="Group 4928">
      <g id="Group_4696" data-name="Group 4696">
        <rect id="Rectangle_21886" data-name="Rectangle 21886" width="140" height="42.505" rx="5" fill="none" stroke="#4b58aa" stroke-width="1"/>
      </g>
    </g>
    <path id="instagram-brands" d="M13.377,38.376a6.895,6.895,0,1,0,6.895,6.895A6.884,6.884,0,0,0,13.377,38.376Zm0,11.377a4.483,4.483,0,1,1,4.483-4.483A4.491,4.491,0,0,1,13.377,49.754Zm8.785-11.659a1.608,1.608,0,1,1-1.608-1.608A1.6,1.6,0,0,1,22.162,38.094Zm4.567,1.632a7.959,7.959,0,0,0-2.172-5.635,8.011,8.011,0,0,0-5.635-2.172c-2.22-.126-8.875-.126-11.1,0a8,8,0,0,0-5.635,2.166A7.985,7.985,0,0,0,.02,39.72c-.126,2.22-.126,8.875,0,11.1a7.959,7.959,0,0,0,2.172,5.635,8.021,8.021,0,0,0,5.635,2.172c2.22.126,8.875.126,11.1,0a7.959,7.959,0,0,0,5.635-2.172,8.011,8.011,0,0,0,2.172-5.635C26.855,48.6,26.855,41.947,26.729,39.726ZM23.86,53.2A4.538,4.538,0,0,1,21.3,55.754c-1.77.7-5.971.54-7.927.54s-6.163.156-7.927-.54A4.538,4.538,0,0,1,2.894,53.2c-.7-1.77-.54-5.971-.54-7.927s-.156-6.163.54-7.927A4.538,4.538,0,0,1,5.45,34.788c1.77-.7,5.971-.54,7.927-.54s6.163-.156,7.927.54a4.538,4.538,0,0,1,2.556,2.556c.7,1.77.54,5.971.54,7.927S24.563,51.434,23.86,53.2Z" transform="translate(56.623 -24.827)" fill="#4b58aa"/>
  </g>
</svg>
