<svg xmlns="http://www.w3.org/2000/svg" width="18.512" height="20.75" viewBox="0 0 18.512 20.75"><defs><style>.a{fill:#4b58aa;}</style></defs><path class="a" d="M100.605,60.146a2.549,2.549,0,0,1-.338-.025,1.523,1.523,0,0,1-.216-.035,2.182,2.182,0,0,1-.359-.1,1.638,1.638,0,0,1-.166-.059,2.857,2.857,0,0,1-.311-.146L99.07,59.7a3.2,3.2,0,0,1-.675-.5c-.652-.631-1.295-1.273-1.936-1.915l-1.326-1.314a1.352,1.352,0,0,1-.121-.122l-.233-.249a8.864,8.864,0,0,1-1.487-2.159l-.065-.141a8.145,8.145,0,0,1-.734-3.107,7.535,7.535,0,0,1,1.746-5.542l.082-.093c.991-1.1,2.079-2.2,3.1-3.223l1.057-1.052a2.827,2.827,0,0,1,2.057-.889,2.764,2.764,0,0,1,1.556.471,10.373,10.373,0,0,1,1.22,1.1c.2.2.406.412.623.608l.09.081,1.35,1.3c.069.064.14.133.209.2l.113.114c.06.056.137.135.213.213l1.342,1.346c.44.439.89.893,1.338,1.349l1.309,1.318-.652.763.662-.75a3.161,3.161,0,0,1,1.057,2.181l0,.062-.005.064a3.194,3.194,0,0,1-1.1,2.187l-.447.449c-.276.276-.552.553-.832.823l-.1.108c-.129.131-.257.261-.387.386l-2.651,2.646,0,0-2.067,2.053c-.283.274-.562.545-.842.8-.121.109-.238.211-.357.31A2.46,2.46,0,0,1,100.605,60.146Zm-.462-2.133.01.005a.905.905,0,0,0,.117.057l.244.065a.469.469,0,0,0,.381-.1c.1-.08.2-.168.3-.259.26-.236.522-.49.788-.747l3.662-3.663.008.017,1.043-1.044c.127-.123.245-.243.362-.361l.154-.157c.258-.248.525-.516.792-.783l.509-.507a1.258,1.258,0,0,0,.452-.794,1.145,1.145,0,0,0-.378-.729l-.473-.472-.948-.955q-.669-.682-1.337-1.348L104.4,44.8c.014.025-.046-.04-.1-.094l-1.646-1.594c-.307-.276-.537-.508-.764-.738a8.847,8.847,0,0,0-.96-.884.686.686,0,0,0-.371-.1.859.859,0,0,0-.637.273l-1.088,1.085c-1,1-2.068,2.08-3.065,3.185a5.582,5.582,0,0,0-1.282,4.122,6.3,6.3,0,0,0,.563,2.418l.046.1a6.853,6.853,0,0,0,1.152,1.667l1.625,1.627c.634.634,1.268,1.268,1.914,1.893a1.188,1.188,0,0,0,.267.195Z" transform="translate(-92.458 -39.396)"/></svg>