<svg xmlns="http://www.w3.org/2000/svg" width="27.61" height="24.296" viewBox="0 0 27.61 24.296"><defs><style>.a{fill:none;}.b,.c{stroke:none;}.c{fill:#f2f2f2;}</style></defs><g transform="translate(671.074 282.993) rotate(180)"><g class="a" transform="translate(671.074 282.993) rotate(180)"><path class="b" d="M27.6,14.06a1.017,1.017,0,0,1-.026.187,2.349,2.349,0,0,1-.1.383c-.02.064-.041.126-.067.187a3,3,0,0,1-.17.354.53.53,0,0,1-.061.105,3.218,3.218,0,0,1-.529.726c-.266.275-.532.55-.8.825-.749.77-1.51,1.533-2.27,2.294-.559.562-1.118,1.123-1.671,1.691-.053.056-.108.108-.164.161a12.5,12.5,0,0,1-1.77,1.46,10.487,10.487,0,0,1-1.384.8c-.316.152-.638.287-.966.41a10.877,10.877,0,0,1-3.221.632,11.376,11.376,0,0,1-4.456-.588A8.241,8.241,0,0,1,7.508,22.31c-.093-.079-.184-.155-.275-.237-.012-.012-.029-.02-.041-.032-1.056-.951-2.086-1.928-3.1-2.92q-.834-.816-1.656-1.638L.879,15.93A2.708,2.708,0,0,1,0,13.938a2.488,2.488,0,0,1,.43-1.457c.676-.916,1.586-1.67,2.393-2.566l.038-.035,0-.006a.019.019,0,0,0,.006-.009l.009.006.012.012A.1.1,0,0,0,2.9,9.9l0-.006a.094.094,0,0,0,.029-.029l.012-.012a.193.193,0,0,1-.024-.029l-.015.015c0-.006,0-.006,0-.009l.02-.026,1.413-1.5.453-.448c.1-.1.193-.2.3-.3.061-.064.123-.126.187-.187.111-.111.225-.222.339-.333.2-.2.4-.4.6-.6q.492-.5.989-.992c.415-.418.831-.834,1.249-1.252q.737-.737,1.48-1.469l1-1c.208-.214.424-.424.635-.635A3.154,3.154,0,0,1,13.751,0,3.191,3.191,0,0,1,15.96,1.106c.644.646,1.3,1.287,1.94,1.943.249.243.491.48.729.722.14.14.278.278.418.415s.272.272.407.409l.658.65.123.123,1.354,1.355a.059.059,0,0,1-.017.015l.026.026.655.652.012-.009.98.98-.006.006.72.705.93.933h0c.772.808,1.58,1.586,2.238,2.373A2.137,2.137,0,0,1,27.6,14.06Z"/><path class="c" d="M 13.68246555328369 22.79627799987793 C 13.89293575286865 22.79627799987793 14.11099529266357 22.79104804992676 14.33240509033203 22.78065872192383 C 15.29717540740967 22.73653411865234 16.22931098937988 22.55457878112793 17.10324668884277 22.23978042602539 C 17.40810203552246 22.12509346008301 17.68083000183105 22.0094165802002 17.93266487121582 21.88821792602539 C 18.35155487060547 21.68501853942871 18.7507152557373 21.45307922363281 19.11905479431152 21.19883918762207 L 19.1319751739502 21.19002914428711 C 19.66041564941406 20.83335876464844 20.18419456481934 20.40077781677246 20.68875503540039 19.9043083190918 L 20.70827484130859 19.88543891906738 C 20.7508659362793 19.8449878692627 20.79108619689941 19.80677795410156 20.81713485717773 19.77934837341309 L 20.83040618896484 19.76555824279785 C 21.39117622375488 19.19002914428711 21.96100616455078 18.61733818054199 22.51454544067383 18.06103897094727 C 23.20009613037109 17.37525939941406 23.99633598327637 16.57698822021484 24.77415466308594 15.77790832519531 C 25.01911544799805 15.52790832519531 25.26146507263184 15.27760887145996 25.50384521484375 15.02727890014648 L 25.57851600646973 14.95024871826172 C 25.67874526977539 14.84847831726074 25.77725601196289 14.71202850341797 25.85588455200195 14.56601810455322 L 25.90405464172363 14.4765682220459 L 25.92340469360352 14.44959831237793 C 25.96484565734863 14.37417888641357 25.99304580688477 14.31681823730469 26.00960540771484 14.27424812316895 L 26.02748870849609 14.23033237457275 C 26.02957534790039 14.22472953796387 26.03449440002441 14.21060657501221 26.04571533203125 14.17539882659912 L 26.05262565612793 14.15424823760986 C 26.07760620117188 14.07969856262207 26.08574485778809 14.03905868530273 26.09005546569824 14.01198863983154 L 26.10352516174316 13.92986869812012 C 26.13646507263184 13.55201816558838 26.04638481140137 13.44605827331543 25.98678588867188 13.37593841552734 L 25.97898483276367 13.36668872833252 C 25.54889488220215 12.85236835479736 25.03668594360352 12.32925891876221 24.49440574645996 11.77542877197266 C 24.29896926879883 11.57582855224609 24.09774398803711 11.37031936645508 23.89772987365723 11.16233825683594 L 22.90230751037598 10.1636209487915 L 22.05896186828613 9.337348937988281 L 22.05728530883789 9.338448524475098 L 21.88573837280273 9.167631149291992 L 21.10660552978516 8.404268264770508 L 21.11284637451172 8.398027420043945 L 20.51002502441406 7.797628402709961 L 18.99898529052734 6.284868717193604 L 19.01945495605469 6.275292873382568 L 18.38307571411133 5.647018432617188 C 18.32259559631348 5.58543872833252 18.26151466369629 5.524388313293457 18.2004451751709 5.463318347930908 C 18.12841987609863 5.391294002532959 18.05641174316406 5.319239616394043 17.98517036437988 5.24653434753418 C 17.84774398803711 5.111640453338623 17.71276092529297 4.976736068725586 17.57529449462891 4.83931827545166 L 17.55530548095703 4.819188594818115 C 17.33168601989746 4.590268611907959 17.10029602050781 4.364418506622314 16.8519344329834 4.122018337249756 L 16.82455444335938 4.094588279724121 C 16.427734375 3.68673849105835 16.0117244720459 3.273668527603149 15.60941505432129 2.874208450317383 C 15.3721752166748 2.638631343841553 15.13518619537354 2.403316020965576 14.90009212493896 2.167256593704224 C 14.59177398681641 1.861989259719849 14.14345169067383 1.499998450279236 13.75142574310303 1.499998450279236 C 13.35788536071777 1.499998450279236 12.9214448928833 1.852448463439941 12.6259651184082 2.146778583526611 C 12.5579948425293 2.214658498764038 12.4894552230835 2.282568454742432 12.42080497741699 2.35058856010437 C 12.27579498291016 2.494248390197754 12.13883495330811 2.629948377609253 12.00641536712646 2.766108512878418 L 11.99179553985596 2.780928611755371 L 10.98776531219482 3.784968614578247 C 10.53105545043945 4.236168384552002 10.01341533660889 4.747578620910645 9.513814926147461 5.247208595275879 C 9.096505165100098 5.664458274841309 8.682314872741699 6.078648567199707 8.268125534057617 6.495638370513916 L 8.264575004577637 6.499198436737061 C 7.935395240783691 6.828398704528809 7.606545448303223 7.157578468322754 7.280145168304443 7.486738681793213 L 7.267595291137695 7.499228477478027 C 7.070945262908936 7.692918300628662 6.873665332794189 7.890208721160889 6.68124532699585 8.085628509521484 L 6.636095523834229 8.130078315734863 C 6.53453540802002 8.22908878326416 6.432875156402588 8.32813835144043 6.333815097808838 8.42720890045166 L 6.309835433959961 8.450668334960938 C 6.261885166168213 8.496518135070801 6.215995311737061 8.54240894317627 6.16954517364502 8.590948104858398 L 6.130155086517334 8.630598068237305 C 6.051285266876221 8.707098960876465 5.969155311584473 8.794288635253906 5.88221549987793 8.886598587036133 L 5.844305515289307 8.925418853759766 L 5.409844875335693 9.3544921875 L 5.017276287078857 9.770606994628906 L 5.082585334777832 9.833738327026367 L 4.726206302642822 10.19102478027344 L 4.730535507202148 10.19917869567871 L 4.578975677490234 10.33863067626953 L 4.123907089233398 10.7948579788208 L 3.277925252914429 12.3916187286377 L 2.88728141784668 12.00295829772949 C 2.420151472091675 12.46761417388916 1.980518341064453 12.90851879119873 1.641706347465515 13.36641979217529 C 1.583986878395081 13.44668579101562 1.507873892784119 13.59648418426514 1.501005291938782 13.96546840667725 L 1.500415325164795 13.98789882659912 C 1.488714814186096 14.33635520935059 1.733482599258423 14.66036033630371 1.942112684249878 14.87168502807617 L 3.49059534072876 16.41983795166016 C 4.075125217437744 17.00147819519043 4.602545261383057 17.52558898925781 5.134965419769287 18.04705810546875 C 6.243625640869141 19.12703704833984 7.231612682342529 20.05693435668945 8.153695106506348 20.88826370239258 C 8.18193531036377 20.91048812866211 8.213130950927734 20.93657112121582 8.24616813659668 20.96694183349609 C 8.307071685791016 21.02145195007324 8.374377250671387 21.07841491699219 8.445425033569336 21.13855934143066 L 8.466900825500488 21.15674209594727 C 9.067934989929199 21.64660453796387 9.718368530273438 22.01423263549805 10.45948505401611 22.28206825256348 C 11.40720558166504 22.62807846069336 12.46145534515381 22.79627799987793 13.68246555328369 22.79627799987793 M 13.68246364593506 24.29627418518066 C 12.3768310546875 24.29627418518066 11.11811351776123 24.11938285827637 9.94505500793457 23.69109916687012 C 9.079145431518555 23.3781681060791 8.262895584106445 22.92763900756836 7.508155345916748 22.31042861938477 C 7.414705276489258 22.23124885559082 7.324055194854736 22.15514755249023 7.23338508605957 22.07350921630859 C 7.221585273742676 22.06175804138184 7.203895092010498 22.05304908752441 7.19242525100708 22.04119873046875 C 6.136175155639648 21.09028816223145 5.106335163116455 20.11322784423828 4.088295459747314 19.12151908874512 C 3.532565355300903 18.57723808288574 2.98239541053772 18.03022766113281 2.432575225830078 17.48313903808594 L 0.8789352774620056 15.92982864379883 C 0.2763453125953674 15.32130813598633 -0.02202469483017921 14.63082885742188 0.001265305443666875 13.93753814697266 C 0.01025530509650707 13.45473861694336 0.1009053066372871 12.93406867980957 0.4312652945518494 12.48048877716064 C 1.107145309448242 11.56485843658447 2.017155408859253 10.8101282119751 2.82437539100647 9.914718627929688 L 2.862555265426636 9.87958812713623 L 2.859465360641479 9.87376880645752 C 2.862555265426636 9.870918273925781 2.862555265426636 9.870918273925781 2.865345239639282 9.865038871765137 L 2.8740553855896 9.870918273925781 L 2.885865211486816 9.882748603820801 C 2.891735315322876 9.891378402709961 2.894535303115845 9.894238471984863 2.900435209274292 9.900108337402344 L 2.903545379638672 9.894238471984863 C 2.915045261383057 9.885528564453125 2.924035310745239 9.87958812713623 2.932735204696655 9.865038871765137 L 2.944525241851807 9.853218078613281 C 2.935525417327881 9.844518661499023 2.926835298538208 9.832728385925293 2.920955419540405 9.824018478393555 L 2.906345367431641 9.838608741760254 C 2.906345367431641 9.832728385925293 2.906345367431641 9.832728385925293 2.903545379638672 9.829938888549805 L 2.924035310745239 9.80353832244873 L 4.336995124816895 8.305828094482422 L 4.790285110473633 7.858158588409424 C 4.886835098266602 7.755648612976074 4.983375072479248 7.653218269348145 5.085855484008789 7.553828716278076 C 5.14732551574707 7.489598274230957 5.208805084228516 7.428098678588867 5.273055076599121 7.36664867401123 C 5.384215354919434 7.255468368530273 5.498475074768066 7.144288539886475 5.612415313720703 7.033198356628418 C 5.811435222625732 6.83107852935791 6.013225078582764 6.629298686981201 6.21504545211792 6.43052864074707 C 6.542915344238281 6.099898338317871 6.87323522567749 5.769228458404541 7.203895092010498 5.438558578491211 C 7.619295120239258 5.02034854888916 8.034695625305176 4.6049485206604 8.453235626220703 4.186468601226807 C 8.944705009460449 3.694968461990356 9.43897533416748 3.206518411636353 9.933555603027344 2.717898607254028 L 10.9311056137085 1.720298528671265 C 11.13882541656494 1.506718516349792 11.35522556304932 1.295908451080322 11.56603527069092 1.085388541221619 C 12.29439544677734 0.3598684966564178 13.02585506439209 -1.50390621911356e-06 13.75142574310303 -1.50390621911356e-06 C 14.48851490020752 -1.50390621911356e-06 15.21686553955078 0.3685185015201569 15.96011543273926 1.105948448181152 C 16.60374450683594 1.752288460731506 17.26192474365234 2.393108606338501 17.89965438842773 3.048568487167358 C 18.14834594726562 3.291298389434814 18.3911247253418 3.528208494186401 18.62831497192383 3.771018505096436 C 18.76864624023438 3.911298513412476 18.90620613098145 4.048858642578125 19.04653549194336 4.186468601226807 C 19.18096542358398 4.323958396911621 19.31849479675293 4.458758354187012 19.45324516296387 4.595958709716797 L 20.23439598083496 5.368378639221191 L 21.58868598937988 6.723018646240234 C 21.57999610900879 6.731748580932617 21.57718467712402 6.734808444976807 21.57128524780273 6.737568378448486 L 21.59768486022949 6.763998508453369 L 22.25278472900391 7.416308403015137 C 22.26179504394531 7.410398483276367 22.26179504394531 7.410398483276367 22.26457595825195 7.407578468322754 L 23.24473571777344 8.387458801269531 L 23.23882484436035 8.393368721008301 L 23.95851516723633 9.098488807678223 L 24.89179611206055 10.03175830841064 C 25.66392517089844 10.83934879302979 26.47146606445312 11.61732864379883 27.12967491149902 12.40443897247314 C 27.54509544372559 12.89314842224121 27.650634765625 13.45473861694336 27.59785461425781 14.06014823913574 C 27.5950756072998 14.12165832519531 27.5860652923584 14.18621826171875 27.57146453857422 14.24738883972168 C 27.55099487304688 14.37620830535889 27.51901435852051 14.49918842315674 27.47490501403809 14.63082885742188 C 27.45441436767578 14.69512844085693 27.43392562866211 14.75655841827393 27.40755462646484 14.8180685043335 C 27.3609561920166 14.93785858154297 27.30230522155762 15.05495834350586 27.23801612854004 15.17195892333984 C 27.22033500671387 15.21293830871582 27.1998348236084 15.24524879455566 27.17655563354492 15.27722835540771 C 27.03312492370605 15.54356861114502 26.85178565979004 15.79510879516602 26.64719581604004 16.00282859802246 C 26.38081550598145 16.27790832519531 26.11474609375 16.55298805236816 25.84556579589844 16.82770919799805 C 25.09639549255371 17.59736824035645 24.33574485778809 18.36089897155762 23.57538604736328 19.12151908874512 C 23.01653480529785 19.68316841125488 22.45768547058105 20.24486923217773 21.90474510192871 20.81235885620117 C 21.85196495056152 20.86792755126953 21.7963752746582 20.92071914672852 21.74081611633301 20.9734992980957 C 21.17916488647461 21.52614784240723 20.59115600585938 22.01485824584961 19.97112464904785 22.4333381652832 C 19.52620506286621 22.74042892456055 19.0642261505127 23.00647926330566 18.58735466003418 23.23780822753906 C 18.27128601074219 23.38991928100586 17.94932556152344 23.52437782287598 17.62177467346191 23.6473388671875 C 16.61832618713379 24.00995826721191 15.54749488830566 24.22664833068848 14.40093517303467 24.27908897399902 C 14.16007137298584 24.2903938293457 13.92045116424561 24.29627418518066 13.68246364593506 24.29627418518066 Z"/></g><g class="a" transform="translate(357.84 -547.169)"><path class="b" d="M313.222,819.926a1.013,1.013,0,0,1-.026.187,2.349,2.349,0,0,1-.1.383c-.021.064-.041.126-.067.187a3,3,0,0,1-.17.354.531.531,0,0,1-.061.105,3.217,3.217,0,0,1-.529.726c-.266.275-.532.55-.8.825-.749.77-1.51,1.533-2.27,2.294-.559.562-1.118,1.123-1.671,1.691-.053.056-.108.108-.164.161a12.5,12.5,0,0,1-1.77,1.46,10.485,10.485,0,0,1-1.384.8c-.316.152-.638.287-.966.41a10.883,10.883,0,0,1-3.221.632,11.375,11.375,0,0,1-4.456-.588,8.241,8.241,0,0,1-2.437-1.381c-.093-.079-.184-.155-.275-.237-.012-.012-.029-.021-.041-.032-1.056-.951-2.086-1.928-3.1-2.92q-.834-.816-1.656-1.638L286.5,821.8a2.708,2.708,0,0,1-.878-1.992,2.488,2.488,0,0,1,.43-1.457c.676-.916,1.586-1.67,2.393-2.566l.038-.035,0-.006a.02.02,0,0,0,.006-.009l.009.006.012.012a.1.1,0,0,0,.015.017l0-.006a.094.094,0,0,0,.029-.029l.012-.012a.188.188,0,0,1-.024-.029l-.015.015c0-.006,0-.006,0-.009l.02-.026,1.413-1.5.453-.448c.1-.1.193-.2.3-.3.061-.064.123-.126.187-.187.111-.111.225-.222.339-.333.2-.2.4-.4.6-.6q.492-.5.989-.992c.415-.418.831-.834,1.249-1.252q.737-.737,1.48-1.469l1-1c.208-.214.424-.424.635-.635a3.154,3.154,0,0,1,2.185-1.085,3.191,3.191,0,0,1,2.209,1.106c.644.646,1.3,1.287,1.94,1.943.249.243.491.48.729.722.14.14.278.278.418.415s.272.272.407.409l.658.65.123.123,1.354,1.355a.059.059,0,0,1-.017.015l.026.026.655.652.012-.009.98.98-.006.006.72.705.93.933h0c.772.808,1.58,1.586,2.238,2.373A2.136,2.136,0,0,1,313.222,819.926Z"/><path class="c" d="M 299.306640625 828.662353515625 C 299.5171508789062 828.662353515625 299.7351379394531 828.6571655273438 299.9562072753906 828.6467895507812 C 300.9212341308594 828.6025390625 301.8535766601562 828.4205322265625 302.7275390625 828.1057739257812 C 303.0322265625 827.9910888671875 303.3049011230469 827.8754272460938 303.556640625 827.7542724609375 C 303.9753723144531 827.5511474609375 304.37451171875 827.3192138671875 304.7430114746094 827.0648803710938 L 304.7559814453125 827.0560302734375 C 305.2842102050781 826.6995239257812 305.8080139160156 826.2669677734375 306.3127746582031 825.7703247070312 L 306.33203125 825.751708984375 C 306.3747253417969 825.711181640625 306.4150695800781 825.6728515625 306.4411926269531 825.6453857421875 L 306.4544067382812 825.6316528320312 C 307.0194396972656 825.0517578125 307.5870666503906 824.4812622070312 308.1385192871094 823.9270629882812 C 308.824462890625 823.2409057617188 309.6210632324219 822.4422607421875 310.39794921875 821.6442260742188 C 310.6474914550781 821.3894653320312 310.894287109375 821.134521484375 311.1412048339844 820.8795166015625 L 311.2026977539062 820.8160400390625 C 311.3027648925781 820.7144775390625 311.4012145996094 820.578125 311.4798889160156 820.4320068359375 L 311.5279235839844 820.3428955078125 L 311.5472717285156 820.3158569335938 C 311.5888061523438 820.2402954101562 311.6170349121094 820.182861328125 311.633544921875 820.140380859375 L 311.6515197753906 820.0963134765625 C 311.6535949707031 820.0906372070312 311.6585388183594 820.076416015625 311.669921875 820.0408325195312 L 311.6765747070312 820.0204467773438 C 311.7015686035156 819.9458618164062 311.709716796875 819.9051513671875 311.7140197753906 819.8779907226562 L 311.7274780273438 819.7958984375 C 311.7604370117188 819.4180297851562 311.6703491210938 819.3120727539062 311.6107482910156 819.2420043945312 L 311.60302734375 819.2327880859375 C 311.1728515625 818.7184448242188 310.66064453125 818.1953125 310.1183471679688 817.6414184570312 C 309.9230651855469 817.4420166015625 309.7219848632812 817.2366333007812 309.5221252441406 817.02880859375 L 308.5267333984375 816.0301513671875 L 307.6854553222656 815.2059326171875 L 307.6837158203125 815.20703125 L 307.5086059570312 815.0326538085938 L 306.7305297851562 814.2703857421875 L 306.73681640625 814.2640991210938 L 306.1345825195312 813.664306640625 L 304.6174621582031 812.1471557617188 L 304.63916015625 812.1370849609375 L 304.0075988769531 811.5135498046875 C 303.9473266601562 811.4522094726562 303.886474609375 811.3914184570312 303.8256530761719 811.3306274414062 C 303.7532348632812 811.2582397460938 303.6808471679688 811.185791015625 303.6092224121094 811.1127319335938 C 303.4752502441406 810.981201171875 303.3436279296875 810.849609375 303.2096862792969 810.7157592773438 L 303.1793823242188 810.6853637695312 C 302.954833984375 810.45556640625 302.7225646972656 810.2288208007812 302.4758911132812 809.988037109375 L 302.4485168457031 809.9606323242188 C 302.0519409179688 809.5530395507812 301.6361694335938 809.1401977539062 301.2341003417969 808.740966796875 C 300.9968566894531 808.50537109375 300.7598876953125 808.2700805664062 300.5248107910156 808.0339965820312 C 300.2164611816406 807.7285766601562 299.7677917480469 807.3660888671875 299.3753967285156 807.3660888671875 C 298.9818420410156 807.3660888671875 298.5453796386719 807.718505859375 298.2498779296875 808.0128784179688 C 298.1823425292969 808.0802612304688 298.1142578125 808.1477661132812 298.0460510253906 808.21533203125 C 297.9005737304688 808.3594970703125 297.7631530761719 808.4956665039062 297.6302185058594 808.63232421875 L 297.6157836914062 808.64697265625 L 296.6116638183594 809.6511840820312 C 296.1817932128906 810.0758056640625 295.6467590332031 810.604248046875 295.1377868652344 811.11328125 C 294.7205200195312 811.530517578125 294.3063049316406 811.9447021484375 293.8921508789062 812.3616943359375 L 293.8884582519531 812.3654174804688 C 293.559326171875 812.6944580078125 293.2305603027344 813.0235595703125 292.9043273925781 813.3526611328125 L 292.8912658691406 813.3656616210938 C 292.6973876953125 813.5564575195312 292.5002746582031 813.7536010742188 292.3053588867188 813.9515991210938 L 292.2675476074219 813.9888916015625 C 292.1634521484375 814.09033203125 292.0592041015625 814.19189453125 291.9577026367188 814.2933959960938 L 291.9337463378906 814.3168334960938 C 291.8856506347656 814.36279296875 291.8399353027344 814.4085083007812 291.7939453125 814.4566040039062 L 291.7540283203125 814.4967651367188 C 291.6747131347656 814.5736694335938 291.5928955078125 814.6605834960938 291.5062561035156 814.7525634765625 L 291.46826171875 814.79150390625 L 291.0341491699219 815.2202758789062 L 290.64697265625 815.630615234375 L 290.7127990722656 815.6935424804688 L 290.3502197265625 816.0570068359375 L 290.3541259765625 816.0643310546875 L 290.2155456542969 816.1920166015625 L 289.7498474121094 816.658935546875 L 288.902099609375 818.2725830078125 L 288.5058898925781 817.8743896484375 C 288.0407409667969 818.3370971679688 287.6031188964844 818.7764282226562 287.2655639648438 819.2326049804688 C 287.2078552246094 819.3129272460938 287.1318664550781 819.4628295898438 287.1249694824219 819.83154296875 L 287.1243896484375 819.8539428710938 C 287.1127014160156 820.202392578125 287.3574829101562 820.5264282226562 287.5661010742188 820.7377319335938 L 289.1145935058594 822.285888671875 C 289.5925598144531 822.761474609375 290.1874694824219 823.3533935546875 290.7589721679688 823.9130859375 C 291.8677368164062 824.9932250976562 292.8558349609375 825.9232177734375 293.7779846191406 826.7545776367188 C 293.8062133789062 826.7767944335938 293.83740234375 826.8029174804688 293.8704528808594 826.8333129882812 C 293.9309997558594 826.887451171875 293.9978942871094 826.944091796875 294.0685119628906 827.0038452148438 L 294.0907592773438 827.0226440429688 C 294.6918029785156 827.5125732421875 295.34228515625 827.8802490234375 296.0835266113281 828.1481323242188 C 297.0311889648438 828.494140625 298.0854797363281 828.662353515625 299.306640625 828.662353515625 M 299.306640625 830.162353515625 C 298.0009155273438 830.162353515625 296.7421569824219 829.9854736328125 295.5690307617188 829.55712890625 C 294.703125 829.2442016601562 293.8869018554688 828.793701171875 293.1321411132812 828.1764526367188 C 293.0386962890625 828.0972900390625 292.9480590820312 828.021240234375 292.8573608398438 827.9395751953125 C 292.8455505371094 827.9277954101562 292.827880859375 827.9190673828125 292.81640625 827.9072265625 C 291.7601623535156 826.9563598632812 290.7303466796875 825.9793090820312 289.7122802734375 824.987548828125 C 289.1565551757812 824.4432983398438 288.6063842773438 823.896240234375 288.0565795898438 823.3491821289062 L 286.5029296875 821.7958984375 C 285.9003295898438 821.1873779296875 285.6019592285156 820.4968872070312 285.625244140625 819.8035888671875 C 285.6342468261719 819.32080078125 285.7248840332031 818.8001098632812 286.0552368164062 818.3464965820312 C 286.7311401367188 817.430908203125 287.64111328125 816.6762084960938 288.4483642578125 815.7808227539062 L 288.4865112304688 815.7456665039062 L 288.4834289550781 815.7398681640625 C 288.4865112304688 815.7369384765625 288.4865112304688 815.7369384765625 288.4893188476562 815.7310791015625 L 288.498046875 815.7369384765625 L 288.5098266601562 815.7488403320312 C 288.5157165527344 815.7574462890625 288.5185241699219 815.7603149414062 288.5244140625 815.7662353515625 L 288.5275268554688 815.7603149414062 C 288.5390014648438 815.7515869140625 288.5480041503906 815.7456665039062 288.5567016601562 815.7310791015625 L 288.5685119628906 815.71923828125 C 288.5595092773438 815.7106323242188 288.5508117675781 815.6988525390625 288.544921875 815.6901245117188 L 288.5303344726562 815.7046508789062 C 288.5303344726562 815.6988525390625 288.5303344726562 815.6988525390625 288.5275268554688 815.6959228515625 L 288.5480041503906 815.6696166992188 L 289.9609985351562 814.171875 L 290.4142456054688 813.7242431640625 C 290.5108032226562 813.6217041015625 290.6073608398438 813.519287109375 290.7098388671875 813.419921875 C 290.7713012695312 813.3556518554688 290.832763671875 813.294189453125 290.8970336914062 813.2327270507812 C 291.0081787109375 813.12158203125 291.1224365234375 813.0103759765625 291.2364196777344 812.8992919921875 C 291.4354248046875 812.6971435546875 291.63720703125 812.4953002929688 291.8390502929688 812.296630859375 C 292.1668701171875 811.9659423828125 292.4971923828125 811.63525390625 292.827880859375 811.3046264648438 C 293.2432556152344 810.8864135742188 293.65869140625 810.4710083007812 294.0772094726562 810.0525512695312 C 294.5686645507812 809.56103515625 295.0629272460938 809.0725708007812 295.5575561523438 808.583984375 L 296.5550537109375 807.5863647460938 C 296.7628173828125 807.372802734375 296.9791870117188 807.1619262695312 297.1900024414062 806.951416015625 C 297.9183654785156 806.2259521484375 298.6498413085938 805.8660888671875 299.3753967285156 805.8660888671875 C 300.1124877929688 805.8660888671875 300.8408508300781 806.2345581054688 301.5841064453125 806.9719848632812 C 302.2277221679688 807.6183471679688 302.8859252929688 808.2591552734375 303.5236206054688 808.9146118164062 C 303.7723083496094 809.1573486328125 304.0150756835938 809.394287109375 304.2522888183594 809.6370849609375 C 304.3926391601562 809.77734375 304.5301818847656 809.9149169921875 304.6704711914062 810.0525512695312 C 304.8049621582031 810.1900024414062 304.9424438476562 810.3248291015625 305.0772705078125 810.4619750976562 L 305.8583679199219 811.2344360351562 L 307.2126770019531 812.589111328125 C 307.2039794921875 812.5978393554688 307.201171875 812.6008911132812 307.1952514648438 812.6036376953125 L 307.8767700195312 813.2824096679688 C 307.8857421875 813.2764892578125 307.8857421875 813.2764892578125 307.8885498046875 813.273681640625 L 308.8687133789062 814.2535400390625 L 308.86279296875 814.2594604492188 L 309.5824890136719 814.9645385742188 L 310.5157775878906 815.8978271484375 C 311.2878723144531 816.7053833007812 312.0953979492188 817.4833984375 312.753662109375 818.2705078125 C 313.1690673828125 818.7592163085938 313.2745971679688 819.32080078125 313.2218017578125 819.9262084960938 C 313.2190551757812 819.9877319335938 313.2100524902344 820.05224609375 313.1954345703125 820.1134643554688 C 313.1749572753906 820.2423095703125 313.1430053710938 820.365234375 313.0989074707031 820.4968872070312 C 313.078369140625 820.5612182617188 313.0579223632812 820.6226196289062 313.0315246582031 820.6841430664062 C 312.9849243164062 820.803955078125 312.92626953125 820.9210205078125 312.8619995117188 821.0380249023438 C 312.8442993164062 821.0790405273438 312.8237915039062 821.111328125 312.800537109375 821.143310546875 C 312.6571044921875 821.4096069335938 312.4757690429688 821.6611938476562 312.2711791992188 821.8688354492188 C 312.0047912597656 822.1439819335938 311.7387390136719 822.4190063476562 311.4695434570312 822.69384765625 C 310.7203674316406 823.4634399414062 309.959716796875 824.2269287109375 309.1993408203125 824.987548828125 C 308.6405029296875 825.5491943359375 308.0816955566406 826.1109619140625 307.5287170410156 826.678466796875 C 307.4759521484375 826.7340087890625 307.4203491210938 826.7868041992188 307.3647766113281 826.839599609375 C 306.8031616210938 827.3921508789062 306.2151489257812 827.8809204101562 305.5950927734375 828.2993774414062 C 305.1502075195312 828.6064453125 304.6882019042969 828.87255859375 304.2113037109375 829.1038818359375 C 303.895263671875 829.2559814453125 303.5733032226562 829.3904418945312 303.2457580566406 829.513427734375 C 302.2423095703125 829.8759765625 301.1714477539062 830.0926513671875 300.02490234375 830.1452026367188 C 299.7841491699219 830.156494140625 299.5445556640625 830.162353515625 299.306640625 830.162353515625 Z"/></g></g></svg>