<svg xmlns="http://www.w3.org/2000/svg" width="182.694" height="39.775" viewBox="0 0 182.694 39.775"><defs><style>.a{fill:#ededed;}</style></defs><g transform="translate(-33.037 -17.005)"><g transform="translate(84.275 21.138)"><path class="a" d="M207.838,499.348H197.67a17.687,17.687,0,0,0-.814,2.458,3.712,3.712,0,0,0-.053,1.789,1.75,1.75,0,0,0,.868,1.121,4.284,4.284,0,0,0,1.949.416h-9.6a5.335,5.335,0,0,0,1.877-.362,4.032,4.032,0,0,0,1.452-1.084,9,9,0,0,0,1.293-2.042q.619-1.283,1.4-3.2l5.809-14.568-1.594-4.121h4.995l8.467,21.111a13.79,13.79,0,0,0,.885,1.879,4.652,4.652,0,0,0,1.081,1.3,4.5,4.5,0,0,0,1.417.777,6.7,6.7,0,0,0,1.931.308H206.208a2.685,2.685,0,0,0,2.3-1.175,2.747,2.747,0,0,0,.107-2.62Zm-.425-1.121-4.605-11.856L198.1,498.227Z" transform="translate(-190.019 -479.756)"/><path class="a" d="M274.837,506.171a7.372,7.372,0,0,0,.089,1.121,4.29,4.29,0,0,0,.3,1.067,2.373,2.373,0,0,0,.566.813,1.261,1.261,0,0,0,.886.326h-8.36a1.308,1.308,0,0,0,.921-.326,2.382,2.382,0,0,0,.568-.813,3.866,3.866,0,0,0,.283-1.067,9.272,9.272,0,0,0,.071-1.121V495.11a3.747,3.747,0,0,0-.638-2.187,2.135,2.135,0,0,0-1.877-.922,5.484,5.484,0,0,0-2.427.579,9.141,9.141,0,0,0-2.674,2.313v11.278a7.38,7.38,0,0,0,.089,1.121,4.267,4.267,0,0,0,.3,1.067,2.266,2.266,0,0,0,.585.813,1.324,1.324,0,0,0,.9.326H256.1a1.309,1.309,0,0,0,.921-.326,2.191,2.191,0,0,0,.549-.813,4.269,4.269,0,0,0,.266-1.067,9.376,9.376,0,0,0,.07-1.121V495.11a4.807,4.807,0,0,0-.141-1.175,2.834,2.834,0,0,0-.461-.994,2.2,2.2,0,0,0-.85-.687,3.039,3.039,0,0,0-1.31-.253,4.914,4.914,0,0,0-2.108.579,9.488,9.488,0,0,0-2.71,2.313v11.278a7.38,7.38,0,0,0,.089,1.121,4.271,4.271,0,0,0,.3,1.067,2.264,2.264,0,0,0,.585.813,1.323,1.323,0,0,0,.9.326h-8.4a1.309,1.309,0,0,0,.921-.326,2.374,2.374,0,0,0,.567-.813,3.848,3.848,0,0,0,.283-1.067,9.167,9.167,0,0,0,.071-1.121V494.5a3.8,3.8,0,0,0-.213-1.374.776.776,0,0,0-.779-.542,2.534,2.534,0,0,0-1.134.4l6.8-3.868v4.012a13.817,13.817,0,0,1,3.065-2.349,7.432,7.432,0,0,1,3.737-.976,5.249,5.249,0,0,1,3.436,1.048,5.013,5.013,0,0,1,1.7,2.566,12.84,12.84,0,0,1,3.136-2.566,7.736,7.736,0,0,1,3.985-1.048,5.937,5.937,0,0,1,2.409.452,4.829,4.829,0,0,1,2.711,2.892,5.913,5.913,0,0,1,.337,1.97Z" transform="translate(-217.1 -484.121)"/><path class="a" d="M313.014,489.042v5.241a7.1,7.1,0,0,1,2.569-3.488,6.222,6.222,0,0,1,3.524-1.1,6.938,6.938,0,0,1,2.888.651,7.952,7.952,0,0,1,2.569,1.88,9.7,9.7,0,0,1,1.842,3,10.841,10.841,0,0,1,.708,4.049,12.316,12.316,0,0,1-.779,4.518,10.351,10.351,0,0,1-2.073,3.362,9.13,9.13,0,0,1-2.958,2.115,8.38,8.38,0,0,1-3.436.741,8.817,8.817,0,0,1-2.48-.362,8.555,8.555,0,0,1-2.373-1.12v7.844q0,.506.053,1.1a4.082,4.082,0,0,0,.248,1.1,2.07,2.07,0,0,0,.568.831,1.423,1.423,0,0,0,.974.325h-8.325a1.3,1.3,0,0,0,.939-.325,2.1,2.1,0,0,0,.514-.831,4.57,4.57,0,0,0,.23-1.1q.053-.6.053-1.1V494.5c0-.161,0-.314-.014-.458a1.382,1.382,0,0,0-2.054-1.109Zm0,12.8a9.809,9.809,0,0,0,.39,2.892,7.345,7.345,0,0,0,1.027,2.151,4.485,4.485,0,0,0,1.452,1.338,3.393,3.393,0,0,0,1.665.451,3.2,3.2,0,0,0,1.665-.488,4.632,4.632,0,0,0,1.47-1.5,8.532,8.532,0,0,0,1.045-2.567,15.272,15.272,0,0,0,.39-3.687,16.34,16.34,0,0,0-.39-3.813,8.767,8.767,0,0,0-1.045-2.638,4.519,4.519,0,0,0-1.488-1.518,3.184,3.184,0,0,0-3.33-.036,4.632,4.632,0,0,0-1.435,1.319,7.12,7.12,0,0,0-1.027,2.115,9.5,9.5,0,0,0-.39,2.837Z" transform="translate(-246.349 -484.089)"/><path class="a" d="M372.593,492.213a5.032,5.032,0,0,1,.886-1.464,4.629,4.629,0,0,1,1.169-.958,5.02,5.02,0,0,1,1.329-.524,5.944,5.944,0,0,1,1.364-.163,4.834,4.834,0,0,1,1.488.217L377.8,493.3a9.05,9.05,0,0,0-1.47-.633,4.445,4.445,0,0,0-1.364-.235,2.324,2.324,0,0,0-1.683.633,2.908,2.908,0,0,0-.655,2.15v10.7q0,.542.053,1.139a3.821,3.821,0,0,0,.248,1.084,2.082,2.082,0,0,0,.567.813,1.479,1.479,0,0,0,1.01.326H366.04a1.55,1.55,0,0,0,1.027-.326,2.166,2.166,0,0,0,.6-.813,3.463,3.463,0,0,0,.266-1.084q.054-.6.053-1.139v-7.3a9.156,9.156,0,0,1-2.108.561,20.02,20.02,0,0,1-2.25.2v4.049a7.262,7.262,0,0,0,.089,1.139,5.174,5.174,0,0,0,.266,1.03,2.3,2.3,0,0,0,.443.758.852.852,0,0,0,.656.29,1.959,1.959,0,0,0,1.2-.579l-4.145,3.687a6.52,6.52,0,0,1-1.966-1.807,6.886,6.886,0,0,1-.938-1.988,11.237,11.237,0,0,1-3.224,2.585,7.651,7.651,0,0,1-3.613.958,5.759,5.759,0,0,1-4.2-1.32,4.6,4.6,0,0,1-1.329-3.416,4.853,4.853,0,0,1,.939-3.036,6.58,6.58,0,0,1,2.568-1.971,14.809,14.809,0,0,1,3.844-1.084,34.089,34.089,0,0,1,4.729-.379v-4.3a4.215,4.215,0,0,0-.584-2.549,1.836,1.836,0,0,0-1.506-.741,4.281,4.281,0,0,0-1.807.47,12.463,12.463,0,0,0-1.966,1.175,20.685,20.685,0,0,0-1.9,1.554,21.9,21.9,0,0,0-1.559,1.572l-1.665-4.627q1.912-.614,4-1.067a19.432,19.432,0,0,1,4.109-.452,11.392,11.392,0,0,1,2.923.362,5.951,5.951,0,0,1,2.391,1.247,6.092,6.092,0,0,1,1.63,2.368,9.963,9.963,0,0,1,.6,3.723v1.229a20.647,20.647,0,0,0,2.267-.271,5.619,5.619,0,0,0,2.09-.813v-3.073a3.641,3.641,0,0,0-.23-1.247.909.909,0,0,0-.939-.633,1.85,1.85,0,0,0-.478.073,2.6,2.6,0,0,0-.585.253l6.873-3.9Zm-18.457,14.893a4.2,4.2,0,0,0,2.48-.9,11.423,11.423,0,0,0,2.338-2.349v-4.446a21.218,21.218,0,0,0-2.515.235,9.1,9.1,0,0,0-2.392.687,4.69,4.69,0,0,0-1.771,1.355,3.489,3.489,0,0,0-.691,2.241,3.834,3.834,0,0,0,.656,2.224A2.152,2.152,0,0,0,354.137,507.106Z" transform="translate(-265.33 -483.899)"/><path class="a" d="M414.153,490.193a9.524,9.524,0,0,1,4.057.832,8.995,8.995,0,0,1,3.011,2.223,9.631,9.631,0,0,1,1.86,3.217,11.5,11.5,0,0,1,.637,3.813,11.648,11.648,0,0,1-.637,3.831,9.588,9.588,0,0,1-1.86,3.235,8.985,8.985,0,0,1-3.011,2.223,9.524,9.524,0,0,1-4.057.832,9.4,9.4,0,0,1-4.038-.832,9.02,9.02,0,0,1-2.993-2.223,9.827,9.827,0,0,1-1.878-3.235,11.34,11.34,0,0,1-.655-3.831,11.192,11.192,0,0,1,.655-3.813,9.875,9.875,0,0,1,1.878-3.217,9.03,9.03,0,0,1,2.993-2.223A9.4,9.4,0,0,1,414.153,490.193Zm1.984,18.653a2.514,2.514,0,0,0,1.683-.741,4.771,4.771,0,0,0,1.027-1.609,7.939,7.939,0,0,0,.5-2.025,8.648,8.648,0,0,0,.018-1.988,20.611,20.611,0,0,0-.85-4.464,13.537,13.537,0,0,0-1.577-3.415,7.143,7.143,0,0,0-2.125-2.152,4.474,4.474,0,0,0-2.533-.7,2.884,2.884,0,0,0-1.86.813,4.746,4.746,0,0,0-1.062,1.736,7.5,7.5,0,0,0-.426,2.223,14.877,14.877,0,0,0,.053,2.2,19.9,19.9,0,0,0,.815,4.175,11.5,11.5,0,0,0,1.541,3.217,7.084,7.084,0,0,0,2.161,2.043A4.832,4.832,0,0,0,416.137,508.846Z" transform="translate(-292.263 -484.627)"/></g><g transform="translate(33.037 17.005)"><path class="a" d="M161.4,109.415c.02.02.046.031.066.051.147.137.3.259.452.391.183.147.366.29.554.427l2.536-5.652h-8.691C157.982,106.258,159.67,107.86,161.4,109.415Z" transform="translate(-149.624 -73.332)"/><path class="a" d="M176.962,104.632l-3.217,7.192c.239.107.483.2.732.29a18.679,18.679,0,0,0,7.294.966,17.782,17.782,0,0,0,5.271-1.037c.269-.1.539-.208.8-.32l-3.177-7.09Z" transform="translate(-158.195 -73.332)"/><path class="a" d="M204.431,110.259c.1-.066.2-.132.3-.2a20.467,20.467,0,0,0,2.9-2.389c.091-.086.183-.173.269-.264.9-.93,1.82-1.85,2.735-2.77H201.9Z" transform="translate(-172.042 -73.332)"/><path class="a" d="M155.5,62.252h-1.413c-.259.254-.513.513-.768.767-.33.325-.661.656-.986.986-.188.183-.371.366-.554.544-.107.1-.208.2-.3.31-.168.163-.33.33-.488.5l-.742.732-2.414,2.577-.061.056c-1.322,1.464-2.811,2.7-3.919,4.2a4.1,4.1,0,0,0-.7,2.389,4.416,4.416,0,0,0,1.433,3.258l2.323,2.323H155.5Z" transform="translate(-143.151 -52.493)"/><path class="a" d="M177.552,46.935h3.136V49.9h7.029c-.229-.224-.452-.447-.686-.681-.386-.4-.783-.783-1.189-1.179-1.047-1.078-2.125-2.125-3.177-3.182a4.5,4.5,0,0,0-7.192-.036c-.346.346-.7.691-1.042,1.042L172.8,47.5c-.808.8-1.621,1.6-2.424,2.4h7.177Z" transform="translate(-156.538 -43.052)"/><path class="a" d="M173.175,80.89H187.7V62.252H173.175Zm2.738-15.815h9.26V77.869h-9.26Z" transform="translate(-157.914 -52.493)"/><path class="a" d="M219.191,72.8c-1.078-1.286-2.4-2.562-3.665-3.883h-.005L214,67.386l-1.179-1.154.01-.01-1.6-1.6L210.118,63.5l-1.245-1.245h-1.408V80.89h8.788c.28-.28.559-.564.834-.849.442-.452.874-.9,1.311-1.352a5.228,5.228,0,0,0,.869-1.189.7.7,0,0,0,.1-.173,4.329,4.329,0,0,0,.28-.579,2.693,2.693,0,0,0,.112-.3,4.178,4.178,0,0,0,.158-.625,1.625,1.625,0,0,0,.041-.31A3.506,3.506,0,0,0,219.191,72.8Z" transform="translate(-174.776 -52.493)"/><rect class="a" width="3.484" height="6.98" transform="translate(20.868 15.489)"/></g></g></svg>