<svg xmlns="http://www.w3.org/2000/svg" xmlns:xlink="http://www.w3.org/1999/xlink" width="1060" height="889" viewBox="0 0 1060 889">
  <defs>
    <clipPath id="clip-path">
      <rect id="Rectangle_21959" data-name="Rectangle 21959" width="1060" height="889" transform="translate(0 3958)" fill="#fff" stroke="#707070" stroke-width="1"/>
    </clipPath>
  </defs>
  <g id="Mask_Group_37" data-name="Mask Group 37" transform="translate(0 -3958)" clip-path="url(#clip-path)">
    <g id="Group_4808" data-name="Group 4808" transform="translate(97.609 166.858)">
      <line id="Line_366" data-name="Line 366" y2="1031.843" transform="translate(430.745 3748.64)" fill="none" stroke="#4b58aa" stroke-width="1.5"/>
      <g id="Group_4777" data-name="Group 4777" transform="translate(431.493 3156.92) rotate(45)">
        <g id="Group_4757" data-name="Group 4757" transform="translate(162.485 543.622)">
          <g id="Group_4459" data-name="Group 4459" transform="translate(0)">
            <path id="Path_47231" data-name="Path 47231" d="M.3,3.2C.235,2.111.159,1.055,0,0L1.023.13A7.136,7.136,0,0,1,3.347.918c-.766.553-1.536,1.128-2.292,1.695C.8,2.8.542,3,.3,3.2Z" transform="translate(54.73 0.032)" fill="none" stroke="#4b58aa" stroke-width="1.5"/>
            <path id="Path_47232" data-name="Path 47232" d="M55.486.81a30.869,30.869,0,0,1-9.474,6.64,23.855,23.855,0,0,1-8.27,1.876c-.372.011-.738.033-1.121.033a.738.738,0,0,1-.159.011c-4.4.011-8.805-.108-13.24-.278-2.407-.109-4.814-.213-7.236-.329L9.145,8.4A9.4,9.4,0,0,1,2.707,5.628,8.8,8.8,0,0,1,1,3.347a1.48,1.48,0,0,1-.116-.224A8.031,8.031,0,0,1,.235,1.341C.148.915.076.477.011.029L0,0C.011.011.022,0,.043,0c.969.116,1.981.213,2.986.3.061,0,.137.011.2.011,1.937.148,3.922.235,5.9.383l4.1.224,3.134.13v.022l4.319.22v-.04l2.866.137h.127a.211.211,0,0,0-.011.076l5.96.307.542.032,2.877.127c.6.043,1.2.065,1.8.1s1.214.065,1.832.083c1.056.076,2.111.108,3.185.163,2.848.181,5.7.285,8.548.448,3.166.159,5.512-.481,7.038-1.941Z" transform="translate(0 54.68)" fill="none" stroke="#4b58aa" stroke-width="1.5"/>
            <line id="Line_335" data-name="Line 335" x1="0.053" y2="0.011" transform="translate(55.381 9.818)" fill="none" stroke="#4b58aa" stroke-width="1.5"/>
            <path id="Path_47233" data-name="Path 47233" d="M.759,9.784.748,9.625C.524,7.5.481,5.414.354,3.368c0-.043-.011-.094-.011-.137C.278,2.143.2,1.088.043.032L.032,0,0,.032" transform="translate(54.687)" fill="none" stroke="#4b58aa" stroke-width="1.5"/>
            <path id="Path_47234" data-name="Path 47234" d="M0,44.711c.969.116,1.981.213,2.986.3.061,0,.137.011.2.011,1.937.148,3.922.235,5.9.383l4.1.224,3.134.13v.018L20.646,46v-.04l2.866.137h.127a.212.212,0,0,0-.011.076l5.96.307.542.033,2.877.126c.6.044,1.2.065,1.8.1s1.214.065,1.832.083c1.056.076,2.111.108,3.185.163,2.848.181,5.7.285,8.548.448,3.166.159,5.512-.481,7.038-1.941a.724.724,0,0,0,.127-.108c1.514-1.511,2.194-3.878,2.046-7.077-.054-.925-.076-1.865-.148-2.791l-.224-4.381c-.1-2.165-.192-4.327-.311-6.492-.094-1.843-.192-3.665-.3-5.5-.065-1.453-.141-2.913-.224-4.363-.043-.871-.087-1.767-.137-2.653-.022-.488-.033-.99-.065-1.471,0-.275-.022-.553-.043-.831-.011-.437-.054-.882-.087-1.319l-.094-1.973L55.443.116,55.425.007c-.011.011-.011.011-.033-.007l.022.061" transform="translate(0.043 9.969)" fill="none" stroke="#4b58aa" stroke-width="1.5"/>
            <path id="Path_47235" data-name="Path 47235" d="M0,0" transform="translate(55.327 9.969)" fill="none" stroke="#4b58aa" stroke-width="1.5"/>
          </g>
        </g>
        <g id="Group_4757-2" data-name="Group 4757" transform="translate(535.298 916.76)">
          <g id="Group_4459-2" data-name="Group 4459" transform="translate(0)">
            <path id="Path_47236" data-name="Path 47236" d="M0,0H.044L.011.032Z" transform="translate(9.651 64.002)" fill="none" stroke="#4b58aa" stroke-width="1.5"/>
            <path id="Path_47237" data-name="Path 47237" d="M48.008,8.292l-4.315-.224v.043L40.8,7.974h-.1A.212.212,0,0,0,40.71,7.9l-5.96-.307-.542-.032-2.877-.13c-.607-.033-1.2-.062-1.8-.094s-1.214-.065-1.832-.087c-1.055-.072-2.111-.1-3.188-.159-2.845-.181-5.7-.289-8.545-.448-3.188-.137-5.512.481-7.048,1.952a.582.582,0,0,0-.115.094C7.284,10.2,6.582,12.568,6.752,15.763c.044.94.072,1.865.138,2.8l.224,4.381c.1,2.162.2,4.316.322,6.481.094,1.843.192,3.665.286,5.508.065,1.449.148,2.9.235,4.348.033.886.087,1.771.137,2.653.011.5.032.994.054,1.482.022.278.032.546.054.821.011.437.054.885.083,1.323l.087,1.981.52,6.408.022.105.022.022v-.065a.406.406,0,0,0,.119.011l-.011.054a.268.268,0,0,1,.022.126v.022a.208.208,0,0,1-.076-.011H8.906l.007.033.033.011-.011.159c.224,2.187.268,4.319.4,6.419C9.405,61.9,9.5,62.957,9.651,64l-1.023-.126A7.126,7.126,0,0,1,6.271,63.1a7.643,7.643,0,0,1-2.451-2.068,3,3,0,0,1-.383-.491,7.051,7.051,0,0,1-.683-1.088c-.1-.191-.2-.372-.289-.564-.181-.394-.329-.777-.466-1.171a1.5,1.5,0,0,1-.119-.376,10.777,10.777,0,0,1-.575-2.79c-.076-1.182-.159-2.378-.235-3.582C.846,47.632.676,44.285.506,40.938.365,38.477.239,36,.08,33.543a5.325,5.325,0,0,1-.033-.716A37.027,37.027,0,0,1,.358,25.76a31.442,31.442,0,0,1,1.023-4.753c.307-1.012.669-1.992,1.066-2.964A29.2,29.2,0,0,1,7.71,9.86c.383-.448.77-.875,1.175-1.3A30.446,30.446,0,0,1,18.369,1.93a23.988,23.988,0,0,1,8.27-1.9c.372-.011.748-.022,1.131-.022.044,0,.094-.011.159-.011,4.392,0,8.8.105,13.214.279,2.422.094,4.84.213,7.251.34l6.831.351a9.335,9.335,0,0,1,6.448,2.783A9.142,9.142,0,0,1,63.38,6.011a8.207,8.207,0,0,1,.766,2.006c.1.434.17.871.224,1.309l.011.033h-.044c-1.044-.127-2.122-.224-3.217-.3-1.919-.152-3.893-.246-5.873-.4l-.011.011-4.106-.224-3.119-.137Z" fill="none" stroke="#4b58aa" stroke-width="1.5"/>
          </g>
        </g>
        <g id="Group_4757-3" data-name="Group 4757" transform="translate(533.334 543.655)">
          <g id="Group_4459-3" data-name="Group 4459" transform="translate(0)">
            <path id="Path_47240" data-name="Path 47240" d="M55.479.8c-.64.662-1.3,1.3-2.006,1.9a30.077,30.077,0,0,1-7.461,4.731,23.591,23.591,0,0,1-8.27,1.9l-1.12.033a.744.744,0,0,0-.159.011c-4.413,0-8.816-.119-13.225-.289-2.422-.094-4.84-.213-7.251-.34L9.144,8.4A9.4,9.4,0,0,1,2.7,5.617,8.868,8.868,0,0,1,.235,1.341C.151.9.065.448,0,0,2.91.351,6.021.459,9.133.694l4.1.213,3.144.137v.022l4.305.213.011-.032,2.877.126.116.011a.3.3,0,0,0-.008.076l5.957.307.542.033,2.877.13c.6.018,1.2.061,1.8.094s1.2.054,1.832.087c1.045.061,2.111.1,3.188.159,2.844.181,5.7.285,8.537.437a12.16,12.16,0,0,0,4.656-.546,6.032,6.032,0,0,0,2.378-1.4Z" transform="translate(9.652 55.435)" fill="none" stroke="#4b58aa" stroke-width="1.5"/>
            <path id="Path_47241" data-name="Path 47241" d="M9.652,55.435l-1.023-.13a7.493,7.493,0,0,1-4.807-2.845,4.26,4.26,0,0,1-.383-.492,8.672,8.672,0,0,1-.684-1.084c-.1-.191-.2-.372-.3-.578-.17-.383-.332-.777-.459-1.16-.043-.126-.083-.257-.116-.372a10.659,10.659,0,0,1-.578-2.794c-.072-1.182-.159-2.374-.231-3.582C.85,39.062.676,35.718.5,32.36.38,29.9.243,27.434.069,24.962.048,24.727.048,24.5.041,24.25a37.962,37.962,0,0,1,.329-7.066,29.313,29.313,0,0,1,1.012-4.746c.311-1.012.672-1.991,1.066-2.96A29.172,29.172,0,0,1,6.883,2.23c.275-.322.542-.629.831-.94C8.1.842,8.48.416,8.9,0l.022.022a.528.528,0,0,0-.119.1A6.207,6.207,0,0,0,7.32,2.538,11.914,11.914,0,0,0,6.753,7.2c.043.914.076,1.865.148,2.79l.224,4.381c.1,2.165.195,4.327.311,6.492.1,1.843.191,3.665.289,5.512.072,1.439.148,2.9.231,4.348.032.882.087,1.767.141,2.653.022.488.032.99.051,1.482.021.275.032.542.054.82.011.437.054.886.087,1.319l.083,1.984L8.9,45.384l.043.3v.17C9.268,49.124,9.2,52.323,9.652,55.435Z" fill="none" stroke="#4b58aa" stroke-width="1.5"/>
          </g>
        </g>
        <path id="Path_47242" data-name="Path 47242" d="M162.528,0,19.569,142.96.032,162.5,0,162.528" transform="translate(217.173 381.127)" fill="none" stroke="#4b58aa" stroke-width="1.5"/>
        <path id="Path_47243" data-name="Path 47243" d="M162.529,0,162.5.032,142.139,20.389,93.8,68.725,0,162.528" transform="translate(0 598.301)" fill="none" stroke="#4b58aa" stroke-width="1.5"/>
        <path id="Path_47244" data-name="Path 47244" d="M0,59.21a202.063,202.063,0,0,1,285.9,0c.35.354.712.716,1.055,1.077" transform="translate(238.447 940.065)" fill="none" stroke="#4b58aa" stroke-width="1.5"/>
        <path id="Path_47247" data-name="Path 47247" d="M285.92,0l-.011.011C206.962,78.958,78.958,78.958.011.011L0,0" transform="translate(236.741 524.086)" fill="none" stroke="#4b58aa" stroke-width="1.5"/>
        <path id="Path_47248" data-name="Path 47248" d="M432.617,478.42c.224,2.187.268,4.319.4,6.419-.723.531-1.449,1.063-2.161,1.587-.311.224-.6.448-.907.672q-10.182,7.5-20.859,13.909c-.427.257-.853.51-1.287.755a266.035,266.035,0,0,1-78.243,30.813,268.782,268.782,0,0,1-56.758,6.322h-2.364a270.509,270.509,0,0,1-136.862-37.656c-.257-.152-.513-.3-.759-.459a269.819,269.819,0,0,1-23.032-15.4.055.055,0,0,1-.043-.022l-.755-.564c-.119-.1-.235-.17-.354-.267.535-1.323-66.239-71.231-70.931-79.157A271.028,271.028,0,0,1,0,268.472v-1.3a269.711,269.711,0,0,1,9.813-71.914,265.308,265.308,0,0,1,26.722-63.105,258.985,258.985,0,0,1,15.336-23.266c.278-.4.586-.8.875-1.2.438-.607.9-1.236,1.355-1.844,1.938.148,3.922.235,5.9.383l4.1.224,3.134.13v.022l4.319.22v-.04l2.866.137h.127a.212.212,0,0,0-.011.076l5.96.307.542.032,2.877.126c.6.043,1.2.065,1.8.1s1.214.065,1.832.083c1.056.076,2.111.108,3.184.163,2.848.181,5.7.286,8.548.448,3.166.159,5.512-.481,7.038-1.941l.029.033c.4-.427.8-.864,1.186-1.312a29.156,29.156,0,0,0,5.252-8.176c.4-.969.759-1.948,1.066-2.96a30.705,30.705,0,0,0,1.034-4.746,38.042,38.042,0,0,0,.311-7.066c-.011-.246-.011-.477-.033-.712q-.222-3.709-.426-7.4c-.17-3.347-.351-6.705-.564-10.048-.087-1.2-.159-2.379-.246-3.571a10.8,10.8,0,0,0-.575-2.794,1.389,1.389,0,0,0-.109-.361,8.508,8.508,0,0,0-.466-1.171c-.087-.191-.2-.387-.3-.578a7.01,7.01,0,0,0-.683-1.084,2.624,2.624,0,0,0-.383-.492,7.239,7.239,0,0,0-2.346-2l-.126-.065c.289-.224.564-.437.864-.651q10.388-7.579,21.336-14.05c.257-.17.546-.329.81-.488A265.366,265.366,0,0,1,210.916,5.97,269.126,269.126,0,0,1,268.491,0h.4A270.27,270.27,0,0,1,404.79,37.326c.17.087.34.2.5.289a270.834,270.834,0,0,1,23.31,15.51c.148.1.285.2.437.307a11.912,11.912,0,0,0-.567,4.659c.043.914.076,1.865.148,2.79l.224,4.381c.1,2.165.195,4.327.311,6.492.1,1.843.191,3.665.289,5.512.072,1.439.148,2.9.231,4.348.033.882.087,1.767.141,2.653.022.488.033.99.051,1.482.021.275.033.542.054.82.011.437.054.886.087,1.319l.083,1.984.524,6.405.043.3v.17c.329,3.271.264,6.47.712,9.582,2.91.351,6.022.459,9.134.694l4.1.213,3.144.137v.022l4.305.213.011-.032,2.877.126.116.011a.3.3,0,0,0-.008.076L461,108.1l.542.033,2.877.13c.6.018,1.2.061,1.8.094s1.2.054,1.832.087c1.045.061,2.111.1,3.188.159,2.844.181,5.7.285,8.537.437a12.16,12.16,0,0,0,4.656-.546c.141.185.267.354.4.535.032.032.054.072.086.1.148.192.289.376.427.578a270.468,270.468,0,0,1,53.556,160.715c.011.224.011.437.011.651a269.655,269.655,0,0,1-10.048,73.359,265.643,265.643,0,0,1-27.488,64.027q-6.235,10.453-13.493,20.44c-.267.376-.556.748-.831,1.11-.748,1.023-1.493,2.024-2.259,3.051-1.919-.152-3.893-.246-5.873-.4l-.011.011-4.106-.224-3.119-.137,0-.022-4.316-.224v.043l-2.888-.137h-.1a.212.212,0,0,0,.011-.076l-5.96-.307-.542-.033-2.877-.13c-.607-.033-1.2-.061-1.8-.094s-1.214-.065-1.832-.087c-1.056-.072-2.111-.1-3.188-.159-2.845-.181-5.7-.289-8.545-.448-3.188-.138-5.512.481-7.048,1.952a.574.574,0,0,0-.115.094c-1.514,1.514-2.216,3.882-2.046,7.077.044.94.072,1.865.138,2.8l.224,4.381c.1,2.162.2,4.316.322,6.481.094,1.843.192,3.665.285,5.508.065,1.449.149,2.9.235,4.348.033.886.087,1.771.137,2.653.011.5.032.994.054,1.482.022.278.032.546.054.821.011.437.054.885.083,1.323l.087,1.981.52,6.409.022.1.022.022v-.065a.413.413,0,0,0,.119.011l-.011.054a.267.267,0,0,1,.022.126v.022a.208.208,0,0,1-.076-.011h-.083l.007.033.033.011Z" transform="translate(111.615 492.76)" fill="none" stroke="#4b58aa" stroke-width="1.5"/>
        <g id="Group_4757-4" data-name="Group 4757" transform="translate(544.261 925.398)">
          <g id="Group_4459-4" data-name="Group 4459">
            <path id="Path_47251" data-name="Path 47251" d="M.3,3.2C.235,2.111.159,1.055,0,0L1.023.126A7.221,7.221,0,0,1,3.347.914c-.77.557-1.536,1.131-2.291,1.7C.8,2.8.542,2.993.3,3.2Z" transform="translate(54.731 0.033)" fill="none" stroke="#4b58aa" stroke-width="1.5"/>
            <path id="Path_47252" data-name="Path 47252" d="M55.486.81a30.842,30.842,0,0,1-9.473,6.64,23.8,23.8,0,0,1-8.274,1.876c-.372.011-.733.032-1.117.032a.771.771,0,0,1-.163.011c-4.4.011-8.8-.1-13.236-.275q-3.611-.162-7.236-.332L9.145,8.4A9.384,9.384,0,0,1,2.707,5.628,8.792,8.792,0,0,1,1,3.347a1.033,1.033,0,0,1-.119-.224A8.12,8.12,0,0,1,.235,1.345C.148.918.072.481.011.032L0,0C.011.011.022,0,.04,0c.972.119,1.984.213,2.985.3.065,0,.137.011.2.011C5.169.459,7.149.546,9.134.694l4.1.224,3.134.126v.022l4.316.224V1.247l2.866.137h.13a.212.212,0,0,0-.011.076l5.957.311.546.033,2.877.126c.6.044,1.193.065,1.8.094s1.214.065,1.833.087c1.055.076,2.111.109,3.188.159,2.845.181,5.7.289,8.549.448,3.166.159,5.509-.481,7.034-1.941Z" transform="translate(0 54.676)" fill="none" stroke="#4b58aa" stroke-width="1.5"/>
            <line id="Line_339" data-name="Line 339" x1="0.053" y2="0.011" transform="translate(55.379 9.816)" fill="none" stroke="#4b58aa" stroke-width="1.5"/>
            <path id="Path_47253" data-name="Path 47253" d="M.756,9.784.745,9.625C.521,7.5.481,5.414.351,3.369c0-.043-.011-.1-.011-.141C.275,2.143.2,1.088.043.033L.032,0,0,.033" transform="translate(54.687)" fill="none" stroke="#4b58aa" stroke-width="1.5"/>
            <path id="Path_47254" data-name="Path 47254" d="M0,44.711c.972.119,1.984.213,2.985.3.065,0,.137.011.2.011,1.941.148,3.922.235,5.906.383l4.1.224,3.134.126v.022L20.646,46v-.043l2.866.141h.13a.186.186,0,0,0-.011.072l5.957.311.546.033,2.877.126c.6.044,1.193.065,1.8.094s1.215.065,1.833.087c1.055.076,2.111.109,3.188.159,2.845.181,5.7.289,8.549.448,3.166.159,5.508-.481,7.034-1.941a.521.521,0,0,0,.13-.1q2.266-2.271,2.046-7.077c-.054-.929-.076-1.865-.152-2.794l-.224-4.381c-.094-2.161-.192-4.327-.307-6.488-.1-1.843-.191-3.669-.3-5.5-.061-1.449-.137-2.91-.224-4.359-.04-.874-.083-1.767-.138-2.653-.022-.492-.032-.991-.065-1.471,0-.278-.018-.553-.04-.831-.011-.437-.054-.885-.087-1.323l-.094-1.97L55.446.119,55.425.011c-.011.011-.011.011-.032-.011l.022.065" transform="translate(0.04 9.965)" fill="none" stroke="#4b58aa" stroke-width="1.5"/>
            <path id="Path_47255" data-name="Path 47255" d="M0,0" transform="translate(55.327 9.965)" fill="none" stroke="#4b58aa" stroke-width="1.5"/>
          </g>
        </g>
        <g id="Group_4757-5" data-name="Group 4757" transform="translate(917.072 1298.536)">
          <g id="Group_4459-5" data-name="Group 4459" transform="translate(0)">
            <path id="Path_47256" data-name="Path 47256" d="M0,0H.043L.011.033Z" transform="translate(9.649 64.002)" fill="none" stroke="#4b58aa" stroke-width="1.5"/>
            <path id="Path_47257" data-name="Path 47257" d="M48.009,8.292l-4.316-.224v.043L40.806,7.97H40.7a.194.194,0,0,0,.011-.072l-5.957-.311-.546-.032-2.877-.127-1.8-.1c-.607-.033-1.215-.062-1.833-.083-1.055-.076-2.111-.109-3.188-.159C21.663,6.9,18.8,6.8,15.96,6.64c-3.188-.141-5.508.477-7.045,1.948a.451.451,0,0,0-.116.1C7.285,10.2,6.581,12.564,6.75,15.763c.043.936.076,1.865.141,2.8l.224,4.381c.094,2.165.2,4.319.318,6.48.1,1.844.192,3.669.289,5.512.062,1.45.148,2.9.235,4.348.029.885.083,1.768.138,2.653.011.5.032.99.054,1.482.022.278.033.542.051.82.011.438.054.886.087,1.323l.086,1.981.521,6.405.022.108.022.022v-.065a.394.394,0,0,0,.116.011l-.011.054a.262.262,0,0,1,.022.127v.022a.192.192,0,0,1-.072-.011H8.9l.011.033.032.011-.011.159c.224,2.186.267,4.316.4,6.416C9.407,61.9,9.5,62.957,9.649,64l-1.023-.127a7.162,7.162,0,0,1-2.353-.781,7.526,7.526,0,0,1-2.451-2.067,2.842,2.842,0,0,1-.386-.488,7.545,7.545,0,0,1-.68-1.088c-.108-.192-.2-.372-.289-.564-.181-.4-.329-.781-.47-1.175a1.505,1.505,0,0,1-.116-.372,10.512,10.512,0,0,1-.575-2.794c-.076-1.182-.163-2.375-.235-3.578C.848,47.632.678,44.285.5,40.938.367,38.476.24,36,.078,33.539a5.882,5.882,0,0,1-.029-.712,37.018,37.018,0,0,1,.307-7.066,31.8,31.8,0,0,1,1.023-4.753c.311-1.012.672-2,1.066-2.964A29.233,29.233,0,0,1,7.712,9.857c.383-.448.766-.875,1.171-1.3a30.589,30.589,0,0,1,9.488-6.629,24.127,24.127,0,0,1,8.27-1.9c.372-.011.744-.018,1.128-.018.043,0,.1-.011.163-.011,4.388,0,8.8.1,13.215.275,2.418.1,4.839.213,7.247.344l6.831.35a9.326,9.326,0,0,1,6.448,2.783,9.075,9.075,0,0,1,1.706,2.259,8.2,8.2,0,0,1,.77,2c.094.438.17.875.22,1.312l.011.032h-.04c-1.044-.13-2.122-.224-3.22-.3-1.919-.148-3.889-.246-5.873-.394l-.011.011-4.1-.224-3.123-.138Z" fill="none" stroke="#4b58aa" stroke-width="1.5"/>
          </g>
        </g>
        <g id="Group_4757-6" data-name="Group 4757" transform="translate(915.108 925.431)">
          <g id="Group_4459-6" data-name="Group 4459" transform="translate(0)">
            <path id="Path_47260" data-name="Path 47260" d="M55.475.8c-.64.658-1.3,1.3-2,1.894a30.075,30.075,0,0,1-7.46,4.735,23.776,23.776,0,0,1-8.273,1.9l-1.117.029a.731.731,0,0,0-.159.011c-4.413,0-8.816-.116-13.229-.285-2.418-.1-4.84-.213-7.247-.343L9.145,8.4A9.4,9.4,0,0,1,2.7,5.617,8.858,8.858,0,0,1,.235,1.345C.148.9.065.448,0,0,2.91.354,6.022.459,9.134.694l4.091.213,3.145.137v.022l4.308.213.007-.033,2.881.13.116.011a.19.19,0,0,0-.011.072l5.957.311.546.032,2.877.127c.6.022,1.193.065,1.8.1s1.207.05,1.836.083c1.044.065,2.107.108,3.184.163,2.848.181,5.7.286,8.537.434a12.114,12.114,0,0,0,4.659-.542A6.018,6.018,0,0,0,55.443.77Z" transform="translate(9.654 55.432)" fill="none" stroke="#4b58aa" stroke-width="1.5"/>
            <path id="Path_47261" data-name="Path 47261" d="M9.654,55.432,8.631,55.3A7.516,7.516,0,0,1,3.823,52.46a4.63,4.63,0,0,1-.383-.491,8.657,8.657,0,0,1-.683-1.088c-.1-.191-.2-.372-.3-.575-.17-.383-.329-.777-.455-1.16-.043-.13-.087-.256-.119-.376a10.783,10.783,0,0,1-.575-2.79C1.232,44.8,1.149,43.6,1.073,42.4.849,39.062.679,35.715.5,32.357.379,29.9.242,27.434.071,24.962c-.022-.235-.022-.47-.032-.716A37.982,37.982,0,0,1,.371,17.18a28.9,28.9,0,0,1,1.012-4.742c.307-1.012.669-1.992,1.066-2.964A29.4,29.4,0,0,1,6.881,2.226c.279-.318.546-.629.831-.936C8.1.842,8.479.416,8.894,0l.022.022A.56.56,0,0,0,8.8.116,6.2,6.2,0,0,0,7.318,2.537a11.837,11.837,0,0,0-.563,4.655c.043.918.072,1.865.148,2.794l.224,4.381c.1,2.162.191,4.327.311,6.492.094,1.843.192,3.665.285,5.509.076,1.438.148,2.9.235,4.348.032.886.087,1.771.137,2.653.022.491.032.994.054,1.482.022.278.033.546.054.82.011.438.054.886.083,1.323l.087,1.981L8.9,45.383l.04.3v.17C9.271,49.125,9.205,52.32,9.654,55.432Z" fill="none" stroke="#4b58aa" stroke-width="1.5"/>
          </g>
        </g>
        <path id="Path_47265" data-name="Path 47265" d="M59.21,286.954a202.063,202.063,0,0,1,0-285.9C59.56.7,59.926.343,60.287,0" transform="translate(940.708 1001.364)" fill="none" stroke="#4b58aa" stroke-width="1.5"/>
        <path id="Path_47266" data-name="Path 47266" d="M0,0C.362.34.723.7,1.074,1.056a201.28,201.28,0,0,1,52.356,90.6,203.013,203.013,0,0,1-.5,106.486A201.1,201.1,0,0,1,1.074,286.954" transform="translate(523.384 999.94)" fill="none" stroke="#4b58aa" stroke-width="1.5"/>
        <path id="Path_47268" data-name="Path 47268" d="M432.621,478.423c.224,2.186.268,4.315.4,6.415q-1.09.8-2.165,1.59c-.307.224-.6.444-.9.669q-10.188,7.5-20.859,13.909c-.426.257-.853.513-1.29.759a267.982,267.982,0,0,1-135,37.132h-2.368a270.434,270.434,0,0,1-136.862-37.656c-.257-.148-.51-.3-.756-.456-7.876-4.7-90.427-87.485-95.115-95.415A271.045,271.045,0,0,1,0,268.475v-1.3a269.555,269.555,0,0,1,9.817-71.91,265.324,265.324,0,0,1,26.722-63.109,259.2,259.2,0,0,1,15.336-23.266c.278-.4.586-.8.875-1.193.437-.607.893-1.236,1.351-1.844,1.941.148,3.922.235,5.906.383l4.1.224,3.134.126v.022l4.316.224v-.044l2.866.137h.13a.213.213,0,0,0-.011.076l5.957.311.546.033,2.877.127c.6.043,1.193.065,1.8.094s1.214.065,1.833.087c1.055.076,2.111.109,3.188.159,2.845.181,5.7.289,8.549.448,3.166.159,5.508-.481,7.034-1.941l.032.032q.607-.64,1.182-1.308a29.27,29.27,0,0,0,5.256-8.176c.394-.969.756-1.952,1.066-2.964a30.8,30.8,0,0,0,1.033-4.742,38.023,38.023,0,0,0,.307-7.066c-.008-.246-.011-.481-.029-.716q-.227-3.709-.426-7.4c-.174-3.347-.354-6.7-.568-10.052-.083-1.193-.159-2.375-.242-3.571a10.643,10.643,0,0,0-.579-2.79,1.4,1.4,0,0,0-.1-.365,9,9,0,0,0-.47-1.171c-.083-.191-.191-.383-.3-.575a7.336,7.336,0,0,0-.683-1.088,2.891,2.891,0,0,0-.383-.488,7.3,7.3,0,0,0-2.346-2.006l-.126-.065c.286-.224.564-.434.86-.647q10.393-7.58,21.34-14.05c.256-.17.542-.329.81-.491A265.339,265.339,0,0,1,210.916,5.973,269.136,269.136,0,0,1,268.494,0h.4A270.332,270.332,0,0,1,404.793,37.329c.17.087.34.191.5.289A269.63,269.63,0,0,1,428.6,53.124c.152.108.29.2.437.311a11.841,11.841,0,0,0-.563,4.655c.043.918.072,1.865.148,2.794l.224,4.381c.1,2.162.191,4.327.311,6.492.094,1.843.192,3.665.286,5.508.076,1.438.148,2.9.235,4.348.032.886.087,1.771.137,2.653.022.491.032.994.055,1.482.022.278.033.546.054.82.011.437.054.886.083,1.323l.087,1.981.524,6.409.04.3v.17c.332,3.275.267,6.47.716,9.582,2.91.354,6.022.459,9.134.694l4.091.213,3.145.137v.022l4.308.213.007-.033,2.881.13.116.011a.189.189,0,0,0-.011.072L461,108.1l.546.033,2.877.127c.6.022,1.193.065,1.8.1s1.207.05,1.836.083c1.044.065,2.107.108,3.184.163,2.848.181,5.7.286,8.537.434a12.112,12.112,0,0,0,4.659-.542l.4.531c.033.033.054.076.083.109.152.191.289.372.427.575a270.161,270.161,0,0,1,43.211,87.463,270.3,270.3,0,0,1,10.349,73.255c.011.224.011.437.011.65a269.532,269.532,0,0,1-10.052,73.36,265.593,265.593,0,0,1-27.488,64.023q-6.235,10.459-13.493,20.444c-.267.372-.553.745-.831,1.11-.745,1.023-1.493,2.024-2.259,3.047-1.919-.148-3.889-.246-5.873-.394l-.011.011-4.1-.224-3.123-.138v-.022l-4.316-.224v.043l-2.888-.141h-.109a.194.194,0,0,0,.011-.072l-5.957-.311-.546-.032-2.877-.127-1.8-.1c-.607-.033-1.215-.062-1.833-.083-1.055-.076-2.111-.109-3.188-.159-2.845-.184-5.7-.289-8.548-.448-3.188-.141-5.508.477-7.045,1.948a.454.454,0,0,0-.116.1c-1.514,1.515-2.219,3.879-2.049,7.078.043.936.076,1.865.141,2.8l.224,4.381c.094,2.165.2,4.319.318,6.481.1,1.843.192,3.669.289,5.512.062,1.45.148,2.9.235,4.348.029.886.083,1.768.137,2.653.011.5.032.99.054,1.482.022.278.033.542.051.82.011.438.054.886.087,1.323l.087,1.981.521,6.4.022.108.022.022v-.065a.4.4,0,0,0,.116.011l-.011.054a.263.263,0,0,1,.022.127v.022a.2.2,0,0,1-.072-.011h-.087l.011.032.032.011Z" transform="translate(493.388 874.533)" fill="none" stroke="#4b58aa" stroke-width="1.5"/>
        <g id="Group_4757-7" data-name="Group 4757" transform="translate(543.615 162.496)">
          <g id="Group_4459-7" data-name="Group 4459">
            <path id="Path_47271" data-name="Path 47271" d="M.3,3.2C.235,2.111.163,1.055,0,0L1.027.126a7.175,7.175,0,0,1,2.32.788c-.766.556-1.532,1.131-2.291,1.7C.8,2.8.546,2.993.3,3.2Z" transform="translate(54.727 0.033)" fill="none" stroke="#4b58aa" stroke-width="1.5"/>
            <path id="Path_47272" data-name="Path 47272" d="M55.486.81a30.82,30.82,0,0,1-9.477,6.64,23.763,23.763,0,0,1-8.27,1.876c-.372.011-.734.032-1.117.032a.773.773,0,0,1-.163.011c-4.4.011-8.8-.1-13.236-.275q-3.611-.163-7.236-.332L9.145,8.4A9.386,9.386,0,0,1,2.707,5.628,8.8,8.8,0,0,1,1,3.347a1.148,1.148,0,0,1-.119-.224,8.326,8.326,0,0,1-.65-1.778C.148.918.072.481.007.032L0,0C.007.011.018,0,.04,0c.972.119,1.984.213,2.985.3.065,0,.137.011.2.011C5.169.459,7.149.546,9.134.694l4.1.224,3.134.127v.022l4.315.224V1.247l2.866.137h.13a.213.213,0,0,0-.011.076l5.956.311.546.032,2.877.127c.6.043,1.193.065,1.8.094s1.214.065,1.833.087c1.055.076,2.111.1,3.188.159,2.844.181,5.7.289,8.548.448,3.166.159,5.508-.481,7.034-1.941Z" transform="translate(0 54.676)" fill="none" stroke="#4b58aa" stroke-width="1.5"/>
            <line id="Line_343" data-name="Line 343" x1="0.053" y2="0.011" transform="translate(55.379 9.816)" fill="none" stroke="#4b58aa" stroke-width="1.5"/>
            <path id="Path_47273" data-name="Path 47273" d="M.755,9.784.744,9.625C.52,7.5.477,5.414.35,3.369c0-.043-.01-.1-.01-.141C.275,2.143.2,1.088.04.033L.032,0,0,.033" transform="translate(54.687)" fill="none" stroke="#4b58aa" stroke-width="1.5"/>
            <path id="Path_47274" data-name="Path 47274" d="M0,44.711c.972.119,1.984.213,2.985.3.065,0,.137.011.2.011,1.941.148,3.922.235,5.906.383l4.1.224,3.134.126v.022L20.646,46v-.043l2.866.141h.13a.186.186,0,0,0-.011.072l5.956.311.546.032,2.877.127c.6.044,1.193.065,1.8.094s1.215.065,1.833.087c1.055.076,2.111.109,3.188.159,2.844.181,5.7.289,8.548.448,3.166.159,5.508-.481,7.033-1.941a.446.446,0,0,0,.127-.1q2.271-2.272,2.049-7.077c-.054-.929-.076-1.865-.152-2.794l-.224-4.381c-.094-2.161-.191-4.326-.307-6.488-.1-1.847-.191-3.669-.3-5.5-.062-1.449-.137-2.91-.224-4.359-.04-.875-.083-1.767-.138-2.653-.022-.492-.032-.991-.065-1.471,0-.278-.022-.553-.04-.831-.011-.437-.054-.885-.087-1.323l-.1-1.97L55.446.119,55.424.011c-.011.011-.011.011-.032-.011l.022.065" transform="translate(0.04 9.965)" fill="none" stroke="#4b58aa" stroke-width="1.5"/>
            <path id="Path_47275" data-name="Path 47275" d="M0,0" transform="translate(55.327 9.965)" fill="none" stroke="#4b58aa" stroke-width="1.5"/>
          </g>
        </g>
        <g id="Group_4757-8" data-name="Group 4757" transform="translate(916.425 535.634)">
          <g id="Group_4459-8" data-name="Group 4459" transform="translate(0)">
            <path id="Path_47276" data-name="Path 47276" d="M0,0H.043L.011.033Z" transform="translate(9.649 64.002)" fill="none" stroke="#4b58aa" stroke-width="1.5"/>
            <path id="Path_47277" data-name="Path 47277" d="M48.01,8.292l-4.316-.224v.044L40.806,7.97H40.7a.191.191,0,0,0,.011-.072l-5.957-.311-.545-.032-2.878-.127-1.8-.1c-.607-.033-1.214-.062-1.832-.083-1.056-.076-2.111-.109-3.188-.159C21.663,6.9,18.8,6.8,15.96,6.64c-3.188-.141-5.512.477-7.045,1.948a.532.532,0,0,0-.119.1C7.285,10.2,6.581,12.564,6.75,15.763c.043.936.076,1.865.141,2.8l.224,4.381c.094,2.165.2,4.319.318,6.481.094,1.843.191,3.669.289,5.512.062,1.449.149,2.9.232,4.348.032.885.087,1.767.141,2.653.011.5.032.99.055,1.482.018.278.029.542.05.82.011.438.054.885.087,1.323l.083,1.981.524,6.4.022.108.022.022v-.065a.38.38,0,0,0,.116.011l-.011.054a.251.251,0,0,1,.022.127v.022a.186.186,0,0,1-.072-.011H8.9l.011.032.032.011-.011.159c.224,2.187.267,4.316.4,6.416C9.4,61.9,9.5,62.957,9.649,64l-1.023-.126a7.164,7.164,0,0,1-2.353-.781,7.569,7.569,0,0,1-2.454-2.067,3.008,3.008,0,0,1-.383-.488,7.534,7.534,0,0,1-.683-1.088c-.1-.191-.2-.372-.285-.564-.181-.4-.333-.781-.47-1.175a1.467,1.467,0,0,1-.115-.372A10.655,10.655,0,0,1,1.3,54.546c-.072-1.182-.159-2.375-.231-3.578C.848,47.632.674,44.285.5,40.938.367,38.476.24,36,.078,33.539a5.973,5.973,0,0,1-.029-.712,36.981,36.981,0,0,1,.307-7.066,31.8,31.8,0,0,1,1.023-4.753c.311-1.012.672-2,1.066-2.964A29.229,29.229,0,0,1,7.711,9.857c.383-.448.766-.875,1.171-1.3a30.624,30.624,0,0,1,9.485-6.629,24.172,24.172,0,0,1,8.273-1.9c.372-.011.745-.018,1.128-.018.043,0,.1-.011.159-.011,4.392,0,8.805.1,13.218.275,2.418.1,4.84.213,7.247.343l6.832.351a9.326,9.326,0,0,1,6.448,2.783,9.056,9.056,0,0,1,1.706,2.259,8.167,8.167,0,0,1,.766,2,12.751,12.751,0,0,1,.224,1.312l.01.033h-.043c-1.045-.13-2.118-.224-3.217-.3-1.919-.148-3.889-.246-5.873-.394l-.011.011-4.1-.224L48.01,8.313Z" fill="none" stroke="#4b58aa" stroke-width="1.5"/>
          </g>
        </g>
        <g id="Group_4757-9" data-name="Group 4757" transform="translate(543.654 533.661)">
          <g id="Group_4459-9" data-name="Group 4459">
            <path id="Path_47278" data-name="Path 47278" d="M.734,55.414a.628.628,0,0,0,.13-.109,6.278,6.278,0,0,0,1.4-2.162l-.011-.011A11.217,11.217,0,0,0,2.91,48.25c-.044-.936-.087-1.876-.141-2.8l-.221-4.381c-.1-2.165-.206-4.319-.322-6.481-.1-1.843-.181-3.676-.289-5.512-.072-1.46-.148-2.9-.231-4.348-.032-.886-.076-1.778-.141-2.653-.011-.5-.032-.991-.061-1.493-.011-.267-.011-.542-.033-.82-.022-.448-.065-.875-.1-1.312L1.29,16.468.777,10.052.755,9.944.723,9.933V10C.69,9.987.65,9.987.618,9.976L.607,9.922a.245.245,0,0,1,0-.127c.032-.011.043,0,.065,0h.04l.033-.011L.734,9.752.723,9.741V9.593C.372,6.3.448,3.091,0,0,.35.033.69.076,1.023.127A7.563,7.563,0,0,1,5.841,2.986a4.7,4.7,0,0,1,.383.488,9.068,9.068,0,0,1,.683,1.088c.1.191.2.372.285.564A11.564,11.564,0,0,1,7.663,6.3c.044.126.087.257.116.372a10.653,10.653,0,0,1,.578,2.794c.072,1.182.159,2.375.231,3.578.224,3.336.4,6.683.578,10.041.116,2.461.253,4.923.427,7.4.022.231.022.466.029.712a37.935,37.935,0,0,1-.329,7.066,30.674,30.674,0,0,1-1.012,4.742c-.311,1.016-.672,2-1.066,2.964a29.385,29.385,0,0,1-4.6,7.438c-.213.257-.437.5-.662.748-.383.448-.766.875-1.182,1.29Z" transform="translate(55.468 9.358)" fill="none" stroke="#4b58aa" stroke-width="1.5"/>
            <path id="Path_47279" data-name="Path 47279" d="M55.468,9.358c-2.888-.351-6.011-.47-9.134-.694l-4.1-.213L39.1,8.324V8.3l-4.3-.235-.011.054-2.877-.148H31.8A.3.3,0,0,0,31.8,7.9l-5.96-.307L25.3,7.569l-2.877-.13c-.6-.043-1.2-.062-1.793-.1-.618-.022-1.225-.054-1.832-.087-1.066-.061-2.111-.1-3.2-.148-2.845-.181-5.7-.289-8.548-.448a12.23,12.23,0,0,0-4.431.47,6.281,6.281,0,0,0-2.6,1.471L0,8.57A27.907,27.907,0,0,1,2.2,6.524,29.992,29.992,0,0,1,9.466,1.941a23.592,23.592,0,0,1,8.27-1.9c.383-.022.748-.022,1.121-.033A.737.737,0,0,0,19.016,0c4.413,0,8.816.116,13.236.278,2.411.1,4.829.224,7.247.34l6.835.351a9.4,9.4,0,0,1,6.438,2.772,8.873,8.873,0,0,1,2.472,4.283C55.327,8.472,55.4,8.91,55.468,9.358Z" fill="none" stroke="#4b58aa" stroke-width="1.5"/>
          </g>
        </g>
        <path id="Path_47282" data-name="Path 47282" d="M162.528,0,19.569,142.96.032,162.5,0,162.528" transform="translate(598.301)" fill="none" stroke="#4b58aa" stroke-width="1.5"/>
        <path id="Path_47283" data-name="Path 47283" d="M162.528,0,162.5.032,142.139,20.389,93.8,68.725,0,162.528" transform="translate(381.127 217.173)" fill="none" stroke="#4b58aa" stroke-width="1.5"/>
        <path id="Path_47285" data-name="Path 47285" d="M59.212,286.954a202.063,202.063,0,0,1,0-285.9C59.562.7,59.927.343,60.289,0" transform="translate(940.059 238.462)" fill="none" stroke="#4b58aa" stroke-width="1.5"/>
        <path id="Path_47286" data-name="Path 47286" d="M0,0C.365.34.726.7,1.077,1.056a201.275,201.275,0,0,1,52.355,90.6,203.006,203.006,0,0,1-.5,106.487A201.133,201.133,0,0,1,1.077,286.954" transform="translate(522.734 237.038)" fill="none" stroke="#4b58aa" stroke-width="1.5"/>
        <path id="Path_47288" data-name="Path 47288" d="M432.621,478.423c.224,2.187.268,4.316.4,6.416q-1.09.8-2.165,1.59c-.307.224-.6.444-.9.669q-10.188,7.5-20.859,13.909c-.427.257-.853.513-1.29.759a267.978,267.978,0,0,1-135,37.132h-2.367A270.412,270.412,0,0,1,133.58,501.241c-.256-.148-.513-.3-.755-.456a271.192,271.192,0,0,1-23.035-15.4.049.049,0,0,1-.04-.022l-.759-.568c-.116-.094-.235-.17-.351-.264l-.011-.011a11.22,11.22,0,0,0,.661-4.883c-.044-.936-.087-1.876-.141-2.8l-.22-4.381c-.1-2.165-.206-4.319-.322-6.481-.1-1.843-.181-3.676-.289-5.512-.072-1.46-.148-2.9-.231-4.348-.032-.885-.076-1.778-.141-2.653-.011-.5-.033-.991-.061-1.493-.011-.268-.011-.542-.033-.82-.022-.448-.065-.875-.1-1.312l-.083-1.981-.513-6.416-.022-.108-.032-.011v.065c-.032-.011-.072-.011-.1-.022l-.011-.054a.247.247,0,0,1,0-.127c.033-.011.043,0,.065,0h.04l.032-.011-.011-.033-.011-.011v-.148c-.351-3.293-.275-6.5-.723-9.593-2.888-.351-6.011-.47-9.134-.694l-4.1-.213-3.134-.126v-.022l-4.3-.235-.011.054L82.826,430h-.108a.3.3,0,0,0-.007-.076l-5.96-.307-.532-.022-2.877-.13c-.6-.044-1.2-.062-1.793-.105-.618-.022-1.225-.054-1.832-.087-1.066-.061-2.111-.1-3.2-.148-2.845-.181-5.7-.289-8.548-.448a12.226,12.226,0,0,0-4.431.47c-.022-.022-.044-.065-.065-.087s-.022-.043-.043-.062l-.318-.448a269.284,269.284,0,0,1-42.846-87.207A270.471,270.471,0,0,1,0,268.476v-1.3a269.561,269.561,0,0,1,9.817-71.91,265.479,265.479,0,0,1,26.718-63.109,260.114,260.114,0,0,1,15.34-23.266c.275-.4.586-.8.875-1.193.434-.607.893-1.236,1.352-1.843,1.941.148,3.922.235,5.906.383l4.1.224,3.134.126v.022l4.315.224v-.043l2.866.137h.13a.212.212,0,0,0-.011.076l5.956.311.546.032,2.877.127c.6.043,1.193.065,1.8.094s1.214.065,1.833.087c1.055.076,2.111.1,3.188.159,2.844.181,5.7.289,8.548.448,3.166.159,5.508-.481,7.034-1.941l.033.033c.4-.426.8-.864,1.182-1.308a29.275,29.275,0,0,0,5.255-8.176c.394-.969.756-1.952,1.066-2.964a30.8,30.8,0,0,0,1.034-4.742,38.066,38.066,0,0,0,.307-7.066c-.011-.246-.011-.481-.029-.716-.152-2.472-.289-4.934-.427-7.4-.173-3.347-.354-6.7-.567-10.052-.083-1.193-.159-2.375-.246-3.571a10.466,10.466,0,0,0-.575-2.79,1.558,1.558,0,0,0-.1-.365,8.982,8.982,0,0,0-.47-1.171c-.087-.191-.191-.383-.3-.575a7.3,7.3,0,0,0-.679-1.088,3.052,3.052,0,0,0-.383-.492,7.322,7.322,0,0,0-2.346-2l-.13-.065c.289-.224.568-.434.864-.647q10.393-7.58,21.34-14.05c.253-.17.542-.329.81-.491A265.3,265.3,0,0,1,210.916,5.974,269.14,269.14,0,0,1,268.495,0h.4a270.315,270.315,0,0,1,135.89,37.327c.173.087.344.191.5.289,7.973,4.731,91.074,87.705,95.881,95.838a270.516,270.516,0,0,1,37.743,136.971c.011.224.011.438.011.651a269.528,269.528,0,0,1-10.052,73.36,265.6,265.6,0,0,1-27.488,64.023q-6.235,10.458-13.493,20.444c-.267.372-.553.745-.831,1.11-.744,1.023-1.493,2.024-2.259,3.047-1.919-.148-3.889-.246-5.873-.394l-.011.011-4.1-.224-3.123-.137v-.022l-4.316-.224v.044l-2.888-.141h-.108a.19.19,0,0,0,.011-.072l-5.957-.311-.545-.032-2.877-.127-1.8-.1c-.607-.033-1.214-.062-1.832-.083-1.056-.076-2.111-.109-3.188-.159-2.845-.184-5.7-.289-8.549-.448-3.187-.141-5.512.477-7.044,1.948a.532.532,0,0,0-.119.1c-1.51,1.515-2.215,3.878-2.045,7.077.043.936.076,1.865.141,2.8l.224,4.381c.094,2.165.2,4.319.318,6.481.094,1.843.191,3.669.289,5.512.062,1.449.149,2.9.232,4.349.033.885.087,1.767.141,2.653.011.5.033.99.055,1.482.018.278.029.542.05.821.011.437.054.885.087,1.323l.083,1.981.524,6.4.022.108.022.022v-.065a.381.381,0,0,0,.116.011l-.011.054a.251.251,0,0,1,.022.126v.022a.186.186,0,0,1-.073-.011h-.087l.011.032.032.011Z" transform="translate(492.741 111.631)" fill="none" stroke="#4b58aa" stroke-width="1.5"/>
        <g id="Group_4757-10" data-name="Group 4757" transform="translate(925.387 544.273)">
          <g id="Group_4459-10" data-name="Group 4459">
            <path id="Path_47291" data-name="Path 47291" d="M.3,3.2C.235,2.111.159,1.055,0,0L1.023.13A7.14,7.14,0,0,1,3.347.918c-.766.553-1.536,1.131-2.291,1.7C.8,2.8.542,3,.3,3.2Z" transform="translate(54.731 0.029)" fill="none" stroke="#4b58aa" stroke-width="1.5"/>
            <path id="Path_47292" data-name="Path 47292" d="M55.486.81a30.864,30.864,0,0,1-9.474,6.64,23.776,23.776,0,0,1-8.27,1.876c-.372.011-.737.033-1.121.033a.731.731,0,0,1-.159.011c-4.4.011-8.805-.109-13.236-.279-2.411-.1-4.818-.213-7.24-.329L9.145,8.4A9.4,9.4,0,0,1,2.707,5.628,8.806,8.806,0,0,1,1,3.347a1.485,1.485,0,0,1-.115-.224A7.952,7.952,0,0,1,.235,1.341C.148.915.076.477.011.033L0,0C.011.011.022,0,.044,0c.968.116,1.981.214,2.985.3.061,0,.137.011.2.011,1.938.152,3.922.235,5.9.383L13.24.915l3.13.13v.022l4.319.224V1.247l2.866.137h.127a.21.21,0,0,0-.011.076l5.96.307.543.033,2.877.13c.6.04,1.2.061,1.8.094s1.215.065,1.833.087c1.055.072,2.111.1,3.184.159,2.848.181,5.7.285,8.548.448,3.166.159,5.512-.481,7.037-1.941Z" transform="translate(0 54.676)" fill="none" stroke="#4b58aa" stroke-width="1.5"/>
            <line id="Line_347" data-name="Line 347" x1="0.053" y2="0.011" transform="translate(55.381 9.815)" fill="none" stroke="#4b58aa" stroke-width="1.5"/>
            <path id="Path_47293" data-name="Path 47293" d="M.759,9.784.748,9.622C.524,7.5.481,5.414.354,3.365c0-.04-.011-.094-.011-.137C.278,2.14.2,1.084.044.029L.032,0,0,.029" transform="translate(54.687)" fill="none" stroke="#4b58aa" stroke-width="1.5"/>
            <path id="Path_47294" data-name="Path 47294" d="M0,44.711c.968.116,1.981.213,2.985.3.061,0,.137.011.2.011,1.938.152,3.922.235,5.9.383l4.1.224,3.134.13v.022L20.646,46v-.043l2.866.137h.126a.21.21,0,0,0-.011.076l5.96.307.543.033,2.877.126c.6.044,1.2.065,1.8.1s1.215.065,1.833.087c1.055.072,2.111.1,3.184.159,2.848.181,5.7.285,8.548.448,3.166.159,5.512-.481,7.038-1.941a.9.9,0,0,0,.126-.1c1.514-1.514,2.194-3.882,2.046-7.077-.054-.929-.076-1.869-.148-2.794l-.224-4.381c-.1-2.165-.192-4.327-.311-6.492-.094-1.843-.191-3.665-.3-5.5-.065-1.449-.137-2.91-.224-4.359-.044-.875-.087-1.771-.138-2.657-.022-.488-.032-.99-.065-1.471,0-.275-.022-.553-.044-.831-.011-.434-.054-.882-.083-1.319l-.1-1.974L55.442.116l-.018-.1c-.01.011-.01.011-.032-.011l.022.062" transform="translate(0.043 9.965)" fill="none" stroke="#4b58aa" stroke-width="1.5"/>
            <path id="Path_47295" data-name="Path 47295" d="M0,0" transform="translate(55.327 9.965)" fill="none" stroke="#4b58aa" stroke-width="1.5"/>
          </g>
        </g>
        <g id="Group_4757-11" data-name="Group 4757" transform="translate(1298.199 917.406)">
          <g id="Group_4459-11" data-name="Group 4459" transform="translate(0)">
            <path id="Path_47296" data-name="Path 47296" d="M0,0H.043L.011.029Z" transform="translate(9.651 64.005)" fill="none" stroke="#4b58aa" stroke-width="1.5"/>
            <path id="Path_47297" data-name="Path 47297" d="M48.008,8.292l-4.316-.224v.044L40.8,7.973h-.1A.211.211,0,0,0,40.71,7.9L34.75,7.59l-.542-.033-2.877-.13c-.607-.029-1.2-.061-1.8-.094s-1.215-.065-1.833-.087c-1.055-.072-2.111-.1-3.188-.159-2.844-.181-5.7-.289-8.545-.448-3.188-.137-5.512.481-7.048,1.952a.725.725,0,0,0-.115.094C7.284,10.2,6.583,12.567,6.752,15.763c.043.94.072,1.865.137,2.8l.224,4.381c.1,2.162.2,4.316.322,6.481.094,1.843.192,3.665.285,5.509.065,1.449.152,2.9.235,4.348.033.885.087,1.771.138,2.656.01.5.033.99.054,1.478.022.279.032.546.054.824.011.434.054.882.083,1.319l.087,1.984.524,6.4.018.1.022.022v-.062a.4.4,0,0,0,.119.011l-.011.051a.275.275,0,0,1,.022.13v.022a.363.363,0,0,1-.076-.011H8.906l.007.029.033.011-.011.163c.224,2.183.267,4.316.4,6.416.065,1.066.163,2.122.311,3.166l-1.023-.13A7.122,7.122,0,0,1,6.272,63.1a7.649,7.649,0,0,1-2.451-2.067,2.863,2.863,0,0,1-.383-.492,6.892,6.892,0,0,1-.683-1.088c-.1-.191-.2-.372-.289-.564-.181-.394-.329-.777-.466-1.171a1.525,1.525,0,0,1-.119-.372,10.8,10.8,0,0,1-.575-2.794c-.076-1.182-.159-2.378-.235-3.582C.846,47.632.676,44.285.506,40.938.366,38.476.239,36,.08,33.542a5.315,5.315,0,0,1-.033-.716A37.02,37.02,0,0,1,.358,25.76a31.9,31.9,0,0,1,1.023-4.753c.307-1.012.669-1.992,1.066-2.964A29.206,29.206,0,0,1,7.71,9.86c.383-.448.77-.875,1.175-1.3A30.458,30.458,0,0,1,18.369,1.93a23.981,23.981,0,0,1,8.27-1.9c.373-.011.748-.022,1.132-.022.043,0,.094-.011.159-.011,4.392,0,8.805.108,13.215.278,2.422.094,4.84.213,7.251.34l6.832.351a9.349,9.349,0,0,1,6.448,2.783,9.135,9.135,0,0,1,1.706,2.259,8.213,8.213,0,0,1,.766,2.006c.1.437.17.871.224,1.308l.011.032h-.043c-1.045-.126-2.122-.224-3.217-.3-1.919-.152-3.893-.246-5.873-.394l-.011.007-4.106-.221-3.119-.141Z" fill="none" stroke="#4b58aa" stroke-width="1.5"/>
          </g>
        </g>
        <g id="Group_4757-12" data-name="Group 4757" transform="translate(925.431 915.437)">
          <g id="Group_4459-12" data-name="Group 4459">
            <path id="Path_47298" data-name="Path 47298" d="M.737,55.41a.5.5,0,0,0,.126-.1,6.3,6.3,0,0,0,1.4-2.165l-.007-.011A11.149,11.149,0,0,0,2.91,48.25c-.04-.94-.083-1.876-.137-2.8l-.224-4.381c-.094-2.162-.2-4.316-.318-6.481-.1-1.843-.184-3.676-.289-5.508-.076-1.46-.148-2.9-.235-4.348-.032-.885-.072-1.782-.137-2.653-.011-.5-.032-.994-.065-1.493-.011-.268-.011-.546-.033-.821-.022-.448-.061-.875-.094-1.312L1.29,16.468l-.51-6.419-.022-.1L.726,9.933V10C.694,9.987.65,9.987.618,9.976L.607,9.922a.239.239,0,0,1,0-.126c.032-.011.043,0,.065,0H.716l.032-.011L.737,9.752.726,9.741V9.593C.376,6.3.448,3.09,0,0,.354.033.694.072,1.023.127A7.573,7.573,0,0,1,5.841,2.982a4.171,4.171,0,0,1,.383.492,8.479,8.479,0,0,1,.683,1.088c.108.191.2.372.289.564A11.354,11.354,0,0,1,7.662,6.3c.044.13.087.256.119.376a10.762,10.762,0,0,1,.575,2.79c.076,1.182.159,2.379.235,3.582.224,3.336.394,6.683.575,10.041.119,2.461.257,4.923.427,7.4.022.235.022.47.033.716A37.977,37.977,0,0,1,9.3,38.263a31.159,31.159,0,0,1-1.012,4.742C7.973,44.017,7.612,45,7.218,45.969a29.492,29.492,0,0,1-4.6,7.439c-.213.257-.438.5-.662.744-.383.448-.766.875-1.182,1.29Z" transform="translate(55.464 9.358)" fill="none" stroke="#4b58aa" stroke-width="1.5"/>
            <path id="Path_47299" data-name="Path 47299" d="M55.464,9.358c-2.888-.354-6.011-.47-9.134-.694l-4.092-.213L39.1,8.324V8.3l-4.3-.235-.011.054-2.88-.152H31.8a.2.2,0,0,0-.011-.072l-5.957-.311L25.3,7.565l-2.877-.127c-.6-.043-1.193-.065-1.789-.108-.618-.022-1.225-.051-1.833-.083-1.066-.065-2.111-.108-3.2-.148-2.844-.184-5.7-.289-8.548-.448a12.26,12.26,0,0,0-4.435.466,6.32,6.32,0,0,0-2.6,1.471L0,8.566A29.139,29.139,0,0,1,2.194,6.521,30.163,30.163,0,0,1,9.463,1.938,23.794,23.794,0,0,1,17.736.04c.383-.018.744-.018,1.117-.029A.772.772,0,0,0,19.016,0c4.41,0,8.812.116,13.236.275C34.659.383,37.081.5,39.5.618l6.831.35a9.386,9.386,0,0,1,6.438,2.772A8.874,8.874,0,0,1,55.24,8.024C55.327,8.472,55.4,8.909,55.464,9.358Z" fill="none" stroke="#4b58aa" stroke-width="1.5"/>
          </g>
        </g>
        <path id="Path_47304" data-name="Path 47304" d="M0,59.213a202.054,202.054,0,0,1,285.9,0c.35.351.712.712,1.055,1.074" transform="translate(1001.349 940.712)" fill="none" stroke="#4b58aa" stroke-width="1.5"/>
        <path id="Path_47307" data-name="Path 47307" d="M285.92,0l-.011.011C206.965,78.958,78.958,78.958.011.011L0,0" transform="translate(999.643 524.733)" fill="none" stroke="#4b58aa" stroke-width="1.5"/>
        <path id="Path_47308" data-name="Path 47308" d="M432.618,478.423c.224,2.183.267,4.316.4,6.415-.723.531-1.45,1.066-2.161,1.587-.311.224-.6.448-.907.672q-10.182,7.5-20.86,13.909c-.426.257-.849.513-1.287.756a268.05,268.05,0,0,1-135,37.135h-2.364a270.5,270.5,0,0,1-136.862-37.656c-.257-.148-.513-.3-.759-.459a269.635,269.635,0,0,1-23.031-15.4.056.056,0,0,1-.044-.022l-.755-.564c-.119-.1-.235-.17-.354-.267l-.007-.011a11.149,11.149,0,0,0,.658-4.88c-.04-.94-.083-1.876-.137-2.8l-.224-4.381c-.094-2.161-.2-4.316-.318-6.481-.1-1.843-.184-3.676-.289-5.508-.076-1.46-.148-2.9-.235-4.348-.032-.886-.072-1.782-.137-2.653-.011-.5-.033-.994-.065-1.493-.011-.268-.011-.546-.033-.821-.022-.448-.061-.875-.094-1.312l-.087-1.981-.51-6.419-.022-.105-.033-.011v.065c-.032-.011-.076-.011-.108-.022l-.011-.054a.238.238,0,0,1,0-.126c.032-.011.043,0,.065,0h.044l.032-.011-.011-.033-.011-.011v-.148c-.351-3.3-.278-6.5-.726-9.593-2.888-.354-6.011-.47-9.134-.694l-4.092-.213-3.134-.127v-.022l-4.3-.235-.011.054L82.822,430h-.105a.194.194,0,0,0-.011-.072l-5.957-.311-.535-.022-2.877-.126c-.6-.043-1.193-.065-1.789-.108-.618-.022-1.225-.051-1.833-.083-1.066-.065-2.111-.108-3.2-.148-2.844-.184-5.7-.289-8.548-.448a12.259,12.259,0,0,0-4.435.466c-.022-.021-.044-.061-.062-.083s-.022-.043-.043-.065l-.322-.448A270.714,270.714,0,0,1,0,268.476v-1.3a269.682,269.682,0,0,1,9.813-71.91,265.338,265.338,0,0,1,26.722-63.109,259.033,259.033,0,0,1,15.336-23.267c.278-.4.59-.8.875-1.2.437-.607.9-1.236,1.355-1.843,1.938.152,3.922.235,5.9.383l4.106.224,3.13.13v.022l4.319.224v-.043l2.866.137h.127a.211.211,0,0,0-.011.076l5.96.307.542.033,2.877.13c.6.04,1.2.061,1.8.094s1.214.065,1.833.087c1.055.072,2.111.1,3.184.159,2.848.181,5.7.285,8.548.448,3.166.159,5.512-.481,7.038-1.941l.029.033c.4-.427.8-.864,1.185-1.312a29.287,29.287,0,0,0,5.256-8.172c.394-.972.756-1.952,1.063-2.964a30.321,30.321,0,0,0,1.034-4.746,38.038,38.038,0,0,0,.311-7.066c-.011-.242-.011-.477-.033-.712-.148-2.472-.289-4.934-.427-7.4-.17-3.347-.35-6.7-.564-10.048-.087-1.2-.159-2.378-.246-3.571a10.8,10.8,0,0,0-.575-2.794,1.427,1.427,0,0,0-.109-.362,8.451,8.451,0,0,0-.466-1.171c-.087-.192-.2-.383-.3-.579a7,7,0,0,0-.683-1.084,2.636,2.636,0,0,0-.383-.492,7.246,7.246,0,0,0-2.346-2l-.127-.065c.289-.224.564-.437.864-.651q10.393-7.58,21.336-14.046c.257-.174.546-.332.81-.492A265.369,265.369,0,0,1,210.916,5.97,269.12,269.12,0,0,1,268.491,0h.4A270.23,270.23,0,0,1,404.789,37.33c.17.083.34.191.5.285,7.97,4.731,91.074,87.709,95.881,95.842a270.545,270.545,0,0,1,37.739,136.967c.011.224.011.437.011.651a269.7,269.7,0,0,1-10.048,73.363,265.666,265.666,0,0,1-27.489,64.023q-6.235,10.453-13.493,20.444c-.267.372-.557.745-.831,1.106-.748,1.023-1.493,2.024-2.259,3.051-1.919-.152-3.893-.246-5.873-.394l-.011.007-4.106-.221-3.119-.141,0-.022-4.316-.224v.044l-2.888-.137h-.1a.211.211,0,0,0,.011-.076l-5.961-.307-.542-.033-2.877-.13c-.607-.029-1.2-.061-1.8-.094s-1.214-.065-1.833-.087c-1.056-.072-2.111-.1-3.188-.159-2.844-.181-5.7-.289-8.545-.448-3.188-.137-5.512.481-7.048,1.952a.719.719,0,0,0-.115.094c-1.514,1.514-2.216,3.882-2.046,7.077.043.94.072,1.865.137,2.8l.224,4.381c.1,2.162.2,4.316.322,6.481.094,1.843.192,3.665.285,5.508.065,1.449.152,2.9.235,4.348.033.885.087,1.771.138,2.656.011.5.032.99.054,1.478.022.278.033.546.054.824.011.434.054.882.083,1.319l.087,1.984.524,6.4.018.1.022.022v-.062a.4.4,0,0,0,.119.011l-.011.051a.277.277,0,0,1,.021.13v.022a.379.379,0,0,1-.076-.011h-.083l.007.029.033.011Z" transform="translate(874.517 493.407)" fill="none" stroke="#4b58aa" stroke-width="1.5"/>
      </g>
    </g>
  </g>
</svg>
