<svg xmlns="http://www.w3.org/2000/svg" width="180.588" height="132.903" viewBox="0 0 180.588 132.903">
  <g id="Group_4462" data-name="Group 4462" transform="translate(179.837 132.154) rotate(180)">
    <path id="Path_47121" data-name="Path 47121" d="M179,76.043a4.649,4.649,0,0,1-.171,1.013,11.015,11.015,0,0,1-.626,2.074,9.9,9.9,0,0,1-.437,1.013,15.2,15.2,0,0,1-1.1,1.914,2.8,2.8,0,0,1-.4.569,17.959,17.959,0,0,1-3.434,3.924c-1.728,1.488-3.454,2.975-5.2,4.461-4.859,4.163-9.793,8.292-14.725,12.406-3.625,3.038-7.25,6.076-10.836,9.145-.342.3-.7.586-1.063.871a79.776,79.776,0,0,1-11.479,7.9,72.315,72.315,0,0,1-8.975,4.351c-2.05.823-4.138,1.55-6.263,2.215a83.029,83.029,0,0,1-20.891,3.417c-10.133.4-19.906-.441-28.9-3.18A57.053,57.053,0,0,1,48.7,120.663c-.606-.428-1.194-.84-1.782-1.281-.077-.064-.191-.111-.266-.175-6.851-5.143-13.531-10.427-20.134-15.791-3.6-2.944-7.173-5.9-10.739-8.861L5.7,86.155C1.792,82.864-.143,79.129.008,75.38A11.9,11.9,0,0,1,2.8,67.5c4.384-4.952,25.333-22.578,25.333-22.578l2.94-2.421c.626-.554,1.252-1.108,1.917-1.646.4-.347.8-.68,1.214-1.012.721-.6,1.462-1.2,2.2-1.8,1.291-1.093,2.6-2.184,3.909-3.259q3.19-2.682,6.414-5.365c2.694-2.262,5.389-4.509,8.1-6.772q4.782-3.987,9.6-7.943L70.9,9.3c1.347-1.155,2.751-2.3,4.118-3.434C79.744,1.946,84.488,0,89.194,0,93.975,0,98.7,1.993,103.52,5.981c4.175,3.5,8.444,6.961,12.58,10.506,1.613,1.313,3.188,2.594,4.726,3.907.91.759,1.8,1.5,2.713,2.247.872.744,1.764,1.473,2.638,2.215l4.269,3.513.8.665,8.784,7.326a.381.381,0,0,1-.113.079l.171.143,4.249,3.528a.34.34,0,0,0,.077-.047l6.357,5.3-.038.032,4.668,3.814,6.033,5.047h.02c5.008,4.368,10.246,8.575,14.515,12.832A10.25,10.25,0,0,1,179,76.043Z" transform="translate(179.087 131.404) rotate(180)" fill="none" stroke="#ededed" stroke-width="1.5"/>
    <path id="Path_47120" data-name="Path 47120" d="M179,76.043a4.651,4.651,0,0,1-.171,1.013,11.023,11.023,0,0,1-.626,2.074,9.888,9.888,0,0,1-.437,1.013,15.193,15.193,0,0,1-1.1,1.914,2.8,2.8,0,0,1-.4.569,17.959,17.959,0,0,1-3.433,3.924c-1.728,1.488-3.454,2.975-5.2,4.461-4.859,4.162-9.793,8.292-14.725,12.406-3.625,3.038-7.25,6.076-10.836,9.145-.342.3-.7.586-1.063.872a79.788,79.788,0,0,1-11.479,7.9,72.28,72.28,0,0,1-8.975,4.351c-2.05.823-4.138,1.55-6.263,2.215a83.033,83.033,0,0,1-20.891,3.417c-10.133.4-19.906-.442-28.9-3.18A57.052,57.052,0,0,1,48.7,120.663c-.606-.428-1.194-.84-1.782-1.281-.076-.063-.191-.111-.266-.175-6.851-5.143-13.531-10.427-20.134-15.791-3.6-2.944-7.173-5.9-10.739-8.861L5.7,86.155C1.792,82.863-.143,79.129.008,75.38A11.9,11.9,0,0,1,2.8,67.5c4.384-4.952,10.286-9.034,15.522-13.877l.248-.19-.02-.031a.107.107,0,0,0,.038-.047l.057.032.077.064a.555.555,0,0,0,.094.094l.02-.032a.57.57,0,0,0,.189-.158l.076-.064a1.1,1.1,0,0,1-.153-.158l-.095.079c0-.032,0-.032-.018-.047l.133-.143,9.165-8.1,2.94-2.421c.626-.555,1.252-1.108,1.917-1.646.4-.348.8-.68,1.214-1.012.721-.6,1.462-1.2,2.2-1.8,1.291-1.093,2.6-2.185,3.909-3.259q3.19-2.682,6.414-5.365c2.694-2.262,5.389-4.509,8.1-6.772q4.782-3.987,9.6-7.943L70.9,9.3c1.347-1.155,2.751-2.3,4.118-3.434C79.744,1.946,84.488,0,89.194,0,93.975,0,98.7,1.993,103.52,5.981c4.175,3.5,8.444,6.961,12.58,10.506,1.613,1.313,3.188,2.594,4.726,3.907.91.759,1.8,1.5,2.713,2.247.872.744,1.764,1.473,2.638,2.215l4.269,3.513.8.665,8.784,7.326a.381.381,0,0,1-.113.079l.171.143,4.249,3.528a.348.348,0,0,0,.076-.047l6.358,5.3-.038.032,4.668,3.814,6.033,5.047h.02c5.008,4.368,10.246,8.575,14.515,12.832A10.249,10.249,0,0,1,179,76.043Z" transform="translate(0 0)" fill="none" stroke="#ededed" stroke-width="1.5"/>
  </g>
</svg>
