<svg xmlns="http://www.w3.org/2000/svg" width="59.699" height="67.638" viewBox="0 0 59.699 67.638">
  <g id="Group_4721" data-name="Group 4721" transform="translate(0.75 0.75)">
    <g id="Group_4459" data-name="Group 4459" transform="translate(58.199 0) rotate(90)">
      <path id="Path_47121" data-name="Path 47121" d="M66.107,24.52a2.435,2.435,0,0,0-.063-.449,5.625,5.625,0,0,0-.231-.918c-.049-.154-.1-.3-.161-.449a7.175,7.175,0,0,0-.406-.848A1.27,1.27,0,0,0,65.1,21.6a7.709,7.709,0,0,0-1.268-1.738c-.638-.659-1.275-1.318-1.92-1.976-1.795-1.844-3.617-3.673-5.438-5.495-1.339-1.345-2.677-2.691-4-4.05-.126-.133-.26-.26-.393-.386a29.934,29.934,0,0,0-4.239-3.5,25.12,25.12,0,0,0-3.315-1.927c-.757-.364-1.528-.686-2.313-.981A26.054,26.054,0,0,0,34.5.041,27.249,27.249,0,0,0,23.822,1.45a19.741,19.741,0,0,0-5.837,3.307c-.224.19-.441.372-.658.567-.028.028-.071.049-.1.077-2.53,2.278-5,4.618-7.436,6.994q-2,1.956-3.966,3.925L2.105,20.041A6.487,6.487,0,0,0,0,24.813a5.959,5.959,0,0,0,1.03,3.49c1.619,2.193,3.8,4,5.732,6.146l.091.084-.007.014a.045.045,0,0,1,.014.021l.021-.014.028-.028a.229.229,0,0,1,.035-.042l.007.014a.225.225,0,0,1,.07.07l.028.028a.463.463,0,0,0-.056.07l-.035-.035c0,.014,0,.014-.007.021L7,34.716,10.389,38.3l1.086,1.072c.231.246.463.491.708.729.147.154.294.3.448.448.266.266.54.533.813.8.477.484.96.968,1.444,1.444q1.178,1.188,2.369,2.376c1,1,1.99,2,2.993,3q1.766,1.766,3.546,3.518l2.389,2.39c.5.512,1.016,1.017,1.521,1.521a7.554,7.554,0,0,0,5.235,2.6c1.766,0,3.51-.883,5.291-2.649C39.772,54,41.349,52.467,42.876,50.9c.6-.581,1.177-1.149,1.745-1.731.336-.336.666-.666,1-1s.651-.652.974-.981l1.577-1.556.295-.294,3.244-3.245a.143.143,0,0,0-.042-.035L51.735,42,53.3,40.434a.126.126,0,0,1,.028.021l2.348-2.347-.014-.014L57.39,36.4l2.228-2.236h.007c1.85-1.934,3.784-3.8,5.361-5.684A5.118,5.118,0,0,0,66.107,24.52Z" transform="translate(66.137 58.199) rotate(180)" fill="none" stroke="#4b58aa" stroke-width="1.5"/>
      <path id="Path_47120" data-name="Path 47120" d="M66.107,24.52a2.439,2.439,0,0,0-.063-.449,5.624,5.624,0,0,0-.231-.918c-.049-.154-.1-.3-.161-.449a7.177,7.177,0,0,0-.406-.848A1.269,1.269,0,0,0,65.1,21.6a7.709,7.709,0,0,0-1.268-1.738c-.638-.659-1.275-1.318-1.92-1.976-1.795-1.844-3.617-3.673-5.438-5.495-1.339-1.345-2.677-2.691-4-4.05-.126-.133-.26-.26-.393-.386a29.938,29.938,0,0,0-4.239-3.5,25.114,25.114,0,0,0-3.315-1.927c-.757-.364-1.528-.686-2.313-.981A26.056,26.056,0,0,0,34.5.041,27.248,27.248,0,0,0,23.822,1.45a19.742,19.742,0,0,0-5.837,3.307c-.224.19-.441.372-.658.567-.028.028-.071.049-.1.077-2.53,2.278-5,4.618-7.436,6.994q-2,1.956-3.966,3.925L2.105,20.041A6.487,6.487,0,0,0,0,24.813a5.959,5.959,0,0,0,1.03,3.49c1.619,2.193,3.8,4,5.732,6.146l.091.084-.007.014a.047.047,0,0,1,.014.021l.021-.014.028-.028a.229.229,0,0,1,.035-.042l.007.014a.224.224,0,0,1,.07.07l.028.028a.461.461,0,0,0-.056.07l-.035-.035c0,.014,0,.014-.007.021L7,34.716,10.389,38.3l1.086,1.072c.231.246.463.491.708.729.147.154.294.3.448.448.266.266.54.533.813.8.477.484.96.968,1.444,1.444q1.178,1.188,2.369,2.376c1,1,1.99,2,2.993,3q1.766,1.766,3.546,3.518l2.39,2.39c.5.511,1.016,1.017,1.521,1.521a7.554,7.554,0,0,0,5.235,2.6c1.766,0,3.51-.883,5.291-2.649C39.772,54,41.349,52.467,42.876,50.9c.6-.581,1.177-1.149,1.745-1.731.336-.336.666-.666,1-1s.651-.652.974-.981l1.577-1.556.295-.294,3.244-3.245a.143.143,0,0,0-.042-.035L51.734,42,53.3,40.434a.127.127,0,0,1,.028.021l2.348-2.347-.014-.014L57.39,36.4l2.228-2.235h.007c1.85-1.934,3.784-3.8,5.361-5.684A5.118,5.118,0,0,0,66.107,24.52Z" transform="translate(0 0)" fill="none" stroke="#4b58aa" stroke-width="1.5"/>
    </g>
  </g>
</svg>
