<svg xmlns="http://www.w3.org/2000/svg" width="124.822" height="141.646" viewBox="0 0 124.822 141.646">
  <g id="Group_4459" data-name="Group 4459" transform="translate(124.073 0.751) rotate(90)">
    <path id="Path_47121" data-name="Path 47121" d="M140.081,71.366a5.16,5.16,0,0,1-.134.95,11.922,11.922,0,0,1-.49,1.946c-.1.326-.208.638-.342.95a15.2,15.2,0,0,1-.861,1.8,2.691,2.691,0,0,1-.312.534,16.335,16.335,0,0,1-2.687,3.683c-1.352,1.4-2.7,2.792-4.069,4.187-3.8,3.907-7.664,7.782-11.523,11.643-2.837,2.851-5.673,5.7-8.48,8.582-.268.282-.55.55-.832.818a63.43,63.43,0,0,1-8.983,7.41,53.227,53.227,0,0,1-7.024,4.083c-1.6.772-3.239,1.455-4.9,2.079A55.209,55.209,0,0,1,73.1,123.235a57.741,57.741,0,0,1-22.617-2.985,41.831,41.831,0,0,1-12.369-7.008c-.474-.4-.934-.788-1.395-1.2-.06-.06-.15-.1-.208-.164-5.361-4.827-10.589-9.786-15.756-14.82q-4.231-4.144-8.4-8.316L4.461,80.856C1.4,77.768-.112,74.263.006,70.744a12.628,12.628,0,0,1,2.183-7.4C5.62,58.7,10.239,54.87,14.336,50.325l.194-.178-.016-.03a.1.1,0,0,0,.03-.044l.044.03.06.06a.486.486,0,0,0,.074.088l.016-.03a.477.477,0,0,0,.148-.148l.06-.06a.981.981,0,0,1-.12-.148l-.074.074c0-.03,0-.03-.014-.044l.1-.134,7.172-7.6,2.3-2.272c.49-.52.98-1.04,1.5-1.545.312-.326.624-.638.95-.95.564-.564,1.144-1.129,1.723-1.693,1.01-1.026,2.034-2.05,3.059-3.059q2.5-2.517,5.019-5.035c2.108-2.123,4.217-4.231,6.341-6.355q3.742-3.742,7.514-7.454l5.063-5.064c1.054-1.084,2.153-2.154,3.223-3.223C62.4,1.827,66.116,0,69.8,0c3.741,0,7.438,1.871,11.211,5.614,3.267,3.281,6.608,6.533,9.845,9.86,1.262,1.232,2.495,2.435,3.7,3.667.712.712,1.411,1.41,2.123,2.109.682.7,1.38,1.382,2.064,2.078l3.341,3.3.624.624,6.874,6.876a.3.3,0,0,1-.088.074l.134.134,3.325,3.311a.265.265,0,0,0,.06-.044l4.975,4.974-.03.03,3.653,3.579,4.721,4.737h.016c3.919,4.1,8.018,8.048,11.359,12.043A10.845,10.845,0,0,1,140.081,71.366Z" transform="translate(140.144 123.323) rotate(180)" fill="none" stroke="#4b58aa" stroke-width="1"/>
    <path id="Path_47120" data-name="Path 47120" d="M140.081,71.366a5.165,5.165,0,0,1-.134.95,11.922,11.922,0,0,1-.49,1.946c-.1.326-.208.638-.342.95a15.2,15.2,0,0,1-.86,1.8,2.684,2.684,0,0,1-.312.534,16.332,16.332,0,0,1-2.687,3.683c-1.352,1.4-2.7,2.792-4.069,4.187-3.8,3.907-7.664,7.782-11.523,11.643-2.837,2.851-5.673,5.7-8.48,8.582-.268.282-.55.55-.832.818a63.43,63.43,0,0,1-8.983,7.41,53.216,53.216,0,0,1-7.024,4.083c-1.6.772-3.238,1.455-4.9,2.079A55.217,55.217,0,0,1,73.1,123.235a57.739,57.739,0,0,1-22.617-2.985,41.83,41.83,0,0,1-12.369-7.008c-.474-.4-.934-.788-1.395-1.2-.06-.06-.15-.1-.208-.164-5.361-4.827-10.588-9.786-15.756-14.82q-4.231-4.144-8.4-8.316L4.461,80.856C1.4,77.768-.112,74.263.006,70.744a12.628,12.628,0,0,1,2.182-7.4C5.62,58.7,10.239,54.87,14.336,50.325l.194-.178-.016-.03a.1.1,0,0,0,.03-.044l.044.03.06.06a.487.487,0,0,0,.074.088l.016-.03a.475.475,0,0,0,.148-.148l.06-.06a.974.974,0,0,1-.12-.148l-.074.074c0-.03,0-.03-.014-.044l.1-.134,7.172-7.6,2.3-2.272c.49-.52.98-1.04,1.5-1.545.312-.326.624-.638.95-.95.564-.564,1.144-1.129,1.723-1.693,1.01-1.026,2.034-2.05,3.059-3.059q2.5-2.517,5.019-5.035c2.108-2.123,4.217-4.231,6.341-6.355q3.742-3.742,7.514-7.454l5.063-5.064c1.054-1.084,2.153-2.154,3.223-3.223C62.4,1.826,66.116,0,69.8,0c3.741,0,7.438,1.87,11.211,5.613,3.267,3.281,6.608,6.533,9.845,9.86,1.262,1.232,2.495,2.435,3.7,3.667.712.712,1.411,1.41,2.123,2.109.682.7,1.38,1.382,2.064,2.078l3.341,3.3.624.624,6.874,6.876a.3.3,0,0,1-.088.074l.134.134,3.325,3.311a.266.266,0,0,0,.06-.044l4.975,4.974-.03.03,3.653,3.579,4.721,4.737h.016c3.919,4.1,8.018,8.048,11.359,12.043A10.844,10.844,0,0,1,140.081,71.366Z" transform="translate(0 0)" fill="none" stroke="#4b58aa" stroke-width="1"/>
  </g>
</svg>
